<?xml version="1.0" encoding="UTF-8"?><svg id="detail" xmlns="http://www.w3.org/2000/svg" viewBox="0 0 1510.28 1506.51"><defs><style>.cls-1{fill:#222;}</style></defs><g id="details"><g><circle class="cls-1" cx="375.6" cy="875.49" r="2.43"/><circle class="cls-1" cx="349.1" cy="875.49" r="2.43"/><circle class="cls-1" cx="322.6" cy="875.49" r="2.43"/><circle class="cls-1" cx="296.1" cy="875.49" r="2.43"/><circle class="cls-1" cx="269.6" cy="875.49" r="2.43"/><circle class="cls-1" cx="243.1" cy="875.49" r="2.43"/><circle class="cls-1" cx="216.6" cy="875.49" r="2.43"/><circle class="cls-1" cx="190.1" cy="875.49" r="2.43"/><circle class="cls-1" cx="163.6" cy="875.49" r="2.43"/><circle class="cls-1" cx="375.6" cy="848.99" r="2.43"/><circle class="cls-1" cx="349.1" cy="848.99" r="2.43"/><circle class="cls-1" cx="322.6" cy="848.99" r="2.43"/><circle class="cls-1" cx="296.1" cy="848.99" r="2.43"/><circle class="cls-1" cx="269.6" cy="848.99" r="2.43"/><circle class="cls-1" cx="243.1" cy="848.99" r="2.43"/><circle class="cls-1" cx="216.6" cy="848.99" r="2.43"/><circle class="cls-1" cx="190.1" cy="848.99" r="2.43"/><circle class="cls-1" cx="163.6" cy="848.99" r="2.43"/><circle class="cls-1" cx="375.6" cy="822.49" r="2.43"/><circle class="cls-1" cx="349.1" cy="822.49" r="2.43"/><circle class="cls-1" cx="322.6" cy="822.49" r="2.43"/><circle class="cls-1" cx="296.1" cy="822.49" r="2.43"/><circle class="cls-1" cx="269.6" cy="822.49" r="2.43"/><circle class="cls-1" cx="243.1" cy="822.49" r="2.43"/><circle class="cls-1" cx="216.6" cy="822.49" r="2.43"/><circle class="cls-1" cx="190.1" cy="822.49" r="2.43"/><circle class="cls-1" cx="163.6" cy="822.49" r="2.43"/><circle class="cls-1" cx="375.6" cy="795.99" r="2.43"/><circle class="cls-1" cx="349.1" cy="795.99" r="2.43"/><circle class="cls-1" cx="322.6" cy="795.99" r="2.43"/><circle class="cls-1" cx="296.1" cy="795.99" r="2.43"/><circle class="cls-1" cx="269.6" cy="795.99" r="2.43"/><circle class="cls-1" cx="243.1" cy="795.99" r="2.43"/><circle class="cls-1" cx="216.6" cy="795.99" r="2.43"/><circle class="cls-1" cx="190.1" cy="795.99" r="2.43"/><circle class="cls-1" cx="163.6" cy="795.99" r="2.43"/><circle class="cls-1" cx="375.6" cy="769.49" r="2.43"/><circle class="cls-1" cx="349.1" cy="769.49" r="2.43"/><circle class="cls-1" cx="322.6" cy="769.49" r="2.43"/><circle class="cls-1" cx="296.1" cy="769.49" r="2.43"/><circle class="cls-1" cx="269.6" cy="769.49" r="2.43"/><circle class="cls-1" cx="243.1" cy="769.49" r="2.43"/><circle class="cls-1" cx="216.6" cy="769.49" r="2.43"/><circle class="cls-1" cx="190.1" cy="769.49" r="2.43"/><circle class="cls-1" cx="163.6" cy="769.49" r="2.43"/><circle class="cls-1" cx="375.6" cy="742.99" r="2.43"/><circle class="cls-1" cx="349.1" cy="742.99" r="2.43"/><circle class="cls-1" cx="322.6" cy="742.99" r="2.43"/><circle class="cls-1" cx="296.1" cy="742.99" r="2.43"/><circle class="cls-1" cx="269.6" cy="742.99" r="2.43"/><circle class="cls-1" cx="243.1" cy="742.99" r="2.43"/><circle class="cls-1" cx="216.6" cy="742.99" r="2.43"/><circle class="cls-1" cx="190.1" cy="742.99" r="2.43"/><circle class="cls-1" cx="163.6" cy="742.99" r="2.43"/><circle class="cls-1" cx="375.6" cy="716.5" r="2.43"/><circle class="cls-1" cx="349.1" cy="716.5" r="2.43"/><circle class="cls-1" cx="322.6" cy="716.5" r="2.43"/><circle class="cls-1" cx="296.1" cy="716.5" r="2.43"/><circle class="cls-1" cx="269.6" cy="716.5" r="2.43"/><circle class="cls-1" cx="243.1" cy="716.5" r="2.43"/><circle class="cls-1" cx="216.6" cy="716.5" r="2.43"/><circle class="cls-1" cx="190.1" cy="716.5" r="2.43"/><circle class="cls-1" cx="163.6" cy="716.5" r="2.43"/><circle class="cls-1" cx="375.6" cy="690" r="2.43"/><circle class="cls-1" cx="349.1" cy="690" r="2.43"/><circle class="cls-1" cx="322.6" cy="690" r="2.43"/><circle class="cls-1" cx="296.1" cy="690" r="2.43"/><circle class="cls-1" cx="269.6" cy="690" r="2.43"/><circle class="cls-1" cx="243.1" cy="690" r="2.43"/><circle class="cls-1" cx="216.6" cy="690" r="2.43"/><circle class="cls-1" cx="190.1" cy="690" r="2.43"/><circle class="cls-1" cx="163.6" cy="690" r="2.43"/><circle class="cls-1" cx="375.6" cy="663.5" r="2.43"/><circle class="cls-1" cx="349.1" cy="663.5" r="2.43"/><circle class="cls-1" cx="322.6" cy="663.5" r="2.43"/><circle class="cls-1" cx="296.1" cy="663.5" r="2.43"/><circle class="cls-1" cx="269.6" cy="663.5" r="2.43"/><circle class="cls-1" cx="243.1" cy="663.5" r="2.43"/><circle class="cls-1" cx="216.6" cy="663.5" r="2.43"/><circle class="cls-1" cx="190.1" cy="663.5" r="2.43"/><circle class="cls-1" cx="163.6" cy="663.5" r="2.43"/><circle class="cls-1" cx="375.6" cy="637" r="2.43"/><circle class="cls-1" cx="349.1" cy="637" r="2.43"/><circle class="cls-1" cx="322.6" cy="637" r="2.43"/><circle class="cls-1" cx="296.1" cy="637" r="2.43"/><circle class="cls-1" cx="269.6" cy="637" r="2.43"/><circle class="cls-1" cx="243.1" cy="637" r="2.43"/><circle class="cls-1" cx="216.6" cy="637" r="2.43"/><circle class="cls-1" cx="190.1" cy="637" r="2.43"/><circle class="cls-1" cx="163.6" cy="637" r="2.43"/></g><g><circle class="cls-1" cx="867.44" cy="1363.39" r="2.43"/><circle class="cls-1" cx="840.94" cy="1363.39" r="2.43"/><circle class="cls-1" cx="814.44" cy="1363.39" r="2.43"/><circle class="cls-1" cx="787.94" cy="1363.39" r="2.43"/><circle class="cls-1" cx="761.44" cy="1363.39" r="2.43"/><circle class="cls-1" cx="734.94" cy="1363.39" r="2.43"/><circle class="cls-1" cx="708.44" cy="1363.39" r="2.43"/><circle class="cls-1" cx="681.94" cy="1363.39" r="2.43"/><circle class="cls-1" cx="655.44" cy="1363.39" r="2.43"/><circle class="cls-1" cx="867.44" cy="1336.9" r="2.43"/><circle class="cls-1" cx="840.94" cy="1336.9" r="2.43"/><circle class="cls-1" cx="814.44" cy="1336.9" r="2.43"/><circle class="cls-1" cx="787.94" cy="1336.9" r="2.43"/><circle class="cls-1" cx="761.44" cy="1336.9" r="2.43"/><circle class="cls-1" cx="734.94" cy="1336.9" r="2.43"/><circle class="cls-1" cx="708.44" cy="1336.9" r="2.43"/><circle class="cls-1" cx="681.94" cy="1336.9" r="2.43"/><circle class="cls-1" cx="655.44" cy="1336.9" r="2.43"/><circle class="cls-1" cx="867.44" cy="1310.4" r="2.43"/><circle class="cls-1" cx="840.94" cy="1310.4" r="2.43"/><circle class="cls-1" cx="814.44" cy="1310.4" r="2.43"/><circle class="cls-1" cx="787.94" cy="1310.4" r="2.43"/><circle class="cls-1" cx="761.44" cy="1310.4" r="2.43"/><circle class="cls-1" cx="734.94" cy="1310.4" r="2.43"/><circle class="cls-1" cx="708.44" cy="1310.4" r="2.43"/><circle class="cls-1" cx="681.94" cy="1310.4" r="2.43"/><circle class="cls-1" cx="655.44" cy="1310.4" r="2.43"/><circle class="cls-1" cx="867.44" cy="1283.9" r="2.43"/><circle class="cls-1" cx="840.94" cy="1283.9" r="2.43"/><circle class="cls-1" cx="814.44" cy="1283.9" r="2.43"/><circle class="cls-1" cx="787.94" cy="1283.9" r="2.43"/><circle class="cls-1" cx="761.44" cy="1283.9" r="2.43"/><circle class="cls-1" cx="734.94" cy="1283.9" r="2.43"/><circle class="cls-1" cx="708.44" cy="1283.9" r="2.43"/><circle class="cls-1" cx="681.94" cy="1283.9" r="2.43"/><circle class="cls-1" cx="655.44" cy="1283.9" r="2.43"/><circle class="cls-1" cx="867.44" cy="1257.4" r="2.43"/><circle class="cls-1" cx="840.94" cy="1257.4" r="2.43"/><circle class="cls-1" cx="814.44" cy="1257.4" r="2.43"/><circle class="cls-1" cx="787.94" cy="1257.4" r="2.43"/><circle class="cls-1" cx="761.44" cy="1257.4" r="2.43"/><circle class="cls-1" cx="734.94" cy="1257.4" r="2.43"/><circle class="cls-1" cx="708.44" cy="1257.4" r="2.43"/><circle class="cls-1" cx="681.94" cy="1257.4" r="2.43"/><circle class="cls-1" cx="655.44" cy="1257.4" r="2.43"/><circle class="cls-1" cx="867.44" cy="1230.9" r="2.43"/><circle class="cls-1" cx="840.94" cy="1230.9" r="2.43"/><circle class="cls-1" cx="814.44" cy="1230.9" r="2.43"/><circle class="cls-1" cx="787.94" cy="1230.9" r="2.43"/><circle class="cls-1" cx="761.44" cy="1230.9" r="2.43"/><circle class="cls-1" cx="734.94" cy="1230.9" r="2.43"/><circle class="cls-1" cx="708.44" cy="1230.9" r="2.43"/><circle class="cls-1" cx="681.94" cy="1230.9" r="2.43"/><circle class="cls-1" cx="655.44" cy="1230.9" r="2.43"/><circle class="cls-1" cx="867.44" cy="1204.4" r="2.43"/><circle class="cls-1" cx="840.94" cy="1204.4" r="2.43"/><circle class="cls-1" cx="814.44" cy="1204.4" r="2.43"/><circle class="cls-1" cx="787.94" cy="1204.4" r="2.43"/><circle class="cls-1" cx="761.44" cy="1204.4" r="2.43"/><circle class="cls-1" cx="734.94" cy="1204.4" r="2.43"/><circle class="cls-1" cx="708.44" cy="1204.4" r="2.43"/><circle class="cls-1" cx="681.94" cy="1204.4" r="2.43"/><circle class="cls-1" cx="655.44" cy="1204.4" r="2.43"/><circle class="cls-1" cx="867.44" cy="1177.9" r="2.43"/><circle class="cls-1" cx="840.94" cy="1177.9" r="2.43"/><circle class="cls-1" cx="814.44" cy="1177.9" r="2.43"/><circle class="cls-1" cx="787.94" cy="1177.9" r="2.43"/><circle class="cls-1" cx="761.44" cy="1177.9" r="2.43"/><circle class="cls-1" cx="734.94" cy="1177.9" r="2.43"/><circle class="cls-1" cx="708.44" cy="1177.9" r="2.43"/><circle class="cls-1" cx="681.94" cy="1177.9" r="2.43"/><circle class="cls-1" cx="655.44" cy="1177.9" r="2.43"/><circle class="cls-1" cx="867.44" cy="1151.4" r="2.43"/><circle class="cls-1" cx="840.94" cy="1151.4" r="2.43"/><circle class="cls-1" cx="814.44" cy="1151.4" r="2.43"/><circle class="cls-1" cx="787.94" cy="1151.4" r="2.43"/><circle class="cls-1" cx="761.44" cy="1151.4" r="2.43"/><circle class="cls-1" cx="734.94" cy="1151.4" r="2.43"/><circle class="cls-1" cx="708.44" cy="1151.4" r="2.43"/><circle class="cls-1" cx="681.94" cy="1151.4" r="2.43"/><circle class="cls-1" cx="655.44" cy="1151.4" r="2.43"/><circle class="cls-1" cx="867.44" cy="1124.9" r="2.43"/><circle class="cls-1" cx="840.94" cy="1124.9" r="2.43"/><circle class="cls-1" cx="681.94" cy="1124.9" r="2.43"/><circle class="cls-1" cx="655.44" cy="1124.9" r="2.43"/></g><g><circle class="cls-1" cx="761.44" cy="407.41" r="2.43"/><circle class="cls-1" cx="867.44" cy="380.91" r="2.43"/><circle class="cls-1" cx="840.94" cy="380.91" r="2.43"/><circle class="cls-1" cx="681.94" cy="380.91" r="2.43"/><circle class="cls-1" cx="655.44" cy="380.91" r="2.43"/><circle class="cls-1" cx="867.44" cy="354.41" r="2.43"/><circle class="cls-1" cx="840.94" cy="354.41" r="2.43"/><circle class="cls-1" cx="814.44" cy="354.41" r="2.43"/><circle class="cls-1" cx="787.94" cy="354.41" r="2.43"/><circle class="cls-1" cx="761.44" cy="354.41" r="2.43"/><circle class="cls-1" cx="734.94" cy="354.41" r="2.43"/><circle class="cls-1" cx="708.44" cy="354.41" r="2.43"/><circle class="cls-1" cx="681.94" cy="354.41" r="2.43"/><circle class="cls-1" cx="655.44" cy="354.41" r="2.43"/><circle class="cls-1" cx="867.44" cy="327.91" r="2.43"/><circle class="cls-1" cx="840.94" cy="327.91" r="2.43"/><circle class="cls-1" cx="814.44" cy="327.91" r="2.43"/><circle class="cls-1" cx="787.94" cy="327.91" r="2.43"/><circle class="cls-1" cx="761.44" cy="327.91" r="2.43"/><circle class="cls-1" cx="734.94" cy="327.91" r="2.43"/><circle class="cls-1" cx="708.44" cy="327.91" r="2.43"/><circle class="cls-1" cx="681.94" cy="327.91" r="2.43"/><circle class="cls-1" cx="655.44" cy="327.91" r="2.43"/><circle class="cls-1" cx="867.44" cy="301.41" r="2.43"/><circle class="cls-1" cx="840.94" cy="301.41" r="2.43"/><circle class="cls-1" cx="814.44" cy="301.41" r="2.43"/><circle class="cls-1" cx="787.94" cy="301.41" r="2.43"/><circle class="cls-1" cx="761.44" cy="301.41" r="2.43"/><circle class="cls-1" cx="734.94" cy="301.41" r="2.43"/><circle class="cls-1" cx="708.44" cy="301.41" r="2.43"/><circle class="cls-1" cx="681.94" cy="301.41" r="2.43"/><circle class="cls-1" cx="655.44" cy="301.41" r="2.43"/><circle class="cls-1" cx="867.44" cy="274.91" r="2.43"/><circle class="cls-1" cx="840.94" cy="274.91" r="2.43"/><circle class="cls-1" cx="814.44" cy="274.91" r="2.43"/><circle class="cls-1" cx="787.94" cy="274.91" r="2.43"/><circle class="cls-1" cx="761.44" cy="274.91" r="2.43"/><circle class="cls-1" cx="734.94" cy="274.91" r="2.43"/><circle class="cls-1" cx="708.44" cy="274.91" r="2.43"/><circle class="cls-1" cx="681.94" cy="274.91" r="2.43"/><circle class="cls-1" cx="655.44" cy="274.91" r="2.43"/><circle class="cls-1" cx="867.44" cy="248.41" r="2.43"/><circle class="cls-1" cx="840.94" cy="248.41" r="2.43"/><circle class="cls-1" cx="814.44" cy="248.41" r="2.43"/><circle class="cls-1" cx="787.94" cy="248.41" r="2.43"/><circle class="cls-1" cx="761.44" cy="248.41" r="2.43"/><circle class="cls-1" cx="734.94" cy="248.41" r="2.43"/><circle class="cls-1" cx="708.44" cy="248.41" r="2.43"/><circle class="cls-1" cx="681.94" cy="248.41" r="2.43"/><circle class="cls-1" cx="655.44" cy="248.41" r="2.43"/><circle class="cls-1" cx="867.44" cy="221.91" r="2.43"/><circle class="cls-1" cx="840.94" cy="221.91" r="2.43"/><circle class="cls-1" cx="814.44" cy="221.91" r="2.43"/><circle class="cls-1" cx="787.94" cy="221.91" r="2.43"/><circle class="cls-1" cx="761.44" cy="221.91" r="2.43"/><circle class="cls-1" cx="734.94" cy="221.91" r="2.43"/><circle class="cls-1" cx="708.44" cy="221.91" r="2.43"/><circle class="cls-1" cx="681.94" cy="221.91" r="2.43"/><circle class="cls-1" cx="655.44" cy="221.91" r="2.43"/><circle class="cls-1" cx="867.44" cy="195.41" r="2.43"/><circle class="cls-1" cx="840.94" cy="195.41" r="2.43"/><circle class="cls-1" cx="814.44" cy="195.41" r="2.43"/><circle class="cls-1" cx="787.94" cy="195.41" r="2.43"/><circle class="cls-1" cx="761.44" cy="195.41" r="2.43"/><circle class="cls-1" cx="734.94" cy="195.41" r="2.43"/><circle class="cls-1" cx="708.44" cy="195.41" r="2.43"/><circle class="cls-1" cx="681.94" cy="195.41" r="2.43"/><circle class="cls-1" cx="655.44" cy="195.41" r="2.43"/><circle class="cls-1" cx="867.44" cy="168.91" r="2.43"/><circle class="cls-1" cx="840.94" cy="168.91" r="2.43"/><circle class="cls-1" cx="814.44" cy="168.91" r="2.43"/><circle class="cls-1" cx="787.94" cy="168.91" r="2.43"/><circle class="cls-1" cx="761.44" cy="168.91" r="2.43"/><circle class="cls-1" cx="734.94" cy="168.91" r="2.43"/><circle class="cls-1" cx="708.44" cy="168.91" r="2.43"/><circle class="cls-1" cx="681.94" cy="168.91" r="2.43"/><circle class="cls-1" cx="655.44" cy="168.91" r="2.43"/></g><g><circle class="cls-1" cx="1368.2" cy="875.49" r="2.43"/><circle class="cls-1" cx="1341.7" cy="875.49" r="2.43"/><circle class="cls-1" cx="1315.2" cy="875.49" r="2.43"/><circle class="cls-1" cx="1288.7" cy="875.49" r="2.43"/><circle class="cls-1" cx="1262.2" cy="875.49" r="2.43"/><circle class="cls-1" cx="1235.7" cy="875.49" r="2.43"/><circle class="cls-1" cx="1209.2" cy="875.49" r="2.43"/><circle class="cls-1" cx="1182.7" cy="875.49" r="2.43"/><circle class="cls-1" cx="1156.2" cy="875.49" r="2.43"/><circle class="cls-1" cx="1368.2" cy="848.99" r="2.43"/><circle class="cls-1" cx="1341.7" cy="848.99" r="2.43"/><circle class="cls-1" cx="1315.2" cy="848.99" r="2.43"/><circle class="cls-1" cx="1288.7" cy="848.99" r="2.43"/><circle class="cls-1" cx="1262.2" cy="848.99" r="2.43"/><circle class="cls-1" cx="1235.7" cy="848.99" r="2.43"/><circle class="cls-1" cx="1209.2" cy="848.99" r="2.43"/><circle class="cls-1" cx="1182.7" cy="848.99" r="2.43"/><circle class="cls-1" cx="1156.2" cy="848.99" r="2.43"/><circle class="cls-1" cx="1368.2" cy="822.49" r="2.43"/><circle class="cls-1" cx="1341.7" cy="822.49" r="2.43"/><circle class="cls-1" cx="1315.2" cy="822.49" r="2.43"/><circle class="cls-1" cx="1288.7" cy="822.49" r="2.43"/><circle class="cls-1" cx="1262.2" cy="822.49" r="2.43"/><circle class="cls-1" cx="1235.7" cy="822.49" r="2.43"/><circle class="cls-1" cx="1209.2" cy="822.49" r="2.43"/><circle class="cls-1" cx="1182.7" cy="822.49" r="2.43"/><circle class="cls-1" cx="1156.2" cy="822.49" r="2.43"/><circle class="cls-1" cx="1368.2" cy="795.99" r="2.43"/><circle class="cls-1" cx="1341.7" cy="795.99" r="2.43"/><circle class="cls-1" cx="1315.2" cy="795.99" r="2.43"/><circle class="cls-1" cx="1288.7" cy="795.99" r="2.43"/><circle class="cls-1" cx="1262.2" cy="795.99" r="2.43"/><circle class="cls-1" cx="1235.7" cy="795.99" r="2.43"/><circle class="cls-1" cx="1209.2" cy="795.99" r="2.43"/><circle class="cls-1" cx="1182.7" cy="795.99" r="2.43"/><circle class="cls-1" cx="1156.2" cy="795.99" r="2.43"/><circle class="cls-1" cx="1368.2" cy="769.49" r="2.43"/><circle class="cls-1" cx="1341.7" cy="769.49" r="2.43"/><circle class="cls-1" cx="1315.2" cy="769.49" r="2.43"/><circle class="cls-1" cx="1288.7" cy="769.49" r="2.43"/><circle class="cls-1" cx="1262.2" cy="769.49" r="2.43"/><circle class="cls-1" cx="1235.7" cy="769.49" r="2.43"/><circle class="cls-1" cx="1209.2" cy="769.49" r="2.43"/><circle class="cls-1" cx="1182.7" cy="769.49" r="2.43"/><circle class="cls-1" cx="1156.2" cy="769.49" r="2.43"/><circle class="cls-1" cx="1368.2" cy="742.99" r="2.43"/><circle class="cls-1" cx="1341.7" cy="742.99" r="2.43"/><circle class="cls-1" cx="1315.2" cy="742.99" r="2.43"/><circle class="cls-1" cx="1288.7" cy="742.99" r="2.43"/><circle class="cls-1" cx="1262.2" cy="742.99" r="2.43"/><circle class="cls-1" cx="1235.7" cy="742.99" r="2.43"/><circle class="cls-1" cx="1209.2" cy="742.99" r="2.43"/><circle class="cls-1" cx="1182.7" cy="742.99" r="2.43"/><circle class="cls-1" cx="1156.2" cy="742.99" r="2.43"/><circle class="cls-1" cx="1368.2" cy="716.5" r="2.43"/><circle class="cls-1" cx="1341.7" cy="716.5" r="2.43"/><circle class="cls-1" cx="1315.2" cy="716.5" r="2.43"/><circle class="cls-1" cx="1288.7" cy="716.5" r="2.43"/><circle class="cls-1" cx="1262.2" cy="716.5" r="2.43"/><circle class="cls-1" cx="1235.7" cy="716.5" r="2.43"/><circle class="cls-1" cx="1209.2" cy="716.5" r="2.43"/><circle class="cls-1" cx="1182.7" cy="716.5" r="2.43"/><circle class="cls-1" cx="1156.2" cy="716.5" r="2.43"/><circle class="cls-1" cx="1368.2" cy="690" r="2.43"/><circle class="cls-1" cx="1341.7" cy="690" r="2.43"/><circle class="cls-1" cx="1315.2" cy="690" r="2.43"/><circle class="cls-1" cx="1288.7" cy="690" r="2.43"/><circle class="cls-1" cx="1262.2" cy="690" r="2.43"/><circle class="cls-1" cx="1235.7" cy="690" r="2.43"/><circle class="cls-1" cx="1209.2" cy="690" r="2.43"/><circle class="cls-1" cx="1182.7" cy="690" r="2.43"/><circle class="cls-1" cx="1156.2" cy="690" r="2.43"/><circle class="cls-1" cx="1368.2" cy="663.5" r="2.43"/><circle class="cls-1" cx="1341.7" cy="663.5" r="2.43"/><circle class="cls-1" cx="1315.2" cy="663.5" r="2.43"/><circle class="cls-1" cx="1288.7" cy="663.5" r="2.43"/><circle class="cls-1" cx="1262.2" cy="663.5" r="2.43"/><circle class="cls-1" cx="1235.7" cy="663.5" r="2.43"/><circle class="cls-1" cx="1209.2" cy="663.5" r="2.43"/><circle class="cls-1" cx="1182.7" cy="663.5" r="2.43"/><circle class="cls-1" cx="1156.2" cy="663.5" r="2.43"/><circle class="cls-1" cx="1368.2" cy="637" r="2.43"/><circle class="cls-1" cx="1341.7" cy="637" r="2.43"/><circle class="cls-1" cx="1315.2" cy="637" r="2.43"/><circle class="cls-1" cx="1288.7" cy="637" r="2.43"/><circle class="cls-1" cx="1262.2" cy="637" r="2.43"/><circle class="cls-1" cx="1235.7" cy="637" r="2.43"/><circle class="cls-1" cx="1209.2" cy="637" r="2.43"/><circle class="cls-1" cx="1182.7" cy="637" r="2.43"/><circle class="cls-1" cx="1156.2" cy="637" r="2.43"/></g><path class="cls-1" d="m784.18,18.55c1.22,0,2.2-.99,2.2-2.21s-.99-2.2-2.2-2.2-2.2.99-2.2,2.2.99,2.21,2.2,2.21Zm28.38,1460.51c3.72,0,6.74-3.02,6.74-6.74s-3.02-6.74-6.74-6.74-6.74,3.02-6.74,6.74,3.02,6.74,6.74,6.74ZM685.03,17.11c-.75.47-1.51.94-2.25,1.42.06,0,.13.02.19.02.95,0,1.75-.6,2.06-1.44Zm84.69-13.34c1.04,0,1.88-.84,1.88-1.88s-.84-1.88-1.88-1.88-1.88.84-1.88,1.88.84,1.88,1.88,1.88Zm17.79,70.07c-.17-1.7-1.59-3.03-3.33-3.03-1.41,0-2.62.87-3.12,2.1-1.78.93-2.99,2.79-2.99,4.94,0,3.08,2.49,5.57,5.57,5.57s5.57-2.49,5.57-5.57c0-1.57-.65-2.99-1.7-4.01Zm-.45-15.2c-.44-1.17-1.56-2.01-2.88-2.01-1,0-1.89.49-2.45,1.23-2.29.79-3.94,2.97-3.94,5.53,0,3.23,2.62,5.85,5.85,5.85s5.85-2.62,5.85-5.85c0-1.95-.96-3.68-2.43-4.74Zm-2.88-25.36c1.37,0,2.49-1.11,2.49-2.49s-1.11-2.49-2.49-2.49-2.49,1.11-2.49,2.49,1.11,2.49,2.49,2.49Zm42.84,1431.03c2.86,0,5.28-1.86,6.13-4.44l-8.14-8.14c-2.58.85-4.44,3.27-4.44,6.13,0,3.56,2.89,6.45,6.45,6.45ZM769.72,33.29c1.37,0,2.49-1.11,2.49-2.49s-1.11-2.49-2.49-2.49-2.49,1.11-2.49,2.49,1.11,2.49,2.49,2.49Zm0,65.87c-2.17,0-3.93,1.76-3.93,3.93s1.76,3.93,3.93,3.93c.45,0,.88-.09,1.28-.23l2.42-2.42c.14-.4.23-.83.23-1.28,0-2.17-1.76-3.93-3.93-3.93Zm57.3,1366.42c-3.72,0-6.74,3.02-6.74,6.74s3.02,6.74,6.74,6.74,6.74-3.02,6.74-6.74-3.02-6.74-6.74-6.74Zm-42.84-1380.64c-1.85,0-3.36,1.36-3.63,3.14-1.3.96-2.15,2.48-2.15,4.22,0,1.92,1.05,3.59,2.59,4.5l7.16-7.16c-.1-.17-.2-.34-.32-.5.02-.17.05-.34.05-.51,0-2.04-1.65-3.69-3.69-3.69Zm-14.46-7.4c1.86,0,3.37-1.51,3.37-3.37s-1.51-3.37-3.37-3.37-3.37,1.51-3.37,3.37,1.51,3.37,3.37,3.37Zm0-29.48c1.55,0,2.81-1.26,2.81-2.81s-1.26-2.81-2.81-2.81-2.81,1.26-2.81,2.81,1.26,2.81,2.81,2.81Zm0,14.74c1.71,0,3.09-1.38,3.09-3.09s-1.38-3.09-3.09-3.09-3.09,1.38-3.09,3.09,1.38,3.09,3.09,3.09Zm14.46-14.74c1.55,0,2.81-1.26,2.81-2.81s-1.26-2.81-2.81-2.81-2.81,1.26-2.81,2.81,1.26,2.81,2.81,2.81Zm42.84-21.32c2.6,0,4.86-1.48,5.98-3.64-3.62-2.67-7.36-5.13-11.17-7.38-.96,1.16-1.54,2.66-1.54,4.29,0,3.72,3.02,6.74,6.74,6.74Zm-14.46,1.27c-3.56,0-6.45,2.89-6.45,6.45s2.89,6.46,6.45,6.46,6.45-2.89,6.45-6.46-2.89-6.45-6.45-6.45Zm0,29.52c-3.23,0-5.85,2.62-5.85,5.85,0,2.09,1.1,3.92,2.74,4.95l8.06-8.06c-1.04-1.65-2.86-2.74-4.95-2.74Zm-14.46-44.26c-3.72,0-6.74,3.02-6.74,6.74s3.02,6.74,6.74,6.74,6.74-3.02,6.74-6.74-3.02-6.74-6.74-6.74Zm25.6,40.81l8.47-8.47c-1.09-1.69-2.99-2.82-5.16-2.82-3.39,0-6.13,2.75-6.13,6.13,0,2.17,1.12,4.06,2.82,5.16Zm-39.52-50.32c1.04,0,1.88-.84,1.88-1.88,0-.26-.05-.5-.14-.72-.99-.24-1.99-.47-2.98-.69-.39.35-.64.84-.64,1.41,0,1.04.84,1.88,1.88,1.88Zm42.84,24.25c-3.56,0-6.45,2.89-6.45,6.45s2.89,6.46,6.45,6.46,6.45-2.89,6.45-6.46-2.89-6.45-6.45-6.45Zm-14.46,14.78c-3.39,0-6.13,2.75-6.13,6.13s2.75,6.13,6.13,6.13,6.13-2.75,6.13-6.13-2.75-6.13-6.13-6.13Zm-11.85.59c-.51-.57-1.25-.93-2.07-.93-.54,0-1.03.16-1.46.42-2.95.45-5.21,2.98-5.21,6.06,0,3.39,2.75,6.13,6.13,6.13s6.13-2.75,6.13-6.13c0-2.45-1.44-4.56-3.52-5.54Zm-2.61-15.37c-3.56,0-6.45,2.89-6.45,6.45s2.89,6.46,6.45,6.46,6.45-2.89,6.45-6.46-2.89-6.45-6.45-6.45Zm0,44.26c-3.08,0-5.57,2.5-5.57,5.57,0,2.01,1.07,3.77,2.67,4.75l7.65-7.65c-.98-1.6-2.74-2.67-4.75-2.67Zm3.42-13.63c-.44-1.17-1.56-2.01-2.88-2.01-1,0-1.89.49-2.45,1.23-2.29.79-3.94,2.97-3.94,5.53,0,3.23,2.62,5.85,5.85,5.85s5.85-2.62,5.85-5.85c0-1.95-.96-3.68-2.43-4.74Zm11.04-31.89c3.72,0,6.74-3.02,6.74-6.74s-3.02-6.74-6.74-6.74-6.74,3.02-6.74,6.74,3.02,6.74,6.74,6.74Zm0-14.14c.95,0,1.85-.19,2.67-.53-3.08-1.59-6.22-3.04-9.39-4.37.91,2.84,3.57,4.9,6.72,4.9Zm-14.46,0c3.28,0,6.03-2.24,6.82-5.28-4.35-1.79-8.78-3.33-13.27-4.64-.39.88-.61,1.84-.61,2.86,0,3.9,3.16,7.06,7.06,7.06Zm-28.38,5.94c1.22,0,2.21-.99,2.21-2.21s-.99-2.2-2.21-2.2-2.2.99-2.2,2.2.99,2.21,2.2,2.21Zm0,1396.24c-1.86,0-3.37,1.51-3.37,3.37s1.51,3.37,3.37,3.37,3.37-1.51,3.37-3.37-1.51-3.37-3.37-3.37Zm-14.46,14.74c-1.7,0-3.09,1.38-3.09,3.09s1.38,3.09,3.09,3.09,3.09-1.38,3.09-3.09-1.38-3.09-3.09-3.09Zm14.46-29.52c-2.04,0-3.69,1.65-3.69,3.69s1.65,3.69,3.69,3.69,3.69-1.65,3.69-3.69-1.65-3.69-3.69-3.69Zm-28.92,59.03c-1.37,0-2.49,1.11-2.49,2.49s1.11,2.49,2.49,2.49,2.49-1.11,2.49-2.49-1.11-2.49-2.49-2.49Zm28.92,44.26c-.89,0-1.6.72-1.6,1.6s.72,1.6,1.6,1.6,1.6-.72,1.6-1.6-.72-1.6-1.6-1.6Zm0-44.26c-1.37,0-2.49,1.11-2.49,2.49s1.11,2.49,2.49,2.49,2.49-1.11,2.49-2.49-1.11-2.49-2.49-2.49Zm0-14.78c-1.55,0-2.81,1.26-2.81,2.81s1.26,2.81,2.81,2.81,2.81-1.26,2.81-2.81-1.26-2.81-2.81-2.81Zm0,29.52c-1.22,0-2.2.99-2.2,2.21s.99,2.2,2.2,2.2,2.21-.99,2.21-2.2-.99-2.21-2.21-2.21Zm-14.46-29.52c-1.55,0-2.81,1.26-2.81,2.81s1.26,2.81,2.81,2.81,2.81-1.26,2.81-2.81-1.26-2.81-2.81-2.81Zm-14.46,44.3c-1.04,0-1.88.84-1.88,1.88s.84,1.88,1.88,1.88,1.88-.84,1.88-1.88-.84-1.88-1.88-1.88Zm0-14.78c-1.22,0-2.21.99-2.21,2.21s.99,2.2,2.21,2.2,2.21-.99,2.21-2.2-.99-2.21-2.21-2.21Zm0,29.52c-.89,0-1.6.72-1.6,1.6s.72,1.6,1.6,1.6,1.6-.72,1.6-1.6-.72-1.6-1.6-1.6Zm14.46-88.51c-1.86,0-3.37,1.51-3.37,3.37s1.51,3.37,3.37,3.37,3.37-1.51,3.37-3.37-1.51-3.37-3.37-3.37Zm0-14.78c-2.04,0-3.69,1.65-3.69,3.69s1.65,3.69,3.69,3.69,3.69-1.65,3.69-3.69-1.65-3.69-3.69-3.69Zm-12.43.61l-5.11,5.11c.66,1,1.79,1.66,3.08,1.66,2.04,0,3.69-1.65,3.69-3.69,0-1.29-.66-2.42-1.66-3.08Zm26.89,87.94c-1.04,0-1.88.84-1.88,1.88s.84,1.88,1.88,1.88,1.88-.84,1.88-1.88-.84-1.88-1.88-1.88Zm27.46-39.1c.43.26.92.42,1.46.42.83,0,1.56-.36,2.07-.93,2.08-.98,3.52-3.09,3.52-5.54,0-3.39-2.75-6.13-6.13-6.13s-6.13,2.75-6.13,6.13c0,3.07,2.26,5.61,5.21,6.06Zm.92,29.59c3.72,0,6.74-3.02,6.74-6.74s-3.02-6.74-6.74-6.74-6.74,3.02-6.74,6.74,3.02,6.74,6.74,6.74Zm0,14.78c3.9,0,7.06-3.16,7.06-7.06s-3.16-7.06-7.06-7.06-7.06,3.16-7.06,7.06,3.16,7.06,7.06,7.06Zm14.46-44.3c2.78,0,5.12-1.84,5.87-4.37l-7.63-7.63c-2.53.76-4.37,3.1-4.37,5.87,0,3.39,2.75,6.13,6.13,6.13Zm0,30.18c-3.9,0-7.06,3.16-7.06,7.06s3.16,7.06,7.06,7.06,7.06-3.16,7.06-7.06-3.16-7.06-7.06-7.06Zm0-15.41c3.56,0,6.45-2.89,6.45-6.45s-2.89-6.46-6.45-6.46-6.45,2.89-6.45,6.46,2.89,6.45,6.45,6.45Zm-16.37-29.84c.56.74,1.45,1.23,2.45,1.23,1.33,0,2.45-.84,2.88-2.01,1.07-.77,1.87-1.9,2.23-3.21l-7.17-7.17c-2.49.67-4.32,2.94-4.32,5.64,0,2.56,1.65,4.73,3.94,5.53Zm1.92,29.84c3.56,0,6.45-2.89,6.45-6.45s-2.89-6.46-6.45-6.46-6.45,2.89-6.45,6.46,2.89,6.45,6.45,6.45Zm-14.46-41.22c-3.23,0-5.85,2.62-5.85,5.85,0,2.56,1.65,4.73,3.94,5.53.56.74,1.45,1.23,2.45,1.23,1.33,0,2.45-.84,2.88-2.01,1.47-1.06,2.43-2.79,2.43-4.74,0-3.23-2.62-5.85-5.85-5.85Zm.54,21.17c-1.55,0-2.81,1.26-2.81,2.81s1.26,2.81,2.81,2.81,2.81-1.26,2.81-2.81-1.26-2.81-2.81-2.81Zm0,44.3c-1.04,0-1.88.84-1.88,1.88s.84,1.88,1.88,1.88,1.88-.84,1.88-1.88-.84-1.88-1.88-1.88Zm-3.12-69.14c.5,1.23,1.71,2.1,3.12,2.1,1.75,0,3.16-1.33,3.33-3.03.75-.72,1.29-1.66,1.54-2.71l-6.71-6.71c-2.45.59-4.27,2.78-4.27,5.41,0,2.15,1.21,4,2.99,4.94Zm3.12,83.88c-.89,0-1.6.72-1.6,1.6s.72,1.6,1.6,1.6,1.6-.72,1.6-1.6-.72-1.6-1.6-1.6Zm0-29.52c-1.22,0-2.2.99-2.2,2.21s.99,2.2,2.2,2.2,2.2-.99,2.2-2.2-.99-2.21-2.2-2.21Zm0-14.74c-1.37,0-2.49,1.11-2.49,2.49s1.11,2.49,2.49,2.49,2.49-1.11,2.49-2.49-1.11-2.49-2.49-2.49Zm-14.46-29.52c-1.7,0-3.09,1.38-3.09,3.09s1.38,3.09,3.09,3.09,3.09-1.38,3.09-3.09-1.38-3.09-3.09-3.09Zm699.24-620.06c-3.57,0-6.46,2.89-6.46,6.45s2.89,6.45,6.46,6.45,6.45-2.89,6.45-6.45-2.89-6.45-6.45-6.45Zm0-28.92c-3.57,0-6.46,2.89-6.46,6.45s2.89,6.45,6.46,6.45,6.45-2.89,6.45-6.45-2.89-6.45-6.45-6.45Zm3.67-77.27c1.37,0,2.49-1.11,2.49-2.49s-1.11-2.49-2.49-2.49-2.49,1.11-2.49,2.49,1.11,2.49,2.49,2.49Zm0-14.46c1.37,0,2.49-1.11,2.49-2.49s-1.11-2.49-2.49-2.49-2.49,1.11-2.49,2.49,1.11,2.49,2.49,2.49Zm10.79,120.36c-3.72,0-6.74,3.02-6.74,6.74s3.02,6.74,6.74,6.74,6.74-3.02,6.74-6.74-3.02-6.74-6.74-6.74Zm-14.46-14.18c-3.57,0-6.46,2.89-6.46,6.45s2.89,6.45,6.46,6.45,6.45-2.89,6.45-6.45-2.89-6.45-6.45-6.45Zm14.46-.28c-3.72,0-6.74,3.02-6.74,6.74s3.02,6.73,6.74,6.73,6.74-3.02,6.74-6.73-3.02-6.74-6.74-6.74Zm0-14.46c-3.72,0-6.74,3.02-6.74,6.74s3.02,6.74,6.74,6.74,6.74-3.02,6.74-6.74-3.02-6.74-6.74-6.74Zm-10.79-62.53c1.37,0,2.49-1.11,2.49-2.49s-1.11-2.49-2.49-2.49-2.49,1.11-2.49,2.49,1.11,2.49,2.49,2.49Zm0,14.46c1.37,0,2.49-1.11,2.49-2.49s-1.11-2.49-2.49-2.49-2.49,1.11-2.49,2.49,1.11,2.49,2.49,2.49Zm-15.15-43.15c.22.06.45.1.69.1,1.55,0,2.81-1.26,2.81-2.81,0-.24-.04-.47-.1-.69l-3.4,3.4Zm-2.98,106.28c-3.39,0-6.13,2.75-6.13,6.13s2.75,6.13,6.13,6.13,6.13-2.75,6.13-6.13-2.75-6.13-6.13-6.13Zm20.61-123.45c0-.15-.02-.29-.04-.43l-2.87,2.87c.14.02.28.04.43.04,1.37,0,2.49-1.11,2.49-2.49Zm-2.49,74.77c1.37,0,2.49-1.11,2.49-2.49s-1.11-2.49-2.49-2.49-2.49,1.11-2.49,2.49,1.11,2.49,2.49,2.49Zm0,28.92c1.37,0,2.49-1.11,2.49-2.49s-1.11-2.49-2.49-2.49-2.49,1.11-2.49,2.49,1.11,2.49,2.49,2.49Zm32.37,11.44c0,1.99.8,3.79,2.08,5.11,1.27-4.01,2.34-8.06,3.21-12.15-3.06.89-5.29,3.7-5.29,7.04Zm-17.91-112.92c.25,0,.49-.05.71-.13-.82-1.12-1.66-2.24-2.52-3.34-.25.36-.4.79-.4,1.26,0,1.22.99,2.21,2.21,2.21Zm14.46,28.59c.77,0,1.44-.47,1.73-1.14-.34-.84-.7-1.67-1.06-2.51-.21-.08-.43-.13-.67-.13-1.04,0-1.88.84-1.88,1.88s.84,1.88,1.88,1.88Zm-3.67,77.27c-3.9,0-7.06,3.16-7.06,7.06s3.16,7.06,7.06,7.06,7.06-3.16,7.06-7.06-3.16-7.06-7.06-7.06Zm3.67-19.44c1.04,0,1.88-.84,1.88-1.88s-.84-1.88-1.88-1.88-1.88.84-1.88,1.88.84,1.88,1.88,1.88Zm0,14.46c1.04,0,1.88-.84,1.88-1.88s-.84-1.88-1.88-1.88-1.88.84-1.88,1.88.84,1.88,1.88,1.88Zm0-43.37c1.04,0,1.88-.84,1.88-1.88s-.84-1.88-1.88-1.88-1.88.84-1.88,1.88.84,1.88,1.88,1.88Zm0,14.46c1.04,0,1.88-.84,1.88-1.88s-.84-1.88-1.88-1.88-1.88.84-1.88,1.88.84,1.88,1.88,1.88Zm0-28.92c1.04,0,1.88-.84,1.88-1.88s-.84-1.88-1.88-1.88-1.88.84-1.88,1.88.84,1.88,1.88,1.88Zm-14.46,14.78c1.22,0,2.2-.99,2.2-2.21s-.99-2.21-2.2-2.21-2.21.99-2.21,2.21.99,2.21,2.21,2.21Zm0-28.92c1.22,0,2.2-.99,2.2-2.2s-.99-2.21-2.2-2.21-2.21.99-2.21,2.21.99,2.2,2.21,2.2Zm0-14.46c1.22,0,2.2-.99,2.2-2.2s-.99-2.2-2.2-2.2-2.21.99-2.21,2.2.99,2.2,2.21,2.2Zm0,28.92c1.22,0,2.2-.99,2.2-2.2s-.99-2.2-2.2-2.2-2.21.99-2.21,2.2.99,2.2,2.21,2.2Zm0,28.92c1.22,0,2.2-.99,2.2-2.2s-.99-2.2-2.2-2.2-2.21.99-2.21,2.2.99,2.2,2.21,2.2Zm0,28.92c1.22,0,2.2-.99,2.2-2.2s-.99-2.2-2.2-2.2-2.21.99-2.21,2.2.99,2.2,2.21,2.2Zm0-14.46c1.22,0,2.2-.99,2.2-2.21s-.99-2.2-2.2-2.2-2.21.99-2.21,2.2.99,2.21,2.21,2.21Zm-32.59,48.96c-2.17,0-4.06,1.12-5.16,2.82l8.47,8.47c1.69-1.09,2.82-2.99,2.82-5.16,0-3.39-2.75-6.13-6.13-6.13Zm18.13-48.68c1.37,0,2.49-1.11,2.49-2.49s-1.11-2.49-2.49-2.49-2.49,1.11-2.49,2.49,1.11,2.49,2.49,2.49Zm-43.37-34.77c-1.86,0-3.37,1.51-3.37,3.37s1.51,3.37,3.37,3.37,3.37-1.51,3.37-3.37-1.51-3.37-3.37-3.37Zm-15.85,6.78c.43.18.9.28,1.4.28,2.04,0,3.69-1.65,3.69-3.69,0-.49-.1-.96-.28-1.4l-4.81,4.81Zm1.4,21.82c-2.04,0-3.69,1.65-3.69,3.69s1.65,3.69,3.69,3.69,3.69-1.65,3.69-3.69-1.65-3.69-3.69-3.69Zm14.46-14.14c-1.86,0-3.37,1.51-3.37,3.37s1.51,3.37,3.37,3.37,3.37-1.51,3.37-3.37-1.51-3.37-3.37-3.37Zm-13.91,28.65c-.96-1.3-2.48-2.15-4.22-2.15-1.92,0-3.59,1.05-4.5,2.59l7.16,7.16c.17-.1.34-.2.5-.32.17.02.34.05.51.05,2.04,0,3.69-1.65,3.69-3.69,0-1.85-1.36-3.36-3.14-3.63Zm10.24,11.98c-2.01,0-3.77,1.07-4.75,2.67l7.65,7.65c1.6-.98,2.67-2.74,2.67-4.75,0-3.08-2.5-5.57-5.57-5.57Zm3.67-26.18c-1.86,0-3.37,1.51-3.37,3.37s1.51,3.37,3.37,3.37,3.37-1.51,3.37-3.37-1.51-3.37-3.37-3.37Zm1.27,14.71c-.93-1.78-2.79-2.99-4.94-2.99-3.08,0-5.57,2.49-5.57,5.57s2.5,5.57,5.57,5.57c1.57,0,2.99-.65,4.01-1.7,1.7-.17,3.03-1.59,3.03-3.33,0-1.41-.87-2.62-2.1-3.12Zm60.3,45.95c0,2.29,1.11,4.31,2.8,5.59,2.45-3.98,4.68-8.06,6.67-12.22-.75-.28-1.57-.43-2.41-.43-3.9,0-7.06,3.16-7.06,7.06Zm7.06-21.51c-3.9,0-7.06,3.16-7.06,7.06s3.16,7.06,7.06,7.06c1.12,0,2.18-.27,3.12-.73,1.3-2.8,2.49-5.64,3.59-8.51-.92-2.83-3.57-4.87-6.71-4.87Zm-14.46,29.24c-3.72,0-6.74,3.02-6.74,6.73,0,3.38,2.49,6.17,5.73,6.65,2.55-3.04,4.93-6.16,7.16-9.36-1.04-2.37-3.41-4.02-6.16-4.02Zm-14.46.28c-2.25,0-4.24,1.16-5.39,2.91l8.94,8.94c1.75-1.15,2.91-3.14,2.91-5.39,0-3.56-2.89-6.45-6.45-6.45Zm-70.2-76.16c.48.21,1.02.34,1.58.34,2.17,0,3.93-1.76,3.93-3.93,0-.56-.12-1.09-.34-1.58l-5.17,5.17Zm16.04-7.28c-2.04,0-3.69,1.65-3.69,3.69s1.65,3.69,3.69,3.69,3.69-1.65,3.69-3.69-1.65-3.69-3.69-3.69Zm39.7,40.39c-3.39,0-6.13,2.75-6.13,6.13s2.75,6.13,6.13,6.13c2.45,0,4.56-1.44,5.54-3.52.57-.51.93-1.25.93-2.07,0-.54-.16-1.03-.42-1.46-.45-2.95-2.98-5.21-6.06-5.21Zm-54.16-26.17c-2.17,0-3.93,1.76-3.93,3.93,0,.45.09.88.23,1.28l2.42,2.42c.4.14.83.23,1.28.23,2.17,0,3.93-1.76,3.93-3.93s-1.76-3.93-3.93-3.93Zm42.46-50.97c.29.09.6.15.92.15,1.71,0,3.09-1.38,3.09-3.09,0-.32-.06-.63-.15-.92l-3.85,3.85Zm15.37,23.18c-1.55,0-2.81,1.26-2.81,2.81s1.26,2.81,2.81,2.81,2.81-1.26,2.81-2.81-1.26-2.81-2.81-2.81Zm0-28.92c-1.55,0-2.81,1.26-2.81,2.81s1.26,2.81,2.81,2.81,2.81-1.26,2.81-2.81-1.26-2.81-2.81-2.81Zm0,14.46c-1.55,0-2.81,1.26-2.81,2.81s1.26,2.81,2.81,2.81,2.81-1.26,2.81-2.81-1.26-2.81-2.81-2.81Zm0,57.83c-1.55,0-2.81,1.26-2.81,2.81s1.26,2.81,2.81,2.81,2.81-1.26,2.81-2.81-1.26-2.81-2.81-2.81Zm0-28.92c-1.55,0-2.81,1.26-2.81,2.81s1.26,2.81,2.81,2.81,2.81-1.26,2.81-2.81-1.26-2.81-2.81-2.81Zm0,14.46c-1.55,0-2.81,1.26-2.81,2.81s1.26,2.81,2.81,2.81,2.81-1.26,2.81-2.81-1.26-2.81-2.81-2.81Zm-30.06-37.41c.36.13.74.21,1.14.21,1.86,0,3.37-1.51,3.37-3.37,0-.4-.08-.78-.21-1.14l-4.3,4.3Zm15.6,8.21c-1.7,0-3.09,1.38-3.09,3.09s1.38,3.09,3.09,3.09,3.09-1.38,3.09-3.09-1.38-3.09-3.09-3.09Zm1.86,58.47c-.79-2.29-2.97-3.94-5.53-3.94-3.23,0-5.85,2.62-5.85,5.85s2.62,5.85,5.85,5.85c1.95,0,3.68-.96,4.74-2.43,1.17-.44,2.01-1.56,2.01-2.88,0-1-.49-1.89-1.23-2.45Zm-1.86-72.92c-1.7,0-3.09,1.38-3.09,3.09s1.38,3.09,3.09,3.09,3.09-1.38,3.09-3.09-1.38-3.09-3.09-3.09Zm0,28.92c-1.7,0-3.09,1.38-3.09,3.09s1.38,3.09,3.09,3.09,3.09-1.38,3.09-3.09-1.38-3.09-3.09-3.09Zm-3.67,54.53c-2.09,0-3.92,1.1-4.95,2.74l8.06,8.06c1.65-1.04,2.74-2.86,2.74-4.95,0-3.23-2.62-5.85-5.85-5.85Zm5.53-24.98c-.79-2.29-2.96-3.94-5.53-3.94-3.23,0-5.85,2.62-5.85,5.85s2.62,5.85,5.85,5.85c1.95,0,3.68-.96,4.74-2.43,1.17-.44,2.01-1.56,2.01-2.88,0-1-.49-1.89-1.23-2.45Zm-1.86-15.09c-1.7,0-3.09,1.38-3.09,3.09s1.38,3.09,3.09,3.09,3.09-1.38,3.09-3.09-1.38-3.09-3.09-3.09ZM769.72,92.32c2.04,0,3.69-1.65,3.69-3.69s-1.65-3.69-3.69-3.69-3.69,1.65-3.69,3.69,1.65,3.69,3.69,3.69ZM99.72,762.31c2.04,0,3.69-1.65,3.69-3.69s-1.65-3.69-3.69-3.69-3.69,1.65-3.69,3.69,1.65,3.69,3.69,3.69Zm3.67,4.98c-1.74,0-3.27.85-4.22,2.15-1.77.27-3.14,1.79-3.14,3.63,0,2.04,1.65,3.69,3.69,3.69.18,0,.34-.03.51-.05.16.12.33.22.5.32l7.16-7.16c-.91-1.54-2.58-2.59-4.5-2.59Zm-72.29,12.97c-3.72,0-6.74,3.02-6.74,6.74s3.02,6.74,6.74,6.74,6.74-3.02,6.74-6.74-3.02-6.74-6.74-6.74Zm68.62-32.41c2.04,0,3.69-1.65,3.69-3.69s-1.65-3.69-3.69-3.69-3.69,1.65-3.69,3.69,1.65,3.69,3.69,3.69Zm-68.62,75.79c-2.48,0-4.64,1.34-5.81,3.33,2.45,3.36,5.08,6.63,7.89,9.8,2.7-.88,4.65-3.41,4.65-6.4,0-3.72-3.02-6.73-6.74-6.73ZM0,744.78c.08-.19.12-.4.12-.61,0-.17-.03-.33-.08-.48-.01.36-.03.73-.04,1.09Zm3.55,35.02c1.01,4.23,2.22,8.42,3.65,12.56,1.43-1.34,2.33-3.24,2.33-5.35,0-3.59-2.58-6.57-5.98-7.21Zm13.1,14.61c-3.2,0-5.89,2.13-6.76,5.04,1.17,2.84,2.44,5.65,3.81,8.42.9.41,1.89.65,2.95.65,3.9,0,7.06-3.16,7.06-7.06s-3.16-7.06-7.06-7.06Zm68.62-75.79c.86,0,1.63-.33,2.22-.86l-4.73-4.73c-.53.59-.86,1.37-.86,2.22,0,1.86,1.51,3.37,3.37,3.37Zm0,43.37c1.86,0,3.37-1.51,3.37-3.37s-1.51-3.37-3.37-3.37-3.37,1.51-3.37,3.37,1.51,3.37,3.37,3.37Zm0-28.92c1.86,0,3.37-1.51,3.37-3.37s-1.51-3.37-3.37-3.37-3.37,1.51-3.37,3.37,1.51,3.37,3.37,3.37Zm-68.62,46.87c-3.9,0-7.06,3.16-7.06,7.06s3.16,7.06,7.06,7.06,7.06-3.16,7.06-7.06-3.16-7.06-7.06-7.06Zm83.08-46.55c.94,0,1.8-.37,2.45-.95l-5.19-5.19c-.58.65-.95,1.5-.95,2.45,0,2.04,1.65,3.69,3.69,3.69Zm-10.79,33.58c-2.15,0-4,1.21-4.94,2.99-1.23.5-2.1,1.71-2.1,3.12,0,1.74,1.33,3.16,3.03,3.33,1.01,1.05,2.43,1.7,4.01,1.7,3.08,0,5.57-2.49,5.57-5.57s-2.49-5.57-5.57-5.57Zm0,14.46c-3.08,0-5.57,2.49-5.57,5.57,0,2.01,1.07,3.77,2.67,4.75l7.65-7.65c-.98-1.6-2.74-2.67-4.75-2.67Zm-3.67-33.9c1.86,0,3.37-1.51,3.37-3.37s-1.51-3.37-3.37-3.37-3.37,1.51-3.37,3.37,1.51,3.37,3.37,3.37Zm-54.16,47.19c-3.72,0-6.74,3.02-6.74,6.74s3.02,6.73,6.74,6.73,6.74-3.02,6.74-6.73-3.02-6.74-6.74-6.74Zm-3.67-120.64c1.22,0,2.21-.99,2.21-2.21s-.99-2.2-2.21-2.2-2.2.99-2.2,2.2.99,2.21,2.2,2.21Zm0,14.46c1.22,0,2.21-.99,2.21-2.2s-.99-2.2-2.21-2.2-2.2.99-2.2,2.2.99,2.2,2.2,2.2Zm0,28.92c1.22,0,2.21-.99,2.21-2.2s-.99-2.2-2.21-2.2-2.2.99-2.2,2.2.99,2.2,2.2,2.2Zm-14.46,57.51c1.04,0,1.88-.84,1.88-1.88s-.84-1.88-1.88-1.88-1.88.84-1.88,1.88.84,1.88,1.88,1.88Zm14.46.32c1.22,0,2.21-.99,2.21-2.2s-.99-2.2-2.21-2.2-2.2.99-2.2,2.2.99,2.2,2.2,2.2Zm0-28.92c1.22,0,2.21-.99,2.21-2.2s-.99-2.2-2.21-2.2-2.2.99-2.2,2.2.99,2.2,2.2,2.2Zm0-14.46c1.22,0,2.21-.99,2.21-2.21s-.99-2.21-2.21-2.21-2.2.99-2.2,2.21.99,2.21,2.2,2.21Zm0-28.92c1.22,0,2.21-.99,2.21-2.2s-.99-2.21-2.21-2.21-2.2.99-2.2,2.21.99,2.2,2.2,2.2Zm-14.46,43.05c1.04,0,1.88-.84,1.88-1.88s-.84-1.88-1.88-1.88-1.88.84-1.88,1.88.84,1.88,1.88,1.88Zm0-14.46c1.04,0,1.88-.84,1.88-1.88s-.84-1.88-1.88-1.88-1.88.84-1.88,1.88.84,1.88,1.88,1.88Zm0,28.92c1.04,0,1.88-.84,1.88-1.88s-.84-1.88-1.88-1.88-1.88.84-1.88,1.88.84,1.88,1.88,1.88Zm0-43.37c1.04,0,1.88-.84,1.88-1.88s-.84-1.88-1.88-1.88-1.88.84-1.88,1.88.84,1.88,1.88,1.88Zm18.13,92.05c-3.72,0-6.74,3.02-6.74,6.74s3.02,6.74,6.74,6.74,6.74-3.02,6.74-6.74-3.02-6.74-6.74-6.74Zm-18.13-106.51c1.04,0,1.88-.84,1.88-1.88s-.84-1.88-1.88-1.88-1.88.84-1.88,1.88.84,1.88,1.88,1.88Zm61.5,78.47c-2.56,0-4.73,1.65-5.53,3.94-.74.56-1.23,1.45-1.23,2.45,0,1.33.84,2.45,2.01,2.88,1.06,1.47,2.79,2.43,4.74,2.43,3.23,0,5.85-2.62,5.85-5.85s-2.62-5.85-5.85-5.85Zm-28.92,28.31c-3.56,0-6.45,2.89-6.45,6.45s2.89,6.45,6.45,6.45,6.46-2.89,6.46-6.45-2.89-6.45-6.46-6.45Zm-3.67-120.64c1.37,0,2.49-1.11,2.49-2.49s-1.11-2.49-2.49-2.49-2.49,1.11-2.49,2.49,1.11,2.49,2.49,2.49Zm0,28.92c1.37,0,2.49-1.11,2.49-2.49s-1.11-2.49-2.49-2.49-2.49,1.11-2.49,2.49,1.11,2.49,2.49,2.49Zm0-14.46c1.37,0,2.49-1.11,2.49-2.49s-1.11-2.49-2.49-2.49-2.49,1.11-2.49,2.49,1.11,2.49,2.49,2.49Zm3.67,91.73c-3.56,0-6.45,2.89-6.45,6.45s2.89,6.45,6.45,6.45,6.46-2.89,6.46-6.45-2.89-6.45-6.46-6.45Zm-3.67-62.81c1.37,0,2.49-1.11,2.49-2.49s-1.11-2.49-2.49-2.49-2.49,1.11-2.49,2.49,1.11,2.49,2.49,2.49Zm-14.46,28.63c1.22,0,2.21-.99,2.21-2.21s-.99-2.2-2.21-2.2-2.2.99-2.2,2.2.99,2.21,2.2,2.21Zm18.13,19.72c-3.56,0-6.45,2.89-6.45,6.45s2.89,6.45,6.45,6.45,6.46-2.89,6.46-6.45-2.89-6.45-6.46-6.45Zm-3.67-106.19c.61,0,1.17-.23,1.6-.6l-3.49-3.49c-.37.43-.6.99-.6,1.6,0,1.37,1.11,2.49,2.49,2.49Zm3.67,149.56c-3.56,0-6.45,2.89-6.45,6.45,0,2.25,1.16,4.24,2.91,5.39l8.94-8.94c-1.15-1.75-3.14-2.91-5.39-2.91Zm68.62-69.23c-2.17,0-3.93,1.76-3.93,3.93s1.76,3.93,3.93,3.93c.45,0,.88-.09,1.28-.23l2.42-2.42c.14-.4.23-.83.23-1.28,0-2.17-1.76-3.93-3.93-3.93Zm0-6.6c1.01,0,1.92-.39,2.62-1.02l-5.53-5.53c-.63.7-1.02,1.61-1.02,2.62,0,2.17,1.76,3.93,3.93,3.93Zm-72.29,27.47c1.37,0,2.49-1.11,2.49-2.49s-1.11-2.49-2.49-2.49-2.49,1.11-2.49,2.49,1.11,2.49,2.49,2.49Zm0-14.46c1.37,0,2.49-1.11,2.49-2.49s-1.11-2.49-2.49-2.49-2.49,1.11-2.49,2.49,1.11,2.49,2.49,2.49Zm14.46-71.97c.7,0,1.33-.27,1.83-.69l-3.94-3.94c-.42.49-.69,1.12-.69,1.83,0,1.55,1.26,2.81,2.81,2.81Zm-14.46,57.51c1.37,0,2.49-1.11,2.49-2.49s-1.11-2.49-2.49-2.49-2.49,1.11-2.49,2.49,1.11,2.49,2.49,2.49Zm32.59,20.04c-2.56,0-4.73,1.65-5.53,3.94-.74.56-1.23,1.45-1.23,2.45,0,1.33.84,2.45,2.01,2.88,1.06,1.47,2.79,2.43,4.74,2.43,3.23,0,5.85-2.62,5.85-5.85s-2.62-5.85-5.85-5.85Zm-3.67-19.44c1.7,0,3.09-1.38,3.09-3.09s-1.38-3.09-3.09-3.09-3.09,1.38-3.09,3.09,1.38,3.09,3.09,3.09Zm0,14.46c1.7,0,3.09-1.38,3.09-3.09s-1.38-3.09-3.09-3.09-3.09,1.38-3.09,3.09,1.38,3.09,3.09,3.09Zm0-57.83c.78,0,1.48-.3,2.02-.77l-4.34-4.34c-.48.54-.77,1.25-.77,2.02,0,1.7,1.38,3.09,3.09,3.09Zm-10.79,91.45c-3.39,0-6.13,2.75-6.13,6.13s2.75,6.13,6.13,6.13,6.13-2.75,6.13-6.13-2.75-6.13-6.13-6.13Zm10.79-76.99c1.7,0,3.09-1.38,3.09-3.09s-1.38-3.09-3.09-3.09-3.09,1.38-3.09,3.09,1.38,3.09,3.09,3.09Zm3.67,77.27c-3.23,0-5.85,2.62-5.85,5.85,0,2.09,1.1,3.92,2.74,4.95l8.06-8.06c-1.04-1.65-2.86-2.74-4.95-2.74Zm-3.67-62.81c1.7,0,3.09-1.38,3.09-3.09s-1.38-3.09-3.09-3.09-3.09,1.38-3.09,3.09,1.38,3.09,3.09,3.09Zm-14.46,43.09c1.55,0,2.81-1.26,2.81-2.81s-1.26-2.81-2.81-2.81-2.81,1.26-2.81,2.81,1.26,2.81,2.81,2.81Zm0-43.37c1.55,0,2.81-1.26,2.81-2.81s-1.26-2.81-2.81-2.81-2.81,1.26-2.81,2.81,1.26,2.81,2.81,2.81Zm3.67,77.27c-3.39,0-6.13,2.75-6.13,6.13,0,2.17,1.12,4.06,2.82,5.16l8.47-8.47c-1.09-1.69-2.99-2.82-5.16-2.82Zm-3.67-48.36c1.55,0,2.81-1.26,2.81-2.81s-1.26-2.81-2.81-2.81-2.81,1.26-2.81,2.81,1.26,2.81,2.81,2.81Zm0-14.46c1.55,0,2.81-1.26,2.81-2.81s-1.26-2.81-2.81-2.81-2.81,1.26-2.81,2.81,1.26,2.81,2.81,2.81Zm3.67,33.9c-3.07,0-5.61,2.26-6.06,5.21-.26.43-.42.92-.42,1.46,0,.83.36,1.56.93,2.07.98,2.08,3.09,3.52,5.54,3.52,3.39,0,6.13-2.75,6.13-6.13s-2.75-6.13-6.13-6.13Zm-3.67-77.27c1.55,0,2.81-1.26,2.81-2.81s-1.26-2.81-2.81-2.81-2.81,1.26-2.81,2.81,1.26,2.81,2.81,2.81Zm0,14.46c1.55,0,2.81-1.26,2.81-2.81s-1.26-2.81-2.81-2.81-2.81,1.26-2.81,2.81,1.26,2.81,2.81,2.81Zm655.54,755.72c-1.22,0-2.21.99-2.21,2.21s.99,2.2,2.21,2.2,2.21-.99,2.21-2.2-.99-2.21-2.21-2.21Zm-28.92,0c-1.22,0-2.2.99-2.2,2.21s.99,2.2,2.2,2.2,2.21-.99,2.21-2.2-.99-2.21-2.21-2.21Zm28.92-1417.15c-1.71,0-3.09,1.38-3.09,3.09s1.38,3.09,3.09,3.09,3.09-1.38,3.09-3.09-1.38-3.09-3.09-3.09Zm-27.77,1402.71l-3.34,3.34c.42.79,1.24,1.34,2.19,1.34,1.37,0,2.49-1.11,2.49-2.49,0-.96-.55-1.78-1.34-2.19Zm14.69-14.69l-3.81,3.81c.48.85,1.38,1.43,2.43,1.43,1.55,0,2.81-1.26,2.81-2.81,0-1.05-.58-1.95-1.43-2.43Zm58.65-58.65l-5.46,5.46c.71,1.04,1.9,1.73,3.25,1.73,2.17,0,3.93-1.76,3.93-3.93,0-1.35-.68-2.55-1.73-3.25Zm-60.03,102.57c-1.04,0-1.88.84-1.88,1.88s.84,1.88,1.88,1.88,1.88-.84,1.88-1.88-.84-1.88-1.88-1.88Zm0-29.52c-1.37,0-2.49,1.11-2.49,2.49s1.11,2.49,2.49,2.49,2.49-1.11,2.49-2.49-1.11-2.49-2.49-2.49Zm0,14.74c-1.22,0-2.2.99-2.2,2.21s.99,2.2,2.2,2.2,2.21-.99,2.21-2.2-.99-2.21-2.21-2.21Zm14.46-1440.5c1.37,0,2.49-1.11,2.49-2.49s-1.11-2.49-2.49-2.49-2.49,1.11-2.49,2.49,1.11,2.49,2.49,2.49Zm0-14.74c1.22,0,2.21-.99,2.21-2.21s-.99-2.2-2.21-2.2-2.21.99-2.21,2.2.99,2.21,2.21,2.21Zm-28.92,9.77c-1.37,0-2.49,1.11-2.49,2.49s1.11,2.49,2.49,2.49,2.49-1.11,2.49-2.49-1.11-2.49-2.49-2.49Zm28.92,19.75c1.55,0,2.81-1.26,2.81-2.81s-1.26-2.81-2.81-2.81-2.81,1.26-2.81,2.81,1.26,2.81,2.81,2.81Zm-14.46-5.61c-1.55,0-2.81,1.26-2.81,2.81s1.26,2.81,2.81,2.81,2.81-1.26,2.81-2.81-1.26-2.81-2.81-2.81Zm0-9.17c1.37,0,2.49-1.11,2.49-2.49s-1.11-2.49-2.49-2.49-2.49,1.11-2.49,2.49,1.11,2.49,2.49,2.49ZM16.65,808.86c-.79,0-1.55.14-2.26.38,2.08,4.08,4.4,8.07,6.93,11.96,1.46-1.29,2.39-3.18,2.39-5.28,0-3.9-3.16-7.06-7.06-7.06Zm666.32,679.7c-.94,0-1.71.69-1.85,1.58,1.01.6,2.02,1.19,3.04,1.76.43-.35.7-.87.7-1.46,0-1.04-.84-1.88-1.88-1.88Zm43.37,14.74c-.89,0-1.6.72-1.6,1.6s.72,1.6,1.6,1.6,1.6-.72,1.6-1.6-.72-1.6-1.6-1.6Zm0-29.52c-1.22,0-2.2.99-2.2,2.21s.99,2.2,2.2,2.2,2.21-.99,2.21-2.2-.99-2.21-2.21-2.21Zm0,14.78c-1.04,0-1.88.84-1.88,1.88s.84,1.88,1.88,1.88,1.88-.84,1.88-1.88-.84-1.88-1.88-1.88Zm-14.46-44.3c-1.55,0-2.81,1.26-2.81,2.81s1.26,2.81,2.81,2.81,2.81-1.26,2.81-2.81-1.26-2.81-2.81-2.81Zm14.46,14.78c-1.37,0-2.49,1.11-2.49,2.49s1.11,2.49,2.49,2.49,2.49-1.11,2.49-2.49-1.11-2.49-2.49-2.49Zm14.46-29.52c-1.71,0-3.09,1.38-3.09,3.09s1.38,3.09,3.09,3.09,3.09-1.38,3.09-3.09-1.38-3.09-3.09-3.09Zm0-14.74c-1.86,0-3.37,1.51-3.37,3.37s1.51,3.37,3.37,3.37,3.37-1.51,3.37-3.37-1.51-3.37-3.37-3.37Zm-12.67.53l-4.63,4.63c.6.94,1.64,1.58,2.84,1.58,1.86,0,3.37-1.51,3.37-3.37,0-1.2-.63-2.24-1.58-2.84Zm-16.25,87.98c-.32,0-.61.09-.86.25.78.24,1.55.49,2.33.72-.25-.57-.81-.97-1.47-.97Zm28.92-59.03c-1.55,0-2.81,1.26-2.81,2.81s1.26,2.81,2.81,2.81,2.81-1.26,2.81-2.81-1.26-2.81-2.81-2.81Zm-14.46,0c-1.55,0-2.81,1.26-2.81,2.81s1.26,2.81,2.81,2.81,2.81-1.26,2.81-2.81-1.26-2.81-2.81-2.81Zm-14.46,14.78c-1.37,0-2.49,1.11-2.49,2.49s1.11,2.49,2.49,2.49,2.49-1.11,2.49-2.49-1.11-2.49-2.49-2.49Zm14.46-29.52c-1.7,0-3.09,1.38-3.09,3.09s1.38,3.09,3.09,3.09,3.09-1.38,3.09-3.09-1.38-3.09-3.09-3.09Zm-12.87.45l-4.22,4.22c.54.9,1.51,1.5,2.64,1.5,1.7,0,3.09-1.38,3.09-3.09,0-1.12-.6-2.09-1.5-2.64Zm-1.59,58.58c-1.04,0-1.88.84-1.88,1.88s.84,1.88,1.88,1.88,1.88-.84,1.88-1.88-.84-1.88-1.88-1.88Zm-14.46-1470.01c1.22,0,2.21-.99,2.21-2.21s-.99-2.2-2.21-2.2-2.2.99-2.2,2.2.99,2.21,2.2,2.21Zm57.83,1455.23c-1.22,0-2.2.99-2.2,2.21s.99,2.2,2.2,2.2,2.2-.99,2.2-2.2-.99-2.21-2.2-2.21Zm0-14.74c-1.37,0-2.49,1.11-2.49,2.49s1.11,2.49,2.49,2.49,2.49-1.11,2.49-2.49-1.11-2.49-2.49-2.49Zm0-1410.98c1.55,0,2.81-1.26,2.81-2.81s-1.26-2.81-2.81-2.81-2.81,1.26-2.81,2.81,1.26,2.81,2.81,2.81Zm-85.81,1425.94l-2.93,2.93c.35.75,1.11,1.27,1.99,1.27,1.22,0,2.2-.99,2.2-2.2,0-.88-.52-1.63-1.27-1.99ZM755.26,92.32c2.04,0,3.69-1.65,3.69-3.69s-1.65-3.69-3.69-3.69-3.69,1.65-3.69,3.69,1.65,3.69,3.69,3.69Zm0-29.52c1.7,0,3.09-1.38,3.09-3.09s-1.38-3.09-3.09-3.09-3.09,1.38-3.09,3.09,1.38,3.09,3.09,3.09Zm0,14.74c1.86,0,3.37-1.51,3.37-3.37s-1.51-3.37-3.37-3.37-3.37,1.51-3.37,3.37,1.51,3.37,3.37,3.37Zm-28.92-73.77c1.04,0,1.88-.84,1.88-1.88,0-.7-.39-1.31-.96-1.63-.82.17-1.64.35-2.46.54-.22.31-.35.68-.35,1.09,0,1.04.84,1.88,1.88,1.88Zm100.67,1475.95c-3.9,0-7.06,3.16-7.06,7.06,0,1.54.5,2.95,1.34,4.11,3.96-2.46,7.81-5.13,11.55-8.05-1.27-1.88-3.4-3.12-5.83-3.12Zm7.72-7.4c0,2.6,1.47,4.85,3.63,5.97,2.33-2.03,4.61-4.15,6.83-6.36l-5.96-5.96c-2.62.92-4.5,3.41-4.5,6.35ZM726.34,33.29c1.37,0,2.49-1.11,2.49-2.49s-1.11-2.49-2.49-2.49-2.49,1.11-2.49,2.49,1.11,2.49,2.49,2.49Zm28.92,1470.01c-.89,0-1.6.72-1.6,1.6s.72,1.6,1.6,1.6,1.6-.72,1.6-1.6-.72-1.6-1.6-1.6Zm50.24-4.03c3.3-1.47,6.55-3.08,9.74-4.84-.83-.33-1.73-.53-2.69-.53-3.37,0-6.2,2.27-7.06,5.37Zm-50.24-10.7c-1.04,0-1.88.84-1.88,1.88s.84,1.88,1.88,1.88,1.88-.84,1.88-1.88-.84-1.88-1.88-1.88Zm42.84,5.34c-4.05,0-7.34,3.28-7.34,7.34,0,1.2.31,2.32.82,3.32,4.61-1.46,9.16-3.18,13.62-5.15-.81-3.16-3.68-5.5-7.1-5.5ZM837.92,39.86l6.92-6.92c-1.72-1.6-3.47-3.15-5.25-4.65-2.65.81-4.57,3.26-4.57,6.17,0,2.25,1.16,4.24,2.91,5.39Zm-111.58,30.95c-1.86,0-3.37,1.51-3.37,3.37s1.51,3.37,3.37,3.37,3.37-1.51,3.37-3.37-1.51-3.37-3.37-3.37Zm14.46-52.26c1.22,0,2.21-.99,2.21-2.21s-.99-2.2-2.21-2.2-2.21.99-2.21,2.2.99,2.21,2.21,2.21Zm0-14.78c1.04,0,1.88-.84,1.88-1.88s-.84-1.88-1.88-1.88-1.88.84-1.88,1.88.84,1.88,1.88,1.88Zm-14.46,44.3c1.55,0,2.81-1.26,2.81-2.81s-1.26-2.81-2.81-2.81-2.81,1.26-2.81,2.81,1.26,2.81,2.81,2.81Zm0-29.52c1.22,0,2.21-.99,2.21-2.21s-.99-2.2-2.21-2.2-2.2.99-2.2,2.2.99,2.21,2.2,2.21Zm0,44.26c1.71,0,3.09-1.38,3.09-3.09s-1.38-3.09-3.09-3.09-3.09,1.38-3.09,3.09,1.38,3.09,3.09,3.09Zm14.46-29.52c1.37,0,2.49-1.11,2.49-2.49s-1.11-2.49-2.49-2.49-2.49,1.11-2.49,2.49,1.11,2.49,2.49,2.49Zm0,51.66c-2.04,0-3.69,1.65-3.69,3.69s1.65,3.69,3.69,3.69,3.69-1.65,3.69-3.69-1.65-3.69-3.69-3.69Zm0-36.88c1.55,0,2.81-1.26,2.81-2.81s-1.26-2.81-2.81-2.81-2.81,1.26-2.81,2.81,1.26,2.81,2.81,2.81Zm14.46-44.3c1.04,0,1.88-.84,1.88-1.88s-.84-1.88-1.88-1.88-1.88.84-1.88,1.88.84,1.88,1.88,1.88Zm0,95.39c-2.17,0-3.93,1.76-3.93,3.93s1.76,3.93,3.93,3.93,3.93-1.76,3.93-3.93-1.76-3.93-3.93-3.93Zm0-80.61c1.22,0,2.2-.99,2.2-2.21s-.99-2.2-2.2-2.2-2.2.99-2.2,2.2.99,2.21,2.2,2.21Zm-14.46,44.26c1.71,0,3.09-1.38,3.09-3.09s-1.38-3.09-3.09-3.09-3.09,1.38-3.09,3.09,1.38,3.09,3.09,3.09Zm14.46-29.52c1.37,0,2.49-1.11,2.49-2.49s-1.11-2.49-2.49-2.49-2.49,1.11-2.49,2.49,1.11,2.49,2.49,2.49Zm-14.46,44.26c1.86,0,3.37-1.51,3.37-3.37s-1.51-3.37-3.37-3.37-3.37,1.51-3.37,3.37,1.51,3.37,3.37,3.37Z"/><g><path class="cls-1" d="m653.12,445.23c22.32-6.73,5.79-31-13.91-43.6-5.04-3.22-14.42-6.36-6.09-10.9h-24.14c-.04.35-.07.71-.07,1.11-.03,4.89,2.85,10.25,9.17,13.76,6.3,3.5,13.43,4.32,20.18,12.22,5.63,6.58,8.02,14.69-1.23,16.26-7.68,1.3-14.44-1.97-34.11-6.34-9.96-2.21-19.01-4.51-26.41-9.91-2.56-1.87-5.25-3.14-8.06-3.97l.36,9.45c11.13,4.01,22.54,7.12,33.9,10.39,18.46,5.32,33.53,16.61,50.39,11.53Zm-14.09,22c-1.09,2.82-3.2,5.07.05,5.83,4.49,1.05,17.55-1.58,27.21-6.27,23.33-11.33,24.13-34.06,26.8-39.32.71-1.41,1.64-2.29,2.7-2.77l-25.1-26.42c-4.8-.61-9.58-.45-8.79,3.44,1.46,7.17,18.21,21.11,13.75,37.38-1.15,4.2-3.78,8.21-8.19,9.36-20.15,5.27-27.44,5.29-54.11-5.66-14.31-5.88-32.67-10.82-44.28-13.17l.35,9.11c8.68,1.13,18.43,3.52,29.54,7.63,38.18,14.15,41.93,16.08,40.07,20.86Zm-67.8,19.38l.46,12.25c1.06.29,2.13.57,3.21.89,25,7.31,20.28,20.23,33.83,13.81,13.87-6.58,25.04-12.03,39.82-13.52l15.31-11.56c-20.46,2-38,8.99-62.64,11.79-7.17.81-16.62-7.64-29.99-13.65Zm35,37.91c-9.74,2.4-8.35-7.81-22.54-14.12-3.38-1.5-7.4-2.86-11.72-4.05l.42,11.15c7.97,1.93,14.53,4.81,18.48,11.54,3.05,5.19,5.69,6.6,10.58,6.54l32.32-24.4c-3.96,1.38-7.8,3.17-11.55,5.33-5.23,3.03-9.2,6.32-16,8Zm-33.33,6.3l.81,21.28c.79,0,1.62-.04,2.51-.1,1.35-.1,2.64-.2,3.91-.3l12.11-9.14c-12.1-1.67-10.63-7.53-19.34-11.73Zm32.74-111.98c1.96-.26,3.84-.79,5.53-1.86,7.93-4.99-7.71-7.49-7.4-26.25h-7.36c-2.16,3.67-5.68,5.38-10.73,5.11-3.59-.19-7.07.09-10.5,1.07-2.7.77-5.1.95-7.33.75l.33,8.78c3.69-.07,7.05.37,10.31,3.18,4.16,3.58,12.25,11.17,27.15,9.22Zm63.4,53.72c-28,9.72-40,8.79-48.19,7.93-3.51-.37-8.13-.88-10.99-2.59-4.02-2.4-2.67-5.66-1.39-8.74,1.66-4.02-1.17-6.91-7.11-10.21-10.08-5.6-20.69-9.31-31.6-10.9l.92,24.19c3.81,2.41,6.98,5.13,9.94,7.48,7.34,5.85,11.47,8.81,20.21,9.96,22.18,2.93,38.7-3.01,74.65-9.99l36.06-27.23c-14.87-13.42-16.58,11.1-42.5,20.09Z"/><path class="cls-1" d="m930.81,435.96c11.49-3.29,23.04-6.41,34.3-10.45l.36-9.51c-2.84.83-5.56,2.11-8.15,3.99-7.49,5.43-16.65,7.74-26.72,9.97-19.89,4.4-26.74,7.68-34.5,6.38-9.36-1.57-6.94-9.73-1.24-16.35,6.83-7.94,14.05-8.77,20.42-12.29,6.4-3.54,9.31-8.92,9.28-13.84,0-.4-.03-.77-.07-1.12h-24.41c8.43,4.57-1.06,7.72-6.16,10.96-19.92,12.67-36.64,37.08-14.07,43.85,17.05,5.11,32.3-6.25,50.97-11.59Zm3.82,12.73c11.24-4.14,21.1-6.54,29.88-7.68l.35-9.16c-11.75,2.36-30.32,7.34-44.8,13.25-26.98,11.02-34.36,11-54.74,5.7-4.46-1.16-7.12-5.2-8.28-9.42-4.51-16.36,12.43-30.38,13.91-37.6.8-3.91-4.03-4.07-8.89-3.46l-25.39,26.57c1.08.48,2.01,1.37,2.73,2.79,2.7,5.3,3.51,28.16,27.11,39.55,9.77,4.72,22.99,7.37,27.53,6.31,3.29-.77,1.16-3.04.05-5.87-1.88-4.82,1.91-6.75,40.53-20.98Zm-2.29,54.21c-24.93-2.81-42.67-9.84-63.37-11.86l15.49,11.63c14.94,1.49,26.25,6.98,40.28,13.6,13.7,6.46,8.93-6.53,34.22-13.89,1.1-.32,2.18-.61,3.25-.9l.47-12.32c-13.53,6.05-23.08,14.55-30.33,13.73Zm-21.26,16.35c-3.78-2.18-7.67-3.98-11.68-5.37l32.69,24.54c4.95.06,7.62-1.35,10.71-6.58,4-6.77,10.63-9.67,18.69-11.61l.43-11.22c-4.36,1.19-8.44,2.56-11.85,4.07-14.35,6.35-12.94,16.62-22.8,14.21-6.89-1.69-10.9-5-16.19-8.05Zm30.34,26.18l12.25,9.19c1.29.1,2.6.2,3.96.3.9.07,1.73.1,2.54.1l.82-21.4c-8.81,4.22-7.32,10.11-19.56,11.8Zm13.91-133.7c3.3-2.82,6.7-3.26,10.43-3.19l.34-8.83c-2.26.2-4.68.02-7.41-.76-3.47-.98-7-1.27-10.62-1.07-5.12.27-8.67-1.46-10.86-5.14h-7.45c.31,18.87-15.5,21.39-7.48,26.4,1.71,1.07,3.62,1.61,5.59,1.87,15.07,1.96,23.25-5.67,27.46-9.27Zm-134.59,43.09l36.48,27.38c36.37,7.03,53.08,13,75.52,10.05,8.84-1.16,13.01-4.14,20.44-10.02,3-2.37,6.2-5.11,10.06-7.53l.93-24.33c-11.04,1.6-21.77,5.33-31.97,10.97-6.01,3.32-8.87,6.22-7.19,10.27,1.29,3.1,2.66,6.38-1.41,8.79-2.89,1.71-7.57,2.23-11.12,2.6-8.28.87-20.42,1.8-48.74-7.97-26.21-9.05-27.95-33.71-42.99-20.21Z"/></g><path class="cls-1" d="m600.48,1070.68c-11.36,3.27-22.77,6.37-33.9,10.39l-.36,9.45c2.81-.83,5.5-2.1,8.06-3.97,7.4-5.4,16.46-7.69,26.41-9.91,19.67-4.37,26.43-7.64,34.11-6.34,9.25,1.56,6.86,9.67,1.23,16.26-6.76,7.89-13.89,8.71-20.18,12.22-6.32,3.52-9.21,8.87-9.17,13.76,0,.4.03.76.07,1.11h24.14c-8.33-4.54,1.05-7.68,6.09-10.9,19.7-12.6,36.23-36.86,13.91-43.6-16.85-5.08-31.93,6.21-50.39,11.53Zm-3.78-12.66c-11.11,4.12-20.86,6.5-29.54,7.63l-.35,9.11c11.62-2.35,29.97-7.29,44.28-13.17,26.67-10.95,33.96-10.93,54.11-5.66,4.4,1.15,7.03,5.17,8.19,9.36,4.46,16.27-12.29,30.21-13.75,37.38-.79,3.88,3.99,4.05,8.79,3.44l25.1-26.42c-1.07-.48-1.99-1.37-2.7-2.77-2.67-5.27-3.47-28-26.8-39.32-9.66-4.69-22.72-7.33-27.21-6.27-3.25.76-1.14,3.02-.05,5.83,1.86,4.79-1.89,6.71-40.07,20.86Zm2.26-53.9c24.64,2.8,42.18,9.79,62.64,11.79l-15.31-11.56c-14.77-1.49-25.95-6.94-39.82-13.52-13.55-6.42-8.82,6.5-33.83,13.81-1.09.32-2.15.6-3.21.89l-.46,12.25c13.37-6.01,22.82-14.47,29.99-13.65Zm21.02-16.25c3.74,2.17,7.58,3.96,11.55,5.33l-32.32-24.4c-4.89-.06-7.53,1.35-10.58,6.54-3.95,6.73-10.51,9.62-18.48,11.54l-.42,11.15c4.32-1.19,8.34-2.54,11.72-4.05,14.19-6.32,12.79-16.53,22.54-14.12,6.81,1.68,10.77,4.97,16,8Zm-29.99-26.03l-12.11-9.14c-1.27-.1-2.57-.2-3.91-.3-.89-.07-1.72-.09-2.51-.1l-.81,21.28c8.71-4.2,7.23-10.06,19.34-11.73Zm-13.75,132.92c-3.26,2.81-6.62,3.25-10.31,3.18l-.33,8.78c2.23-.2,4.63-.02,7.33.75,3.43.98,6.92,1.26,10.5,1.07,5.06-.27,8.57,1.45,10.73,5.11h7.36c-.31-18.76,15.33-21.26,7.4-26.25-1.69-1.06-3.58-1.6-5.53-1.86-14.9-1.95-22.98,5.64-27.15,9.22Zm133.05-42.84l-36.06-27.23c-35.95-6.98-52.48-12.92-74.65-9.99-8.74,1.16-12.87,4.12-20.21,9.96-2.96,2.36-6.13,5.08-9.94,7.48l-.92,24.19c10.91-1.59,21.52-5.3,31.6-10.9,5.94-3.3,8.77-6.19,7.11-10.21-1.27-3.08-2.63-6.35,1.39-8.74,2.86-1.7,7.48-2.22,10.99-2.59,8.19-.86,20.19-1.79,48.19,7.93,25.92,9,27.63,33.52,42.5,20.09Z"/><path class="cls-1" d="m879.43,1058.57c-22.58,6.77-5.86,31.18,14.07,43.85,5.1,3.24,14.59,6.39,6.16,10.96h24.41c.04-.35.07-.71.07-1.12.03-4.92-2.89-10.31-9.28-13.84-6.37-3.52-13.58-4.35-20.42-12.29-5.7-6.62-8.11-14.78,1.24-16.35,7.76-1.31,14.61,1.98,34.5,6.38,10.07,2.23,19.23,4.54,26.72,9.97,2.59,1.88,5.31,3.16,8.15,3.99l-.36-9.51c-11.26-4.04-22.8-7.16-34.3-10.45-18.67-5.35-33.92-16.71-50.97-11.59Zm14.26-22.12c1.11-2.83,3.24-5.1-.05-5.87-4.54-1.06-17.75,1.59-27.53,6.31-23.6,11.39-24.41,34.25-27.11,39.55-.72,1.41-1.65,2.31-2.73,2.79l25.39,26.57c4.86.62,9.69.45,8.89-3.46-1.48-7.22-18.42-21.24-13.91-37.6,1.16-4.22,3.83-8.26,8.28-9.42,20.38-5.3,27.76-5.32,54.74,5.7,14.48,5.91,33.05,10.88,44.8,13.25l-.35-9.16c-8.78-1.14-18.65-3.54-29.88-7.68-38.62-14.23-42.42-16.17-40.53-20.98Zm68.58-19.5l-.47-12.32c-1.08-.29-2.15-.58-3.25-.9-25.29-7.35-20.51-20.35-34.22-13.89-14.03,6.62-25.33,12.1-40.28,13.6l-15.49,11.63c20.7-2.01,38.44-9.05,63.37-11.86,7.25-.82,16.81,7.69,30.33,13.73Zm-35.41-38.13c9.86-2.42,8.45,7.85,22.8,14.21,3.42,1.51,7.49,2.88,11.85,4.07l-.43-11.22c-8.06-1.94-14.69-4.84-18.69-11.61-3.09-5.22-5.76-6.64-10.71-6.58l-32.69,24.54c4.01-1.38,7.89-3.19,11.68-5.37,5.29-3.05,9.3-6.36,16.19-8.05Zm33.71-6.34l-.82-21.4c-.8,0-1.64.04-2.54.1-1.36.1-2.67.2-3.96.3l-12.25,9.19c12.24,1.68,10.75,7.57,19.56,11.8Zm-33.12,112.63c-1.98.26-3.89.8-5.59,1.87-8.02,5.02,7.8,7.53,7.48,26.4h7.45c2.19-3.69,5.74-5.42,10.86-5.14,3.63.19,7.15-.09,10.62-1.07,2.73-.77,5.16-.96,7.41-.76l-.34-8.83c-3.73.07-7.13-.37-10.43-3.19-4.21-3.6-12.39-11.24-27.46-9.27Zm-64.14-54.03c28.32-9.77,40.46-8.84,48.74-7.97,3.55.37,8.23.89,11.12,2.6,4.07,2.41,2.7,5.69,1.41,8.79-1.68,4.04,1.18,6.95,7.19,10.27,10.2,5.63,20.93,9.37,31.97,10.97l-.93-24.33c-3.85-2.42-7.06-5.16-10.06-7.53-7.43-5.88-11.6-8.86-20.44-10.02-22.44-2.95-39.15,3.02-75.52,10.05l-36.48,27.38c15.04,13.5,16.78-11.16,42.99-20.21Z"/></g></svg>