<?xml version="1.0" encoding="UTF-8"?><svg id="detail" xmlns="http://www.w3.org/2000/svg" viewBox="0 0 1509.77 1502.26"><defs><style>.cls-1{fill:#222;}</style></defs><g id="details"><g><circle class="cls-1" cx="375.63" cy="872.5" r="2.43"/><circle class="cls-1" cx="349.13" cy="872.5" r="2.43"/><circle class="cls-1" cx="322.63" cy="872.5" r="2.43"/><circle class="cls-1" cx="296.13" cy="872.5" r="2.43"/><circle class="cls-1" cx="269.63" cy="872.5" r="2.43"/><circle class="cls-1" cx="243.13" cy="872.5" r="2.43"/><circle class="cls-1" cx="216.63" cy="872.5" r="2.43"/><circle class="cls-1" cx="190.13" cy="872.5" r="2.43"/><circle class="cls-1" cx="163.63" cy="872.5" r="2.43"/><circle class="cls-1" cx="375.63" cy="846" r="2.43"/><circle class="cls-1" cx="349.13" cy="846" r="2.43"/><circle class="cls-1" cx="322.63" cy="846" r="2.43"/><circle class="cls-1" cx="296.13" cy="846" r="2.43"/><circle class="cls-1" cx="269.63" cy="846" r="2.43"/><circle class="cls-1" cx="243.13" cy="846" r="2.43"/><circle class="cls-1" cx="216.63" cy="846" r="2.43"/><circle class="cls-1" cx="190.13" cy="846" r="2.43"/><circle class="cls-1" cx="163.63" cy="846" r="2.43"/><circle class="cls-1" cx="375.63" cy="819.5" r="2.43"/><circle class="cls-1" cx="349.13" cy="819.5" r="2.43"/><circle class="cls-1" cx="322.63" cy="819.5" r="2.43"/><circle class="cls-1" cx="296.13" cy="819.5" r="2.43"/><circle class="cls-1" cx="269.63" cy="819.5" r="2.43"/><circle class="cls-1" cx="243.13" cy="819.5" r="2.43"/><circle class="cls-1" cx="216.63" cy="819.5" r="2.43"/><circle class="cls-1" cx="190.13" cy="819.5" r="2.43"/><circle class="cls-1" cx="163.63" cy="819.5" r="2.43"/><circle class="cls-1" cx="375.63" cy="793" r="2.43"/><circle class="cls-1" cx="349.13" cy="793" r="2.43"/><circle class="cls-1" cx="322.63" cy="793" r="2.43"/><circle class="cls-1" cx="296.13" cy="793" r="2.43"/><circle class="cls-1" cx="269.63" cy="793" r="2.43"/><circle class="cls-1" cx="243.13" cy="793" r="2.43"/><circle class="cls-1" cx="216.63" cy="793" r="2.43"/><circle class="cls-1" cx="190.13" cy="793" r="2.43"/><circle class="cls-1" cx="163.63" cy="793" r="2.43"/><circle class="cls-1" cx="375.63" cy="766.5" r="2.43"/><circle class="cls-1" cx="349.13" cy="766.5" r="2.43"/><circle class="cls-1" cx="322.63" cy="766.5" r="2.43"/><circle class="cls-1" cx="296.13" cy="766.5" r="2.43"/><circle class="cls-1" cx="269.63" cy="766.5" r="2.43"/><circle class="cls-1" cx="243.13" cy="766.5" r="2.43"/><circle class="cls-1" cx="216.63" cy="766.5" r="2.43"/><circle class="cls-1" cx="190.13" cy="766.5" r="2.43"/><circle class="cls-1" cx="163.63" cy="766.5" r="2.43"/><circle class="cls-1" cx="375.63" cy="740" r="2.43"/><circle class="cls-1" cx="349.13" cy="740" r="2.43"/><circle class="cls-1" cx="322.63" cy="740" r="2.43"/><circle class="cls-1" cx="296.13" cy="740" r="2.43"/><circle class="cls-1" cx="269.63" cy="740" r="2.43"/><circle class="cls-1" cx="243.13" cy="740" r="2.43"/><circle class="cls-1" cx="216.63" cy="740" r="2.43"/><circle class="cls-1" cx="190.13" cy="740" r="2.43"/><circle class="cls-1" cx="163.63" cy="740" r="2.43"/><circle class="cls-1" cx="375.63" cy="713.5" r="2.43"/><circle class="cls-1" cx="349.13" cy="713.5" r="2.43"/><circle class="cls-1" cx="322.63" cy="713.5" r="2.43"/><circle class="cls-1" cx="296.13" cy="713.5" r="2.43"/><circle class="cls-1" cx="269.63" cy="713.5" r="2.43"/><circle class="cls-1" cx="243.13" cy="713.5" r="2.43"/><circle class="cls-1" cx="216.63" cy="713.5" r="2.43"/><circle class="cls-1" cx="190.13" cy="713.5" r="2.43"/><circle class="cls-1" cx="163.63" cy="713.5" r="2.43"/><circle class="cls-1" cx="375.63" cy="687" r="2.43"/><circle class="cls-1" cx="349.13" cy="687" r="2.43"/><circle class="cls-1" cx="322.63" cy="687" r="2.43"/><circle class="cls-1" cx="296.13" cy="687" r="2.43"/><circle class="cls-1" cx="269.63" cy="687" r="2.43"/><circle class="cls-1" cx="243.13" cy="687" r="2.43"/><circle class="cls-1" cx="216.63" cy="687" r="2.43"/><circle class="cls-1" cx="190.13" cy="687" r="2.43"/><circle class="cls-1" cx="163.63" cy="687" r="2.43"/><circle class="cls-1" cx="375.63" cy="660.5" r="2.43"/><circle class="cls-1" cx="349.13" cy="660.5" r="2.43"/><circle class="cls-1" cx="322.63" cy="660.5" r="2.43"/><circle class="cls-1" cx="296.13" cy="660.5" r="2.43"/><circle class="cls-1" cx="269.63" cy="660.5" r="2.43"/><circle class="cls-1" cx="243.13" cy="660.5" r="2.43"/><circle class="cls-1" cx="216.63" cy="660.5" r="2.43"/><circle class="cls-1" cx="190.13" cy="660.5" r="2.43"/><circle class="cls-1" cx="163.63" cy="660.5" r="2.43"/><circle class="cls-1" cx="375.63" cy="634" r="2.43"/><circle class="cls-1" cx="349.13" cy="634" r="2.43"/><circle class="cls-1" cx="322.63" cy="634" r="2.43"/><circle class="cls-1" cx="296.13" cy="634" r="2.43"/><circle class="cls-1" cx="269.63" cy="634" r="2.43"/><circle class="cls-1" cx="243.13" cy="634" r="2.43"/><circle class="cls-1" cx="216.63" cy="634" r="2.43"/><circle class="cls-1" cx="190.13" cy="634" r="2.43"/><circle class="cls-1" cx="163.63" cy="634" r="2.43"/></g><g><circle class="cls-1" cx="867.46" cy="1360.4" r="2.43"/><circle class="cls-1" cx="840.96" cy="1360.4" r="2.43"/><circle class="cls-1" cx="814.46" cy="1360.4" r="2.43"/><circle class="cls-1" cx="787.97" cy="1360.4" r="2.43"/><circle class="cls-1" cx="761.47" cy="1360.4" r="2.43"/><circle class="cls-1" cx="734.97" cy="1360.4" r="2.43"/><circle class="cls-1" cx="708.47" cy="1360.4" r="2.43"/><circle class="cls-1" cx="681.97" cy="1360.4" r="2.43"/><circle class="cls-1" cx="655.47" cy="1360.4" r="2.43"/><circle class="cls-1" cx="867.46" cy="1333.9" r="2.43"/><circle class="cls-1" cx="840.96" cy="1333.9" r="2.43"/><circle class="cls-1" cx="814.46" cy="1333.9" r="2.43"/><circle class="cls-1" cx="787.97" cy="1333.9" r="2.43"/><circle class="cls-1" cx="761.47" cy="1333.9" r="2.43"/><circle class="cls-1" cx="734.97" cy="1333.9" r="2.43"/><circle class="cls-1" cx="708.47" cy="1333.9" r="2.43"/><circle class="cls-1" cx="681.97" cy="1333.9" r="2.43"/><circle class="cls-1" cx="655.47" cy="1333.9" r="2.43"/><circle class="cls-1" cx="867.46" cy="1307.4" r="2.43"/><circle class="cls-1" cx="840.96" cy="1307.4" r="2.43"/><circle class="cls-1" cx="814.46" cy="1307.4" r="2.43"/><circle class="cls-1" cx="787.97" cy="1307.4" r="2.43"/><circle class="cls-1" cx="761.47" cy="1307.4" r="2.43"/><circle class="cls-1" cx="734.97" cy="1307.4" r="2.43"/><circle class="cls-1" cx="708.47" cy="1307.4" r="2.43"/><circle class="cls-1" cx="681.97" cy="1307.4" r="2.43"/><circle class="cls-1" cx="655.47" cy="1307.4" r="2.43"/><circle class="cls-1" cx="867.46" cy="1280.9" r="2.43"/><circle class="cls-1" cx="840.96" cy="1280.9" r="2.43"/><circle class="cls-1" cx="814.46" cy="1280.9" r="2.43"/><circle class="cls-1" cx="787.97" cy="1280.9" r="2.43"/><circle class="cls-1" cx="761.47" cy="1280.9" r="2.43"/><circle class="cls-1" cx="734.97" cy="1280.9" r="2.43"/><circle class="cls-1" cx="708.47" cy="1280.9" r="2.43"/><circle class="cls-1" cx="681.97" cy="1280.9" r="2.43"/><circle class="cls-1" cx="655.47" cy="1280.9" r="2.43"/><circle class="cls-1" cx="867.46" cy="1254.4" r="2.43"/><circle class="cls-1" cx="840.96" cy="1254.4" r="2.43"/><circle class="cls-1" cx="814.46" cy="1254.4" r="2.43"/><circle class="cls-1" cx="787.97" cy="1254.4" r="2.43"/><circle class="cls-1" cx="761.47" cy="1254.4" r="2.43"/><circle class="cls-1" cx="734.97" cy="1254.4" r="2.43"/><circle class="cls-1" cx="708.47" cy="1254.4" r="2.43"/><circle class="cls-1" cx="681.97" cy="1254.4" r="2.43"/><circle class="cls-1" cx="655.47" cy="1254.4" r="2.43"/><circle class="cls-1" cx="867.46" cy="1227.9" r="2.43"/><circle class="cls-1" cx="840.96" cy="1227.9" r="2.43"/><circle class="cls-1" cx="814.46" cy="1227.9" r="2.43"/><circle class="cls-1" cx="787.97" cy="1227.9" r="2.43"/><circle class="cls-1" cx="761.47" cy="1227.9" r="2.43"/><circle class="cls-1" cx="734.97" cy="1227.9" r="2.43"/><circle class="cls-1" cx="708.47" cy="1227.9" r="2.43"/><circle class="cls-1" cx="681.97" cy="1227.9" r="2.43"/><circle class="cls-1" cx="655.47" cy="1227.9" r="2.43"/><circle class="cls-1" cx="867.46" cy="1201.4" r="2.43"/><circle class="cls-1" cx="840.96" cy="1201.4" r="2.43"/><circle class="cls-1" cx="814.46" cy="1201.4" r="2.43"/><circle class="cls-1" cx="787.97" cy="1201.4" r="2.43"/><circle class="cls-1" cx="761.47" cy="1201.4" r="2.43"/><circle class="cls-1" cx="734.97" cy="1201.4" r="2.43"/><circle class="cls-1" cx="708.47" cy="1201.4" r="2.43"/><circle class="cls-1" cx="681.97" cy="1201.4" r="2.43"/><circle class="cls-1" cx="655.47" cy="1201.4" r="2.43"/><circle class="cls-1" cx="867.46" cy="1174.9" r="2.43"/><circle class="cls-1" cx="840.96" cy="1174.9" r="2.43"/><circle class="cls-1" cx="814.46" cy="1174.9" r="2.43"/><circle class="cls-1" cx="787.97" cy="1174.9" r="2.43"/><circle class="cls-1" cx="761.47" cy="1174.9" r="2.43"/><circle class="cls-1" cx="734.97" cy="1174.9" r="2.43"/><circle class="cls-1" cx="708.47" cy="1174.9" r="2.43"/><circle class="cls-1" cx="681.97" cy="1174.9" r="2.43"/><circle class="cls-1" cx="655.47" cy="1174.9" r="2.43"/><circle class="cls-1" cx="867.46" cy="1148.4" r="2.43"/><circle class="cls-1" cx="840.96" cy="1148.4" r="2.43"/><circle class="cls-1" cx="814.46" cy="1148.4" r="2.43"/><circle class="cls-1" cx="787.97" cy="1148.4" r="2.43"/><circle class="cls-1" cx="761.47" cy="1148.4" r="2.43"/><circle class="cls-1" cx="734.97" cy="1148.4" r="2.43"/><circle class="cls-1" cx="708.47" cy="1148.4" r="2.43"/><circle class="cls-1" cx="681.97" cy="1148.4" r="2.43"/><circle class="cls-1" cx="655.47" cy="1148.4" r="2.43"/><circle class="cls-1" cx="867.46" cy="1121.9" r="2.43"/><circle class="cls-1" cx="840.96" cy="1121.9" r="2.43"/><circle class="cls-1" cx="681.97" cy="1121.9" r="2.43"/><circle class="cls-1" cx="655.47" cy="1121.9" r="2.43"/></g><g><circle class="cls-1" cx="761.47" cy="404.41" r="2.43"/><circle class="cls-1" cx="867.46" cy="377.91" r="2.43"/><circle class="cls-1" cx="840.96" cy="377.91" r="2.43"/><circle class="cls-1" cx="681.97" cy="377.91" r="2.43"/><circle class="cls-1" cx="655.47" cy="377.91" r="2.43"/><circle class="cls-1" cx="867.46" cy="351.41" r="2.43"/><circle class="cls-1" cx="840.96" cy="351.41" r="2.43"/><circle class="cls-1" cx="814.46" cy="351.41" r="2.43"/><circle class="cls-1" cx="787.97" cy="351.41" r="2.43"/><circle class="cls-1" cx="761.47" cy="351.41" r="2.43"/><circle class="cls-1" cx="734.97" cy="351.41" r="2.43"/><circle class="cls-1" cx="708.47" cy="351.41" r="2.43"/><circle class="cls-1" cx="681.97" cy="351.41" r="2.43"/><circle class="cls-1" cx="655.47" cy="351.41" r="2.43"/><circle class="cls-1" cx="867.46" cy="324.92" r="2.43"/><circle class="cls-1" cx="840.96" cy="324.92" r="2.43"/><circle class="cls-1" cx="814.46" cy="324.92" r="2.43"/><circle class="cls-1" cx="787.97" cy="324.92" r="2.43"/><circle class="cls-1" cx="761.47" cy="324.92" r="2.43"/><circle class="cls-1" cx="734.97" cy="324.92" r="2.43"/><circle class="cls-1" cx="708.47" cy="324.92" r="2.43"/><circle class="cls-1" cx="681.97" cy="324.92" r="2.43"/><circle class="cls-1" cx="655.47" cy="324.92" r="2.43"/><circle class="cls-1" cx="867.46" cy="298.42" r="2.43"/><circle class="cls-1" cx="840.96" cy="298.42" r="2.43"/><circle class="cls-1" cx="814.46" cy="298.42" r="2.43"/><circle class="cls-1" cx="787.97" cy="298.42" r="2.43"/><circle class="cls-1" cx="761.47" cy="298.42" r="2.43"/><circle class="cls-1" cx="734.97" cy="298.42" r="2.43"/><circle class="cls-1" cx="708.47" cy="298.42" r="2.43"/><circle class="cls-1" cx="681.97" cy="298.42" r="2.43"/><circle class="cls-1" cx="655.47" cy="298.42" r="2.43"/><circle class="cls-1" cx="867.46" cy="271.92" r="2.43"/><circle class="cls-1" cx="840.96" cy="271.92" r="2.43"/><circle class="cls-1" cx="814.46" cy="271.92" r="2.43"/><circle class="cls-1" cx="787.97" cy="271.92" r="2.43"/><circle class="cls-1" cx="761.47" cy="271.92" r="2.43"/><circle class="cls-1" cx="734.97" cy="271.92" r="2.43"/><circle class="cls-1" cx="708.47" cy="271.92" r="2.43"/><circle class="cls-1" cx="681.97" cy="271.92" r="2.43"/><circle class="cls-1" cx="655.47" cy="271.92" r="2.43"/><circle class="cls-1" cx="867.46" cy="245.42" r="2.43"/><circle class="cls-1" cx="840.96" cy="245.42" r="2.43"/><circle class="cls-1" cx="814.46" cy="245.42" r="2.43"/><circle class="cls-1" cx="787.97" cy="245.42" r="2.43"/><circle class="cls-1" cx="761.47" cy="245.42" r="2.43"/><circle class="cls-1" cx="734.97" cy="245.42" r="2.43"/><circle class="cls-1" cx="708.47" cy="245.42" r="2.43"/><circle class="cls-1" cx="681.97" cy="245.42" r="2.43"/><circle class="cls-1" cx="655.47" cy="245.42" r="2.43"/><circle class="cls-1" cx="867.46" cy="218.92" r="2.43"/><circle class="cls-1" cx="840.96" cy="218.92" r="2.43"/><circle class="cls-1" cx="814.46" cy="218.92" r="2.43"/><circle class="cls-1" cx="787.97" cy="218.92" r="2.43"/><circle class="cls-1" cx="761.47" cy="218.92" r="2.43"/><circle class="cls-1" cx="734.97" cy="218.92" r="2.43"/><circle class="cls-1" cx="708.47" cy="218.92" r="2.43"/><circle class="cls-1" cx="681.97" cy="218.92" r="2.43"/><circle class="cls-1" cx="655.47" cy="218.92" r="2.43"/><circle class="cls-1" cx="867.46" cy="192.42" r="2.43"/><circle class="cls-1" cx="840.96" cy="192.42" r="2.43"/><circle class="cls-1" cx="814.46" cy="192.42" r="2.43"/><circle class="cls-1" cx="787.97" cy="192.42" r="2.43"/><circle class="cls-1" cx="761.47" cy="192.42" r="2.43"/><circle class="cls-1" cx="734.97" cy="192.42" r="2.43"/><circle class="cls-1" cx="708.47" cy="192.42" r="2.43"/><circle class="cls-1" cx="681.97" cy="192.42" r="2.43"/><circle class="cls-1" cx="655.47" cy="192.42" r="2.43"/><circle class="cls-1" cx="867.46" cy="165.92" r="2.43"/><circle class="cls-1" cx="840.96" cy="165.92" r="2.43"/><circle class="cls-1" cx="814.46" cy="165.92" r="2.43"/><circle class="cls-1" cx="787.97" cy="165.92" r="2.43"/><circle class="cls-1" cx="761.47" cy="165.92" r="2.43"/><circle class="cls-1" cx="734.97" cy="165.92" r="2.43"/><circle class="cls-1" cx="708.47" cy="165.92" r="2.43"/><circle class="cls-1" cx="681.97" cy="165.92" r="2.43"/><circle class="cls-1" cx="655.47" cy="165.92" r="2.43"/></g><g><circle class="cls-1" cx="1368.23" cy="872.5" r="2.43"/><circle class="cls-1" cx="1341.73" cy="872.5" r="2.43"/><circle class="cls-1" cx="1315.23" cy="872.5" r="2.43"/><circle class="cls-1" cx="1288.73" cy="872.5" r="2.43"/><circle class="cls-1" cx="1262.23" cy="872.5" r="2.43"/><circle class="cls-1" cx="1235.73" cy="872.5" r="2.43"/><circle class="cls-1" cx="1209.23" cy="872.5" r="2.43"/><circle class="cls-1" cx="1182.73" cy="872.5" r="2.43"/><circle class="cls-1" cx="1156.23" cy="872.5" r="2.43"/><circle class="cls-1" cx="1368.23" cy="846" r="2.43"/><circle class="cls-1" cx="1341.73" cy="846" r="2.43"/><circle class="cls-1" cx="1315.23" cy="846" r="2.43"/><circle class="cls-1" cx="1288.73" cy="846" r="2.43"/><circle class="cls-1" cx="1262.23" cy="846" r="2.43"/><circle class="cls-1" cx="1235.73" cy="846" r="2.43"/><circle class="cls-1" cx="1209.23" cy="846" r="2.43"/><circle class="cls-1" cx="1182.73" cy="846" r="2.43"/><circle class="cls-1" cx="1156.23" cy="846" r="2.43"/><circle class="cls-1" cx="1368.23" cy="819.5" r="2.43"/><circle class="cls-1" cx="1341.73" cy="819.5" r="2.43"/><circle class="cls-1" cx="1315.23" cy="819.5" r="2.43"/><circle class="cls-1" cx="1288.73" cy="819.5" r="2.43"/><circle class="cls-1" cx="1262.23" cy="819.5" r="2.43"/><circle class="cls-1" cx="1235.73" cy="819.5" r="2.43"/><circle class="cls-1" cx="1209.23" cy="819.5" r="2.43"/><circle class="cls-1" cx="1182.73" cy="819.5" r="2.43"/><circle class="cls-1" cx="1156.23" cy="819.5" r="2.43"/><circle class="cls-1" cx="1368.23" cy="793" r="2.43"/><circle class="cls-1" cx="1341.73" cy="793" r="2.43"/><circle class="cls-1" cx="1315.23" cy="793" r="2.43"/><circle class="cls-1" cx="1288.73" cy="793" r="2.43"/><circle class="cls-1" cx="1262.23" cy="793" r="2.43"/><circle class="cls-1" cx="1235.73" cy="793" r="2.43"/><circle class="cls-1" cx="1209.23" cy="793" r="2.43"/><circle class="cls-1" cx="1182.73" cy="793" r="2.43"/><circle class="cls-1" cx="1156.23" cy="793" r="2.43"/><circle class="cls-1" cx="1368.23" cy="766.5" r="2.43"/><circle class="cls-1" cx="1341.73" cy="766.5" r="2.43"/><circle class="cls-1" cx="1315.23" cy="766.5" r="2.43"/><circle class="cls-1" cx="1288.73" cy="766.5" r="2.43"/><circle class="cls-1" cx="1262.23" cy="766.5" r="2.43"/><circle class="cls-1" cx="1235.73" cy="766.5" r="2.43"/><circle class="cls-1" cx="1209.23" cy="766.5" r="2.43"/><circle class="cls-1" cx="1182.73" cy="766.5" r="2.43"/><circle class="cls-1" cx="1156.23" cy="766.5" r="2.43"/><circle class="cls-1" cx="1368.23" cy="740" r="2.43"/><circle class="cls-1" cx="1341.73" cy="740" r="2.43"/><circle class="cls-1" cx="1315.23" cy="740" r="2.43"/><circle class="cls-1" cx="1288.73" cy="740" r="2.43"/><circle class="cls-1" cx="1262.23" cy="740" r="2.43"/><circle class="cls-1" cx="1235.73" cy="740" r="2.43"/><circle class="cls-1" cx="1209.23" cy="740" r="2.43"/><circle class="cls-1" cx="1182.73" cy="740" r="2.43"/><circle class="cls-1" cx="1156.23" cy="740" r="2.43"/><circle class="cls-1" cx="1368.23" cy="713.5" r="2.43"/><circle class="cls-1" cx="1341.73" cy="713.5" r="2.43"/><circle class="cls-1" cx="1315.23" cy="713.5" r="2.43"/><circle class="cls-1" cx="1288.73" cy="713.5" r="2.43"/><circle class="cls-1" cx="1262.23" cy="713.5" r="2.43"/><circle class="cls-1" cx="1235.73" cy="713.5" r="2.43"/><circle class="cls-1" cx="1209.23" cy="713.5" r="2.43"/><circle class="cls-1" cx="1182.73" cy="713.5" r="2.43"/><circle class="cls-1" cx="1156.23" cy="713.5" r="2.43"/><circle class="cls-1" cx="1368.23" cy="687" r="2.43"/><circle class="cls-1" cx="1341.73" cy="687" r="2.43"/><circle class="cls-1" cx="1315.23" cy="687" r="2.43"/><circle class="cls-1" cx="1288.73" cy="687" r="2.43"/><circle class="cls-1" cx="1262.23" cy="687" r="2.43"/><circle class="cls-1" cx="1235.73" cy="687" r="2.43"/><circle class="cls-1" cx="1209.23" cy="687" r="2.43"/><circle class="cls-1" cx="1182.73" cy="687" r="2.43"/><circle class="cls-1" cx="1156.23" cy="687" r="2.43"/><circle class="cls-1" cx="1368.23" cy="660.5" r="2.43"/><circle class="cls-1" cx="1341.73" cy="660.5" r="2.43"/><circle class="cls-1" cx="1315.23" cy="660.5" r="2.43"/><circle class="cls-1" cx="1288.73" cy="660.5" r="2.43"/><circle class="cls-1" cx="1262.23" cy="660.5" r="2.43"/><circle class="cls-1" cx="1235.73" cy="660.5" r="2.43"/><circle class="cls-1" cx="1209.23" cy="660.5" r="2.43"/><circle class="cls-1" cx="1182.73" cy="660.5" r="2.43"/><circle class="cls-1" cx="1156.23" cy="660.5" r="2.43"/><circle class="cls-1" cx="1368.23" cy="634" r="2.43"/><circle class="cls-1" cx="1341.73" cy="634" r="2.43"/><circle class="cls-1" cx="1315.23" cy="634" r="2.43"/><circle class="cls-1" cx="1288.73" cy="634" r="2.43"/><circle class="cls-1" cx="1262.23" cy="634" r="2.43"/><circle class="cls-1" cx="1235.73" cy="634" r="2.43"/><circle class="cls-1" cx="1209.23" cy="634" r="2.43"/><circle class="cls-1" cx="1182.73" cy="634" r="2.43"/><circle class="cls-1" cx="1156.23" cy="634" r="2.43"/></g><path class="cls-1" d="m800.97,1449.51c-3.38,0-6.12,2.74-6.12,6.12s2.74,6.12,6.12,6.12,6.12-2.74,6.12-6.12-2.74-6.12-6.12-6.12Zm0,29.96c-2.47,0-4.48,2-4.48,4.48s2,4.48,4.48,4.48,4.48-2,4.48-4.48-2-4.48-4.48-4.48Zm0-44.86c-3.3,0-6.06,2.33-6.72,5.44-.44-2.28-1.89-4.2-3.88-5.26,2.79-1.33,4.72-4.17,4.72-7.47,0-4.57-3.71-8.28-8.28-8.28-2.77,0-5.22,1.36-6.72,3.45-1.58-2.43-4.32-4.04-7.44-4.04-2.82,0-5.33,1.32-6.96,3.38-1.66-2.17-4.26-3.57-7.2-3.57-5.01,0-9.07,4.06-9.07,9.07,0,3.24,1.7,6.07,4.25,7.67-.99.73-1.8,1.69-2.37,2.79-1.33-2.49-3.95-4.19-6.97-4.19-4.36,0-7.89,3.53-7.89,7.89,0,3.61,2.43,6.65,5.75,7.59-2.77.9-4.77,3.5-4.77,6.57,0,3.81,3.09,6.91,6.91,6.91s6.91-3.09,6.91-6.91c0-3.07-2-5.67-4.77-6.57,2.09-.59,3.83-2.01,4.83-3.89,1.34,2.61,4.05,4.39,7.19,4.39,4.47,0,8.09-3.62,8.09-8.09,0-2.66-1.29-5.01-3.27-6.48.92-.58,1.72-1.32,2.38-2.18,1.62,2.05,4.13,3.38,6.96,3.38,3.12,0,5.85-1.61,7.44-4.04.81,1.13,1.9,2.04,3.16,2.64-2.39,1.27-4.02,3.79-4.02,6.69,0,3.92,2.97,7.14,6.78,7.53-3.31.39-5.88,3.21-5.88,6.62,0,3.69,2.99,6.67,6.67,6.67s6.67-2.99,6.67-6.67c0-3.42-2.57-6.23-5.88-6.62,3.34-.35,6.02-2.86,6.64-6.1.66,3.11,3.41,5.44,6.72,5.44,3.79,0,6.87-3.08,6.87-6.87s-3.07-6.87-6.87-6.87Zm0,29.84c-2.95,0-5.34,2.39-5.34,5.34s2.39,5.34,5.34,5.34,5.34-2.39,5.34-5.34-2.39-5.34-5.34-5.34Zm-14.16,29.72c-2.17,0-3.93,1.76-3.93,3.93s1.76,3.92,3.93,3.92,3.93-1.76,3.93-3.92-1.76-3.93-3.93-3.93Zm-14.16-30.43c-3.34,0-6.04,2.71-6.04,6.04s2.71,6.04,6.04,6.04,6.04-2.71,6.04-6.04-2.71-6.04-6.04-6.04Zm14.16,15.41c-2.65,0-4.79,2.14-4.79,4.79s2.14,4.79,4.79,4.79,4.79-2.15,4.79-4.79-2.14-4.79-4.79-4.79Zm-14.16-.28c-2.79,0-5.06,2.27-5.06,5.06s2.27,5.06,5.06,5.06,5.06-2.27,5.06-5.06-2.27-5.06-5.06-5.06Zm14.16-14.9c-3.21,0-5.81,2.6-5.81,5.81s2.6,5.81,5.81,5.81,5.81-2.6,5.81-5.81-2.6-5.81-5.81-5.81Zm28.31-1426.72c2.64,0,4.79-2.14,4.79-4.79s-2.14-4.79-4.79-4.79-4.79,2.14-4.79,4.79,2.14,4.79,4.79,4.79Zm14.16-8.91c-2.28,0-4.12,1.84-4.12,4.12s1.84,4.12,4.12,4.12,4.12-1.84,4.12-4.12-1.85-4.12-4.12-4.12Zm0-6.66c1.39,0,2.58-.84,3.1-2.04-1.79-1.3-3.61-2.55-5.44-3.75-.63.61-1.03,1.47-1.03,2.42,0,1.86,1.51,3.37,3.38,3.37Zm-84.93,1457.23c-2.77,0-5.02,2.25-5.02,5.02s2.25,5.02,5.02,5.02,5.02-2.25,5.02-5.02-2.25-5.02-5.02-5.02Zm95.71-9.13c0,1.13.56,2.12,1.41,2.74,1.27-1.17,2.52-2.36,3.75-3.59l-2.45-2.45c-1.55.31-2.71,1.67-2.71,3.31Zm3.96-1440.63c-.19-.03-.38-.06-.58-.06-1.87,0-3.38,1.51-3.38,3.37s1.51,3.37,3.38,3.37,3.37-1.51,3.37-3.37c0-.27-.04-.53-.1-.78-.89-.86-1.79-1.71-2.69-2.54Zm-28.89,1450.82c-2.19,0-3.96,1.78-3.96,3.96s1.78,3.97,3.96,3.97,3.96-1.78,3.96-3.97-1.77-3.96-3.96-3.96Zm0-14.98c-2.65,0-4.79,2.14-4.79,4.79s2.14,4.79,4.79,4.79,4.79-2.15,4.79-4.79-2.14-4.79-4.79-4.79Zm-6.12-23.52c0,3.38,2.74,6.12,6.12,6.12,2.37,0,4.42-1.35,5.44-3.32l-8.24-8.24c-1.97,1.02-3.32,3.07-3.32,5.44Zm20.28,24.19c-2.28,0-4.12,1.84-4.12,4.12s1.84,4.12,4.12,4.12,4.12-1.84,4.12-4.12-1.85-4.12-4.12-4.12Zm-14.16-1443.39c2.19,0,3.96-1.78,3.96-3.96s-1.77-3.97-3.96-3.97-3.96,1.78-3.96,3.97,1.78,3.96,3.96,3.96Zm-113.24,32.54c-1.58,0-3,.62-4.07,1.62l8.41,8.41c1-1.07,1.62-2.49,1.62-4.07,0-3.29-2.67-5.97-5.97-5.97Zm-14.16-33.2c1.82,0,3.3-1.48,3.3-3.3s-1.48-3.3-3.3-3.3-3.3,1.48-3.3,3.3,1.48,3.3,3.3,3.3Zm14.16,30.35c2.95,0,5.34-2.39,5.34-5.34s-2.39-5.34-5.34-5.34-5.34,2.39-5.34,5.34,2.39,5.34,5.34,5.34Zm56.62,41.27c-5.53,0-10.01,4.48-10.01,10.01,0,2.05.62,3.95,1.67,5.54l2.8,2.8c1.59,1.06,3.49,1.67,5.54,1.67,5.53,0,10.01-4.48,10.01-10.01s-4.48-10.01-10.01-10.01Zm-56.62-71.04c2.15,0,3.89-1.74,3.89-3.89s-1.74-3.89-3.89-3.89-3.89,1.74-3.89,3.89,1.74,3.89,3.89,3.89Zm-14.16,6.3c-2.19,0-3.96,1.78-3.96,3.97s1.78,3.96,3.96,3.96,3.97-1.78,3.97-3.96-1.78-3.97-3.97-3.97Zm28.31,24.16c3.34,0,6.05-2.71,6.05-6.04s-2.71-6.04-6.05-6.04-6.04,2.71-6.04,6.04,2.71,6.04,6.04,6.04Zm789.57,659.39c.83,0,1.58-.3,2.18-.77-.62-2.11-1.31-4.2-2.04-6.28-.05,0-.1-.01-.15-.01-1.95,0-3.53,1.58-3.53,3.53s1.58,3.53,3.53,3.53ZM716.04,7.69c1.95,0,3.53-1.58,3.53-3.53s-1.58-3.53-3.53-3.53-3.53,1.58-3.53,3.53,1.58,3.53,3.53,3.53Zm14.16,1411.47c-3.41,0-6.33,2.09-7.55,5.06-.59-1.26-1.54-2.33-2.71-3.07l-10.06,10.06c1.29,2.05,3.57,3.41,6.17,3.41,2.92,0,5.44-1.72,6.6-4.2,1.22,2.97,4.14,5.07,7.55,5.07,4.51,0,8.16-3.65,8.16-8.16s-3.66-8.16-8.16-8.16Zm-14.16-1381.51c2.86,0,5.18-2.32,5.18-5.18s-2.32-5.18-5.18-5.18-5.18,2.32-5.18,5.18,2.32,5.18,5.18,5.18Zm0,1411.94c-3.34,0-6.04,2.71-6.04,6.04s2.71,6.04,6.04,6.04,6.05-2.71,6.05-6.04-2.71-6.04-6.05-6.04Zm14.16,14.51c-3.14,0-5.69,2.55-5.69,5.69s2.55,5.69,5.69,5.69,5.69-2.55,5.69-5.69-2.55-5.69-5.69-5.69Zm0,15.1c-2.62,0-4.75,2.13-4.75,4.75s2.13,4.75,4.75,4.75,4.75-2.13,4.75-4.75-2.13-4.75-4.75-4.75Zm-14.16-44.51c-3.75,0-6.79,3.04-6.79,6.79s3.04,6.79,6.79,6.79,6.79-3.04,6.79-6.79-3.04-6.79-6.79-6.79Zm28.31,29.14c-3.3,0-5.97,2.67-5.97,5.97s2.67,5.97,5.97,5.97,5.97-2.67,5.97-5.97-2.67-5.97-5.97-5.97Zm-14.16,30.39c-2.15,0-3.89,1.74-3.89,3.89s1.74,3.88,3.89,3.88,3.89-1.74,3.89-3.88-1.74-3.89-3.89-3.89Zm-14.16.35c-1.95,0-3.53,1.58-3.53,3.53s1.58,3.53,3.53,3.53,3.53-1.58,3.53-3.53-1.58-3.53-3.53-3.53Zm28.31-.55c-2.25,0-4.08,1.83-4.08,4.08s1.83,4.08,4.08,4.08,4.08-1.83,4.08-4.08-1.83-4.08-4.08-4.08Zm-14.16-44.9c-3.6,0-6.51,2.92-6.51,6.52s2.92,6.52,6.51,6.52,6.52-2.92,6.52-6.52-2.92-6.52-6.52-6.52Zm-14.15,15.49c-2.86,0-5.18,2.32-5.18,5.18s2.32,5.18,5.18,5.18,5.18-2.32,5.18-5.18-2.32-5.18-5.18-5.18Zm747.11-677.27c-3.38,0-6.12,2.74-6.12,6.12s2.74,6.12,6.12,6.12,6.12-2.74,6.12-6.12-2.74-6.12-6.12-6.12Zm28.31-45.47c2.77,0,5.02-2.25,5.02-5.02s-2.25-5.02-5.02-5.02-5.02,2.25-5.02,5.02,2.25,5.02,5.02,5.02Zm-14.16,60.96c-2.64,0-4.79,2.14-4.79,4.79s2.14,4.79,4.79,4.79,4.79-2.14,4.79-4.79-2.14-4.79-4.79-4.79Zm14.16-119.31c1.48,0,2.72-.98,3.14-2.33-.85-1.42-1.72-2.82-2.63-4.22-.17-.03-.33-.05-.51-.05-1.82,0-3.3,1.48-3.3,3.3s1.48,3.3,3.3,3.3Zm0,62.34c-2.84,0-5.14,2.3-5.14,5.14s2.3,5.14,5.14,5.14,5.14-2.3,5.14-5.14-2.3-5.14-5.14-5.14Zm0-47.59c2.15,0,3.89-1.74,3.89-3.89s-1.74-3.89-3.89-3.89-3.89,1.74-3.89,3.89,1.74,3.89,3.89,3.89Zm0,29.17c2.62,0,4.75-2.13,4.75-4.75s-2.13-4.75-4.75-4.75-4.75,2.13-4.75,4.75,2.13,4.75,4.75,4.75Zm-14.16,90.22c-2.28,0-4.12,1.84-4.12,4.12s1.84,4.12,4.12,4.12,4.12-1.85,4.12-4.12-1.84-4.12-4.12-4.12Zm0-72.78c-3.38,0-6.12,2.74-6.12,6.12s2.74,6.12,6.12,6.12,6.12-2.74,6.12-6.12-2.74-6.12-6.12-6.12Zm0,14.23c-3.34,0-6.04,2.71-6.04,6.04s2.71,6.04,6.04,6.04,6.04-2.71,6.04-6.04-2.71-6.04-6.04-6.04Zm0,29.02c-2.95,0-5.34,2.39-5.34,5.34s2.39,5.34,5.34,5.34,5.34-2.39,5.34-5.34-2.39-5.34-5.34-5.34Zm0-14.62c-3.21,0-5.81,2.6-5.81,5.81s2.6,5.81,5.81,5.81,5.81-2.6,5.81-5.81-2.6-5.81-5.81-5.81Zm28.31-18.34c2.3,0,4.16-1.86,4.16-4.16s-1.86-4.16-4.16-4.16-4.16,1.86-4.16,4.16,1.86,4.16,4.16,4.16Zm-99.09-14.17c-2.2,0-4.23.72-5.88,1.92l-2.2,2.2c-1.21,1.65-1.92,3.68-1.92,5.88,0,5.53,4.48,10.01,10.01,10.01s10.01-4.48,10.01-10.01-4.48-10.01-10.01-10.01Zm74-74.92c0-.84-.33-1.6-.86-2.17l-4.52,4.52c.57.53,1.33.86,2.17.86,1.78,0,3.22-1.44,3.22-3.22Zm-3.22,166.49c-1.86,0-3.37,1.51-3.37,3.38s1.51,3.37,3.37,3.37c.18,0,.36-.03.54-.05.96-1.03,1.9-2.07,2.82-3.12,0-.07.02-.13.02-.2,0-1.87-1.51-3.38-3.37-3.38Zm14.16-58.03c-2.64,0-4.79,2.14-4.79,4.79s2.14,4.79,4.79,4.79,4.79-2.14,4.79-4.79-2.15-4.79-4.79-4.79Zm14.16-33.59c2.25,0,4.08-1.83,4.08-4.08s-1.83-4.08-4.08-4.08-4.08,1.83-4.08,4.08,1.83,4.08,4.08,4.08Zm-14.16,62.73c-2.19,0-3.96,1.78-3.96,3.96s1.78,3.96,3.96,3.96,3.97-1.77,3.97-3.96-1.78-3.96-3.97-3.96Zm0-43.56c-2.8,0-5.06,2.27-5.06,5.06s2.27,5.06,5.06,5.06,5.06-2.27,5.06-5.06-2.27-5.06-5.06-5.06Zm0,28.9c-2.47,0-4.48,2-4.48,4.47s2,4.47,4.48,4.47,4.48-2,4.48-4.47-2-4.47-4.48-4.47Zm14.16-62.41c2.14,0,3.88-1.74,3.88-3.89s-1.74-3.89-3.88-3.89-3.89,1.74-3.89,3.89,1.74,3.89,3.89,3.89Zm-70.78,74.37c-.66,0-1.3.1-1.9.28l8.3,8.3c.18-.6.28-1.24.28-1.9,0-3.69-2.99-6.67-6.67-6.67Zm0-70.09c4.51,0,8.16-3.66,8.16-8.16,0-3.41-2.09-6.33-5.07-7.55,2.48-1.17,4.2-3.68,4.2-6.6,0-1.97-.78-3.75-2.05-5.06l-10.3,10.3c.57.55,1.22,1.02,1.95,1.37-2.97,1.22-5.06,4.14-5.06,7.55,0,4.51,3.65,8.16,8.16,8.16Zm-28.31,39.39c-1.34,0-2.6.31-3.74.84l11.98,11.98c.52-1.15.83-2.41.83-3.75,0-5.01-4.06-9.07-9.07-9.07Zm56.62-41.04c3.6,0,6.52-2.92,6.52-6.52s-2.92-6.51-6.52-6.51-6.52,2.92-6.52,6.51,2.92,6.52,6.52,6.52Zm-8.19-34.83c0-1.6-.64-3.05-1.66-4.12l-8.42,8.42c1.07,1.03,2.52,1.66,4.12,1.66,3.29,0,5.97-2.67,5.97-5.97Zm47.08,99.09c0,1.55.99,2.85,2.36,3.35.86-2.22,1.65-4.45,2.38-6.71-.37-.13-.76-.21-1.17-.21-1.97,0-3.57,1.6-3.57,3.57Zm3.57-18.08c-2.17,0-3.93,1.76-3.93,3.93s1.76,3.93,3.93,3.93,3.92-1.76,3.92-3.93-1.76-3.93-3.92-3.93Zm-42.47-75.67c2.95,0,5.34-2.39,5.34-5.34s-2.39-5.34-5.34-5.34-5.34,2.39-5.34,5.34,2.39,5.34,5.34,5.34Zm.58,132.31l3.33,3.33c-.25-1.72-1.61-3.07-3.33-3.33Zm24.36-10.25c0,1.19.63,2.24,1.56,2.84,1.29-1.85,2.52-3.73,3.71-5.63-.54-.37-1.19-.58-1.89-.58-1.86,0-3.37,1.51-3.37,3.38Zm-39.09-106.45c3.75,0,6.79-3.04,6.79-6.79s-3.04-6.79-6.79-6.79-6.79,3.04-6.79,6.79,3.04,6.79,6.79,6.79Zm28.31,27.49c3.29,0,5.97-2.67,5.97-5.97s-2.67-5.97-5.97-5.97-5.97,2.67-5.97,5.97,2.67,5.97,5.97,5.97Zm0-58.62c2.19,0,3.97-1.77,3.97-3.97s-1.78-3.96-3.97-3.96-3.96,1.78-3.96,3.96,1.78,3.97,3.96,3.97Zm0,29.53c2.86,0,5.18-2.32,5.18-5.18s-2.32-5.18-5.18-5.18-5.18,2.32-5.18,5.18,2.32,5.18,5.18,5.18Zm-20.72,25.27c.9,2.77,3.5,4.77,6.57,4.77,3.81,0,6.91-3.1,6.91-6.91s-3.09-6.91-6.91-6.91c-3.07,0-5.67,2-6.57,4.77-.93-3.32-3.97-5.75-7.59-5.75-4.36,0-7.89,3.53-7.89,7.89,0,3.02,1.7,5.64,4.19,6.97-1.1.57-2.05,1.38-2.79,2.37-1.6-2.55-4.44-4.25-7.67-4.25-5.01,0-9.07,4.06-9.07,9.07,0,2.94,1.4,5.54,3.57,7.2-2.05,1.62-3.38,4.13-3.38,6.96,0,3.12,1.61,5.85,4.04,7.44-2.09,1.5-3.45,3.95-3.45,6.72,0,4.57,3.71,8.28,8.28,8.28,3.3,0,6.14-1.93,7.47-4.72,1.06,1.99,2.98,3.44,5.26,3.88-3.11.66-5.44,3.41-5.44,6.72,0,3.79,3.07,6.87,6.87,6.87s6.87-3.07,6.87-6.87c0-3.3-2.33-6.06-5.44-6.72,3.25-.62,5.76-3.31,6.1-6.64.39,3.31,3.21,5.88,6.62,5.88,3.69,0,6.67-2.99,6.67-6.67s-2.99-6.67-6.67-6.67c-3.42,0-6.23,2.57-6.62,5.88-.4-3.81-3.62-6.78-7.53-6.78-2.9,0-5.41,1.63-6.69,4.02-.6-1.26-1.51-2.35-2.64-3.16,2.43-1.58,4.04-4.32,4.04-7.44,0-2.82-1.32-5.33-3.38-6.96.86-.66,1.6-1.46,2.18-2.38,1.47,1.98,3.83,3.27,6.48,3.27,4.47,0,8.09-3.62,8.09-8.09,0-3.13-1.79-5.84-4.39-7.19,1.88-1,3.3-2.74,3.89-4.83Zm-26.4-2.14c0-5.25-4.25-9.5-9.5-9.5s-9.5,4.25-9.5,9.5,4.25,9.5,9.5,9.5,9.5-4.25,9.5-9.5Zm32.97-22.26c3.34,0,6.04-2.71,6.04-6.05s-2.71-6.04-6.04-6.04-6.04,2.71-6.04,6.04,2.71,6.05,6.04,6.05ZM716.04,67.57c3.75,0,6.79-3.04,6.79-6.79s-3.04-6.79-6.79-6.79-6.79,3.04-6.79,6.79,3.04,6.79,6.79,6.79Zm761.26,660.8c3.14,0,5.69-2.55,5.69-5.69s-2.55-5.69-5.69-5.69-5.69,2.55-5.69,5.69,2.55,5.69,5.69,5.69Zm-28.31,73.12c-3.38,0-6.12,2.74-6.12,6.12s2.74,6.12,6.12,6.12,6.12-2.74,6.12-6.12-2.74-6.12-6.12-6.12ZM786.82,94.18c-5.01,0-9.07,4.06-9.07,9.07,0,.17.02.33.03.49l9.53-9.53c-.16,0-.32-.03-.49-.03ZM.37,735.61c-.07.94-.14,1.87-.19,2.81.28-.46.45-1,.45-1.58,0-.44-.09-.85-.26-1.23Zm11.31,5.31c2.26,0,4.08-1.83,4.08-4.08s-1.83-4.08-4.08-4.08-4.08,1.83-4.08,4.08,1.83,4.08,4.08,4.08Zm0-28.86c1.95,0,3.53-1.58,3.53-3.53s-1.58-3.53-3.53-3.53-3.53,1.58-3.53,3.53,1.58,3.53,3.53,3.53ZM.14,752.79c.35-.51.56-1.13.56-1.8,0-.75-.27-1.42-.7-1.97.03,1.26.07,2.51.14,3.77Zm11.54-26.23c2.15,0,3.89-1.74,3.89-3.89s-1.74-3.89-3.89-3.89-3.88,1.74-3.88,3.89,1.74,3.89,3.88,3.89Zm79.84,24.42c0-5.01-4.06-9.07-9.07-9.07-3.24,0-6.07,1.7-7.67,4.25-.73-.99-1.69-1.8-2.79-2.37,2.49-1.32,4.19-3.95,4.19-6.97,0-4.36-3.53-7.89-7.89-7.89-3.61,0-6.65,2.43-7.59,5.75-.9-2.77-3.5-4.77-6.57-4.77-3.81,0-6.91,3.09-6.91,6.91s3.09,6.91,6.91,6.91c3.07,0,5.67-2,6.57-4.77.59,2.09,2.01,3.83,3.89,4.83-2.61,1.34-4.39,4.05-4.39,7.19,0,4.47,3.62,8.09,8.09,8.09,2.66,0,5.01-1.29,6.48-3.27.58.92,1.32,1.72,2.18,2.38-2.05,1.62-3.38,4.13-3.38,6.96,0,3.12,1.61,5.85,4.04,7.44-1.13.81-2.04,1.9-2.64,3.16-1.27-2.39-3.79-4.02-6.69-4.02-3.92,0-7.14,2.97-7.53,6.78-.39-3.31-3.21-5.88-6.62-5.88-3.69,0-6.67,2.99-6.67,6.67s2.99,6.67,6.67,6.67c3.42,0,6.23-2.57,6.62-5.88.35,3.34,2.86,6.02,6.1,6.64-3.11.66-5.44,3.41-5.44,6.72,0,3.79,3.08,6.87,6.87,6.87s6.87-3.07,6.87-6.87c0-3.3-2.33-6.06-5.44-6.72,2.28-.44,4.2-1.89,5.26-3.88,1.33,2.79,4.17,4.72,7.47,4.72,4.57,0,8.28-3.71,8.28-8.28,0-2.77-1.36-5.22-3.45-6.72,2.43-1.58,4.04-4.32,4.04-7.44,0-2.82-1.32-5.33-3.38-6.96,2.17-1.66,3.57-4.26,3.57-7.2Zm14.59-14.16c0-1.74-.48-3.37-1.29-4.77l-3.43-3.43c-1.4-.82-3.03-1.29-4.77-1.29-5.25,0-9.5,4.25-9.5,9.5s4.25,9.5,9.5,9.5,9.5-4.25,9.5-9.5Zm-94.43,38.54c-2.17,0-3.92,1.76-3.92,3.93s1.76,3.93,3.92,3.93,3.93-1.76,3.93-3.93-1.76-3.93-3.93-3.93Zm3.02,31.43c-.11-.42-.31-.81-.58-1.14.19.38.38.76.58,1.14Zm-3.02-16.92c-1.58,0-2.91,1.04-3.38,2.47.53,1.42,1.09,2.82,1.66,4.22.51.28,1.09.46,1.71.46,1.97,0,3.57-1.6,3.57-3.57s-1.6-3.57-3.57-3.57Zm42.47-2.55c-3.38,0-6.12,2.74-6.12,6.12s2.74,6.12,6.12,6.12,6.12-2.74,6.12-6.12-2.74-6.12-6.12-6.12Zm-28.31-41.48c-2.84,0-5.14,2.3-5.14,5.14s2.3,5.14,5.14,5.14,5.14-2.3,5.14-5.14-2.3-5.14-5.14-5.14Zm0,28.66c-2.64,0-4.79,2.14-4.79,4.79s2.15,4.79,4.79,4.79,4.79-2.14,4.79-4.79-2.14-4.79-4.79-4.79Zm0-14.43c-2.8,0-5.06,2.27-5.06,5.06s2.27,5.06,5.06,5.06,5.06-2.27,5.06-5.06-2.27-5.06-5.06-5.06Zm-14.16-13.25c-2.3,0-4.16,1.86-4.16,4.16s1.86,4.16,4.16,4.16,4.16-1.86,4.16-4.16-1.86-4.16-4.16-4.16Zm14.16,56.82c-2.19,0-3.97,1.78-3.97,3.96s1.78,3.96,3.97,3.96,3.96-1.77,3.96-3.96-1.78-3.96-3.96-3.96Zm0-61.79c2.78,0,5.02-2.25,5.02-5.02s-2.25-5.02-5.02-5.02-5.02,2.25-5.02,5.02,2.25,5.02,5.02,5.02Zm0-43.6c2.15,0,3.89-1.74,3.89-3.89s-1.74-3.89-3.89-3.89-3.89,1.74-3.89,3.89,1.74,3.89,3.89,3.89Zm0,29.17c2.62,0,4.75-2.13,4.75-4.75s-2.13-4.75-4.75-4.75-4.75,2.13-4.75,4.75,2.13,4.75,4.75,4.75Zm0-43.92c1.82,0,3.3-1.48,3.3-3.3s-1.48-3.3-3.3-3.3-3.3,1.48-3.3,3.3,1.48,3.3,3.3,3.3Zm14.16,59.29c3.29,0,5.97-2.67,5.97-5.97s-2.67-5.97-5.97-5.97-5.97,2.67-5.97,5.97,2.67,5.97,5.97,5.97Zm0,45.32c-2.95,0-5.34,2.39-5.34,5.34s2.39,5.34,5.34,5.34,5.34-2.39,5.34-5.34-2.39-5.34-5.34-5.34Zm0,29.53c-2.28,0-4.12,1.84-4.12,4.12s1.84,4.12,4.12,4.12,4.12-1.85,4.12-4.12-1.84-4.12-4.12-4.12Zm0-72.78c-3.38,0-6.12,2.74-6.12,6.12s2.74,6.12,6.12,6.12,6.12-2.74,6.12-6.12-2.74-6.12-6.12-6.12Zm14.16-30.3c3.34,0,6.04-2.71,6.04-6.05s-2.71-6.04-6.04-6.04-6.04,2.71-6.04,6.04,2.71,6.05,6.04,6.05Zm-14.16-45.29c.59,0,1.13-.16,1.6-.44l-4.38-4.38c-.28.47-.44,1.02-.44,1.6,0,1.78,1.44,3.22,3.22,3.22Zm0,133.54c-2.64,0-4.79,2.14-4.79,4.79s2.15,4.79,4.79,4.79,4.79-2.14,4.79-4.79-2.14-4.79-4.79-4.79Zm28.31-1.34c-3.38,0-6.12,2.74-6.12,6.12,0,2.35,1.32,4.38,3.26,5.41l8.27-8.27c-1.03-1.94-3.06-3.26-5.41-3.26Zm33.95-25.28l5.42-5.42c-2.51.91-4.5,2.9-5.42,5.42Zm-62.26-17.1c-3.34,0-6.04,2.71-6.04,6.04s2.71,6.04,6.04,6.04,6.04-2.71,6.04-6.04-2.71-6.04-6.04-6.04Zm0,73.45c-1.86,0-3.37,1.51-3.37,3.38,0,1.61,1.13,2.95,2.63,3.29l4.03-4.03c-.34-1.51-1.68-2.63-3.29-2.63Zm0-59.05c-3.21,0-5.81,2.6-5.81,5.81s2.6,5.81,5.81,5.81,5.81-2.6,5.81-5.81-2.6-5.81-5.81-5.81Zm14.16-44.3c3.6,0,6.52-2.92,6.52-6.52s-2.92-6.51-6.52-6.51-6.52,2.92-6.52,6.51,2.92,6.52,6.52,6.52Zm25.21-14.07c-2.97,1.22-5.07,4.14-5.07,7.55,0,4.51,3.65,8.16,8.16,8.16s8.16-3.66,8.16-8.16c0-3.41-2.09-6.33-5.06-7.55.51-.24.98-.55,1.42-.9l-10.23-10.23c-.99,1.24-1.59,2.81-1.59,4.53,0,2.92,1.72,5.44,4.2,6.6Zm-11.06.19c3.75,0,6.79-3.04,6.79-6.79s-3.04-6.79-6.79-6.79-6.79,3.04-6.79,6.79,3.04,6.79,6.79,6.79Zm-14.16-15.61c2.95,0,5.34-2.39,5.34-5.34s-2.39-5.34-5.34-5.34-5.34,2.39-5.34,5.34,2.39,5.34,5.34,5.34Zm-28.31,89.27c-2.47,0-4.48,2-4.48,4.47s2,4.47,4.48,4.47,4.48-2,4.48-4.47-2-4.47-4.48-4.47Zm14.16-104.8c2.19,0,3.96-1.77,3.96-3.97s-1.78-3.96-3.96-3.96-3.97,1.78-3.97,3.96,1.78,3.97,3.97,3.97Zm28.31,16.16c1.35,0,2.58-.45,3.58-1.21l-8.34-8.34c-.75,1-1.21,2.23-1.21,3.58,0,3.29,2.67,5.97,5.97,5.97Zm-28.31,28.04c3.14,0,5.69-2.55,5.69-5.69s-2.55-5.69-5.69-5.69-5.69,2.55-5.69,5.69,2.55,5.69,5.69,5.69Zm0-14.67c2.86,0,5.18-2.32,5.18-5.18s-2.32-5.18-5.18-5.18-5.18,2.32-5.18,5.18,2.32,5.18,5.18,5.18ZM744.35,23.34c2.78,0,5.02-2.25,5.02-5.02s-2.25-5.02-5.02-5.02-5.02,2.25-5.02,5.02,2.25,5.02,5.02,5.02Zm0,15.1c3.29,0,5.97-2.67,5.97-5.97s-2.67-5.97-5.97-5.97-5.97,2.67-5.97,5.97,2.67,5.97,5.97,5.97Zm42.46-15.33c2.64,0,4.79-2.14,4.79-4.79s-2.14-4.79-4.79-4.79-4.79,2.15-4.79,4.79,2.14,4.79,4.79,4.79Zm-42.47-14.86c2.26,0,4.08-1.83,4.08-4.08s-1.83-4.08-4.08-4.08-4.08,1.83-4.08,4.08,1.83,4.08,4.08,4.08Zm56.62,45.67c-3.3,0-6.06,2.33-6.72,5.44-.62-3.25-3.31-5.76-6.64-6.1,3.31-.39,5.88-3.21,5.88-6.62,0-3.69-2.99-6.67-6.67-6.67s-6.67,2.99-6.67,6.67c0,3.42,2.57,6.23,5.88,6.62-3.81.4-6.78,3.62-6.78,7.53,0,2.9,1.63,5.41,4.02,6.69-1.26.6-2.35,1.51-3.16,2.64-1.58-2.43-4.32-4.04-7.44-4.04-2.82,0-5.33,1.32-6.96,3.38-.66-.86-1.46-1.6-2.38-2.18,1.98-1.47,3.27-3.83,3.27-6.48,0-4.47-3.62-8.09-8.09-8.09-3.13,0-5.84,1.79-7.19,4.39-1-1.88-2.74-3.3-4.83-3.89,2.77-.9,4.77-3.5,4.77-6.57,0-3.81-3.1-6.91-6.91-6.91s-6.91,3.09-6.91,6.91c0,3.07,2,5.67,4.77,6.57-3.32.93-5.75,3.97-5.75,7.59,0,4.36,3.53,7.89,7.89,7.89,3.02,0,5.64-1.7,6.97-4.19.57,1.1,1.38,2.05,2.37,2.79-2.55,1.6-4.25,4.44-4.25,7.67,0,5.01,4.06,9.07,9.07,9.07,2.94,0,5.54-1.4,7.2-3.57,1.62,2.05,4.13,3.38,6.96,3.38,3.12,0,5.85-1.61,7.44-4.04,1.5,2.09,3.95,3.45,6.72,3.45,4.57,0,8.28-3.71,8.28-8.28,0-3.3-1.93-6.14-4.72-7.47,1.99-1.06,3.44-2.98,3.88-5.26.66,3.11,3.41,5.44,6.72,5.44,3.79,0,6.87-3.07,6.87-6.87s-3.07-6.87-6.87-6.87Zm-70.78,12.86c-3.41,0-6.33,2.09-7.55,5.07-1.17-2.48-3.68-4.2-6.6-4.2-1.94,0-3.71.76-5.01,2.01l10.3,10.3c.53-.56.99-1.2,1.32-1.9,1.22,2.97,4.14,5.06,7.55,5.06,4.51,0,8.16-3.65,8.16-8.16s-3.66-8.16-8.16-8.16Zm28.31-58.45c2.3,0,4.16-1.86,4.16-4.16s-1.86-4.16-4.16-4.16-4.16,1.86-4.16,4.16,1.86,4.16,4.16,4.16Zm50.35,64.34l3.99-3.99c-1.85.67-3.31,2.14-3.99,3.99Zm-36.2-34.14c3.34,0,6.04-2.71,6.04-6.04s-2.71-6.04-6.04-6.04-6.04,2.71-6.04,6.04,2.71,6.04,6.04,6.04Zm0-15.14c2.8,0,5.06-2.27,5.06-5.06s-2.27-5.06-5.06-5.06-5.06,2.27-5.06,5.06,2.27,5.06,5.06,5.06Zm-14.16,15.22c3.38,0,6.12-2.74,6.12-6.12s-2.74-6.12-6.12-6.12-6.12,2.74-6.12,6.12,2.74,6.12,6.12,6.12Zm0-15.14c2.84,0,5.14-2.3,5.14-5.14s-2.3-5.14-5.14-5.14-5.14,2.3-5.14,5.14,2.3,5.14,5.14,5.14Zm-28.31,29.68c3.6,0,6.52-2.92,6.52-6.52s-2.92-6.52-6.52-6.52-6.51,2.92-6.51,6.52,2.92,6.52,6.51,6.52Zm0-14.98c3.14,0,5.69-2.55,5.69-5.69s-2.55-5.69-5.69-5.69-5.69,2.55-5.69,5.69,2.55,5.69,5.69,5.69Zm0-30.12c2.15,0,3.89-1.74,3.89-3.89s-1.74-3.88-3.89-3.88-3.89,1.74-3.89,3.88,1.74,3.89,3.89,3.89Zm0,15.02c2.62,0,4.75-2.13,4.75-4.75s-2.13-4.75-4.75-4.75-4.75,2.13-4.75,4.75,2.13,4.75,4.75,4.75Zm14.16,56.53c-5.25,0-9.5,4.25-9.5,9.5s4.25,9.5,9.5,9.5,9.5-4.25,9.5-9.5-4.25-9.5-9.5-9.5Zm-6.3,1323.45l-3.83,3.83c1.64-.84,2.98-2.18,3.83-3.83Zm45.82,4.54l-5.62-5.62c.91,2.63,2.99,4.71,5.62,5.62ZM25.83,818.39c-1.36,0-2.53.81-3.06,1.97,1.09,1.6,2.21,3.19,3.38,4.75,1.71-.16,3.06-1.59,3.06-3.34,0-1.87-1.51-3.38-3.37-3.38Zm742.68,580.62c0-5.53-4.48-10.01-10.01-10.01s-10.01,4.48-10.01,10.01,4.48,10.01,10.01,10.01,10.01-4.48,10.01-10.01Zm-14.67,14.16c0-5.25-4.25-9.5-9.5-9.5s-9.5,4.25-9.5,9.5,4.25,9.5,9.5,9.5,9.5-4.25,9.5-9.5Zm4.66,65.63c-2.84,0-5.14,2.3-5.14,5.14s2.3,5.14,5.14,5.14,5.14-2.3,5.14-5.14-2.3-5.14-5.14-5.14Zm0-15.14c-3.38,0-6.12,2.74-6.12,6.12s2.74,6.12,6.12,6.12,6.12-2.74,6.12-6.12-2.74-6.12-6.12-6.12Zm-70.78,16.98c-1.82,0-3.3,1.48-3.3,3.3s1.48,3.3,3.3,3.3,3.3-1.48,3.3-3.3-1.48-3.3-3.3-3.3Zm-13.33-13.96l-3.92,3.92c.37,1.38,1.61,2.39,3.1,2.39,1.78,0,3.22-1.44,3.22-3.22,0-1.49-1.02-2.73-2.39-3.1Zm84.11,27.25c-2.3,0-4.16,1.86-4.16,4.16s1.86,4.16,4.16,4.16,4.16-1.86,4.16-4.16-1.86-4.16-4.16-4.16Zm42.46.59c-1.97,0-3.57,1.6-3.57,3.57,0,.49.1.95.28,1.38,2.23-.83,4.43-1.72,6.62-2.67-.52-1.34-1.81-2.29-3.32-2.29ZM114.43,741.68c-1.14-.45-2.37-.7-3.67-.7-5.53,0-10.01,4.48-10.01,10.01s4.48,10.01,10.01,10.01,10.01-4.48,10.01-10.01c0-1.3-.25-2.53-.7-3.67l-5.64-5.64ZM815.13,54.66c-3.38,0-6.12,2.74-6.12,6.12s2.48,5.85,5.64,6.1l6.59-6.59c-.25-3.15-2.88-5.64-6.1-5.64Zm10.78,1429.29c0,.31.05.6.13.88,1.73-1.18,3.44-2.41,5.13-3.68-.54-.37-1.19-.58-1.89-.58-1.87,0-3.38,1.51-3.38,3.37Zm-138.18-18.12c-2.19,0-3.96,1.78-3.96,3.96s1.78,3.97,3.96,3.97,3.97-1.78,3.97-3.97-1.78-3.96-3.97-3.96ZM800.97,22.79c2.47,0,4.48-2,4.48-4.48s-2-4.48-4.48-4.48-4.48,2-4.48,4.48,2,4.48,4.48,4.48Zm0,15.02c2.95,0,5.34-2.39,5.34-5.34s-2.39-5.34-5.34-5.34-5.34,2.39-5.34,5.34,2.39,5.34,5.34,5.34Zm0,14.94c3.38,0,6.12-2.74,6.12-6.12s-2.74-6.12-6.12-6.12-6.12,2.74-6.12,6.12,2.74,6.12,6.12,6.12Zm-14.16-44.66c2.17,0,3.93-1.76,3.93-3.93s-1.76-3.92-3.93-3.92-3.93,1.76-3.93,3.92,1.76,3.93,3.93,3.93Zm0,30.19c3.21,0,5.81-2.6,5.81-5.81s-2.6-5.81-5.81-5.81-5.81,2.6-5.81,5.81,2.6,5.81,5.81,5.81Zm14.16-30.55c1.97,0,3.57-1.6,3.57-3.56-2.07-.84-4.15-1.63-6.24-2.36-.55.63-.9,1.45-.9,2.35,0,1.97,1.6,3.57,3.57,3.57Zm-96.16,1428.55l-8.12,8.12c1.02,1.81,2.97,3.04,5.2,3.04,3.29,0,5.97-2.67,5.97-5.97,0-2.23-1.23-4.17-3.04-5.2Zm-2.92,14.01c-2.95,0-5.34,2.39-5.34,5.34s2.39,5.34,5.34,5.34,5.34-2.39,5.34-5.34-2.39-5.34-5.34-5.34Zm0,29.76c-2.15,0-3.89,1.74-3.89,3.89s1.74,3.89,3.89,3.89,3.89-1.74,3.89-3.89-1.74-3.89-3.89-3.89ZM673.57,29.25c-.82,0-1.55.31-2.12.82l4.52,4.52c.5-.56.82-1.3.82-2.12,0-1.78-1.44-3.22-3.22-3.22Z"/><path class="cls-1" d="m633.87,399.3c-7-6.61-12.71-12.79-17.34-18.33h-3.1c13.39,16.94,24.88,23.59,35.41,42.02,9.53,16.68,14.97,26.74,39.99,41.97.67.41,1.33.8,1.99,1.2l3.19-2.43c-1.39-.88-2.78-1.77-4.2-2.7-31.93-21.03-29.27-36.57-55.93-61.72Zm-.47,27.04c-5.84-21.25-16.32-26.01-29.85-45.37h-2.8c3.02,4.33,6.68,9.02,11.81,15.31,7.04,8.63,12.5,14.92,15.07,25.71,2.46,10.35,2.72,22.9,16.76,33.64,7.9,6.04,20.5,13.25,33.8,20.11l2.75-2.09c-38.65-20.5-42.08-27.46-47.54-47.32Zm33.01,29.19c-21.91-16.53-18.49-30.95-34.44-49.33-5.4-6.22-14.38-15.35-22.16-25.23h-2.93c2.3,3.04,5.02,6.39,8.36,10.26,18.98,21.92,17.98,19.43,26.36,41.12,3.49,9.03,9.1,16.48,16.77,22.4,6.89,5.32,16.03,10.96,25.86,16.4l2.94-2.24c-.5-.28-.99-.56-1.49-.85-6.65-3.83-13.15-7.9-19.28-12.53Zm-52.07-16.09c-2.6-16.04,3.1-22.14-9.09-38.92-5.01-6.89-9.75-13.08-13.69-19.55h-2.6c1.24,2.16,2.54,4.25,4.15,6.66,13.4,20.06,17.08,20.17,16.35,39.78-.65,17.62,1.54,26.51,16.29,36.19,6.8,4.46,24.95,13.22,41.13,20.74l2.56-1.95c-4.9-2.35-9.8-4.71-14.68-7.09-26.09-12.71-37.76-19.35-40.43-35.86Zm-11.38,23.41c-11.42-11.49-6.65-27.57-5.65-41.03.81-10.88-2.02-15.5-8.8-26.11-4.18-6.54-6.53-10.79-8.49-14.74h-2.65c2.3,4.74,4.91,9.71,9.06,16.31,10.6,16.87,7.64,21.52,5.67,38.89-3.58,31.61,11.39,35.22,61.14,55.92.75.31,1.49.62,2.23.93l2.74-2.09c-2.23-.96-4.46-1.91-6.72-2.86-21.02-8.83-39.11-15.75-48.53-25.23Zm20.18-36.1c-.37-3.01-.81-6.01-1.57-8.95-3.23-12.57-12.48-19.31-23.89-36.83h-2.9c2.94,4.58,6.74,9.69,13.42,18.48,4.67,6.14,8.3,11.63,9.61,19.25,1.93,11.28-.85,26.02,12.39,37.29,5.49,4.68,12.12,8.56,18.67,12.07,8.17,4.38,16.02,8.37,23.59,12.05l2.63-2c-2.28-1.15-4.57-2.3-6.84-3.47-37.96-19.41-42.31-25.07-45.1-47.89Zm17.77-45.78h-4.3c11.06,10.14,23.81,19.82,37.02,31.58,13.25,11.8,25.46,23.97,40.62,35.78l3.81-2.9c-5.16-4.01-10.92-8.74-17.53-14.51-39.24-34.23-47.91-39.6-59.61-49.96Zm75.16,49.94c-43.3-33.91-56.49-43.72-64.37-49.94h-5.09c9.17,7.66,19.86,15.76,32.26,25.57,14.15,11.19,28.27,23.36,43.79,35.39l2.21-1.68-8.81-9.34Zm-37.58-39.83c-1.12-.82-2.24-1.63-3.38-2.46-3.5-2.54-6.99-5.08-10.47-7.65h-6.07c8.76,6.69,20.18,15.15,35.89,27.03l-15.96-16.91Zm-8.06,24.49c-13.47-13.14-26.38-22.71-38.67-34.6h-3.82c12.73,12.77,27.95,24.15,46.08,43.88,12.46,13.56,22.67,22.85,31.85,29.85l3.81-2.89c-6.91-5.33-14.51-11.91-23.22-20.46-5.35-5.25-10.66-10.54-16.03-15.77Zm-29.33-17.76c-6.93-6.13-12.63-11.78-17.3-16.85h-3.55c12.64,14.23,25.54,22.86,40.18,42.28,10.27,13.62,19.15,24.97,37.52,37.46l3.58-2.72c-26.97-19.12-32.95-35.86-60.44-60.18Zm-36.59,42.58c-.93-12.54,3.1-22.4-1.96-32.84-3.62-7.49-10.34-14.94-16.73-26.59h-2.63c9.87,18.99,19.53,24.78,18.32,40.38-1.82,23.45-4.22,34.31,16.03,46.7,7.47,4.57,11.62,6.45,43.72,20.56l2.63-2c-7.79-3.55-16.68-7.61-27.11-12.35-26.18-11.89-31.29-20.51-32.28-33.86Zm-28.66,96.63c5.77.59,12.14,1.2,19.18,1.94l4.2-3.19c-8.4-1-16.35-1.92-23.54-2.85l.15,4.11Zm-.34-9.02c8.29,1.32,17.79,2.58,28.59,4.06l3.93-2.99c-12.39-1.87-23.31-3.47-32.68-5.28l.16,4.21Zm.95,25.08l2.76-2.1c-.93-.04-1.89-.07-2.84-.11l.08,2.2Zm-1.47-38.97l.17,4.48c10.24,2.45,22.71,4.54,37.38,7.06l3.77-2.87c-13.94-2.63-24.65-4.56-32.41-6.35-3.22-.74-6.18-1.52-8.92-2.32Zm1.2,31.87c3.08.19,6.04.37,8.88.56l4.53-3.45c-4.79-.38-9.3-.71-13.56-1.03l.15,3.92Zm-1.86-49.26c11.29,6.61,28.98,10.97,53.85,17.04l3.32-2.53c-29.44-7.81-46.96-12.58-57.42-20.91l.24,6.4Zm7.91-73.54c.57-11.83-2.35-17.9-6.72-26-1.98-3.66-3.67-7.15-5.35-10.67l.27,7.25c1.21,2.5,2.6,5.3,4.27,8.56,4.58,8.95,4.7,19.48,3.36,29.26-1.3,9.53-3.96,18.13-2.43,29.25,2.83,20.52,27.06,29.01,66.76,42.11l2.99-2.28c-23.17-8.28-37.77-13.84-48.15-19.75-28.38-16.15-16.04-36.51-15.02-57.74Zm5.86,11.63c.64-4.27,1.4-8.53,1.68-12.85,1.09-16.75-6.54-20.72-15.75-40.96,0-.01,0-.02-.01-.03h-2.87c2.58,5.45,5.3,11.15,9.61,18.61,8.56,14.8,5.55,24.53,3.18,40.37-4.21,28.07,7.75,35.59,46.38,50.74,6.74,2.64,12.93,5.05,18.66,7.27l3.03-2.3c-12.95-5.17-23.81-9.53-24.88-9.98-37.19-15.42-43.17-23.17-39.02-50.86Zm-13.33,73.69c.16.06.31.12.48.17,10.81,3.83,24.91,6.61,45.36,10.85l3.4-2.58c-22.07-5.01-38.22-8.78-49.42-13.63l.2,5.18Zm-1.4-37.01l.37,9.84c.57.68,1.17,1.35,1.83,2.01,9.85,9.8,23.97,14.47,59.76,24.98l3.2-2.44c-32.24-10.06-48.28-15.67-58.56-25.19-3.07-2.85-5.19-5.94-6.6-9.21Zm-2.58-68.42l1.52,40.42c1-6.5,2.18-13.06,2.33-19.4.17-7.31-1.03-14.33-3.86-21.02Z"/><path class="cls-1" d="m845.11,460.02c-1.41.93-2.81,1.82-4.2,2.7l3.19,2.43c.66-.4,1.32-.79,1.99-1.2,25.02-15.22,30.46-25.29,39.99-41.97,10.53-18.43,22.02-25.08,35.41-42.02h-3.1c-4.63,5.54-10.34,11.72-17.34,18.33-26.66,25.16-24.01,40.69-55.93,61.72Zm8.87,12.64l2.75,2.09c13.3-6.86,25.9-14.07,33.8-20.11,14.04-10.74,14.3-23.29,16.76-33.64,2.57-10.79,8.02-17.08,15.07-25.71,5.13-6.29,8.79-10.99,11.81-15.31h-2.8c-13.53,19.36-24.01,24.12-29.85,45.37-5.46,19.86-8.89,26.82-47.54,47.32Zm-4.76-5.6c-.51.29-.99.57-1.49.85l2.94,2.24c9.83-5.44,18.97-11.08,25.86-16.4,7.67-5.92,13.28-13.36,16.77-22.4,8.39-21.69,7.38-19.2,26.36-41.12,3.35-3.87,6.07-7.21,8.36-10.26h-2.93c-7.78,9.88-16.76,19.01-22.16,25.23-15.95,18.38-12.53,32.8-34.44,49.33-6.14,4.63-12.63,8.7-19.28,12.53Zm30.92,7.25c-4.89,2.38-9.78,4.74-14.68,7.09l2.56,1.95c16.18-7.52,34.33-16.28,41.13-20.74,14.75-9.68,16.94-18.57,16.29-36.19-.72-19.61,2.95-19.72,16.35-39.78,1.61-2.41,2.91-4.49,4.15-6.66h-2.6c-3.94,6.47-8.69,12.66-13.69,19.55-12.19,16.78-6.49,22.88-9.09,38.92-2.67,16.5-14.35,23.15-40.43,35.86Zm3.28,12.78c-2.25.95-4.49,1.9-6.72,2.86l2.74,2.09c.74-.31,1.48-.62,2.23-.93,49.75-20.7,64.72-24.31,61.14-55.92-1.97-17.36-4.93-22.02,5.67-38.89,4.15-6.61,6.76-11.57,9.06-16.31h-2.65c-1.96,3.96-4.31,8.2-8.49,14.74-6.78,10.61-9.61,15.23-8.8,26.11,1,13.45,5.76,29.54-5.65,41.03-9.42,9.47-27.51,16.4-48.53,25.23Zm-16.75-13.44c-2.28,1.16-4.56,2.32-6.84,3.47l2.63,2c7.57-3.68,15.43-7.67,23.59-12.05,6.55-3.52,13.18-7.39,18.67-12.07,13.24-11.27,10.46-26.01,12.39-37.29,1.31-7.62,4.94-13.11,9.61-19.25,6.68-8.79,10.48-13.89,13.42-18.48h-2.9c-11.42,17.52-20.66,24.26-23.89,36.83-.76,2.94-1.2,5.94-1.57,8.95-2.79,22.82-7.14,28.48-45.1,47.89Zm-32.28-43.71c-6.61,5.77-12.37,10.5-17.53,14.51l3.81,2.9c15.16-11.81,27.37-23.98,40.62-35.78,13.21-11.76,25.95-21.45,37.02-31.58h-4.3c-11.7,10.36-20.38,15.73-59.61,49.96Zm-24.36,9.32l2.21,1.68c15.52-12.04,29.65-24.2,43.79-35.39,12.4-9.81,23.09-17.91,32.26-25.57h-5.09c-7.87,6.22-21.06,16.03-64.37,49.94l-8.81,9.34Zm30.43-32.25c15.7-11.88,27.12-20.34,35.89-27.03h-6.07c-3.48,2.57-6.97,5.11-10.47,7.65-1.14.83-2.26,1.65-3.38,2.46l-15.96,16.91Zm7.99,23.35c-8.71,8.56-16.31,15.13-23.22,20.46l3.81,2.89c9.18-7,19.4-16.29,31.85-29.85,18.12-19.74,33.35-31.11,46.08-43.88h-3.82c-12.29,11.89-25.21,21.46-38.67,34.6-5.37,5.23-10.68,10.52-16.03,15.77Zm-15.08,26.65l3.58,2.72c18.37-12.49,27.25-23.85,37.52-37.46,14.64-19.42,27.55-28.05,40.18-42.28h-3.55c-4.67,5.06-10.37,10.71-17.3,16.85-27.49,24.32-33.46,41.06-60.44,60.18Zm64.74,16.26c-10.44,4.74-19.33,8.8-27.11,12.35l2.63,2c32.09-14.11,36.25-15.99,43.72-20.56,20.25-12.39,17.85-23.25,16.03-46.7-1.21-15.6,8.46-21.39,18.32-40.38h-2.63c-6.39,11.65-13.1,19.11-16.73,26.59-5.05,10.44-1.02,20.3-1.96,32.84-.99,13.35-6.1,21.97-32.28,33.86Zm61.1,58.67c-7.18.93-15.14,1.85-23.54,2.85l4.2,3.19c7.04-.73,13.41-1.35,19.18-1.94l.15-4.11Zm.34-9.12c-9.37,1.81-20.29,3.41-32.68,5.28l3.93,2.99c10.8-1.49,20.3-2.74,28.59-4.06l.16-4.21Zm-1.02,27.08c-.95.03-1.91.07-2.84.11l2.76,2.1.08-2.2Zm-7.53-34.45c-7.75,1.79-18.47,3.72-32.41,6.35l3.77,2.87c14.68-2.51,27.14-4.61,37.38-7.06l.17-4.48c-2.74.8-5.7,1.58-8.92,2.32Zm7.87,25.63c-4.25.32-8.77.66-13.56,1.03l4.53,3.45c2.83-.19,5.79-.37,8.88-.56l.15-3.92Zm1.95-51.74c-10.46,8.33-27.98,13.11-57.42,20.91l3.32,2.53c24.87-6.07,42.56-10.44,53.85-17.04l.24-6.4Zm-23.17-9.4c-10.38,5.91-24.98,11.47-48.15,19.75l2.99,2.28c39.71-13.1,63.93-21.59,66.76-42.11,1.54-11.12-1.12-19.72-2.43-29.25-1.34-9.78-1.22-20.31,3.36-29.26,1.67-3.26,3.06-6.06,4.27-8.56l.27-7.25c-1.68,3.53-3.37,7.02-5.35,10.67-4.37,8.09-7.29,14.16-6.72,26,1.02,21.23,13.36,41.59-15.02,57.74Zm-29.86,4.75c-1.08.45-11.93,4.81-24.88,9.98l3.03,2.3c5.73-2.22,11.92-4.63,18.66-7.27,38.63-15.14,50.59-22.67,46.38-50.74-2.38-15.84-5.38-25.57,3.18-40.37,4.31-7.46,7.04-13.16,9.61-18.61h-2.87s0,.02-.01.03c-9.2,20.24-16.84,24.21-15.75,40.96.28,4.32,1.04,8.58,1.68,12.85,4.15,27.69-1.83,35.44-39.02,50.86Zm52.54,17.64c-11.2,4.85-27.36,8.61-49.42,13.63l3.4,2.58c20.45-4.24,34.55-7.02,45.36-10.85.16-.06.32-.12.48-.17l.2-5.18Zm-5.4-22.61c-10.29,9.52-26.32,15.12-58.56,25.19l3.2,2.44c35.79-10.52,49.91-15.18,59.76-24.98.66-.66,1.26-1.33,1.83-2.01l.37-9.84c-1.41,3.28-3.53,6.37-6.6,9.21Zm5.32-56.62c.15,6.34,1.33,12.91,2.33,19.4l1.52-40.42c-2.82,6.69-4.03,13.71-3.86,21.02Z"/><path class="cls-1" d="m688.81,1040.78c1.41-.93,2.81-1.82,4.2-2.7l-3.19-2.43c-.66.4-1.32.79-1.99,1.2-25.02,15.22-30.46,25.29-39.99,41.97-10.53,18.43-22.02,25.08-35.41,42.02h3.1c4.63-5.54,10.34-11.72,17.34-18.33,26.66-25.16,24.01-40.69,55.93-61.72Zm-8.87-12.64l-2.75-2.09c-13.3,6.86-25.9,14.07-33.8,20.11-14.04,10.74-14.3,23.29-16.76,33.64-2.57,10.79-8.02,17.08-15.07,25.71-5.13,6.29-8.79,10.99-11.81,15.31h2.8c13.53-19.36,24.01-24.12,29.85-45.37,5.46-19.86,8.89-26.82,47.54-47.32Zm4.76,5.6c.51-.29.99-.57,1.49-.85l-2.94-2.24c-9.83,5.44-18.97,11.08-25.86,16.4-7.67,5.92-13.28,13.36-16.77,22.4-8.39,21.69-7.38,19.2-26.36,41.12-3.35,3.87-6.07,7.21-8.36,10.26h2.93c7.78-9.88,16.76-19.01,22.16-25.23,15.95-18.38,12.53-32.8,34.44-49.33,6.14-4.63,12.63-8.7,19.28-12.53Zm-30.92-7.25c4.89-2.38,9.78-4.74,14.68-7.09l-2.56-1.95c-16.18,7.52-34.33,16.28-41.13,20.74-14.75,9.68-16.94,18.57-16.29,36.19.72,19.61-2.95,19.72-16.35,39.78-1.61,2.41-2.91,4.49-4.15,6.66h2.6c3.94-6.47,8.69-12.66,13.69-19.55,12.19-16.78,6.49-22.88,9.09-38.92,2.67-16.5,14.35-23.15,40.43-35.86Zm-3.28-12.78c2.25-.95,4.49-1.9,6.72-2.86l-2.74-2.09c-.74.31-1.48.62-2.23.93-49.75,20.7-64.72,24.31-61.14,55.92,1.97,17.36,4.93,22.02-5.67,38.89-4.15,6.61-6.76,11.57-9.06,16.31h2.65c1.96-3.96,4.31-8.2,8.49-14.74,6.78-10.61,9.61-15.23,8.8-26.11-1-13.45-5.76-29.54,5.65-41.03,9.42-9.47,27.51-16.4,48.53-25.23Zm16.75,13.44c2.28-1.16,4.56-2.32,6.84-3.47l-2.63-2c-7.57,3.68-15.43,7.67-23.59,12.05-6.55,3.52-13.18,7.39-18.67,12.07-13.24,11.27-10.46,26.01-12.39,37.29-1.31,7.62-4.94,13.11-9.61,19.25-6.68,8.79-10.48,13.89-13.42,18.48h2.9c11.42-17.52,20.66-24.26,23.89-36.83.76-2.94,1.2-5.94,1.57-8.95,2.79-22.82,7.14-28.48,45.1-47.89Zm32.28,43.71c6.61-5.77,12.37-10.5,17.53-14.51l-3.81-2.9c-15.16,11.81-27.37,23.98-40.62,35.78-13.21,11.76-25.95,21.45-37.02,31.58h4.3c11.7-10.36,20.38-15.73,59.61-49.96Zm24.36-9.32l-2.21-1.68c-15.52,12.04-29.65,24.2-43.79,35.39-12.4,9.81-23.09,17.91-32.26,25.57h5.09c7.87-6.22,21.06-16.03,64.37-49.94l8.81-9.34Zm-30.43,32.25c-15.7,11.88-27.12,20.34-35.89,27.03h6.07c3.48-2.57,6.97-5.11,10.47-7.65,1.14-.83,2.26-1.65,3.38-2.46l15.96-16.91Zm-7.99-23.35c8.71-8.56,16.31-15.13,23.22-20.46l-3.81-2.89c-9.18,7-19.4,16.29-31.85,29.85-18.12,19.74-33.35,31.11-46.08,43.88h3.82c12.29-11.89,25.21-21.46,38.67-34.6,5.37-5.23,10.68-10.52,16.03-15.77Zm15.08-26.65l-3.58-2.72c-18.37,12.49-27.25,23.85-37.52,37.46-14.64,19.42-27.55,28.05-40.18,42.28h3.55c4.67-5.06,10.37-10.71,17.3-16.85,27.49-24.32,33.46-41.06,60.44-60.18Zm-64.74-16.26c10.44-4.74,19.33-8.8,27.11-12.35l-2.63-2c-32.09,14.11-36.25,15.99-43.72,20.56-20.25,12.39-17.85,23.25-16.03,46.7,1.21,15.6-8.46,21.39-18.32,40.38h2.63c6.39-11.65,13.1-19.11,16.73-26.59,5.05-10.44,1.02-20.3,1.96-32.84.99-13.35,6.1-21.97,32.28-33.86Zm-61.1-58.67c7.18-.93,15.14-1.85,23.54-2.85l-4.2-3.19c-7.04.73-13.41,1.35-19.18,1.94l-.15,4.11Zm-.34,9.12c9.37-1.81,20.29-3.41,32.68-5.28l-3.93-2.99c-10.8,1.49-20.3,2.74-28.59,4.06l-.16,4.21Zm1.02-27.08c.95-.03,1.91-.07,2.84-.11l-2.76-2.1-.08,2.2Zm7.53,34.45c7.75-1.79,18.47-3.72,32.41-6.35l-3.77-2.87c-14.68,2.51-27.14,4.61-37.38,7.06l-.17,4.48c2.74-.8,5.7-1.58,8.92-2.32Zm-7.87-25.63c4.25-.32,8.77-.66,13.56-1.03l-4.53-3.45c-2.83.19-5.79.37-8.88.56l-.15,3.92Zm-1.95,51.74c10.46-8.33,27.98-13.11,57.42-20.91l-3.32-2.53c-24.87,6.07-42.56,10.44-53.85,17.04l-.24,6.4Zm23.17,9.4c10.38-5.91,24.98-11.47,48.15-19.75l-2.99-2.28c-39.71,13.1-63.93,21.59-66.76,42.11-1.54,11.12,1.12,19.72,2.43,29.25,1.34,9.78,1.22,20.31-3.36,29.26-1.67,3.26-3.06,6.06-4.27,8.56l-.27,7.25c1.68-3.53,3.37-7.02,5.35-10.67,4.37-8.09,7.29-14.16,6.72-26-1.02-21.23-13.36-41.59,15.02-57.74Zm29.86-4.75c1.08-.45,11.93-4.81,24.88-9.98l-3.03-2.3c-5.73,2.22-11.92,4.63-18.66,7.27-38.63,15.14-50.59,22.67-46.38,50.74,2.38,15.84,5.38,25.57-3.18,40.37-4.31,7.46-7.04,13.16-9.61,18.61h2.87s0-.02.01-.03c9.2-20.24,16.84-24.21,15.75-40.96-.28-4.32-1.04-8.58-1.68-12.85-4.15-27.69,1.83-35.44,39.02-50.86Zm-52.54-17.64c11.2-4.85,27.36-8.61,49.42-13.63l-3.4-2.58c-20.45,4.24-34.55,7.02-45.36,10.85-.16.06-.32.12-.48.17l-.2,5.18Zm5.4,22.61c10.29-9.52,26.32-15.12,58.56-25.19l-3.2-2.44c-35.79,10.52-49.91,15.18-59.76,24.98-.66.66-1.26,1.33-1.83,2.01l-.37,9.84c1.41-3.28,3.53-6.37,6.6-9.21Zm-5.32,56.62c-.15-6.34-1.33-12.91-2.33-19.4l-1.52,40.42c2.82-6.69,4.03-13.71,3.86-21.02Z"/><path class="cls-1" d="m902.04,1102.51c7,6.61,12.71,12.79,17.34,18.33h3.1c-13.39-16.94-24.88-23.59-35.41-42.02-9.53-16.68-14.97-26.74-39.99-41.97-.67-.41-1.33-.8-1.99-1.2l-3.19,2.43c1.39.88,2.78,1.77,4.2,2.7,31.93,21.03,29.27,36.57,55.93,61.72Zm.47-27.04c5.84,21.25,16.32,26.01,29.85,45.37h2.8c-3.02-4.33-6.68-9.02-11.81-15.31-7.04-8.63-12.5-14.92-15.07-25.71-2.46-10.35-2.72-22.9-16.76-33.64-7.9-6.04-20.5-13.25-33.8-20.11l-2.75,2.09c38.65,20.5,42.08,27.46,47.54,47.32Zm-33.01-29.19c21.91,16.53,18.49,30.95,34.44,49.33,5.4,6.22,14.38,15.35,22.16,25.23h2.93c-2.3-3.04-5.02-6.39-8.36-10.26-18.98-21.92-17.98-19.43-26.36-41.12-3.49-9.03-9.1-16.48-16.77-22.4-6.89-5.32-16.03-10.96-25.86-16.4l-2.94,2.24c.5.28.99.56,1.49.85,6.65,3.83,13.15,7.9,19.28,12.53Zm52.07,16.09c2.6,16.04-3.1,22.14,9.09,38.92,5.01,6.89,9.75,13.08,13.69,19.55h2.6c-1.24-2.16-2.54-4.25-4.15-6.66-13.4-20.06-17.08-20.17-16.35-39.78.65-17.62-1.54-26.51-16.29-36.19-6.8-4.46-24.95-13.22-41.13-20.74l-2.56,1.95c4.9,2.35,9.8,4.71,14.68,7.09,26.09,12.71,37.76,19.35,40.43,35.86Zm11.38-23.41c11.42,11.49,6.65,27.57,5.65,41.03-.81,10.88,2.02,15.5,8.8,26.11,4.18,6.54,6.53,10.79,8.49,14.74h2.65c-2.3-4.74-4.91-9.71-9.06-16.31-10.6-16.87-7.64-21.52-5.67-38.89,3.58-31.61-11.39-35.22-61.14-55.92-.75-.31-1.49-.62-2.23-.93l-2.74,2.09c2.23.96,4.46,1.91,6.72,2.86,21.02,8.83,39.11,15.75,48.53,25.23Zm-20.18,36.1c.37,3.01.81,6.01,1.57,8.95,3.23,12.57,12.48,19.31,23.89,36.83h2.9c-2.94-4.58-6.74-9.69-13.42-18.48-4.67-6.14-8.3-11.63-9.61-19.25-1.93-11.28.85-26.02-12.39-37.29-5.49-4.68-12.12-8.56-18.67-12.07-8.17-4.38-16.02-8.37-23.59-12.05l-2.63,2c2.28,1.15,4.57,2.3,6.84,3.47,37.96,19.41,42.31,25.07,45.1,47.89Zm-17.77,45.78h4.3c-11.06-10.14-23.81-19.82-37.02-31.58-13.25-11.8-25.46-23.97-40.62-35.78l-3.81,2.9c5.16,4.01,10.92,8.74,17.53,14.51,39.24,34.23,47.91,39.6,59.61,49.96Zm-75.16-49.94c43.3,33.91,56.49,43.72,64.37,49.94h5.09c-9.17-7.66-19.86-15.76-32.26-25.57-14.15-11.19-28.27-23.36-43.79-35.39l-2.21,1.68,8.81,9.34Zm37.58,39.83c1.12.82,2.24,1.63,3.38,2.46,3.5,2.54,6.99,5.08,10.47,7.65h6.07c-8.76-6.69-20.18-15.15-35.89-27.03l15.96,16.91Zm8.06-24.49c13.47,13.14,26.38,22.71,38.67,34.6h3.82c-12.73-12.77-27.95-24.15-46.08-43.88-12.46-13.56-22.67-22.85-31.85-29.85l-3.81,2.89c6.91,5.33,14.51,11.91,23.22,20.46,5.35,5.25,10.66,10.54,16.03,15.77Zm29.33,17.76c6.93,6.13,12.63,11.78,17.3,16.85h3.55c-12.64-14.23-25.54-22.86-40.18-42.28-10.27-13.62-19.15-24.97-37.52-37.46l-3.58,2.72c26.97,19.12,32.95,35.86,60.44,60.18Zm36.59-42.58c.93,12.54-3.1,22.4,1.96,32.84,3.62,7.49,10.34,14.94,16.73,26.59h2.63c-9.87-18.99-19.53-24.78-18.32-40.38,1.82-23.45,4.22-34.31-16.03-46.7-7.47-4.57-11.62-6.45-43.72-20.56l-2.63,2c7.79,3.55,16.68,7.61,27.11,12.35,26.18,11.89,31.29,20.51,32.28,33.86Zm28.66-96.63c-5.77-.59-12.14-1.2-19.18-1.94l-4.2,3.19c8.4,1,16.35,1.92,23.54,2.85l-.15-4.11Zm.34,9.02c-8.29-1.32-17.79-2.58-28.59-4.06l-3.93,2.99c12.39,1.87,23.31,3.47,32.68,5.28l-.16-4.21Zm-.95-25.08l-2.76,2.1c.93.04,1.89.07,2.84.11l-.08-2.2Zm1.47,38.97l-.17-4.48c-10.24-2.45-22.71-4.54-37.38-7.06l-3.77,2.87c13.94,2.63,24.65,4.56,32.41,6.35,3.22.74,6.18,1.52,8.92,2.32Zm-1.2-31.87c-3.08-.19-6.04-.37-8.88-.56l-4.53,3.45c4.79.38,9.3.71,13.56,1.03l-.15-3.92Zm1.86,49.26c-11.29-6.61-28.98-10.97-53.85-17.04l-3.32,2.53c29.44,7.81,46.96,12.58,57.42,20.91l-.24-6.4Zm-7.91,73.54c-.57,11.83,2.35,17.9,6.72,26,1.98,3.66,3.67,7.15,5.35,10.67l-.27-7.25c-1.21-2.5-2.6-5.3-4.27-8.56-4.58-8.95-4.7-19.48-3.36-29.26,1.3-9.53,3.96-18.13,2.43-29.25-2.83-20.52-27.06-29.01-66.76-42.11l-2.99,2.28c23.17,8.28,37.77,13.84,48.15,19.75,28.38,16.15,16.04,36.51,15.02,57.74Zm-5.86-11.63c-.64,4.27-1.4,8.53-1.68,12.85-1.09,16.75,6.54,20.72,15.75,40.96,0,.01,0,.02.01.03h2.87c-2.58-5.45-5.3-11.15-9.61-18.61-8.56-14.8-5.55-24.53-3.18-40.37,4.21-28.07-7.75-35.59-46.38-50.74-6.74-2.64-12.93-5.05-18.66-7.27l-3.03,2.3c12.95,5.17,23.81,9.53,24.88,9.98,37.19,15.42,43.17,23.17,39.02,50.86Zm13.33-73.69c-.16-.06-.31-.12-.48-.17-10.81-3.83-24.91-6.61-45.36-10.85l-3.4,2.58c22.07,5.01,38.22,8.78,49.42,13.63l-.2-5.18Zm1.4,37.01l-.37-9.84c-.57-.68-1.17-1.35-1.83-2.01-9.85-9.8-23.97-14.47-59.76-24.98l-3.2,2.44c32.24,10.06,48.28,15.67,58.56,25.19,3.07,2.85,5.19,5.94,6.6,9.21Zm2.58,68.42l-1.52-40.42c-1,6.5-2.18,13.06-2.33,19.4-.17,7.31,1.03,14.33,3.86,21.02Z"/></g></svg>