<?xml version="1.0" encoding="UTF-8"?><svg id="detail" xmlns="http://www.w3.org/2000/svg" viewBox="0 0 1509.07 1509.07"><defs><style>.cls-1{fill:#222;}</style></defs><g id="details"><g><circle class="cls-1" cx="372.63" cy="874.56" r="2.43"/><circle class="cls-1" cx="346.13" cy="874.56" r="2.43"/><circle class="cls-1" cx="319.63" cy="874.56" r="2.43"/><circle class="cls-1" cx="293.13" cy="874.56" r="2.43"/><circle class="cls-1" cx="266.63" cy="874.56" r="2.43"/><circle class="cls-1" cx="240.13" cy="874.56" r="2.43"/><circle class="cls-1" cx="213.63" cy="874.56" r="2.43"/><circle class="cls-1" cx="187.13" cy="874.56" r="2.43"/><circle class="cls-1" cx="160.63" cy="874.56" r="2.43"/><circle class="cls-1" cx="372.63" cy="848.06" r="2.43"/><circle class="cls-1" cx="346.13" cy="848.06" r="2.43"/><circle class="cls-1" cx="319.63" cy="848.06" r="2.43"/><circle class="cls-1" cx="293.13" cy="848.06" r="2.43"/><circle class="cls-1" cx="266.63" cy="848.06" r="2.43"/><circle class="cls-1" cx="240.13" cy="848.06" r="2.43"/><circle class="cls-1" cx="213.63" cy="848.06" r="2.43"/><circle class="cls-1" cx="187.13" cy="848.06" r="2.43"/><circle class="cls-1" cx="160.63" cy="848.06" r="2.43"/><circle class="cls-1" cx="372.63" cy="821.56" r="2.43"/><circle class="cls-1" cx="346.13" cy="821.56" r="2.43"/><circle class="cls-1" cx="319.63" cy="821.56" r="2.43"/><circle class="cls-1" cx="293.13" cy="821.56" r="2.43"/><circle class="cls-1" cx="266.63" cy="821.56" r="2.43"/><circle class="cls-1" cx="240.13" cy="821.56" r="2.43"/><circle class="cls-1" cx="213.63" cy="821.56" r="2.43"/><circle class="cls-1" cx="187.13" cy="821.56" r="2.43"/><circle class="cls-1" cx="160.63" cy="821.56" r="2.43"/><circle class="cls-1" cx="372.63" cy="795.06" r="2.43"/><circle class="cls-1" cx="346.13" cy="795.06" r="2.43"/><circle class="cls-1" cx="319.63" cy="795.06" r="2.43"/><circle class="cls-1" cx="293.13" cy="795.06" r="2.43"/><circle class="cls-1" cx="266.63" cy="795.06" r="2.43"/><circle class="cls-1" cx="240.13" cy="795.06" r="2.43"/><circle class="cls-1" cx="213.63" cy="795.06" r="2.43"/><circle class="cls-1" cx="187.13" cy="795.06" r="2.43"/><circle class="cls-1" cx="160.63" cy="795.06" r="2.43"/><circle class="cls-1" cx="372.63" cy="768.57" r="2.43"/><circle class="cls-1" cx="346.13" cy="768.57" r="2.43"/><circle class="cls-1" cx="319.63" cy="768.57" r="2.43"/><circle class="cls-1" cx="293.13" cy="768.57" r="2.43"/><circle class="cls-1" cx="266.63" cy="768.57" r="2.43"/><circle class="cls-1" cx="240.13" cy="768.57" r="2.43"/><circle class="cls-1" cx="213.63" cy="768.57" r="2.43"/><circle class="cls-1" cx="187.13" cy="768.57" r="2.43"/><circle class="cls-1" cx="160.63" cy="768.57" r="2.43"/><circle class="cls-1" cx="372.63" cy="742.07" r="2.43"/><circle class="cls-1" cx="346.13" cy="742.07" r="2.43"/><circle class="cls-1" cx="319.63" cy="742.07" r="2.43"/><circle class="cls-1" cx="293.13" cy="742.07" r="2.43"/><circle class="cls-1" cx="266.63" cy="742.07" r="2.43"/><circle class="cls-1" cx="240.13" cy="742.07" r="2.43"/><circle class="cls-1" cx="213.63" cy="742.07" r="2.43"/><circle class="cls-1" cx="187.13" cy="742.07" r="2.43"/><circle class="cls-1" cx="160.63" cy="742.07" r="2.43"/><circle class="cls-1" cx="372.63" cy="715.57" r="2.43"/><circle class="cls-1" cx="346.13" cy="715.57" r="2.43"/><circle class="cls-1" cx="319.63" cy="715.57" r="2.43"/><circle class="cls-1" cx="293.13" cy="715.57" r="2.43"/><circle class="cls-1" cx="266.63" cy="715.57" r="2.43"/><circle class="cls-1" cx="240.13" cy="715.57" r="2.43"/><circle class="cls-1" cx="213.63" cy="715.57" r="2.43"/><circle class="cls-1" cx="187.13" cy="715.57" r="2.43"/><circle class="cls-1" cx="160.63" cy="715.57" r="2.43"/><circle class="cls-1" cx="372.63" cy="689.07" r="2.43"/><circle class="cls-1" cx="346.13" cy="689.07" r="2.43"/><circle class="cls-1" cx="319.63" cy="689.07" r="2.43"/><circle class="cls-1" cx="293.13" cy="689.07" r="2.43"/><circle class="cls-1" cx="266.63" cy="689.07" r="2.43"/><circle class="cls-1" cx="240.13" cy="689.07" r="2.43"/><circle class="cls-1" cx="213.63" cy="689.07" r="2.43"/><circle class="cls-1" cx="187.13" cy="689.07" r="2.43"/><circle class="cls-1" cx="160.63" cy="689.07" r="2.43"/><circle class="cls-1" cx="372.63" cy="662.57" r="2.43"/><circle class="cls-1" cx="346.13" cy="662.57" r="2.43"/><circle class="cls-1" cx="319.63" cy="662.57" r="2.43"/><circle class="cls-1" cx="293.13" cy="662.57" r="2.43"/><circle class="cls-1" cx="266.63" cy="662.57" r="2.43"/><circle class="cls-1" cx="240.13" cy="662.57" r="2.43"/><circle class="cls-1" cx="213.63" cy="662.57" r="2.43"/><circle class="cls-1" cx="187.13" cy="662.57" r="2.43"/><circle class="cls-1" cx="160.63" cy="662.57" r="2.43"/><circle class="cls-1" cx="372.63" cy="636.07" r="2.43"/><circle class="cls-1" cx="346.13" cy="636.07" r="2.43"/><circle class="cls-1" cx="319.63" cy="636.07" r="2.43"/><circle class="cls-1" cx="293.13" cy="636.07" r="2.43"/><circle class="cls-1" cx="266.63" cy="636.07" r="2.43"/><circle class="cls-1" cx="240.13" cy="636.07" r="2.43"/><circle class="cls-1" cx="213.63" cy="636.07" r="2.43"/><circle class="cls-1" cx="187.13" cy="636.07" r="2.43"/><circle class="cls-1" cx="160.63" cy="636.07" r="2.43"/></g><g><circle class="cls-1" cx="864.47" cy="1362.47" r="2.43"/><circle class="cls-1" cx="837.97" cy="1362.47" r="2.43"/><circle class="cls-1" cx="811.47" cy="1362.47" r="2.43"/><circle class="cls-1" cx="784.97" cy="1362.47" r="2.43"/><circle class="cls-1" cx="758.47" cy="1362.47" r="2.43"/><circle class="cls-1" cx="731.97" cy="1362.47" r="2.43"/><circle class="cls-1" cx="705.47" cy="1362.47" r="2.43"/><circle class="cls-1" cx="678.97" cy="1362.47" r="2.43"/><circle class="cls-1" cx="652.47" cy="1362.47" r="2.43"/><circle class="cls-1" cx="864.47" cy="1335.97" r="2.43"/><circle class="cls-1" cx="837.97" cy="1335.97" r="2.43"/><circle class="cls-1" cx="811.47" cy="1335.97" r="2.43"/><circle class="cls-1" cx="784.97" cy="1335.97" r="2.43"/><circle class="cls-1" cx="758.47" cy="1335.97" r="2.43"/><circle class="cls-1" cx="731.97" cy="1335.97" r="2.43"/><circle class="cls-1" cx="705.47" cy="1335.97" r="2.43"/><circle class="cls-1" cx="678.97" cy="1335.97" r="2.43"/><circle class="cls-1" cx="652.47" cy="1335.97" r="2.43"/><circle class="cls-1" cx="864.47" cy="1309.47" r="2.43"/><circle class="cls-1" cx="837.97" cy="1309.47" r="2.43"/><circle class="cls-1" cx="811.47" cy="1309.47" r="2.43"/><circle class="cls-1" cx="784.97" cy="1309.47" r="2.43"/><circle class="cls-1" cx="758.47" cy="1309.47" r="2.43"/><circle class="cls-1" cx="731.97" cy="1309.47" r="2.43"/><circle class="cls-1" cx="705.47" cy="1309.47" r="2.43"/><circle class="cls-1" cx="678.97" cy="1309.47" r="2.43"/><circle class="cls-1" cx="652.47" cy="1309.47" r="2.43"/><circle class="cls-1" cx="864.47" cy="1282.97" r="2.43"/><circle class="cls-1" cx="837.97" cy="1282.97" r="2.43"/><circle class="cls-1" cx="811.47" cy="1282.97" r="2.43"/><circle class="cls-1" cx="784.97" cy="1282.97" r="2.43"/><circle class="cls-1" cx="758.47" cy="1282.97" r="2.43"/><circle class="cls-1" cx="731.97" cy="1282.97" r="2.43"/><circle class="cls-1" cx="705.47" cy="1282.97" r="2.43"/><circle class="cls-1" cx="678.97" cy="1282.97" r="2.43"/><circle class="cls-1" cx="652.47" cy="1282.97" r="2.43"/><circle class="cls-1" cx="864.47" cy="1256.47" r="2.43"/><circle class="cls-1" cx="837.97" cy="1256.47" r="2.43"/><circle class="cls-1" cx="811.47" cy="1256.47" r="2.43"/><circle class="cls-1" cx="784.97" cy="1256.47" r="2.43"/><circle class="cls-1" cx="758.47" cy="1256.47" r="2.43"/><circle class="cls-1" cx="731.97" cy="1256.47" r="2.43"/><circle class="cls-1" cx="705.47" cy="1256.47" r="2.43"/><circle class="cls-1" cx="678.97" cy="1256.47" r="2.43"/><circle class="cls-1" cx="652.47" cy="1256.47" r="2.43"/><circle class="cls-1" cx="864.47" cy="1229.97" r="2.43"/><circle class="cls-1" cx="837.97" cy="1229.97" r="2.43"/><circle class="cls-1" cx="811.47" cy="1229.97" r="2.43"/><circle class="cls-1" cx="784.97" cy="1229.97" r="2.43"/><circle class="cls-1" cx="758.47" cy="1229.97" r="2.43"/><circle class="cls-1" cx="731.97" cy="1229.97" r="2.43"/><circle class="cls-1" cx="705.47" cy="1229.97" r="2.43"/><circle class="cls-1" cx="678.97" cy="1229.97" r="2.43"/><circle class="cls-1" cx="652.47" cy="1229.97" r="2.43"/><circle class="cls-1" cx="864.47" cy="1203.47" r="2.43"/><circle class="cls-1" cx="837.97" cy="1203.47" r="2.43"/><circle class="cls-1" cx="811.47" cy="1203.47" r="2.43"/><circle class="cls-1" cx="784.97" cy="1203.47" r="2.43"/><circle class="cls-1" cx="758.47" cy="1203.47" r="2.43"/><circle class="cls-1" cx="731.97" cy="1203.47" r="2.43"/><circle class="cls-1" cx="705.47" cy="1203.47" r="2.43"/><circle class="cls-1" cx="678.97" cy="1203.47" r="2.43"/><circle class="cls-1" cx="652.47" cy="1203.47" r="2.43"/><circle class="cls-1" cx="864.47" cy="1176.97" r="2.43"/><circle class="cls-1" cx="837.97" cy="1176.97" r="2.43"/><circle class="cls-1" cx="811.47" cy="1176.97" r="2.43"/><circle class="cls-1" cx="784.97" cy="1176.97" r="2.43"/><circle class="cls-1" cx="758.47" cy="1176.97" r="2.43"/><circle class="cls-1" cx="731.97" cy="1176.97" r="2.43"/><circle class="cls-1" cx="705.47" cy="1176.97" r="2.43"/><circle class="cls-1" cx="678.97" cy="1176.97" r="2.43"/><circle class="cls-1" cx="652.47" cy="1176.97" r="2.43"/><circle class="cls-1" cx="864.47" cy="1150.47" r="2.43"/><circle class="cls-1" cx="837.97" cy="1150.47" r="2.43"/><circle class="cls-1" cx="811.47" cy="1150.47" r="2.43"/><circle class="cls-1" cx="784.97" cy="1150.47" r="2.43"/><circle class="cls-1" cx="758.47" cy="1150.47" r="2.43"/><circle class="cls-1" cx="731.97" cy="1150.47" r="2.43"/><circle class="cls-1" cx="705.47" cy="1150.47" r="2.43"/><circle class="cls-1" cx="678.97" cy="1150.47" r="2.43"/><circle class="cls-1" cx="652.47" cy="1150.47" r="2.43"/><circle class="cls-1" cx="864.47" cy="1123.97" r="2.43"/><circle class="cls-1" cx="837.97" cy="1123.97" r="2.43"/><circle class="cls-1" cx="678.97" cy="1123.97" r="2.43"/><circle class="cls-1" cx="652.47" cy="1123.97" r="2.43"/></g><g><circle class="cls-1" cx="758.47" cy="406.48" r="2.43"/><circle class="cls-1" cx="864.47" cy="379.98" r="2.43"/><circle class="cls-1" cx="837.97" cy="379.98" r="2.43"/><circle class="cls-1" cx="678.97" cy="379.98" r="2.43"/><circle class="cls-1" cx="652.47" cy="379.98" r="2.43"/><circle class="cls-1" cx="864.47" cy="353.48" r="2.43"/><circle class="cls-1" cx="837.97" cy="353.48" r="2.43"/><circle class="cls-1" cx="811.47" cy="353.48" r="2.43"/><circle class="cls-1" cx="784.97" cy="353.48" r="2.43"/><circle class="cls-1" cx="758.47" cy="353.48" r="2.43"/><circle class="cls-1" cx="731.97" cy="353.48" r="2.43"/><circle class="cls-1" cx="705.47" cy="353.48" r="2.43"/><circle class="cls-1" cx="678.97" cy="353.48" r="2.43"/><circle class="cls-1" cx="652.47" cy="353.48" r="2.43"/><circle class="cls-1" cx="864.47" cy="326.98" r="2.43"/><circle class="cls-1" cx="837.97" cy="326.98" r="2.43"/><circle class="cls-1" cx="811.47" cy="326.98" r="2.43"/><circle class="cls-1" cx="784.97" cy="326.98" r="2.43"/><circle class="cls-1" cx="758.47" cy="326.98" r="2.43"/><circle class="cls-1" cx="731.97" cy="326.98" r="2.43"/><circle class="cls-1" cx="705.47" cy="326.98" r="2.43"/><circle class="cls-1" cx="678.97" cy="326.98" r="2.43"/><circle class="cls-1" cx="652.47" cy="326.98" r="2.43"/><circle class="cls-1" cx="864.47" cy="300.48" r="2.43"/><circle class="cls-1" cx="837.97" cy="300.48" r="2.43"/><circle class="cls-1" cx="811.47" cy="300.48" r="2.43"/><circle class="cls-1" cx="784.97" cy="300.48" r="2.43"/><circle class="cls-1" cx="758.47" cy="300.48" r="2.43"/><circle class="cls-1" cx="731.97" cy="300.48" r="2.43"/><circle class="cls-1" cx="705.47" cy="300.48" r="2.43"/><circle class="cls-1" cx="678.97" cy="300.48" r="2.43"/><circle class="cls-1" cx="652.47" cy="300.48" r="2.43"/><circle class="cls-1" cx="864.47" cy="273.98" r="2.43"/><circle class="cls-1" cx="837.97" cy="273.98" r="2.43"/><circle class="cls-1" cx="811.47" cy="273.98" r="2.43"/><circle class="cls-1" cx="784.97" cy="273.98" r="2.43"/><circle class="cls-1" cx="758.47" cy="273.98" r="2.43"/><circle class="cls-1" cx="731.97" cy="273.98" r="2.43"/><circle class="cls-1" cx="705.47" cy="273.98" r="2.43"/><circle class="cls-1" cx="678.97" cy="273.98" r="2.43"/><circle class="cls-1" cx="652.47" cy="273.98" r="2.43"/><circle class="cls-1" cx="864.47" cy="247.48" r="2.43"/><circle class="cls-1" cx="837.97" cy="247.48" r="2.43"/><circle class="cls-1" cx="811.47" cy="247.48" r="2.43"/><circle class="cls-1" cx="784.97" cy="247.48" r="2.43"/><circle class="cls-1" cx="758.47" cy="247.48" r="2.43"/><circle class="cls-1" cx="731.97" cy="247.48" r="2.43"/><circle class="cls-1" cx="705.47" cy="247.48" r="2.43"/><circle class="cls-1" cx="678.97" cy="247.48" r="2.43"/><circle class="cls-1" cx="652.47" cy="247.48" r="2.43"/><circle class="cls-1" cx="864.47" cy="220.98" r="2.43"/><circle class="cls-1" cx="837.97" cy="220.98" r="2.43"/><circle class="cls-1" cx="811.47" cy="220.98" r="2.43"/><circle class="cls-1" cx="784.97" cy="220.98" r="2.43"/><circle class="cls-1" cx="758.47" cy="220.98" r="2.43"/><circle class="cls-1" cx="731.97" cy="220.98" r="2.43"/><circle class="cls-1" cx="705.47" cy="220.98" r="2.43"/><circle class="cls-1" cx="678.97" cy="220.98" r="2.43"/><circle class="cls-1" cx="652.47" cy="220.98" r="2.43"/><circle class="cls-1" cx="864.47" cy="194.48" r="2.43"/><circle class="cls-1" cx="837.97" cy="194.48" r="2.43"/><circle class="cls-1" cx="811.47" cy="194.48" r="2.43"/><circle class="cls-1" cx="784.97" cy="194.48" r="2.43"/><circle class="cls-1" cx="758.47" cy="194.48" r="2.43"/><circle class="cls-1" cx="731.97" cy="194.48" r="2.43"/><circle class="cls-1" cx="705.47" cy="194.48" r="2.43"/><circle class="cls-1" cx="678.97" cy="194.48" r="2.43"/><circle class="cls-1" cx="652.47" cy="194.48" r="2.43"/><circle class="cls-1" cx="864.47" cy="167.98" r="2.43"/><circle class="cls-1" cx="837.97" cy="167.98" r="2.43"/><circle class="cls-1" cx="811.47" cy="167.98" r="2.43"/><circle class="cls-1" cx="784.97" cy="167.98" r="2.43"/><circle class="cls-1" cx="758.47" cy="167.98" r="2.43"/><circle class="cls-1" cx="731.97" cy="167.98" r="2.43"/><circle class="cls-1" cx="705.47" cy="167.98" r="2.43"/><circle class="cls-1" cx="678.97" cy="167.98" r="2.43"/><circle class="cls-1" cx="652.47" cy="167.98" r="2.43"/></g><g><circle class="cls-1" cx="1365.23" cy="874.56" r="2.43"/><circle class="cls-1" cx="1338.73" cy="874.56" r="2.43"/><circle class="cls-1" cx="1312.23" cy="874.56" r="2.43"/><circle class="cls-1" cx="1285.73" cy="874.56" r="2.43"/><circle class="cls-1" cx="1259.23" cy="874.56" r="2.43"/><circle class="cls-1" cx="1232.73" cy="874.56" r="2.43"/><circle class="cls-1" cx="1206.23" cy="874.56" r="2.43"/><circle class="cls-1" cx="1179.73" cy="874.56" r="2.43"/><circle class="cls-1" cx="1153.23" cy="874.56" r="2.43"/><circle class="cls-1" cx="1365.23" cy="848.06" r="2.43"/><circle class="cls-1" cx="1338.73" cy="848.06" r="2.43"/><circle class="cls-1" cx="1312.23" cy="848.06" r="2.43"/><circle class="cls-1" cx="1285.73" cy="848.06" r="2.43"/><circle class="cls-1" cx="1259.23" cy="848.06" r="2.43"/><circle class="cls-1" cx="1232.73" cy="848.06" r="2.43"/><circle class="cls-1" cx="1206.23" cy="848.06" r="2.43"/><circle class="cls-1" cx="1179.73" cy="848.06" r="2.43"/><circle class="cls-1" cx="1153.23" cy="848.06" r="2.43"/><circle class="cls-1" cx="1365.23" cy="821.56" r="2.43"/><circle class="cls-1" cx="1338.73" cy="821.56" r="2.43"/><circle class="cls-1" cx="1312.23" cy="821.56" r="2.43"/><circle class="cls-1" cx="1285.73" cy="821.56" r="2.43"/><circle class="cls-1" cx="1259.23" cy="821.56" r="2.43"/><circle class="cls-1" cx="1232.73" cy="821.56" r="2.43"/><circle class="cls-1" cx="1206.23" cy="821.56" r="2.43"/><circle class="cls-1" cx="1179.73" cy="821.56" r="2.43"/><circle class="cls-1" cx="1153.23" cy="821.56" r="2.43"/><circle class="cls-1" cx="1365.23" cy="795.06" r="2.43"/><circle class="cls-1" cx="1338.73" cy="795.06" r="2.43"/><circle class="cls-1" cx="1312.23" cy="795.06" r="2.43"/><circle class="cls-1" cx="1285.73" cy="795.06" r="2.43"/><circle class="cls-1" cx="1259.23" cy="795.06" r="2.43"/><circle class="cls-1" cx="1232.73" cy="795.06" r="2.43"/><circle class="cls-1" cx="1206.23" cy="795.06" r="2.43"/><circle class="cls-1" cx="1179.73" cy="795.06" r="2.43"/><circle class="cls-1" cx="1153.23" cy="795.06" r="2.43"/><circle class="cls-1" cx="1365.23" cy="768.57" r="2.43"/><circle class="cls-1" cx="1338.73" cy="768.57" r="2.43"/><circle class="cls-1" cx="1312.23" cy="768.57" r="2.43"/><circle class="cls-1" cx="1285.73" cy="768.57" r="2.43"/><circle class="cls-1" cx="1259.23" cy="768.57" r="2.43"/><circle class="cls-1" cx="1232.73" cy="768.57" r="2.43"/><circle class="cls-1" cx="1206.23" cy="768.57" r="2.43"/><circle class="cls-1" cx="1179.73" cy="768.57" r="2.43"/><circle class="cls-1" cx="1153.23" cy="768.57" r="2.43"/><circle class="cls-1" cx="1365.23" cy="742.07" r="2.43"/><circle class="cls-1" cx="1338.73" cy="742.07" r="2.43"/><circle class="cls-1" cx="1312.23" cy="742.07" r="2.43"/><circle class="cls-1" cx="1285.73" cy="742.07" r="2.43"/><circle class="cls-1" cx="1259.23" cy="742.07" r="2.43"/><circle class="cls-1" cx="1232.73" cy="742.07" r="2.43"/><circle class="cls-1" cx="1206.23" cy="742.07" r="2.43"/><circle class="cls-1" cx="1179.73" cy="742.07" r="2.43"/><circle class="cls-1" cx="1153.23" cy="742.07" r="2.43"/><circle class="cls-1" cx="1365.23" cy="715.57" r="2.43"/><circle class="cls-1" cx="1338.73" cy="715.57" r="2.43"/><circle class="cls-1" cx="1312.23" cy="715.57" r="2.43"/><circle class="cls-1" cx="1285.73" cy="715.57" r="2.43"/><circle class="cls-1" cx="1259.23" cy="715.57" r="2.43"/><circle class="cls-1" cx="1232.73" cy="715.57" r="2.43"/><circle class="cls-1" cx="1206.23" cy="715.57" r="2.43"/><circle class="cls-1" cx="1179.73" cy="715.57" r="2.43"/><circle class="cls-1" cx="1153.23" cy="715.57" r="2.43"/><circle class="cls-1" cx="1365.23" cy="689.07" r="2.43"/><circle class="cls-1" cx="1338.73" cy="689.07" r="2.43"/><circle class="cls-1" cx="1312.23" cy="689.07" r="2.43"/><circle class="cls-1" cx="1285.73" cy="689.07" r="2.43"/><circle class="cls-1" cx="1259.23" cy="689.07" r="2.43"/><circle class="cls-1" cx="1232.73" cy="689.07" r="2.43"/><circle class="cls-1" cx="1206.23" cy="689.07" r="2.43"/><circle class="cls-1" cx="1179.73" cy="689.07" r="2.43"/><circle class="cls-1" cx="1153.23" cy="689.07" r="2.43"/><circle class="cls-1" cx="1365.23" cy="662.57" r="2.43"/><circle class="cls-1" cx="1338.73" cy="662.57" r="2.43"/><circle class="cls-1" cx="1312.23" cy="662.57" r="2.43"/><circle class="cls-1" cx="1285.73" cy="662.57" r="2.43"/><circle class="cls-1" cx="1259.23" cy="662.57" r="2.43"/><circle class="cls-1" cx="1232.73" cy="662.57" r="2.43"/><circle class="cls-1" cx="1206.23" cy="662.57" r="2.43"/><circle class="cls-1" cx="1179.73" cy="662.57" r="2.43"/><circle class="cls-1" cx="1153.23" cy="662.57" r="2.43"/><circle class="cls-1" cx="1365.23" cy="636.07" r="2.43"/><circle class="cls-1" cx="1338.73" cy="636.07" r="2.43"/><circle class="cls-1" cx="1312.23" cy="636.07" r="2.43"/><circle class="cls-1" cx="1285.73" cy="636.07" r="2.43"/><circle class="cls-1" cx="1259.23" cy="636.07" r="2.43"/><circle class="cls-1" cx="1232.73" cy="636.07" r="2.43"/><circle class="cls-1" cx="1206.23" cy="636.07" r="2.43"/><circle class="cls-1" cx="1179.73" cy="636.07" r="2.43"/><circle class="cls-1" cx="1153.23" cy="636.07" r="2.43"/></g><path class="cls-1" d="m756.17,516.42c-4.85,0-7.39,2.45-9.42,4.43-1.85,1.79-3.19,3.08-6.12,3.08s-4.26-1.3-6.12-3.08c-2.04-1.97-4.58-4.43-9.43-4.43s-7.38,2.45-9.42,4.43c-1.85,1.79-3.19,3.08-6.11,3.08s-4.26-1.3-6.12-3.08c-2.04-1.97-4.58-4.43-9.42-4.43s-7.39,2.45-9.43,4.42c-1.85,1.79-3.19,3.08-6.12,3.08s-4.26-1.3-6.12-3.08c-2.04-1.97-4.58-4.43-9.43-4.43s-7.39,2.45-9.43,4.43c-1.85,1.79-3.19,3.08-6.12,3.08s-4.27-1.3-6.12-3.08c-2.04-1.97-4.58-4.43-9.43-4.43s-7.39,2.45-9.42,4.43c-1.85,1.79-3.19,3.08-6.12,3.08s-4.27-1.3-6.13-3.08c-2.05-1.97-4.59-4.42-9.43-4.42s-7.4,2.45-9.43,4.42c-1.86,1.79-3.19,3.08-6.13,3.08s-4.27-1.3-6.13-3.08c-2.05-1.97-4.59-4.42-9.43-4.42-1.33,0-2.39,1.07-2.39,2.41s1.06,2.41,2.39,2.41c2.93,0,4.27,1.3,6.13,3.08,2.05,1.97,4.59,4.42,9.43,4.42s7.4-2.45,9.44-4.42c1.86-1.79,3.19-3.08,6.13-3.08s4.27,1.3,6.13,3.08c2.05,1.97,4.59,4.42,9.43,4.42s7.39-2.45,9.42-4.43c1.85-1.79,3.19-3.08,6.12-3.08s4.27,1.3,6.12,3.08c2.04,1.97,4.58,4.43,9.43,4.43s7.39-2.45,9.43-4.43c1.85-1.79,3.19-3.08,6.12-3.08s4.26,1.3,6.12,3.08c2.04,1.97,4.58,4.43,9.43,4.43s7.39-2.45,9.43-4.43c1.85-1.79,3.19-3.08,6.12-3.08s4.26,1.3,6.11,3.08c2.04,1.97,4.58,4.43,9.42,4.43s7.38-2.45,9.42-4.43c1.85-1.79,3.19-3.08,6.11-3.08s4.26,1.3,6.12,3.08c2.04,1.97,4.58,4.43,9.42,4.43s7.39-2.45,9.43-4.43c1.85-1.79,3.19-3.08,6.12-3.08,1.33,0,2.39-1.07,2.39-2.41s-1.07-2.4-2.39-2.4Zm0,25.74h0c-4.85,0-7.39,2.45-9.42,4.43-1.85,1.79-3.19,3.08-6.12,3.08s-4.26-1.3-6.12-3.08c-2.04-1.97-4.58-4.43-9.43-4.43s-7.38,2.45-9.42,4.43c-1.85,1.79-3.19,3.08-6.11,3.08s-4.26-1.3-6.12-3.08c-2.04-1.97-4.58-4.43-9.42-4.43s-7.39,2.45-9.43,4.42c-1.85,1.79-3.19,3.08-6.12,3.08s-4.26-1.3-6.12-3.08c-2.04-1.97-4.58-4.43-9.43-4.43s-7.39,2.45-9.43,4.43c-1.85,1.79-3.19,3.08-6.12,3.08s-4.27-1.3-6.12-3.08c-2.04-1.97-4.58-4.43-9.43-4.43s-7.39,2.45-9.42,4.43c-1.85,1.79-3.19,3.08-6.12,3.08s-4.27-1.3-6.13-3.08c-2.05-1.97-4.59-4.42-9.43-4.42s-7.4,2.45-9.43,4.42c-1.86,1.79-3.19,3.08-6.13,3.08s-4.27-1.3-6.13-3.08c-2.05-1.97-4.59-4.42-9.43-4.42-1.33,0-2.39,1.07-2.39,2.41s1.06,2.41,2.39,2.41c2.93,0,4.27,1.3,6.13,3.08,2.05,1.97,4.59,4.42,9.43,4.42s7.4-2.45,9.44-4.42c1.86-1.79,3.19-3.08,6.13-3.08s4.27,1.3,6.13,3.08c2.05,1.97,4.59,4.42,9.43,4.42s7.39-2.45,9.42-4.43c1.85-1.79,3.19-3.08,6.12-3.08s4.27,1.3,6.12,3.08c2.04,1.97,4.58,4.43,9.43,4.43s7.39-2.45,9.43-4.43c1.85-1.79,3.19-3.08,6.12-3.08s4.26,1.3,6.12,3.08c2.04,1.97,4.58,4.43,9.43,4.43s7.39-2.45,9.43-4.43c1.85-1.79,3.19-3.08,6.12-3.08s4.26,1.3,6.11,3.08c2.04,1.97,4.58,4.43,9.42,4.43s7.38-2.45,9.42-4.43c1.85-1.79,3.19-3.08,6.11-3.08s4.26,1.3,6.12,3.08c2.04,1.97,4.58,4.43,9.42,4.43s7.39-2.45,9.43-4.43c1.85-1.79,3.19-3.08,6.12-3.08,1.33,0,2.39-1.07,2.39-2.41s-1.07-2.4-2.39-2.4Zm-186.59-149.59c2.93,0,4.27,1.3,6.13,3.08,2.05,1.97,4.59,4.42,9.43,4.42s7.4-2.45,9.44-4.42c1.86-1.79,3.2-3.08,6.14-3.08s4.27,1.3,6.13,3.08c2.05,1.97,4.59,4.42,9.43,4.42s7.39-2.45,9.42-4.43c1.85-1.78,3.18-3.07,6.11-3.07s4.27,1.3,6.12,3.08c2.04,1.97,4.58,4.43,9.43,4.43s7.39-2.45,9.43-4.43c1.85-1.79,3.19-3.08,6.11-3.08s4.26,1.3,6.12,3.08c1.82,1.76,4.04,3.9,7.95,4.34l-13.34-12.21c-.24-.01-.48-.02-.74-.02-4.85,0-7.39,2.45-9.43,4.43-1.85,1.79-3.19,3.08-6.12,3.08s-4.27-1.3-6.12-3.08c-2.04-1.97-4.58-4.43-9.42-4.43s-7.39,2.45-9.42,4.43c-1.85,1.79-3.19,3.08-6.12,3.08s-4.27-1.3-6.13-3.08c-2.04-1.97-4.58-4.43-9.42-4.43s-7.4,2.45-9.43,4.42c-1.86,1.79-3.19,3.08-6.13,3.08s-4.27-1.3-6.13-3.08c-2.05-1.96-4.6-4.42-9.45-4.42-1.33,0-2.39,1.07-2.39,2.41s1.06,2.41,2.39,2.41Zm0,25.73c2.93,0,4.27,1.3,6.13,3.08,2.05,1.97,4.59,4.42,9.43,4.42s7.4-2.45,9.44-4.42c1.86-1.79,3.19-3.08,6.13-3.08s4.27,1.3,6.13,3.08c2.05,1.97,4.59,4.42,9.43,4.42s7.39-2.45,9.42-4.43c1.85-1.79,3.19-3.08,6.12-3.08s4.27,1.3,6.12,3.08c2.04,1.97,4.58,4.43,9.43,4.43s7.39-2.45,9.43-4.43c1.85-1.79,3.19-3.08,6.12-3.08s4.26,1.3,6.12,3.08c2.04,1.97,4.58,4.43,9.43,4.43s7.39-2.45,9.43-4.43c1.85-1.79,3.19-3.08,6.12-3.08s4.26,1.3,6.11,3.08c.85.82,1.79,1.73,2.95,2.51l-11.16-10.22c-3.53.58-5.61,2.59-7.34,4.24-1.85,1.79-3.19,3.08-6.12,3.08s-4.26-1.3-6.12-3.08c-2.04-1.97-4.58-4.43-9.43-4.43s-7.39,2.45-9.43,4.43c-1.85,1.79-3.19,3.08-6.12,3.08s-4.27-1.3-6.12-3.08c-2.04-1.97-4.58-4.43-9.43-4.43s-7.39,2.45-9.42,4.43c-1.85,1.79-3.19,3.08-6.12,3.08s-4.27-1.3-6.13-3.08c-2.05-1.97-4.59-4.42-9.43-4.42s-7.4,2.45-9.43,4.42c-1.86,1.79-3.19,3.08-6.13,3.08s-4.27-1.3-6.13-3.08c-2.05-1.97-4.59-4.42-9.43-4.42-1.33,0-2.39,1.07-2.39,2.41s1.06,2.41,2.39,2.41Zm171.05,33.24c4.85,0,7.39-2.45,9.43-4.43,1.85-1.79,3.19-3.08,6.12-3.08,1.33,0,2.39-1.07,2.39-2.41s-1.07-2.4-2.39-2.4c-4.85,0-7.39,2.45-9.42,4.43-1.85,1.79-3.19,3.08-6.12,3.08s-4.26-1.3-6.12-3.08c-1.04-1-2.21-2.13-3.74-3l-5.69,3.37c2.92,0,4.26,1.3,6.12,3.08,2.04,1.97,4.58,4.43,9.42,4.43Zm15.55,39.16c-4.85,0-7.39,2.45-9.42,4.43-1.85,1.79-3.19,3.08-6.12,3.08s-4.26-1.3-6.12-3.08c-2.04-1.97-4.58-4.43-9.43-4.43s-7.38,2.45-9.42,4.43c-1.85,1.79-3.19,3.08-6.11,3.08s-4.26-1.3-6.12-3.08c-2.04-1.97-4.58-4.43-9.42-4.43s-7.39,2.45-9.43,4.42c-1.85,1.79-3.19,3.08-6.12,3.08s-4.26-1.3-6.12-3.08c-2.04-1.97-4.58-4.43-9.43-4.43s-7.39,2.45-9.43,4.43c-1.85,1.79-3.19,3.08-6.12,3.08s-4.27-1.3-6.12-3.08c-2.04-1.97-4.58-4.43-9.43-4.43s-7.39,2.45-9.42,4.43c-1.85,1.79-3.19,3.08-6.12,3.08s-4.27-1.3-6.13-3.08c-2.05-1.97-4.59-4.42-9.43-4.42s-7.4,2.45-9.43,4.42c-1.86,1.79-3.19,3.08-6.13,3.08s-4.27-1.3-6.13-3.08c-2.05-1.97-4.59-4.42-9.43-4.42-1.33,0-2.39,1.07-2.39,2.41s1.06,2.41,2.39,2.41c2.93,0,4.27,1.3,6.13,3.08,2.05,1.97,4.59,4.42,9.43,4.42s7.4-2.45,9.44-4.42c1.86-1.79,3.19-3.08,6.13-3.08s4.27,1.3,6.13,3.08c2.05,1.97,4.59,4.42,9.43,4.42s7.39-2.45,9.42-4.43c1.85-1.79,3.19-3.08,6.12-3.08s4.27,1.3,6.12,3.08c2.04,1.97,4.58,4.43,9.43,4.43s7.39-2.45,9.43-4.43c1.85-1.79,3.19-3.08,6.12-3.08s4.26,1.3,6.12,3.08c2.04,1.97,4.58,4.43,9.43,4.43s7.39-2.45,9.43-4.43c1.85-1.79,3.19-3.08,6.12-3.08s4.26,1.3,6.11,3.08c2.04,1.97,4.58,4.43,9.42,4.43s7.38-2.45,9.42-4.43c1.85-1.79,3.19-3.08,6.11-3.08s4.26,1.3,6.12,3.08c2.04,1.97,4.58,4.43,9.42,4.43s7.39-2.45,9.43-4.43c1.85-1.79,3.19-3.08,6.12-3.08,1.33,0,2.39-1.07,2.39-2.41s-1.07-2.4-2.39-2.4Zm-186.6-46.65c2.93,0,4.27,1.3,6.13,3.08,2.05,1.97,4.59,4.42,9.43,4.42s7.4-2.45,9.44-4.42c1.86-1.79,3.19-3.08,6.13-3.08s4.27,1.3,6.13,3.08c2.05,1.97,4.59,4.42,9.43,4.42s7.39-2.45,9.42-4.43c1.85-1.79,3.19-3.08,6.12-3.08s4.27,1.3,6.12,3.08c2.04,1.97,4.58,4.43,9.43,4.43s7.39-2.45,9.43-4.43c1.85-1.79,3.19-3.08,6.12-3.08s4.26,1.3,6.12,3.08c2.04,1.97,4.58,4.43,9.43,4.43s7.39-2.45,9.43-4.43c1.85-1.79,3.19-3.08,6.12-3.08s4.26,1.3,6.11,3.08c2.04,1.97,4.58,4.43,9.42,4.43s7.38-2.45,9.42-4.43c1.85-1.79,3.19-3.08,6.11-3.08l-4.37-4c-2.21.89-3.74,2.35-5.06,3.62-1.85,1.79-3.19,3.08-6.11,3.08s-4.26-1.3-6.12-3.08c-2.04-1.97-4.58-4.43-9.42-4.43s-7.39,2.45-9.43,4.42c-1.85,1.79-3.19,3.08-6.12,3.08s-4.26-1.3-6.12-3.08c-2.04-1.97-4.58-4.43-9.43-4.43s-7.39,2.45-9.43,4.43c-1.85,1.79-3.19,3.08-6.12,3.08s-4.27-1.3-6.12-3.08c-2.04-1.97-4.58-4.43-9.43-4.43s-7.39,2.45-9.42,4.43c-1.85,1.79-3.19,3.08-6.12,3.08s-4.27-1.3-6.13-3.08c-2.05-1.97-4.59-4.42-9.43-4.42s-7.4,2.45-9.43,4.42c-1.86,1.79-3.19,3.08-6.13,3.08s-4.27-1.3-6.13-3.08c-2.05-1.97-4.59-4.42-9.43-4.42-1.33,0-2.39,1.07-2.39,2.41s1.06,2.41,2.39,2.41Zm186.6,20.93c-4.85,0-7.39,2.45-9.42,4.43-1.85,1.79-3.19,3.08-6.12,3.08s-4.26-1.3-6.12-3.08c-2.04-1.97-4.58-4.43-9.43-4.43s-7.38,2.45-9.42,4.43c-1.85,1.79-3.19,3.08-6.11,3.08s-4.26-1.3-6.12-3.08c-2.04-1.97-4.58-4.43-9.42-4.43s-7.39,2.45-9.43,4.42c-1.85,1.79-3.19,3.08-6.12,3.08s-4.26-1.3-6.12-3.08c-2.04-1.97-4.58-4.43-9.43-4.43s-7.39,2.45-9.43,4.43c-1.85,1.79-3.19,3.08-6.12,3.08s-4.27-1.3-6.12-3.08c-2.04-1.97-4.58-4.43-9.43-4.43s-7.39,2.45-9.42,4.43c-1.85,1.79-3.19,3.08-6.12,3.08s-4.27-1.3-6.13-3.08c-2.05-1.97-4.59-4.42-9.43-4.42s-7.4,2.45-9.43,4.42c-1.86,1.79-3.19,3.08-6.13,3.08s-4.27-1.3-6.13-3.08c-2.05-1.97-4.59-4.42-9.43-4.42-1.33,0-2.39,1.07-2.39,2.41s1.06,2.41,2.39,2.41c2.93,0,4.27,1.3,6.13,3.08,2.05,1.97,4.59,4.42,9.43,4.42s7.4-2.45,9.44-4.42c1.86-1.79,3.19-3.08,6.13-3.08s4.27,1.3,6.13,3.08c2.05,1.97,4.59,4.42,9.43,4.42s7.39-2.45,9.42-4.43c1.85-1.79,3.19-3.08,6.12-3.08s4.27,1.3,6.12,3.08c2.04,1.97,4.58,4.43,9.43,4.43s7.39-2.45,9.43-4.43c1.85-1.79,3.19-3.08,6.12-3.08s4.26,1.3,6.12,3.08c2.04,1.97,4.58,4.43,9.43,4.43s7.39-2.45,9.43-4.43c1.85-1.79,3.19-3.08,6.12-3.08s4.26,1.3,6.11,3.08c2.04,1.97,4.58,4.43,9.42,4.43s7.38-2.45,9.42-4.43c1.85-1.79,3.19-3.08,6.11-3.08s4.26,1.3,6.12,3.08c2.04,1.97,4.58,4.43,9.42,4.43s7.39-2.45,9.43-4.43c1.85-1.79,3.19-3.08,6.12-3.08,1.33,0,2.39-1.07,2.39-2.41s-1.07-2.4-2.39-2.4Z"/><path class="cls-1" d="m961.52,542.16h0c-4.85,0-7.39,2.45-9.42,4.43-1.85,1.79-3.19,3.08-6.12,3.08s-4.26-1.3-6.12-3.08c-2.04-1.97-4.58-4.43-9.43-4.43s-7.38,2.45-9.42,4.43c-1.85,1.79-3.19,3.08-6.11,3.08s-4.26-1.3-6.12-3.08c-2.04-1.97-4.58-4.43-9.42-4.43s-7.39,2.45-9.43,4.42c-1.85,1.79-3.19,3.08-6.12,3.08s-4.26-1.3-6.12-3.08c-2.04-1.97-4.58-4.43-9.43-4.43s-7.39,2.45-9.43,4.43c-1.85,1.79-3.19,3.08-6.12,3.08s-4.27-1.3-6.12-3.08c-2.04-1.97-4.58-4.43-9.43-4.43s-7.39,2.45-9.42,4.43c-1.85,1.79-3.19,3.08-6.12,3.08s-4.27-1.3-6.13-3.08c-2.05-1.97-4.59-4.42-9.43-4.42s-7.4,2.45-9.43,4.42c-1.86,1.79-3.19,3.08-6.13,3.08s-4.27-1.3-6.13-3.08c-2.05-1.97-4.59-4.42-9.43-4.42-1.33,0-2.39,1.07-2.39,2.41s1.06,2.41,2.39,2.41c2.93,0,4.27,1.3,6.13,3.08,2.05,1.97,4.59,4.42,9.43,4.42s7.4-2.45,9.44-4.42c1.86-1.79,3.19-3.08,6.13-3.08s4.27,1.3,6.13,3.08c2.05,1.97,4.59,4.42,9.43,4.42s7.39-2.45,9.42-4.43c1.85-1.79,3.19-3.08,6.12-3.08s4.27,1.3,6.12,3.08c2.04,1.97,4.58,4.43,9.43,4.43s7.39-2.45,9.43-4.43c1.85-1.79,3.19-3.08,6.12-3.08s4.26,1.3,6.12,3.08c2.04,1.97,4.58,4.43,9.43,4.43s7.39-2.45,9.43-4.43c1.85-1.79,3.19-3.08,6.12-3.08s4.26,1.3,6.11,3.08c2.04,1.97,4.58,4.43,9.42,4.43s7.38-2.45,9.42-4.43c1.85-1.79,3.19-3.08,6.11-3.08s4.26,1.3,6.12,3.08c2.04,1.97,4.58,4.43,9.42,4.43s7.39-2.45,9.43-4.43c1.85-1.79,3.19-3.08,6.12-3.08,1.33,0,2.39-1.07,2.39-2.41s-1.07-2.4-2.39-2.4Zm-108.8-142.08c4.85,0,7.39-2.45,9.43-4.43,1.85-1.79,3.18-3.08,6.11-3.08s4.26,1.3,6.12,3.08c2.04,1.97,4.58,4.43,9.43,4.43s7.39-2.45,9.43-4.43c1.85-1.79,3.19-3.08,6.12-3.08s4.26,1.3,6.11,3.08c2.04,1.97,4.58,4.43,9.42,4.43s7.38-2.45,9.42-4.43c1.85-1.79,3.19-3.08,6.11-3.08s4.26,1.3,6.12,3.08c2.04,1.97,4.58,4.43,9.42,4.43s7.39-2.45,9.43-4.43c1.86-1.79,3.19-3.08,6.12-3.08,1.33,0,2.39-1.07,2.39-2.41s-1.07-2.41-2.39-2.41c-4.85,0-7.39,2.45-9.42,4.43-1.85,1.79-3.19,3.08-6.12,3.08s-4.26-1.3-6.12-3.08c-2.04-1.97-4.58-4.43-9.43-4.43s-7.38,2.45-9.42,4.43c-1.85,1.79-3.19,3.08-6.11,3.08s-4.26-1.3-6.12-3.08c-2.04-1.97-4.58-4.43-9.41-4.43s-7.39,2.45-9.43,4.42c-1.85,1.79-3.19,3.08-6.12,3.08s-4.26-1.3-6.12-3.08c-2.04-1.96-4.58-4.42-9.43-4.42s-7.39,2.45-9.43,4.43c-1.85,1.79-3.19,3.08-6.12,3.08s-4.27-1.3-6.12-3.08c-1.03-1-2.19-2.11-3.7-2.98l-3.96,3.56c1.79.42,2.93,1.5,4.36,2.88,2.04,1.97,4.58,4.43,9.43,4.43Zm108.8,116.34c-4.85,0-7.39,2.45-9.42,4.43-1.85,1.79-3.19,3.08-6.12,3.08s-4.26-1.3-6.12-3.08c-2.04-1.97-4.58-4.43-9.43-4.43s-7.38,2.45-9.42,4.43c-1.85,1.79-3.19,3.08-6.11,3.08s-4.26-1.3-6.12-3.08c-2.04-1.97-4.58-4.43-9.42-4.43s-7.39,2.45-9.43,4.42c-1.85,1.79-3.19,3.08-6.12,3.08s-4.26-1.3-6.12-3.08c-2.04-1.97-4.58-4.43-9.43-4.43s-7.39,2.45-9.43,4.43c-1.85,1.79-3.19,3.08-6.12,3.08s-4.27-1.3-6.12-3.08c-2.04-1.97-4.58-4.43-9.43-4.43s-7.39,2.45-9.42,4.43c-1.85,1.79-3.19,3.08-6.12,3.08s-4.27-1.3-6.13-3.08c-2.05-1.97-4.59-4.42-9.43-4.42s-7.4,2.45-9.43,4.42c-1.86,1.79-3.19,3.08-6.13,3.08s-4.27-1.3-6.13-3.08c-2.05-1.97-4.59-4.42-9.43-4.42-1.33,0-2.39,1.07-2.39,2.41s1.06,2.41,2.39,2.41c2.93,0,4.27,1.3,6.13,3.08,2.05,1.97,4.59,4.42,9.43,4.42s7.4-2.45,9.44-4.42c1.86-1.79,3.19-3.08,6.13-3.08s4.27,1.3,6.13,3.08c2.05,1.97,4.59,4.42,9.43,4.42s7.39-2.45,9.42-4.43c1.85-1.79,3.19-3.08,6.12-3.08s4.27,1.3,6.12,3.08c2.04,1.97,4.58,4.43,9.43,4.43s7.39-2.45,9.43-4.43c1.85-1.79,3.19-3.08,6.12-3.08s4.26,1.3,6.12,3.08c2.04,1.97,4.58,4.43,9.43,4.43s7.39-2.45,9.43-4.43c1.85-1.79,3.19-3.08,6.12-3.08s4.26,1.3,6.11,3.08c2.04,1.97,4.58,4.43,9.42,4.43s7.38-2.45,9.42-4.43c1.85-1.79,3.19-3.08,6.11-3.08s4.26,1.3,6.12,3.08c2.04,1.97,4.58,4.43,9.42,4.43s7.39-2.45,9.43-4.43c1.85-1.79,3.19-3.08,6.12-3.08,1.33,0,2.39-1.07,2.39-2.41s-1.07-2.4-2.39-2.4Zm0-102.93c-4.85,0-7.39,2.45-9.42,4.43-1.85,1.79-3.19,3.08-6.12,3.08s-4.26-1.3-6.12-3.08c-2.04-1.97-4.58-4.43-9.43-4.43s-7.38,2.45-9.42,4.43c-1.85,1.79-3.19,3.08-6.11,3.08s-4.26-1.3-6.12-3.08c-2.04-1.97-4.58-4.43-9.42-4.43s-7.39,2.45-9.43,4.42c-1.85,1.79-3.19,3.08-6.12,3.08s-4.26-1.3-6.12-3.08c-2.04-1.97-4.58-4.43-9.43-4.43s-7.39,2.45-9.43,4.43c-1.85,1.79-3.19,3.08-6.12,3.08s-4.27-1.3-6.12-3.08c-2.04-1.97-4.58-4.43-9.43-4.43s-7.39,2.45-9.42,4.43c-1.85,1.79-3.19,3.08-6.12,3.08s-4.27-1.3-6.13-3.08c-.68-.66-1.42-1.36-2.28-2.02l-3.67,3.29c.93.55,1.72,1.31,2.65,2.2,2.05,1.97,4.59,4.42,9.43,4.42s7.39-2.45,9.42-4.43c1.85-1.79,3.19-3.08,6.12-3.08s4.27,1.3,6.12,3.08c2.04,1.97,4.58,4.43,9.43,4.43s7.39-2.45,9.43-4.43c1.85-1.79,3.19-3.08,6.12-3.08s4.26,1.3,6.12,3.08c2.04,1.97,4.58,4.43,9.43,4.43s7.39-2.45,9.43-4.43c1.85-1.79,3.19-3.08,6.12-3.08s4.26,1.3,6.11,3.08c2.04,1.97,4.58,4.43,9.42,4.43s7.38-2.45,9.42-4.43c1.85-1.79,3.19-3.08,6.11-3.08s4.26,1.3,6.12,3.08c2.04,1.97,4.58,4.43,9.42,4.43s7.39-2.45,9.43-4.43c1.85-1.79,3.19-3.08,6.12-3.08,1.33,0,2.39-1.07,2.39-2.41s-1.07-2.4-2.39-2.4Zm0,25.74c-4.85,0-7.39,2.45-9.42,4.43-1.85,1.79-3.19,3.08-6.12,3.08s-4.26-1.3-6.12-3.08c-2.04-1.97-4.58-4.43-9.43-4.43s-7.38,2.45-9.42,4.43c-1.85,1.79-3.19,3.08-6.11,3.08s-4.26-1.3-6.12-3.08c-2.04-1.97-4.58-4.43-9.42-4.43s-7.39,2.45-9.43,4.42c-1.85,1.79-3.19,3.08-6.12,3.08s-4.26-1.3-6.12-3.08c-2.04-1.97-4.58-4.43-9.43-4.43s-7.39,2.45-9.43,4.43c-1.85,1.79-3.19,3.08-6.12,3.08s-4.27-1.3-6.12-3.08c-2.04-1.97-4.58-4.43-9.43-4.43s-7.39,2.45-9.42,4.43c-1.85,1.79-3.19,3.08-6.12,3.08s-4.27-1.3-6.13-3.08c-2.05-1.97-4.59-4.42-9.43-4.42s-7.4,2.45-9.43,4.42c-1.86,1.79-3.19,3.08-6.13,3.08s-4.27-1.3-6.13-3.08c-.32-.31-.65-.62-1-.94l-3.59,3.23c.42.36.83.76,1.28,1.19,2.05,1.97,4.59,4.42,9.43,4.42s7.4-2.45,9.44-4.42c1.86-1.79,3.19-3.08,6.13-3.08s4.27,1.3,6.13,3.08c2.05,1.97,4.59,4.42,9.43,4.42s7.39-2.45,9.42-4.43c1.85-1.79,3.19-3.08,6.12-3.08s4.27,1.3,6.12,3.08c2.04,1.97,4.58,4.43,9.43,4.43s7.39-2.45,9.43-4.43c1.85-1.79,3.19-3.08,6.12-3.08s4.26,1.3,6.12,3.08c2.04,1.97,4.58,4.43,9.43,4.43s7.39-2.45,9.43-4.43c1.85-1.79,3.19-3.08,6.12-3.08s4.26,1.3,6.11,3.08c2.04,1.97,4.58,4.43,9.42,4.43s7.38-2.45,9.42-4.43c1.85-1.79,3.19-3.08,6.11-3.08s4.26,1.3,6.12,3.08c2.04,1.97,4.58,4.43,9.42,4.43s7.39-2.45,9.43-4.43c1.85-1.79,3.19-3.08,6.12-3.08,1.33,0,2.39-1.07,2.39-2.41s-1.07-2.4-2.39-2.4Zm0,51.47c-4.85,0-7.39,2.45-9.42,4.43-1.85,1.79-3.19,3.08-6.12,3.08s-4.26-1.3-6.12-3.08c-2.04-1.97-4.58-4.43-9.43-4.43s-7.38,2.45-9.42,4.43c-1.85,1.79-3.19,3.08-6.11,3.08s-4.26-1.3-6.12-3.08c-2.04-1.97-4.58-4.43-9.42-4.43s-7.39,2.45-9.43,4.42c-1.85,1.79-3.19,3.08-6.12,3.08s-4.26-1.3-6.12-3.08c-2.04-1.97-4.58-4.43-9.43-4.43s-7.39,2.45-9.43,4.43c-1.85,1.79-3.19,3.08-6.12,3.08s-4.27-1.3-6.12-3.08c-2.04-1.97-4.58-4.43-9.43-4.43s-7.39,2.45-9.42,4.43c-1.85,1.79-3.19,3.08-6.12,3.08s-4.27-1.3-6.13-3.08c-2.05-1.97-4.59-4.42-9.43-4.42s-7.4,2.45-9.43,4.42c-1.86,1.79-3.19,3.08-6.13,3.08s-4.27-1.3-6.13-3.08c-2.05-1.97-4.59-4.42-9.43-4.42-1.33,0-2.39,1.07-2.39,2.41s1.06,2.41,2.39,2.41c2.93,0,4.27,1.3,6.13,3.08,2.05,1.97,4.59,4.42,9.43,4.42s7.4-2.45,9.44-4.42c1.86-1.79,3.19-3.08,6.13-3.08s4.27,1.3,6.13,3.08c2.05,1.97,4.59,4.42,9.43,4.42s7.39-2.45,9.42-4.43c1.85-1.79,3.19-3.08,6.12-3.08s4.27,1.3,6.12,3.08c2.04,1.97,4.58,4.43,9.43,4.43s7.39-2.45,9.43-4.43c1.85-1.79,3.19-3.08,6.12-3.08s4.26,1.3,6.12,3.08c2.04,1.97,4.58,4.43,9.43,4.43s7.39-2.45,9.43-4.43c1.85-1.79,3.19-3.08,6.12-3.08s4.26,1.3,6.11,3.08c2.04,1.97,4.58,4.43,9.42,4.43s7.38-2.45,9.42-4.43c1.85-1.79,3.19-3.08,6.11-3.08s4.26,1.3,6.12,3.08c2.04,1.97,4.58,4.43,9.42,4.43s7.39-2.45,9.43-4.43c1.85-1.79,3.19-3.08,6.12-3.08,1.33,0,2.39-1.07,2.39-2.41s-1.07-2.4-2.39-2.4Zm0-25.73c-4.85,0-7.39,2.45-9.42,4.43-1.85,1.79-3.19,3.08-6.12,3.08s-4.26-1.3-6.12-3.08c-2.04-1.97-4.58-4.43-9.43-4.43s-7.38,2.45-9.42,4.43c-1.85,1.79-3.19,3.08-6.11,3.08s-4.26-1.3-6.12-3.08c-2.04-1.97-4.58-4.43-9.42-4.43s-7.39,2.45-9.43,4.42c-1.85,1.79-3.19,3.08-6.12,3.08s-4.26-1.3-6.12-3.08c-2.04-1.97-4.58-4.43-9.43-4.43s-7.39,2.45-9.43,4.43c-1.85,1.79-3.19,3.08-6.12,3.08s-4.27-1.3-6.12-3.08c-2.04-1.97-4.58-4.43-9.43-4.43s-7.39,2.45-9.42,4.43c-1.85,1.79-3.19,3.08-6.12,3.08s-4.27-1.3-6.13-3.08c-2.05-1.97-4.59-4.42-9.43-4.42s-7.4,2.45-9.43,4.42c-1.86,1.79-3.19,3.08-6.13,3.08s-4.27-1.3-6.13-3.08c-2.05-1.97-4.59-4.42-9.43-4.42-1.33,0-2.39,1.07-2.39,2.41s1.06,2.41,2.39,2.41c2.93,0,4.27,1.3,6.13,3.08,2.05,1.97,4.59,4.42,9.43,4.42s7.4-2.45,9.44-4.42c1.86-1.79,3.19-3.08,6.13-3.08s4.27,1.3,6.13,3.08c2.05,1.97,4.59,4.42,9.43,4.42s7.39-2.45,9.42-4.43c1.85-1.79,3.19-3.08,6.12-3.08s4.27,1.3,6.12,3.08c2.04,1.97,4.58,4.43,9.43,4.43s7.39-2.45,9.43-4.43c1.85-1.79,3.19-3.08,6.12-3.08s4.26,1.3,6.12,3.08c2.04,1.97,4.58,4.43,9.43,4.43s7.39-2.45,9.43-4.43c1.85-1.79,3.19-3.08,6.12-3.08s4.26,1.3,6.11,3.08c2.04,1.97,4.58,4.43,9.42,4.43s7.38-2.45,9.42-4.43c1.85-1.79,3.19-3.08,6.11-3.08s4.26,1.3,6.12,3.08c2.04,1.97,4.58,4.43,9.42,4.43s7.39-2.45,9.43-4.43c1.85-1.79,3.19-3.08,6.12-3.08,1.33,0,2.39-1.07,2.39-2.41s-1.07-2.4-2.39-2.4Z"/><path class="cls-1" d="m685.28,1084.26c-1.86,1.79-3.21,3.08-6.15,3.08s-4.28-1.3-6.16-3.08c-2.05-1.97-4.6-4.43-9.49-4.43s-7.43,2.45-9.49,4.43c-1.86,1.79-3.21,3.08-6.15,3.08s-4.29-1.3-6.16-3.08c-2.05-1.97-4.6-4.43-9.49-4.43s-7.43,2.45-9.48,4.43c-1.86,1.79-3.21,3.08-6.15,3.08s-4.29-1.3-6.16-3.08c-2.06-1.97-4.61-4.42-9.49-4.42s-7.44,2.45-9.49,4.42c-1.87,1.79-3.21,3.08-6.16,3.08s-4.29-1.3-6.16-3.08c-2.06-1.97-4.61-4.42-9.49-4.42-1.33,0-2.41,1.07-2.41,2.41s1.07,2.41,2.41,2.41c2.95,0,4.29,1.3,6.16,3.08,2.06,1.97,4.61,4.42,9.49,4.42s7.44-2.45,9.5-4.42c1.87-1.79,3.21-3.08,6.16-3.08s4.29,1.3,6.16,3.08c2.06,1.97,4.61,4.42,9.49,4.42s7.43-2.45,9.48-4.43c1.86-1.79,3.21-3.08,6.15-3.08s4.29,1.3,6.15,3.08c2.05,1.97,4.6,4.43,9.49,4.43s7.43-2.45,9.49-4.43c1.86-1.79,3.21-3.08,6.15-3.08s4.28,1.3,6.16,3.08c2.05,1.97,4.6,4.43,9.49,4.43s7.43-2.45,9.49-4.43c1.86-1.79,3.21-3.08,6.15-3.08,1.62,0,2.76.4,3.76,1.06l3.34-3.52c-1.71-1.28-3.91-2.34-7.11-2.34-4.88,0-7.43,2.45-9.49,4.42Zm72.04,21.32c-.26,0-.5.01-.74.02l-.14,4.83c.28-.03.57-.05.88-.05,1.33,0,2.41-1.07,2.41-2.41s-1.08-2.4-2.41-2.4Zm-40.76-47.04c-1.86,1.79-3.21,3.08-6.15,3.08s-4.28-1.3-6.15-3.08c-2.05-1.97-4.6-4.43-9.48-4.43s-7.43,2.45-9.49,4.42c-1.86,1.79-3.21,3.08-6.15,3.08s-4.28-1.3-6.16-3.08c-2.05-1.97-4.6-4.43-9.49-4.43s-7.43,2.45-9.49,4.43c-1.86,1.79-3.21,3.08-6.15,3.08s-4.29-1.3-6.16-3.08c-2.05-1.97-4.6-4.43-9.49-4.43s-7.43,2.45-9.48,4.43c-1.86,1.79-3.21,3.08-6.15,3.08s-4.29-1.3-6.16-3.08c-2.06-1.97-4.61-4.42-9.49-4.42s-7.44,2.45-9.49,4.42c-1.87,1.79-3.21,3.08-6.16,3.08s-4.29-1.3-6.16-3.08c-2.06-1.97-4.61-4.42-9.49-4.42-1.33,0-2.41,1.07-2.41,2.41s1.07,2.41,2.41,2.41c2.95,0,4.29,1.3,6.16,3.08,2.06,1.97,4.61,4.42,9.49,4.42s7.44-2.45,9.5-4.42c1.87-1.79,3.21-3.08,6.16-3.08s4.29,1.3,6.16,3.08c2.06,1.97,4.61,4.42,9.49,4.42s7.43-2.45,9.48-4.43c1.86-1.79,3.21-3.08,6.15-3.08s4.29,1.3,6.15,3.08c2.05,1.97,4.6,4.43,9.49,4.43s7.43-2.45,9.49-4.43c1.86-1.79,3.21-3.08,6.15-3.08s4.28,1.3,6.16,3.08c2.05,1.97,4.6,4.43,9.49,4.43s7.43-2.45,9.49-4.43c1.86-1.79,3.21-3.08,6.15-3.08s4.28,1.3,6.15,3.08c2.05,1.97,4.6,4.43,9.48,4.43s7.42-2.45,9.48-4.43c1.26-1.21,2.3-2.18,3.74-2.69l4.73-4.98c-.72-.13-1.49-.21-2.33-.21-4.88,0-7.42,2.45-9.48,4.43Zm-146.96-102.55c2.95,0,4.29,1.3,6.16,3.08,2.06,1.97,4.61,4.42,9.49,4.42s7.44-2.45,9.5-4.42c1.87-1.79,3.22-3.08,6.17-3.08s4.29,1.3,6.16,3.08c2.06,1.97,4.61,4.42,9.49,4.42s7.43-2.45,9.48-4.43c1.86-1.78,3.2-3.07,6.15-3.07s4.29,1.3,6.15,3.08c2.05,1.97,4.6,4.43,9.49,4.43s7.43-2.45,9.49-4.43c1.86-1.79,3.2-3.08,6.15-3.08s4.28,1.3,6.16,3.08c2.05,1.97,4.6,4.43,9.49,4.43s7.43-2.45,9.49-4.43c1.86-1.79,3.2-3.08,6.15-3.08s4.28,1.3,6.15,3.08c2.05,1.97,4.6,4.43,9.48,4.43s7.42-2.45,9.48-4.43c1.86-1.79,3.21-3.08,6.15-3.08s4.28,1.3,6.15,3.08c2.05,1.97,4.6,4.43,9.48,4.43s7.43-2.45,9.49-4.43c1.87-1.79,3.21-3.08,6.16-3.08,1.33,0,2.41-1.07,2.41-2.41s-1.08-2.41-2.41-2.41c-4.88,0-7.43,2.45-9.48,4.43-1.86,1.79-3.21,3.08-6.15,3.08s-4.28-1.3-6.15-3.08c-2.05-1.97-4.6-4.43-9.49-4.43s-7.42,2.45-9.48,4.43c-1.86,1.79-3.21,3.08-6.15,3.08s-4.28-1.3-6.15-3.08c-2.05-1.97-4.6-4.43-9.47-4.43s-7.43,2.45-9.49,4.42c-1.86,1.79-3.21,3.08-6.16,3.08s-4.28-1.3-6.15-3.08c-2.05-1.96-4.6-4.42-9.49-4.42s-7.43,2.45-9.49,4.43c-1.86,1.79-3.21,3.08-6.16,3.08s-4.29-1.3-6.15-3.08c-2.05-1.97-4.6-4.43-9.48-4.43s-7.43,2.45-9.48,4.43c-1.86,1.79-3.21,3.08-6.16,3.08s-4.29-1.3-6.16-3.08c-2.05-1.97-4.6-4.43-9.48-4.43s-7.44,2.45-9.49,4.42c-1.87,1.79-3.21,3.08-6.16,3.08s-4.29-1.3-6.16-3.08c-2.07-1.96-4.62-4.42-9.51-4.42-1.33,0-2.41,1.07-2.41,2.41s1.07,2.41,2.41,2.41Zm93.88,149.58c-4.88,0-7.43,2.45-9.49,4.43-1.86,1.79-3.21,3.08-6.15,3.08s-4.29-1.3-6.16-3.08c-2.05-1.97-4.6-4.43-9.49-4.43s-7.43,2.45-9.48,4.43c-1.86,1.79-3.21,3.08-6.15,3.08s-4.29-1.3-6.16-3.08c-2.06-1.97-4.61-4.42-9.49-4.42s-7.44,2.45-9.49,4.42c-1.87,1.79-3.21,3.08-6.16,3.08s-4.29-1.3-6.16-3.08c-2.06-1.97-4.61-4.42-9.49-4.42-1.33,0-2.41,1.07-2.41,2.41s1.07,2.41,2.41,2.41c2.95,0,4.29,1.3,6.16,3.08,2.06,1.97,4.61,4.42,9.49,4.42s7.44-2.45,9.5-4.42c1.87-1.79,3.21-3.08,6.16-3.08s4.29,1.3,6.16,3.08c2.06,1.97,4.61,4.42,9.49,4.42s7.43-2.45,9.48-4.43c1.86-1.79,3.21-3.08,6.15-3.08s4.29,1.3,6.15,3.08c2.05,1.97,4.6,4.43,9.49,4.43s7.43-2.45,9.49-4.43c1.86-1.79,3.21-3.08,6.15-3.08s4.28,1.3,6.16,3.08c.42.4.86.82,1.33,1.24l3.31-3.49c-.43-.37-.86-.78-1.32-1.22-2.05-1.97-4.6-4.43-9.49-4.43Zm93.84-25.73h0s-.14,4.81-.14,4.81c.05,0,.09,0,.14,0,1.33,0,2.41-1.07,2.41-2.41s-1.08-2.4-2.41-2.4Zm0-102.93c-4.88,0-7.43,2.45-9.48,4.43-1.86,1.79-3.21,3.08-6.15,3.08s-4.28-1.3-6.15-3.08c-2.05-1.97-4.6-4.43-9.49-4.43s-7.42,2.45-9.48,4.43c-1.86,1.79-3.21,3.08-6.15,3.08s-4.28-1.3-6.15-3.08c-2.05-1.97-4.6-4.43-9.48-4.43s-7.43,2.45-9.49,4.42c-1.86,1.79-3.21,3.08-6.15,3.08s-4.28-1.3-6.16-3.08c-2.05-1.97-4.6-4.43-9.49-4.43s-7.43,2.45-9.49,4.43c-1.86,1.79-3.21,3.08-6.15,3.08s-4.29-1.3-6.16-3.08c-2.05-1.97-4.6-4.43-9.49-4.43s-7.43,2.45-9.48,4.43c-1.86,1.79-3.21,3.08-6.15,3.08s-4.29-1.3-6.16-3.08c-2.06-1.97-4.61-4.42-9.49-4.42s-7.44,2.45-9.49,4.42c-1.87,1.79-3.21,3.08-6.16,3.08s-4.29-1.3-6.16-3.08c-2.06-1.97-4.61-4.42-9.49-4.42-1.33,0-2.41,1.07-2.41,2.41s1.07,2.41,2.41,2.41c2.95,0,4.29,1.3,6.16,3.08,2.06,1.97,4.61,4.42,9.49,4.42s7.44-2.45,9.5-4.42c1.87-1.79,3.21-3.08,6.16-3.08s4.29,1.3,6.16,3.08c2.06,1.97,4.61,4.42,9.49,4.42s7.43-2.45,9.48-4.43c1.86-1.79,3.21-3.08,6.15-3.08s4.29,1.3,6.15,3.08c2.05,1.97,4.6,4.43,9.49,4.43s7.43-2.45,9.49-4.43c1.86-1.79,3.21-3.08,6.15-3.08s4.28,1.3,6.16,3.08c2.05,1.97,4.6,4.43,9.49,4.43s7.43-2.45,9.49-4.43c1.86-1.79,3.21-3.08,6.15-3.08s4.28,1.3,6.15,3.08c2.05,1.97,4.6,4.43,9.48,4.43s7.42-2.45,9.48-4.43c1.86-1.79,3.21-3.08,6.15-3.08s4.28,1.3,6.15,3.08c2.05,1.97,4.6,4.43,9.48,4.43s7.43-2.45,9.49-4.43c1.86-1.79,3.21-3.08,6.16-3.08,1.33,0,2.41-1.07,2.41-2.41s-1.08-2.4-2.41-2.4Zm0,25.74h0c-4.88,0-7.43,2.45-9.48,4.43-1.86,1.79-3.21,3.08-6.15,3.08s-4.28-1.3-6.15-3.08c-2.05-1.97-4.6-4.43-9.49-4.43s-7.42,2.45-9.48,4.43c-1.86,1.79-3.21,3.08-6.15,3.08s-4.28-1.3-6.15-3.08c-2.05-1.97-4.6-4.43-9.48-4.43s-7.43,2.45-9.49,4.42c-1.86,1.79-3.21,3.08-6.15,3.08s-4.28-1.3-6.16-3.08c-2.05-1.97-4.6-4.43-9.49-4.43s-7.43,2.45-9.49,4.43c-1.86,1.79-3.21,3.08-6.15,3.08s-4.29-1.3-6.16-3.08c-2.05-1.97-4.6-4.43-9.49-4.43s-7.43,2.45-9.48,4.43c-1.86,1.79-3.21,3.08-6.15,3.08s-4.29-1.3-6.16-3.08c-2.06-1.97-4.61-4.42-9.49-4.42s-7.44,2.45-9.49,4.42c-1.87,1.79-3.21,3.08-6.16,3.08s-4.29-1.3-6.16-3.08c-2.06-1.97-4.61-4.42-9.49-4.42-1.33,0-2.41,1.07-2.41,2.41s1.07,2.41,2.41,2.41c2.95,0,4.29,1.3,6.16,3.08,2.06,1.97,4.61,4.42,9.49,4.42s7.44-2.45,9.5-4.42c1.87-1.79,3.21-3.08,6.16-3.08s4.29,1.3,6.16,3.08c2.06,1.97,4.61,4.42,9.49,4.42s7.43-2.45,9.48-4.43c1.86-1.79,3.21-3.08,6.15-3.08s4.29,1.3,6.15,3.08c2.05,1.97,4.6,4.43,9.49,4.43s7.43-2.45,9.49-4.43c1.86-1.79,3.21-3.08,6.15-3.08s4.28,1.3,6.16,3.08c2.05,1.97,4.6,4.43,9.49,4.43s7.43-2.45,9.49-4.43c1.86-1.79,3.21-3.08,6.15-3.08s4.28,1.3,6.15,3.08c2.05,1.97,4.6,4.43,9.48,4.43s7.42-2.45,9.48-4.43c1.86-1.79,3.21-3.08,6.15-3.08s4.28,1.3,6.15,3.08c2.05,1.97,4.6,4.43,9.48,4.43s7.43-2.45,9.49-4.43c1.86-1.79,3.21-3.08,6.16-3.08,1.33,0,2.41-1.07,2.41-2.41s-1.08-2.4-2.41-2.4Zm0,25.74c-4.88,0-7.43,2.45-9.48,4.43-1.86,1.79-3.21,3.08-6.15,3.08s-4.28-1.3-6.15-3.08c-2.05-1.97-4.6-4.43-9.49-4.43s-7.42,2.45-9.48,4.43c-1.86,1.79-3.21,3.08-6.15,3.08s-4.28-1.3-6.15-3.08c-2.05-1.97-4.6-4.43-9.48-4.43s-7.43,2.45-9.49,4.42c-1.86,1.79-3.21,3.08-6.15,3.08s-4.28-1.3-6.16-3.08c-2.05-1.97-4.6-4.43-9.49-4.43s-7.43,2.45-9.49,4.43c-1.86,1.79-3.21,3.08-6.15,3.08s-4.29-1.3-6.16-3.08c-2.05-1.97-4.6-4.43-9.49-4.43s-7.43,2.45-9.48,4.43c-1.86,1.79-3.21,3.08-6.15,3.08s-4.29-1.3-6.16-3.08c-2.06-1.97-4.61-4.42-9.49-4.42s-7.44,2.45-9.49,4.42c-1.87,1.79-3.21,3.08-6.16,3.08s-4.29-1.3-6.16-3.08c-2.06-1.97-4.61-4.42-9.49-4.42-1.33,0-2.41,1.07-2.41,2.41s1.07,2.41,2.41,2.41c2.95,0,4.29,1.3,6.16,3.08,2.06,1.97,4.61,4.42,9.49,4.42s7.44-2.45,9.5-4.42c1.87-1.79,3.21-3.08,6.16-3.08s4.29,1.3,6.16,3.08c2.06,1.97,4.61,4.42,9.49,4.42s7.43-2.45,9.48-4.43c1.86-1.79,3.21-3.08,6.15-3.08s4.29,1.3,6.15,3.08c2.05,1.97,4.6,4.43,9.49,4.43s7.43-2.45,9.49-4.43c1.86-1.79,3.21-3.08,6.15-3.08s4.28,1.3,6.16,3.08c2.05,1.97,4.6,4.43,9.49,4.43s7.43-2.45,9.49-4.43c1.86-1.79,3.21-3.08,6.15-3.08s4.28,1.3,6.15,3.08c2.05,1.97,4.6,4.43,9.48,4.43s7.42-2.45,9.48-4.43c1.86-1.79,3.21-3.08,6.15-3.08s4.28,1.3,6.15,3.08c2.05,1.97,4.6,4.43,9.48,4.43s7.43-2.45,9.49-4.43c1.86-1.79,3.21-3.08,6.16-3.08,1.33,0,2.41-1.07,2.41-2.41s-1.08-2.4-2.41-2.4Zm0,25.73c-4.88,0-7.43,2.45-9.48,4.43-1.3,1.24-2.36,2.24-3.87,2.74l2.88,4.01c1.82-.89,3.15-2.17,4.32-3.28,1.86-1.79,3.21-3.08,6.16-3.08,1.33,0,2.41-1.07,2.41-2.41s-1.08-2.4-2.41-2.4Z"/><path class="cls-1" d="m963.91,1079.84h0c-4.88,0-7.43,2.45-9.48,4.43-1.86,1.79-3.21,3.08-6.16,3.08s-4.28-1.3-6.15-3.08c-2.05-1.97-4.6-4.43-9.49-4.43s-7.42,2.45-9.48,4.43c-1.86,1.79-3.21,3.08-6.15,3.08s-4.28-1.3-6.15-3.08c-2.05-1.97-4.6-4.43-9.48-4.43s-7.43,2.45-9.49,4.42c-1.86,1.79-3.21,3.08-6.15,3.08s-4.28-1.3-6.15-3.08c-2.05-1.97-4.6-4.43-9.49-4.43s-7.43,2.45-9.49,4.43c-1.86,1.79-3.21,3.08-6.15,3.08s-4.29-1.3-6.16-3.08c-2.05-1.97-4.6-4.43-9.49-4.43s-7.43,2.45-9.48,4.43c-1.86,1.79-3.21,3.08-6.16,3.08s-4.29-1.3-6.16-3.08c-2.06-1.97-4.61-4.42-9.49-4.42-2.06,0-3.7.44-5.06,1.09l4.31,3.77c.25-.02.49-.04.76-.04,2.95,0,4.29,1.3,6.16,3.08,2.06,1.97,4.61,4.42,9.49,4.42s7.43-2.45,9.48-4.43c1.86-1.79,3.21-3.08,6.15-3.08s4.29,1.3,6.16,3.08c2.05,1.97,4.6,4.43,9.49,4.43s7.43-2.45,9.49-4.43c1.86-1.79,3.21-3.08,6.16-3.08s4.28,1.3,6.16,3.08c2.05,1.97,4.6,4.43,9.49,4.43s7.43-2.45,9.49-4.43c1.86-1.79,3.21-3.08,6.16-3.08s4.28,1.3,6.15,3.08c2.05,1.97,4.6,4.43,9.48,4.43s7.42-2.45,9.48-4.43c1.86-1.79,3.21-3.08,6.15-3.08s4.28,1.3,6.16,3.08c2.05,1.97,4.6,4.43,9.48,4.43s7.43-2.45,9.49-4.43c1.86-1.79,3.21-3.08,6.16-3.08,1.33,0,2.41-1.07,2.41-2.41s-1.08-2.4-2.41-2.4Zm0,25.74c-4.88,0-7.43,2.45-9.48,4.43-1.86,1.79-3.21,3.08-6.16,3.08s-4.28-1.3-6.15-3.08c-2.05-1.97-4.6-4.43-9.49-4.43s-7.42,2.45-9.48,4.43c-1.86,1.79-3.21,3.08-6.15,3.08s-4.28-1.3-6.15-3.08c-2.05-1.97-4.6-4.43-9.48-4.43s-7.43,2.45-9.49,4.42c-1.86,1.79-3.21,3.08-6.15,3.08s-4.28-1.3-6.15-3.08c-2.05-1.97-4.6-4.43-9.49-4.43s-7.43,2.45-9.49,4.43c-1.86,1.79-3.21,3.08-6.15,3.08s-4.29-1.3-6.16-3.08c-2.05-1.97-4.6-4.43-9.49-4.43-2.67,0-4.64.74-6.21,1.72l3.93,3.44c.66-.22,1.4-.35,2.29-.35,2.94,0,4.29,1.3,6.16,3.08,2.05,1.97,4.6,4.43,9.49,4.43s7.43-2.45,9.49-4.43c1.86-1.79,3.21-3.08,6.16-3.08s4.28,1.3,6.16,3.08c2.05,1.97,4.6,4.43,9.49,4.43s7.43-2.45,9.49-4.43c1.86-1.79,3.21-3.08,6.16-3.08s4.28,1.3,6.15,3.08c2.05,1.97,4.6,4.43,9.48,4.43s7.42-2.45,9.48-4.43c1.86-1.79,3.21-3.08,6.15-3.08s4.28,1.3,6.16,3.08c2.05,1.97,4.6,4.43,9.48,4.43s7.43-2.45,9.49-4.43c1.86-1.79,3.21-3.08,6.16-3.08,1.33,0,2.41-1.07,2.41-2.41s-1.08-2.4-2.41-2.4Zm0-51.47c-4.88,0-7.43,2.45-9.48,4.43-1.86,1.79-3.21,3.08-6.16,3.08s-4.28-1.3-6.15-3.08c-2.05-1.97-4.6-4.43-9.49-4.43s-7.42,2.45-9.48,4.43c-1.86,1.79-3.21,3.08-6.15,3.08s-4.28-1.3-6.15-3.08c-2.05-1.97-4.6-4.43-9.48-4.43s-7.43,2.45-9.49,4.42c-1.86,1.79-3.21,3.08-6.15,3.08s-4.28-1.3-6.15-3.08c-2.05-1.97-4.6-4.43-9.49-4.43s-7.43,2.45-9.49,4.43c-1.86,1.79-3.21,3.08-6.15,3.08s-4.29-1.3-6.16-3.08c-2.05-1.97-4.6-4.43-9.49-4.43s-7.43,2.45-9.48,4.43c-1.86,1.79-3.21,3.08-6.16,3.08s-4.29-1.3-6.16-3.08c-2.06-1.97-4.61-4.42-9.49-4.42s-7.44,2.45-9.49,4.42c-1.87,1.79-3.21,3.08-6.16,3.08s-4.29-1.3-6.16-3.08c-2.06-1.97-4.61-4.42-9.49-4.42-1.13,0-2.07.77-2.33,1.82l3.52,3.08c2.15.31,3.37,1.47,4.97,2.99,2.06,1.97,4.61,4.42,9.49,4.42s7.44-2.45,9.5-4.42c1.87-1.79,3.21-3.08,6.16-3.08s4.29,1.3,6.16,3.08c2.06,1.97,4.61,4.42,9.49,4.42s7.43-2.45,9.48-4.43c1.86-1.79,3.21-3.08,6.15-3.08s4.29,1.3,6.16,3.08c2.05,1.97,4.6,4.43,9.49,4.43s7.43-2.45,9.49-4.43c1.86-1.79,3.21-3.08,6.16-3.08s4.28,1.3,6.16,3.08c2.05,1.97,4.6,4.43,9.49,4.43s7.43-2.45,9.49-4.43c1.86-1.79,3.21-3.08,6.16-3.08s4.28,1.3,6.15,3.08c2.05,1.97,4.6,4.43,9.48,4.43s7.42-2.45,9.48-4.43c1.86-1.79,3.21-3.08,6.15-3.08s4.28,1.3,6.16,3.08c2.05,1.97,4.6,4.43,9.48,4.43s7.43-2.45,9.49-4.43c1.86-1.79,3.21-3.08,6.16-3.08,1.33,0,2.41-1.07,2.41-2.41s-1.08-2.4-2.41-2.4Zm-187.72-98.12c2.95,0,4.29,1.3,6.16,3.08,2.06,1.97,4.61,4.42,9.49,4.42s7.44-2.45,9.5-4.42c1.87-1.79,3.22-3.08,6.17-3.08s4.29,1.3,6.16,3.08c2.06,1.97,4.61,4.42,9.49,4.42s7.43-2.45,9.48-4.43c1.86-1.78,3.2-3.07,6.15-3.07s4.29,1.3,6.15,3.08c2.05,1.97,4.6,4.43,9.49,4.43s7.43-2.45,9.49-4.43c1.86-1.79,3.2-3.08,6.15-3.08s4.28,1.3,6.16,3.08c2.05,1.97,4.6,4.43,9.49,4.43s7.43-2.45,9.49-4.43c1.86-1.79,3.2-3.08,6.16-3.08s4.28,1.3,6.15,3.08c2.05,1.97,4.6,4.43,9.48,4.43s7.42-2.45,9.48-4.43c1.86-1.79,3.21-3.08,6.15-3.08s4.28,1.3,6.16,3.08c2.05,1.97,4.6,4.43,9.48,4.43s7.43-2.45,9.49-4.43c1.87-1.79,3.21-3.08,6.16-3.08,1.33,0,2.41-1.07,2.41-2.41s-1.08-2.41-2.41-2.41c-4.88,0-7.43,2.45-9.48,4.43-1.86,1.79-3.21,3.08-6.16,3.08s-4.28-1.3-6.15-3.08c-2.05-1.97-4.6-4.43-9.49-4.43s-7.42,2.45-9.48,4.43c-1.86,1.79-3.21,3.08-6.15,3.08s-4.28-1.3-6.15-3.08c-2.05-1.97-4.6-4.43-9.47-4.43s-7.43,2.45-9.49,4.42c-1.86,1.79-3.21,3.08-6.16,3.08s-4.28-1.3-6.16-3.08c-2.05-1.96-4.6-4.42-9.49-4.42s-7.43,2.45-9.49,4.43c-1.86,1.79-3.21,3.08-6.16,3.08s-4.29-1.3-6.15-3.08c-2.05-1.97-4.6-4.43-9.48-4.43s-7.43,2.45-9.48,4.43c-1.86,1.79-3.21,3.08-6.16,3.08s-4.29-1.3-6.16-3.08c-2.05-1.97-4.6-4.43-9.48-4.43s-7.44,2.45-9.49,4.42c-1.87,1.79-3.21,3.08-6.16,3.08s-4.29-1.3-6.16-3.08c-2.07-1.96-4.62-4.42-9.51-4.42-1.33,0-2.41,1.07-2.41,2.41s1.07,2.41,2.41,2.41Zm187.72,72.39c-4.88,0-7.43,2.45-9.48,4.43-1.86,1.79-3.21,3.08-6.16,3.08s-4.28-1.3-6.15-3.08c-2.05-1.97-4.6-4.43-9.49-4.43s-7.42,2.45-9.48,4.43c-1.86,1.79-3.21,3.08-6.15,3.08s-4.28-1.3-6.15-3.08c-2.05-1.97-4.6-4.43-9.48-4.43s-7.43,2.45-9.49,4.42c-1.86,1.79-3.21,3.08-6.15,3.08s-4.28-1.3-6.15-3.08c-2.05-1.97-4.6-4.43-9.49-4.43s-7.43,2.45-9.49,4.43c-1.86,1.79-3.21,3.08-6.15,3.08s-4.29-1.3-6.16-3.08c-2.05-1.97-4.6-4.43-9.49-4.43s-7.43,2.45-9.48,4.43c-1.86,1.79-3.21,3.08-6.16,3.08s-4.29-1.3-6.16-3.08c-2.06-1.97-4.61-4.42-9.49-4.42s-7.44,2.45-9.49,4.42c-1.87,1.79-3.21,3.08-6.16,3.08s-4.29-1.3-6.16-3.08c-2.06-1.97-4.61-4.42-9.49-4.42-1.33,0-2.41,1.07-2.41,2.41s1.07,2.41,2.41,2.41c2.95,0,4.29,1.3,6.16,3.08,2.06,1.97,4.61,4.42,9.49,4.42s7.44-2.45,9.5-4.42c1.87-1.79,3.21-3.08,6.16-3.08s4.29,1.3,6.16,3.08c2.06,1.97,4.61,4.42,9.49,4.42s7.43-2.45,9.48-4.43c1.86-1.79,3.21-3.08,6.15-3.08s4.29,1.3,6.16,3.08c2.05,1.97,4.6,4.43,9.49,4.43s7.43-2.45,9.49-4.43c1.86-1.79,3.21-3.08,6.16-3.08s4.28,1.3,6.16,3.08c2.05,1.97,4.6,4.43,9.49,4.43s7.43-2.45,9.49-4.43c1.86-1.79,3.21-3.08,6.16-3.08s4.28,1.3,6.15,3.08c2.05,1.97,4.6,4.43,9.48,4.43s7.42-2.45,9.48-4.43c1.86-1.79,3.21-3.08,6.15-3.08s4.28,1.3,6.16,3.08c2.05,1.97,4.6,4.43,9.48,4.43s7.43-2.45,9.49-4.43c1.86-1.79,3.21-3.08,6.16-3.08,1.33,0,2.41-1.07,2.41-2.41s-1.08-2.4-2.41-2.4Zm0-51.48c-4.88,0-7.43,2.45-9.48,4.43-1.86,1.79-3.21,3.08-6.16,3.08s-4.28-1.3-6.15-3.08c-2.05-1.97-4.6-4.43-9.49-4.43s-7.42,2.45-9.48,4.43c-1.86,1.79-3.21,3.08-6.15,3.08s-4.28-1.3-6.15-3.08c-2.05-1.97-4.6-4.43-9.48-4.43s-7.43,2.45-9.49,4.42c-1.86,1.79-3.21,3.08-6.15,3.08s-4.28-1.3-6.15-3.08c-2.05-1.97-4.6-4.43-9.49-4.43s-7.43,2.45-9.49,4.43c-1.86,1.79-3.21,3.08-6.15,3.08s-4.29-1.3-6.16-3.08c-2.05-1.97-4.6-4.43-9.49-4.43s-7.43,2.45-9.48,4.43c-1.86,1.79-3.21,3.08-6.16,3.08s-4.29-1.3-6.16-3.08c-2.06-1.97-4.61-4.42-9.49-4.42s-7.44,2.45-9.49,4.42c-1.87,1.79-3.21,3.08-6.16,3.08s-4.29-1.3-6.16-3.08c-2.06-1.97-4.61-4.42-9.49-4.42-1.33,0-2.41,1.07-2.41,2.41s1.07,2.41,2.41,2.41c2.95,0,4.29,1.3,6.16,3.08,2.06,1.97,4.61,4.42,9.49,4.42s7.44-2.45,9.5-4.42c1.87-1.79,3.21-3.08,6.16-3.08s4.29,1.3,6.16,3.08c2.06,1.97,4.61,4.42,9.49,4.42s7.43-2.45,9.48-4.43c1.86-1.79,3.21-3.08,6.15-3.08s4.29,1.3,6.16,3.08c2.05,1.97,4.6,4.43,9.49,4.43s7.43-2.45,9.49-4.43c1.86-1.79,3.21-3.08,6.16-3.08s4.28,1.3,6.16,3.08c2.05,1.97,4.6,4.43,9.49,4.43s7.43-2.45,9.49-4.43c1.86-1.79,3.21-3.08,6.16-3.08s4.28,1.3,6.15,3.08c2.05,1.97,4.6,4.43,9.48,4.43s7.42-2.45,9.48-4.43c1.86-1.79,3.21-3.08,6.15-3.08s4.28,1.3,6.16,3.08c2.05,1.97,4.6,4.43,9.48,4.43s7.43-2.45,9.49-4.43c1.86-1.79,3.21-3.08,6.16-3.08,1.33,0,2.41-1.07,2.41-2.41s-1.08-2.4-2.41-2.4Zm0,25.74h0c-4.88,0-7.43,2.45-9.48,4.43-1.86,1.79-3.21,3.08-6.16,3.08s-4.28-1.3-6.15-3.08c-2.05-1.97-4.6-4.43-9.49-4.43s-7.42,2.45-9.48,4.43c-1.86,1.79-3.21,3.08-6.15,3.08s-4.28-1.3-6.15-3.08c-2.05-1.97-4.6-4.43-9.48-4.43s-7.43,2.45-9.49,4.42c-1.86,1.79-3.21,3.08-6.15,3.08s-4.28-1.3-6.15-3.08c-2.05-1.97-4.6-4.43-9.49-4.43s-7.43,2.45-9.49,4.43c-1.86,1.79-3.21,3.08-6.15,3.08s-4.29-1.3-6.16-3.08c-2.05-1.97-4.6-4.43-9.49-4.43s-7.43,2.45-9.48,4.43c-1.86,1.79-3.21,3.08-6.16,3.08s-4.29-1.3-6.16-3.08c-2.06-1.97-4.61-4.42-9.49-4.42s-7.44,2.45-9.49,4.42c-1.87,1.79-3.21,3.08-6.16,3.08s-4.29-1.3-6.16-3.08c-2.06-1.97-4.61-4.42-9.49-4.42-1.33,0-2.41,1.07-2.41,2.41s1.07,2.41,2.41,2.41c2.95,0,4.29,1.3,6.16,3.08,2.06,1.97,4.61,4.42,9.49,4.42s7.44-2.45,9.5-4.42c1.87-1.79,3.21-3.08,6.16-3.08s4.29,1.3,6.16,3.08c2.06,1.97,4.61,4.42,9.49,4.42s7.43-2.45,9.48-4.43c1.86-1.79,3.21-3.08,6.15-3.08s4.29,1.3,6.16,3.08c2.05,1.97,4.6,4.43,9.49,4.43s7.43-2.45,9.49-4.43c1.86-1.79,3.21-3.08,6.16-3.08s4.28,1.3,6.16,3.08c2.05,1.97,4.6,4.43,9.49,4.43s7.43-2.45,9.49-4.43c1.86-1.79,3.21-3.08,6.16-3.08s4.28,1.3,6.15,3.08c2.05,1.97,4.6,4.43,9.48,4.43s7.42-2.45,9.48-4.43c1.86-1.79,3.21-3.08,6.15-3.08s4.28,1.3,6.16,3.08c2.05,1.97,4.6,4.43,9.48,4.43s7.43-2.45,9.49-4.43c1.86-1.79,3.21-3.08,6.16-3.08,1.33,0,2.41-1.07,2.41-2.41s-1.08-2.4-2.41-2.4Z"/><path class="cls-1" d="m801.07,55.37c1.4,3.32,2.85,6.59,4.33,9.85.49,1.08.99,2.17,1.49,3.26l4.64-4.24c-1.88-4.04-3.67-7.91-5.32-11.49-5.93-12.98-6.9-26.92-3.92-42.55-1.66-.73-3.34-1.42-5.04-2.08-.33,1.91-.65,3.84-.95,5.81-1.77,11.76-1.38,22.41,1.64,32.56,1.03,3.44,2.05,6.35,3.12,8.88Zm14.66-38.24c-1.64-.98-3.3-1.91-4.98-2.81-1.7,11.61-1.11,22.14,2.13,32.18,1.12,3.44,2.22,6.35,3.36,8.88.49,1.08.99,2.14,1.49,3.21l4.45-4.06c-.29-.59-.58-1.19-.87-1.77-5.35-11.03-7.05-22.76-5.58-35.63Zm-103.08,38.24c.82,3.32,1.65,6.59,2.47,9.85,1.1,4.42,2.19,8.83,3.18,13.37.31,1.39.58,2.81.84,4.23l7.54,7.54c-.41-4.51-1.03-8.66-1.86-12.36-2.02-9-4.37-17.75-6.57-25.25-4.02-13.76-3.05-28.62.07-45.42.14-.8.27-1.6.4-2.4-1.96.58-3.89,1.2-5.81,1.87-.33,2.33-.68,4.69-1.05,7.12-1.8,11.76-2.46,22.41-.9,32.56.53,3.44,1.07,6.35,1.69,8.88Zm74.46,0c1.31,3.31,2.66,6.56,4.03,9.82,1.77,4.21,3.58,8.43,5.38,12.75l4.8-4.38c-3.19-7.49-6.29-14.59-8.99-20.81-5.93-13.76-6.38-28.62-2.8-45.42.12-.6.24-1.19.37-1.79-1.73-.54-3.48-1.05-5.25-1.51-.59,3.21-1.15,6.5-1.67,9.9-1.77,11.75-1.56,22.4,1.24,32.56.95,3.44,1.89,6.35,2.89,8.88Zm-30.38,0c1.11,3.32,2.25,6.59,3.4,9.85,1.55,4.42,3.12,8.83,4.64,13.37,1.5,4.49,2.81,9.16,3.87,13.87.72,3.18,1.09,6.51,1.09,9.92l6.01-5.49c-.12-1.06-.28-2.1-.48-3.13-1.12-5.84-2.48-11.14-4.05-15.77-3.06-9-6.3-17.75-9.11-25.25-5.15-13.76-5.02-28.62-1.63-45.42.27-1.39.54-2.78.79-4.17.17-.96.34-1.94.51-2.91-1.84-.13-3.7-.22-5.56-.26-.75,4.46-1.51,9.09-2.25,13.93-1.78,11.76-1.92,22.41.37,32.56.78,3.44,1.56,6.35,2.4,8.88Zm15.43,0c1.22,3.32,2.47,6.6,3.73,9.87,1.7,4.41,3.44,8.82,5.14,13.35,1.27,3.37,2.43,6.83,3.46,10.32l5.1-4.66c-.68-2.2-1.39-4.29-2.14-6.25-3.47-9.11-6.99-17.81-10.01-25.25-5.54-13.76-5.71-28.62-2.22-45.42.28-1.39.55-2.77.82-4.16.07-.35.13-.7.2-1.05-1.8-.34-3.6-.64-5.43-.91-.74,4.09-1.45,8.32-2.12,12.71-1.78,11.76-1.73,22.41.81,32.56.87,3.44,1.73,6.35,2.65,8.88Zm-73.47,0c.67,3.03,1.33,6.01,1.99,9l8.41,8.41c-1.48-7.2-3.13-14.02-4.74-20.02-3.46-13-2.54-26.97.12-42.63-1.96.86-3.89,1.76-5.79,2.71-.06.37-.1.72-.16,1.09-1.8,11.75-2.63,22.4-1.3,32.56.45,3.44.91,6.35,1.47,8.88Zm44.08,0c1.02,3.31,2.05,6.56,3.1,9.82,1.41,4.42,2.83,8.85,4.19,13.4,1.34,4.51,2.47,9.18,3.34,13.87,1.33,7.16.85,15.03-1.62,23l1.73,1.73,5.61-5.12c.29-1.32.55-2.62.74-3.91.77-5.1.79-9.91.11-14.39-.89-5.85-2.04-11.16-3.44-15.77-2.77-9.11-5.71-17.81-8.31-25.25-4.79-13.76-4.4-28.62-1.09-45.42.27-1.39.52-2.78.76-4.17.17-1.03.34-2.06.51-3.1-1.9.08-3.79.19-5.67.35-.68,4.33-1.38,8.82-2.1,13.51-1.79,11.75-2.09,22.4-.03,32.56.7,3.44,1.4,6.35,2.18,8.88Zm4.35,1446.37c-3.31-16.8-3.7-31.65,1.09-45.42,2.6-7.44,5.54-16.14,8.31-25.25,1.4-4.61,2.55-9.92,3.44-15.77.68-4.48.66-9.3-.11-14.39-.19-1.28-.45-2.59-.74-3.91l-8.67-7.91-.21.21c3.78,9.43,4.73,18.86,3.16,27.31-.87,4.69-2,9.36-3.34,13.87-1.36,4.55-2.78,8.98-4.19,13.4-1.04,3.26-2.08,6.51-3.1,9.82-.77,2.53-1.48,5.43-2.18,8.88-2.06,10.16-1.75,20.81.03,32.56.72,4.69,1.42,9.18,2.1,13.51,1.88.16,3.77.28,5.67.35-.17-1.03-.33-2.07-.51-3.1-.24-1.39-.49-2.78-.76-4.17ZM672.71,36.39c.02-2.05.1-4.13.25-6.24-1.15,1.01-2.28,2.05-3.39,3.1l3.14,3.14Zm16.92,16.92c-.04-.18-.09-.37-.13-.55-2.55-10.7-2.19-22.06-.52-34.47-1.99,1.23-3.94,2.52-5.85,3.87-1.02,8.47-1.4,16.4-.62,24.04l7.12,7.12Zm38.21,2.06c.92,3.32,1.86,6.6,2.79,9.87,1.25,4.41,2.5,8.82,3.68,13.35,1.17,4.52,2.1,9.18,2.77,13.87.4,2.79.52,5.68.34,8.65l5.68,5.68c.78-4.59.94-8.94.49-13.01-.64-5.85-1.57-11.16-2.79-15.77-2.41-9.11-5.05-17.81-7.45-25.25-4.41-13.76-3.73-28.62-.51-45.42.26-1.39.5-2.77.72-4.16.09-.55.17-1.11.26-1.66-1.93.31-3.85.66-5.75,1.06-.53,3.66-1.1,7.45-1.7,11.35-1.8,11.76-2.27,22.41-.46,32.56.61,3.44,1.23,6.35,1.94,8.88Zm5,1446.37c-3.21-16.8-3.9-31.65.51-45.42,2.4-7.44,5.04-16.14,7.45-25.25,1.22-4.61,2.16-9.92,2.79-15.77.49-4.48.26-9.3-.74-14.39-.22-1.12-.5-2.27-.79-3.42l-5.24,5.24c.81,4.8.89,9.48.26,13.89-.67,4.68-1.6,9.35-2.77,13.87-1.17,4.54-2.42,8.95-3.68,13.35-.93,3.27-1.87,6.55-2.79,9.87-.7,2.53-1.32,5.43-1.94,8.88-1.81,10.15-1.34,20.8.46,32.56.6,3.9,1.17,7.69,1.7,11.35,1.9.4,3.82.75,5.75,1.06-.08-.55-.17-1.11-.26-1.66-.23-1.39-.47-2.77-.72-4.16Zm729.74-717.51c-3.44.95-6.35,1.89-8.88,2.89-3.31,1.31-6.56,2.66-9.82,4.03-4.21,1.77-8.43,3.58-12.75,5.38l4.38,4.8c7.49-3.19,14.59-6.29,20.81-8.99,13.76-5.93,28.62-6.38,45.42-2.8.6.12,1.19.24,1.79.37.54-1.73,1.05-3.48,1.51-5.25-3.21-.59-6.5-1.15-9.9-1.67-11.75-1.77-22.4-1.55-32.56,1.24Zm0-14.7c-3.44.87-6.35,1.73-8.88,2.65-3.32,1.22-6.6,2.47-9.87,3.73-4.41,1.7-8.82,3.44-13.35,5.14-3.37,1.27-6.83,2.43-10.32,3.46l4.66,5.1c2.2-.68,4.29-1.39,6.25-2.14,9.11-3.47,17.81-6.99,25.25-10.01,13.76-5.54,28.62-5.71,45.42-2.22,1.39.28,2.77.55,4.16.82.35.07.7.13,1.05.2.34-1.8.64-3.6.91-5.43-4.09-.74-8.32-1.45-12.71-2.12-11.76-1.78-22.41-1.73-32.56.81Zm0,28.43c-3.44,1.03-6.35,2.05-8.88,3.12-3.32,1.4-6.59,2.85-9.85,4.33-1.08.49-2.17.99-3.26,1.49l4.24,4.64c4.04-1.88,7.91-3.67,11.49-5.32,12.98-5.93,26.92-6.9,42.55-3.92.73-1.66,1.42-3.34,2.08-5.04-1.91-.33-3.84-.65-5.81-.95-11.76-1.77-22.41-1.38-32.56,1.64Zm0,14.93c-3.44,1.12-6.35,2.22-8.88,3.36-1.08.49-2.14.99-3.21,1.49l4.06,4.45c.59-.29,1.19-.58,1.77-.87,11.03-5.35,22.76-7.05,35.63-5.58.98-1.64,1.91-3.3,2.81-4.98-11.61-1.7-22.14-1.11-32.18,2.13Zm0,14.7c-.81.28-1.58.56-2.33.84l4.01,4.39c5.8-1.99,11.8-3.07,18.07-3.23,1.4-1.75,2.76-3.54,4.07-5.36-8.38-.35-16.24.73-23.82,3.36Zm28.21-138.61c-1.23-1.99-2.52-3.94-3.87-5.85-8.58-1.03-16.61-1.42-24.34-.6-.99.11-1.92.21-2.82.33l-7.6,7.6c1.42-.32,2.82-.64,4.16-.96,10.7-2.55,22.06-2.19,34.47-.52Zm-18.98,152.12c.98-.95,1.96-1.9,2.91-2.88-1.59.23-3.15.55-4.71.9l1.8,1.97Zm2.66-172.95l-4.57,4.57c2.95-.05,5.96.03,9.03.24-1.44-1.65-2.93-3.24-4.46-4.81Zm-59.17,91.83c5.85-.89,11.16-2.04,15.77-3.44,9.11-2.77,17.81-5.71,25.25-8.31,13.76-4.79,28.62-4.4,45.42-1.09,1.39.27,2.78.52,4.17.76,1.03.17,2.06.34,3.1.51-.08-1.9-.19-3.79-.35-5.67-4.33-.68-8.82-1.38-13.51-2.1-11.75-1.79-22.4-2.09-32.56-.03-3.44.7-6.35,1.4-8.88,2.18-3.31,1.02-6.56,2.05-9.82,3.1-4.42,1.41-8.85,2.83-13.4,4.19-4.51,1.34-9.18,2.47-13.87,3.34-7.78,1.45-16.4.76-25.09-2.32l-.98.98,6.45,7.06c1.32.29,2.62.55,3.91.74,5.1.77,9.91.78,14.39.11Zm0-16.38c5.85-.64,11.16-1.57,15.77-2.79,9.11-2.41,17.81-5.05,25.25-7.45,13.76-4.41,28.62-3.73,45.42-.51,1.39.26,2.77.5,4.16.72.55.09,1.11.17,1.66.26-.31-1.93-.66-3.85-1.06-5.75-3.66-.53-7.45-1.11-11.35-1.7-11.76-1.8-22.41-2.27-32.56-.46-3.44.61-6.35,1.23-8.88,1.94-3.32.92-6.6,1.86-9.87,2.79-4.41,1.26-8.82,2.5-13.35,3.68-4.52,1.17-9.18,2.1-13.87,2.77-3.58.51-7.34.55-11.2.12l-5.45,5.45c.31.07.63.14.94.21,5.1,1,9.91,1.23,14.39.74Zm41.02-25.34c13.76-4.02,28.62-3.05,45.42.07.8.14,1.6.27,2.4.4-.58-1.96-1.2-3.89-1.87-5.81-2.33-.33-4.69-.68-7.12-1.05-11.76-1.8-22.41-2.46-32.56-.9-3.44.53-6.35,1.07-8.88,1.69-3.32.82-6.59,1.65-9.85,2.47-4.42,1.1-8.83,2.19-13.37,3.18-2.48.54-5.01,1-7.56,1.39l-7.23,7.23c5.68-.39,10.86-1.09,15.38-2.11,9-2.02,17.75-4.37,25.25-6.57Zm42.63-13.76c-.86-1.96-1.76-3.89-2.71-5.79-.37-.06-.72-.1-1.09-.16-11.75-1.8-22.4-2.63-32.56-1.3-3.44.45-6.35.91-8.88,1.47-3.31.73-6.56,1.46-9.82,2.17-.9.2-1.81.38-2.71.58l-8.35,8.35c8.47-1.65,16.54-3.57,23.5-5.43,13-3.46,26.97-2.54,42.63.12Zm-3.81,49.48c-11.76-1.78-22.41-1.92-32.56.37-3.44.78-6.35,1.56-8.88,2.4-3.32,1.11-6.59,2.25-9.85,3.4-4.42,1.55-8.83,3.12-13.37,4.64-4.49,1.5-9.16,2.81-13.87,3.87-3.18.72-6.51,1.09-9.92,1.09l5.49,6.01c1.06-.12,2.1-.28,3.13-.48,5.84-1.12,11.14-2.48,15.77-4.05,9-3.06,17.75-6.3,25.25-9.11,13.76-5.15,28.62-5.02,45.42-1.63,1.39.27,2.78.54,4.17.79.96.17,1.94.34,2.91.51.13-1.84.22-3.7.26-5.56-4.46-.75-9.09-1.51-13.93-2.25ZM52.75,704.37c7.38,1.97,15.99,4.02,25.02,5.72l-8.31-8.31c-1.42-.3-2.85-.6-4.26-.91-3.26-.71-6.51-1.44-9.82-2.17-2.53-.55-5.43-1.02-8.88-1.47-10.16-1.33-20.81-.5-32.56,1.3-.37.06-.73.11-1.09.16-.95,1.9-1.86,3.83-2.71,5.79,15.66-2.67,29.63-3.59,42.63-.12Zm2.61,96.71c-2.53-1.07-5.43-2.09-8.88-3.12-10.15-3.03-20.8-3.41-32.56-1.64-1.97.3-3.9.61-5.81.95.66,1.7,1.35,3.38,2.08,5.04,15.63-2.98,29.57-2,42.55,3.92,3.58,1.64,7.45,3.44,11.49,5.32l4.24-4.64c-1.09-.5-2.17-1-3.26-1.49-3.27-1.48-6.54-2.93-9.85-4.33Zm-2.61-82.82c7.5,2.2,16.25,4.55,25.25,6.57,4.62,1.04,9.93,1.75,15.77,2.13.29.02.6.01.89.03l-7.08-7.08c-3.05-.42-6.06-.95-8.99-1.59-4.54-1-8.96-2.08-13.37-3.18-3.27-.82-6.54-1.64-9.85-2.47-2.53-.63-5.43-1.16-8.88-1.69-10.15-1.56-20.8-.9-32.56.9-2.43.37-4.79.72-7.12,1.05-.67,1.91-1.3,3.85-1.87,5.81.8-.13,1.6-.25,2.4-.4,16.8-3.12,31.65-4.1,45.42-.07Zm-13.03-45.53l-4.96-4.75c-1.58,1.62-3.13,3.28-4.62,4.98,3.26-.22,6.45-.31,9.58-.24Zm-32.39,60.12c16.8-3.21,31.65-3.9,45.42.51,7.44,2.4,16.14,5.04,25.25,7.45,4.61,1.22,9.92,2.16,15.77,2.79,4.48.49,9.3.26,14.39-.74.64-.13,1.29-.27,1.95-.42l-5.36-5.36c-4.25.57-8.38.57-12.3.01-4.68-.67-9.35-1.6-13.87-2.77-4.54-1.17-8.94-2.42-13.35-3.68-3.27-.93-6.55-1.87-9.87-2.79-2.53-.7-5.43-1.32-8.88-1.94-10.15-1.81-20.8-1.34-32.56.46-3.9.6-7.69,1.17-11.35,1.7-.4,1.9-.75,3.82-1.06,5.75.55-.08,1.11-.17,1.66-.26,1.39-.23,2.77-.47,4.16-.72Zm39.15,80.04c-10.04-3.24-20.57-3.83-32.18-2.13.9,1.68,1.84,3.34,2.81,4.98,12.87-1.47,24.6.24,35.63,5.58.58.28,1.18.58,1.77.87l4.06-4.45c-1.07-.5-2.13-1-3.21-1.49-2.53-1.14-5.43-2.24-8.88-3.36Zm6.26-123.39c1.84.44,3.76.88,5.74,1.31l-2.63-2.63-5.41-5.19c-1.24-.16-2.55-.32-3.96-.47-7.73-.82-15.76-.43-24.34.6-1.34,1.91-2.63,3.86-3.87,5.85,12.41-1.67,23.77-2.03,34.47.52Zm2.61,97.62c-2.53-1-5.43-1.94-8.88-2.89-10.16-2.8-20.81-3.01-32.56-1.24-3.4.51-6.69,1.08-9.9,1.67.47,1.77.97,3.52,1.51,5.25.6-.12,1.19-.24,1.79-.37,16.8-3.58,31.65-3.13,45.42,2.8,6.22,2.7,13.32,5.8,20.81,8.99l4.38-4.8c-4.32-1.8-8.54-3.61-12.75-5.38-3.26-1.37-6.51-2.72-9.82-4.03Zm-18.53,53.57l1.67-1.67c-1.38-.31-2.76-.58-4.16-.79.81.84,1.65,1.65,2.49,2.46Zm55.62-87.28c-4.69-.87-9.35-2-13.87-3.34-4.55-1.36-8.98-2.78-13.4-4.19-3.26-1.04-6.51-2.08-9.82-3.1-2.53-.78-5.43-1.48-8.88-2.18-10.16-2.06-20.81-1.75-32.56.03-4.69.72-9.18,1.42-13.51,2.1-.16,1.88-.28,3.77-.35,5.67,1.03-.17,2.07-.33,3.1-.51,1.39-.24,2.78-.49,4.17-.76,16.8-3.31,31.65-3.7,45.42,1.09,7.44,2.6,16.14,5.54,25.25,8.31,4.61,1.4,9.92,2.55,15.77,3.44,4.48.68,9.3.66,14.39-.11,1.28-.19,2.59-.45,3.91-.74l7.03-7.71-.66-.66c-8.99,3.35-17.94,4.14-25.99,2.64Zm-69.78,70.82c1.31,1.83,2.67,3.61,4.07,5.36,6.24.16,12.21,1.23,17.98,3.2l1.28-1.28,2.82-3.09c-.75-.28-1.52-.56-2.33-.84-7.58-2.63-15.43-3.71-23.82-3.36Zm695.58,632.09c2.2-7.5,4.55-16.25,6.57-25.25,1.04-4.62,1.75-9.93,2.13-15.77.06-.87.08-1.76.08-2.66l-6.91,7.21c-.45,3.61-1.06,7.17-1.82,10.62-1,4.54-2.08,8.96-3.18,13.37-.82,3.27-1.64,6.54-2.47,9.85-.63,2.53-1.16,5.43-1.69,8.88-1.56,10.15-.9,20.8.9,32.56.37,2.43.72,4.79,1.05,7.12,1.91.67,3.85,1.3,5.81,1.87-.13-.8-.25-1.6-.4-2.4-3.12-16.8-4.1-31.65-.07-45.42ZM65.24,775.9c-3.27-1.27-6.55-2.52-9.87-3.73-2.53-.92-5.43-1.78-8.88-2.65-10.15-2.54-20.8-2.59-32.56-.81-4.39.67-8.62,1.39-12.71,2.12.26,1.82.56,3.63.91,5.43.35-.07.7-.13,1.05-.2,1.39-.27,2.77-.54,4.16-.82,16.8-3.49,31.65-3.32,45.42,2.22,7.44,3.01,16.14,6.53,25.25,10.01,1.96.75,4.05,1.46,6.25,2.14l4.66-5.1c-3.48-1.03-6.94-2.19-10.32-3.46-4.54-1.7-8.94-3.44-13.35-5.14Zm13.35-11.13c-4.54-1.52-8.96-3.09-13.37-4.64-3.27-1.15-6.54-2.29-9.85-3.4-2.53-.85-5.43-1.62-8.88-2.4-10.15-2.29-20.8-2.15-32.56-.37-4.84.74-9.47,1.49-13.93,2.25.04,1.87.13,3.72.26,5.56.97-.17,1.94-.34,2.91-.51,1.39-.25,2.78-.52,4.17-.79,16.8-3.39,31.65-3.52,45.42,1.63,7.5,2.82,16.25,6.05,25.25,9.11,4.62,1.57,9.93,2.93,15.77,4.05,1.02.2,2.07.35,3.13.48l5.49-6.01c-3.41,0-6.74-.37-9.92-1.09-4.71-1.06-9.38-2.37-13.87-3.87Zm692.63,666.29c1.57-4.62,2.93-9.93,4.05-15.77.2-1.02.35-2.07.48-3.13l-6.01-5.49c0,3.41-.37,6.74-1.09,9.92-1.06,4.71-2.37,9.38-3.87,13.87-1.52,4.54-3.09,8.96-4.64,13.37-1.15,3.27-2.29,6.54-3.4,9.85-.85,2.53-1.62,5.43-2.4,8.88-2.29,10.15-2.15,20.8-.37,32.56.74,4.84,1.49,9.47,2.25,13.93,1.87-.04,3.72-.13,5.56-.26-.17-.97-.34-1.94-.51-2.91-.25-1.39-.52-2.78-.79-4.17-3.39-16.8-3.52-31.65,1.63-45.42,2.82-7.5,6.05-16.25,9.11-25.25Zm16.25,0c.75-1.96,1.46-4.05,2.14-6.25l-5.1-4.66c-1.03,3.48-2.19,6.94-3.46,10.32-1.7,4.54-3.44,8.95-5.14,13.35-1.27,3.27-2.52,6.55-3.73,9.87-.92,2.53-1.78,5.43-2.65,8.88-2.54,10.15-2.59,20.8-.81,32.56.67,4.39,1.39,8.62,2.12,12.71.9-.13,1.8-.27,2.69-.42.91-.17,1.82-.36,2.72-.55-.06-.33-.12-.66-.19-.99-.27-1.39-.54-2.77-.82-4.16-3.49-16.8-3.32-31.65,2.22-45.42,3.01-7.44,6.53-16.14,10.01-25.25Zm13.85,4.44l-4.8-4.38c-1.8,4.32-3.61,8.54-5.38,12.75-1.37,3.26-2.72,6.51-4.03,9.82-1,2.53-1.94,5.43-2.89,8.88-2.8,10.16-3.01,20.81-1.24,32.56.5,3.32,1.05,6.53,1.63,9.68,1.75-.49,3.49-1.02,5.23-1.59-.1-.5-.2-.99-.31-1.49-3.58-16.8-3.13-31.65,2.8-45.42,2.69-6.22,5.8-13.32,8.99-20.81Zm-128.6,33.84l-4.75,4.96c1.62,1.58,3.28,3.13,4.98,4.62-.22-3.26-.31-6.45-.24-9.58Zm31.64-13.03c1.99-7.44,4.05-16.14,5.77-25.25.06-.31.11-.64.17-.96l-8.36,8.73c-.35,1.68-.71,3.36-1.07,5.03-.71,3.26-1.44,6.51-2.17,9.82-.55,2.53-1.02,5.43-1.47,8.88-1.33,10.16-.5,20.81,1.3,32.56.06.37.1.73.16,1.09,1.9.95,3.83,1.86,5.79,2.71-2.67-15.66-3.59-29.63-.12-42.63Zm-21.83,6.26c-.82,7.73-.43,15.76.6,24.34,1.91,1.34,3.86,2.63,5.85,3.87-1.67-12.41-2.03-23.77.52-34.47.45-1.89.9-3.86,1.35-5.89l-7.84,8.19c-.16,1.24-.32,2.55-.47,3.96Zm129-17.75l-4.64-4.24c-.5,1.09-1,2.17-1.49,3.26-1.48,3.27-2.93,6.54-4.33,9.85-1.07,2.53-2.08,5.43-3.12,8.88-3.03,10.15-3.41,20.8-1.64,32.56.28,1.84.58,3.65.89,5.44,1.69-.67,3.36-1.37,5.03-2.11-2.89-15.47-1.88-29.28,3.99-42.15,1.64-3.58,3.44-7.45,5.32-11.49Zm27.59-1405.77l1.97-1.8c-.95-.98-1.9-1.96-2.88-2.91.23,1.59.55,3.15.9,4.71Zm-14.9-16.39c-.35,8.38.73,16.24,3.36,23.82.28.81.56,1.58.84,2.33l4.39-4.01c-1.99-5.8-3.07-11.8-3.23-18.07-1.75-1.4-3.54-2.76-5.36-4.07Zm13.99,1452.04c.98-.95,1.93-1.93,2.88-2.91l-1.97-1.8c-.36,1.56-.67,3.12-.9,4.71Zm-21.97-21.01c-1.14,2.53-2.24,5.43-3.36,8.88-3.2,9.92-3.81,20.32-2.19,31.77,1.68-.89,3.35-1.83,5-2.8-1.38-12.71.33-24.31,5.62-35.23.28-.58.58-1.18.87-1.77l-4.45-4.06c-.5,1.07-1,2.13-1.49,3.21Zm11.34,8.88c-2.6,7.48-3.68,15.23-3.36,23.49,1.82-1.27,3.61-2.59,5.38-3.95.18-6.2,1.25-12.13,3.22-17.86l-4.39-4.01c-.28.75-.56,1.52-.84,2.33Z"/></g></svg>