<?xml version="1.0" encoding="UTF-8"?><svg id="eye" xmlns="http://www.w3.org/2000/svg" viewBox="0 0 594.21 336.23"><defs><style>.cls-1{fill:#222;}</style></defs><g id="eye"><g><path class="cls-1" d="m298.61,318.27c-15.14,0-30.35-1.06-45.62-3.18-73.58-10.23-133.09-42.91-170.06-68.52-16.22-11.24-30.38-22.65-42.2-33.41,82.24,88.57,289.69,223.36,501.19,4.94-40.31,35.32-82.47,61.53-125.91,78.18-38.2,14.64-77.53,22-117.41,22Z"/><path class="cls-1" d="m297.88,321.09c-15.14,0-30.35-1.06-45.62-3.18-73.58-10.23-133.09-42.91-170.06-68.52C38.17,218.87,9.33,187.11,1.17,170.51l-1.17-2.4,1.17-2.4c8.16-16.6,37-48.36,81.04-78.87,36.97-25.61,96.48-58.29,170.06-68.52,55.48-7.71,110.33-1.38,163.03,18.81,61.67,23.64,120.79,66.53,175.69,127.48l3.23,3.45-3.24,3.58c-54.89,60.94-114,103.82-175.68,127.46-38.2,14.64-77.53,22-117.41,22ZM10.88,168.12c7.77,13.85,33.42,43.19,76.86,73.29,36.1,25.01,94.18,56.92,165.86,66.89,53.84,7.49,107.07,1.34,158.21-18.26,59.22-22.7,116.14-63.71,169.24-121.92-53.14-58.24-110.04-99.23-169.24-121.92-51.15-19.6-104.38-25.75-158.21-18.26-71.68,9.97-129.76,41.88-165.86,66.89-43.42,30.09-69.07,59.42-76.86,73.29Z"/><path class="cls-1" d="m296.5,321.1c-84.35,0-152.98-68.63-152.98-152.98S212.15,15.13,296.5,15.13s152.98,68.63,152.98,152.98-68.63,152.98-152.98,152.98Zm0-296.25c-79,0-143.27,64.27-143.27,143.27s64.27,143.27,143.27,143.27,143.27-64.27,143.27-143.27S375.51,24.84,296.5,24.84Z"/><polygon class="cls-1" points="291.33 163.12 444.31 163.12 444.31 172.83 301.04 172.83 301.04 316.11 291.33 316.11 291.33 163.12"/><circle class="cls-1" cx="296.51" cy="168.11" r="45.04"/><path class="cls-1" d="m292.86,17.96c15.14,0,30.35,1.06,45.62,3.18,73.58,10.23,133.09,42.91,170.06,68.52,16.22,11.24,30.38,22.65,42.2,33.41-82.24-88.57-289.69-223.36-501.19-4.94,40.31-35.32,82.47-61.53,125.91-78.18,38.2-14.64,77.53-22,117.41-22Z"/><path class="cls-1" d="m282.56,129.78c32.29,12.05,35.46,13.69,33.88,17.76-.93,2.4-2.71,4.32.04,4.97,3.8.9,14.84-1.35,23.01-5.34,19.73-9.64,20.4-29,22.66-33.48,3.25-6.45,11.65-.15,16.59,5.21,14.05,15.27,13.25,23.79,23.33,23.65,2.99-.04,5.99-.09,8.97.32,6.18.86,8.44,1.91,14.62.82,3.82-.67,9.59-1.68,15.86-2.51-.68-3.71-1.51-7.37-2.46-10.97-7.02.71-13.5,1.63-27.43.43-4.11-.35-7.04.43-10.97-2.64-10.67-8.34-21.33-32.21-52.57-38.33-4.6-.9-13.26-2.64-12.31,2.09,1.24,6.11,15.4,17.98,11.63,31.83-.97,3.58-3.2,6.99-6.92,7.97-17.04,4.49-23.21,4.5-45.76-4.82-15.98-6.61-37.92-11.83-44.83-12.41-28.26-2.39-36.09,15.09-53.62,12.86-6.82-.87-29-2.14-40.67-2.78-1.62,5.23-2.95,10.58-3.98,16.03,7.18.14,17.46.32,32.75.66,26.1.58,40.76-32.74,98.17-11.32Zm129.86,34.04c1.42-1.85,3.31-4.92,8.57-5.54,8.81-1.04,7.85,2.45,22.92,5.3-.17-5.45-.63-10.83-1.37-16.11-6.81-.29-16.93,1.03-25.92,4.83-2.62,1.11-4.55,1.63-6.51.85-10.5-4.16-15.76,1.68-23.03-7.24-1.35-1.66-2.67-3.34-3.99-5.02-17.86-22.79-16.59,2.58-41.26,11.2-23.67,8.27-33.82,7.48-40.75,6.75-2.97-.31-6.88-.75-9.29-2.2-3.4-2.04-2.25-4.82-1.18-7.44,1.4-3.42-.99-5.88-6.01-8.69-19.71-11.03-41.79-13.48-63.95-4.81-18.92,7.4-26.56,14.84-40.44,14.82-10.03-.02-20.05-.23-30.08-.45-.39,3.22-.68,6.48-.87,9.76,3.42.22,7.07.53,10.98.95,39.46,4.23,36.23-2.53,58.7-10.36,28.58-9.97,39.39.78,48.12,7.78,6.21,4.98,9.7,7.5,17.09,8.48,21.75,2.9,37.04-4.36,79-11.39,12.83-2.15,17.48,8.11,32.22,7.77,5.51-.13,8.61.58,10.62,1.25,2.83.95,4.7,1.78,6.43-.48Zm-211.62-48.34c11.78,2.37,10.56,3.54,20.62-1.29,7.7-3.7,13.35-5.34,23.76-5.94,3.78-.22,7.5.29,11.04,1.6,9.69,3.57,19.63,6.28,29.54,9.15,15.61,4.53,28.36,14.14,42.61,9.81,18.87-5.73,4.9-26.39-11.76-37.12-4.27-2.75-12.21-5.42-5.13-9.29,6.39-3.5,14.11-3.51,26.19-1.11,37.85,7.51,44.22,19.55,61.54,35.04,9.98,8.93,24.21,9.38,37.41,7.18.16-.03.31-.06.47-.09-.88-2.78-1.84-5.51-2.88-8.22-1.43.76-3.26,1.36-6.18,1.71-30.07,3.62-32.43-27.08-74.41-37.1-12.29-2.93-29-7.26-41.07-4.11-14.29,3.74-21.51.63-21.55,7.65-.03,4.17,2.41,8.72,7.76,11.72,5.33,2.98,11.35,3.68,17.07,10.4,4.76,5.6,6.78,12.51-1.04,13.84-6.49,1.11-12.21-1.67-28.84-5.4-8.42-1.88-16.07-3.84-22.34-8.44-4.68-3.43-9.83-4.55-15.54-4.43-18.73.39-19.57,4.51-26.75,3.1-2.89-.57-5.87-.42-8.77-.85-15.46-2.29-16.33-3.71-45.98-1.59-.61.04-1.23.1-1.84.16-1.79,3.56-3.44,7.19-4.94,10.91,18.26-1.68,27.61,0,41.03,2.7Zm-36.61,65.25c12.61,3.75,12.79,13.56,15.38,17.97,1.63,2.76,3.66,2.41,9.6-.2,23.51-10.31,36.71-15.38,68.37-8.73,7.9,1.66,14.43,3.97,18.19,10.41,3.85,6.6,6.91,6.03,16.74,4.82.97-.12,1.87-.25,2.72-.39l.12-10.89c-1.93,1.05-4.02,1.98-6.6,2.62-8.24,2.05-7.06-6.65-19.06-12.03-9.89-4.44-26.28-7.44-37.17-7.64-17.44-.31-32.88,6.3-40.46,9.35-4.37,1.76-7.75,3.2-11.19.49-4.99-3.93-10.91-9.83-23.77-11.23-2.42-.26-5.08-.41-7.89-.44.07,1.46.15,2.92.26,4.37,5.32-.15,10.45.24,14.75,1.52Zm-4.1,7.07c5.36,1.09,8.28,4.22,9.06,9.62,1.53,10.7-8.05,25.36,6.4,25.68,23.9.53,41.77-16.21,67.8-7.86,9.45,3.03,12.34,5.03,20,4.46,12-.89,20.09-1.98,31.47.29.07.01.14.03.21.04l.1-8.57c-1.4.11-2.79.21-4.19.31-29.17,2.03-18.88-7.29-34.77-11.71-29.62-8.25-45.58-1.39-64.46,6.87-15.47,6.76-16.44,4.12-16.9-4.47-.43-7.9-1.3-15.74-10.65-18.63-4.06-1.25-9.09-1.55-14.41-1.26.17,1.7.36,3.38.58,5.06,3.67-.37,7.07-.39,9.77.16Zm27.69-8.17c13.65-3.63,35.03-16,74.45-4.4,21.14,6.22,17.15,17.23,28.6,11.75,1.57-.75,3.09-1.48,4.59-2.19l.12-10.79c-3.52.64-7.19,1.21-11.07,1.66-10.84,1.24-27.83-22.76-58.96-14.96-11.76,2.95-23.6,5.6-35.41,8.37-3.86.9-7.76,1.52-11.76,1.16-5.27-.47-13.72-3.97-29.28-4.99-.02.95-.04,1.91-.04,2.86s.02,1.99.04,2.98c2.07.09,4.15.22,6.27.42,19.53,1.9,22.14,10.86,32.44,8.12Zm127.88-146.66c9.87-.12,19.48-1.83,28.96-4.31-15.08-5.2-31.26-8.03-48.11-8.03-8.53,0-16.88.73-25.01,2.12,4.51,1.72,9.04,3.57,13.24,5.2,9.94,3.87,15.38,5.21,30.92,5.02Zm1.64,136.25l54.06-.82c-22.39-5.64-37.79-2.94-54.06.82Zm-91.19-98.94c11.93.53,12.44.23,17.04,2.22,15.28,6.59,17.56,9.73,21.34,8.08,3.28-1.43,6.57-2.87,9.6-4.78,6.35-4,6.24-9.34,13.68-8.97,5.35.27-.78-.16,9.91.77,12.54,1.09,13.48-3.48,29.53-2.92,10.76.38,21.41,1.73,31.95,3.88,24.26,4.94,43.26,21.45,46.15,23.48,4.82,3.39,6.58,2.71,9.08-.04,1.73-1.9,3.54-3.49,5.42-4.83-1.81-2.75-3.71-5.44-5.69-8.05-1.19.86-2.29,1.7-3.36,2.5-3.69,2.75-6.36.28-9.8-1.93-10.98-7.06-22.54-12.88-35.26-16.15-10.76-2.77-32.43-3.85-42.4-3.7-13.76.21-15.12,4.73-30.14,2.75-4.72-.62-9.44-1.13-14.22-.79-4.34.31-7.41-1.47-10.95,2.71-.86,1.02-1.9,1.88-2.84,2.83-2.88,2.9-5.8,1.32-11.8-.94-5.51-2.08-12.16-4.42-17.9-4.74-19.46-1.07-20.09-1.67-43.44,2.39-4.94,4.96-9.53,10.27-13.72,15.88,20.06-2.85,16.07-3.24,30.83-6,10.22-1.91,10.92-3.94,17-3.67Zm192.67,97.39l17.24-.26c-2.25-.27-4.63-.55-7.19-.86-6.36-.77-8.89-.3-10.05,1.13ZM236.03,55.81c6.2-.64,11.28,1.75,16.91,3.13,7.15,1.75,6.98-3.34,9.06-6.76,1.45-2.39,3.93-2.09,6.36-.76,4.94,2.69,7.99,5.3,15.12,6.24,8.78,1.16,16.79,3.12,26.35.14,4.12-1.28,8.33-1.89,12.61-2.1,14.42-.72,35.53.75,36.21.8,16.39,1.26,28.97,8.21,38.54,13.13,6.23,3.2,8.56,4.22,11.8,3.12-6.35-7.48-13.43-14.33-21.13-20.42-4.57-1.91-10.27-3.56-18.15-3.92-18.07-.82-8.87-.94-45.26,2.14-5.7.48-11.36,1.13-16.9,2.73-6.1,1.76-12.27,1.27-18.42.02-11.62-2.35-16.3-7.95-21.51-11.79-8.2-6.05-18.65-8.21-28.59-5.18-2.09.64-3.79,1.61-2.68,3.49,1.16,1.97,5.38,5.29,1.42,6.7-.45.16-.92.3-1.39.36-18.52,2.15-7.05,3.1-28.35,3.22-2.45,1.84-4.84,3.76-7.17,5.75,18.87-1.13,23.88,1.11,35.17-.06Zm37.07-16.42c10.09,7.5,21.37,12.39,33.57,9.48,11.12-2.65,25.05-2.23,44.53-6.57,6.2-1.38,12.45-1.97,18.72-2.13-4.71-2.71-9.58-5.15-14.59-7.33-5.32,1.59-11.18,3.3-17.63,4.6-13.78,2.78-26.88,2.93-34.12,3.27-17.4.8-21.21-9.17-45.55-14.99-4.78,1.29-9.47,2.81-14.05,4.56,2.86,0,5.71.13,8.55.65,7.46,1.36,14.42,3.89,20.57,8.46Zm-53.71,54c3.83-.91,7.53-.67,11.13.92,5.28,2.33,5.21-.07,16.17,1.47,7.48,1.06,13.18-1.96,18.57,2.71,3.52,3.05,10.36,9.51,22.96,7.85,1.65-.22,3.25-.68,4.68-1.58,7.08-4.49-8.08-6.6-6.09-25.17.35-3.27,1.68-5.26,8.48-5,17.17.65,15.95-3.97,31.48-2.82,11.88.88,23.49,3.27,34.92,6.51,15.11,4.29,28.14,14.63,40.15,24.64,5.47,4.56,10.68,9.09,20.14,7.95,3.88-.47,4.51-3.15,7.84-5.89-1.78-3.76-3.72-7.42-5.8-11-1.75,1.21-3.4,2.66-4.91,4.45-1.91,2.26-3.47,4.41-7.45,3.27-4.1-1.17-8.32-5.16-12.28-8.3-8.97-7.11-18.63-13.07-29.28-17.35-10.96-4.4-29.75-7.36-41.88-8.11-5.9-.36-11.74-.08-17.48,1.57-9.09,2.6-17.28.41-22.32.81-4.94.39-5.35,4.13-6.71,8.92-1.51,5.3-4.86,7.82-10.4,7.52-3.03-.16-5.98.08-8.88.91-8.14,2.33-13.14-1.47-19.42-5.15-3.1-1.82-5.99-2.57-13.91-3.33-2.53-.24-5,0-7.44.77-13.62,4.36-30.8,5.99-48.59,7.4-1.73,2.63-3.37,5.33-4.93,8.07,4.59-.36,10.67-.81,19.59-1.04,17.49-.46,21.2,1.47,31.64-1Zm180.53,178c.27.36.55.71.81,1.07,1.58-1.58,3.13-3.2,4.64-4.85-.11-.23-.21-.45-.31-.67l-5.14,4.45Zm-187.58-29.24c14.59-5.33,23-6.51,35.29-7.68,11.72-1.12,17.31-4.75,27.2-5.96,9.35-1.14,14.2.23,20.08,1.32l.06-5.27c-.27-.06-.54-.11-.82-.18-13.44-3.22-23.4-.94-34.47,1.03-6.51,1.16-10.92.11-20.78-.45-28.49-1.62-22.78,9.07-64.21,6.2-3.63-.25-8.23-1.44-11.26-3.38-8.69-5.57,1.93-19.22-.11-28.51-1.22-5.53-6.75-7.09-12.22-6.47,2.72,16.13,8.05,31.37,15.56,45.27,10.15,2.8,22.08,4.82,28.54,5.56,2,.23,7.25,2.12,17.14-1.5Zm172.6,42.23c.64.09,1.27.2,1.89.33,3.14-2.44,6.19-5,9.12-7.68-.45-.35-.9-.68-1.37-1.01l-9.64,8.36Zm54.65-80.4c.38-1.5.72-3.02,1.05-4.54l-1.26,4.58c.07-.02.14-.03.21-.05Zm-87.42,100.74c7.99-3.26,15.63-7.2,22.85-11.75l-26.06,11.83c1.03-.04,2.08-.07,3.2-.08Zm77.53-73.2c2.51-5.27,4.73-10.72,6.61-16.31l-10.06,17.76c.97-.44,2.1-.93,3.45-1.45Zm-12.23,16.95l-8.6,15.17c4.91-5.77,9.38-11.92,13.37-18.4-.63.39-1.25.79-1.84,1.23-1.16.84-2.11,1.5-2.93,2Zm-153.66,26.16c2.65-.63,5.34-1.06,8.07-1.26,9.77-.72,7.15,10.71,17.11,11.48,2,.15,3.72.34,5.28.53l.36-31.24c-8.82-.67-15.33-.85-25.08,1.97-11.55,3.35-16.7,3.97-28.53,4.91-22.12,1.76-23.51,6.51-32.76,10.03-5.68,2.16-10.52,2.12-15.81,1.58,3.87,3.86,7.96,7.5,12.24,10.91,6.88-.03,14.45-.69,23.38-3.52,11.6-3.69,12.62.12,35.75-5.38Zm-55.84-13.45c6.39-2.08,13.72-6.75,29.67-8.27,11.54-1.1,17.21-1.4,27.26-5.31,15.09-5.88,19.94-3.67,29.85-3.33l.11-9.97c-8.82-1.21-16.95-3-32.76,4.04-17.19,7.65-24.83,1.58-50.96,11.91-5.19,2.05-9.22,3.5-14.61,1.94-17.3-5-22.17-6.37-25.96-7.29,2.73,4.46,5.69,8.76,8.86,12.9,3.84.58,7.97,1.45,12.52,2.7,4.64,1.27,9.19,2.92,16.03.69Zm86.19,34.12c-10.27.48-11.33,1.67-18.65-3.2-6.93-4.61-14.29-3.64-22.43-1.48-8.46,2.25-15.25.5-28.72-.21-3.05-.16-6.58-.13-10.3.02,4.39,2.96,8.95,5.69,13.65,8.17.26.02.51.04.78.07,10.43,1.04,53.22,9.86,53.89,9.95,2.52.35,5.04.44,7.42-.61,1.53-.68,2.91-1.1,4.22-1.33l.13-11.4Zm-46.6,11.99c12.37,4.35,25.5,7.1,39.13,8-1.97-.4-4.41-1.02-7.53-1.89-12.55-3.49-9.11-1.56-31.61-6.11Zm46.36,8.3c.86.01,1.72.03,2.58.03,2.16,0,4.31-.06,6.45-.15-.46-.13-.93-.24-1.4-.35l-7.63.46Z"/><path class="cls-1" d="m360.79,225.49c.37,0,.68-.3.68-.68s-.3-.68-.68-.68-.68.3-.68.68.3.68.68.68Zm0-11.89c.37,0,.68-.3.68-.68s-.3-.68-.68-.68-.68.3-.68.68.3.68.68.68Zm0,5.94c.37,0,.68-.3.68-.68s-.3-.68-.68-.68-.68.3-.68.68.3.68.68.68Zm0-11.89c.37,0,.68-.3.68-.68s-.3-.68-.68-.68-.68.3-.68.68.3.68.68.68Zm5.94-11.94c.35,0,.63-.28.63-.63s-.28-.63-.63-.63-.63.28-.63.63.28.63.63.63Zm0,5.94c.35,0,.63-.28.63-.63s-.28-.63-.63-.63-.63.28-.63.63.28.63.63.63Zm0-23.78c.35,0,.63-.28.63-.63s-.28-.63-.63-.63-.63.28-.63.63.28.63.63.63Zm0,35.67c.35,0,.63-.28.63-.63s-.28-.63-.63-.63-.63.28-.63.63.28.63.63.63Zm0-29.72c.35,0,.63-.28.63-.63s-.28-.63-.63-.63-.63.28-.63.63.28.63.63.63Zm0,5.94c.35,0,.63-.28.63-.63s-.28-.63-.63-.63-.63.28-.63.63.28.63.63.63Zm0,17.83c.35,0,.63-.28.63-.63s-.28-.63-.63-.63-.63.28-.63.63.28.63.63.63Zm-11.89,75.91c-.41,0-.74.33-.74.74s.33.74.74.74.74-.33.74-.74-.33-.74-.74-.74Zm0,5.94c-.41,0-.74.33-.74.74s.33.74.74.74.74-.33.74-.74-.33-.74-.74-.74Zm0-11.89c-.41,0-.74.33-.74.74s.33.74.74.74.74-.33.74-.74-.33-.74-.74-.74Zm0-11.89c-.41,0-.74.33-.74.74s.33.74.74.74.74-.33.74-.74-.33-.74-.74-.74Zm0,5.94c-.41,0-.74.33-.74.74s.33.74.74.74.74-.33.74-.74-.33-.74-.74-.74Zm0,23.78c-.41,0-.74.33-.74.74s.33.74.74.74.74-.33.74-.74-.33-.74-.74-.74Zm5.94-111.53c.37,0,.68-.3.68-.68s-.3-.68-.68-.68-.68.3-.68.68.3.68.68.68Zm0,11.89c.37,0,.68-.3.68-.68s-.3-.68-.68-.68-.68.3-.68.68.3.68.68.68Zm0,5.94c.37,0,.68-.3.68-.68s-.3-.68-.68-.68-.68.3-.68.68.3.68.68.68Zm-5.94,99.64c-.41,0-.74.33-.74.74s.33.74.74.74.74-.33.74-.74-.33-.74-.74-.74Zm5.94-123.42c.37,0,.68-.3.68-.68s-.3-.68-.68-.68-.68.3-.68.68.3.68.68.68Zm0,11.89c.37,0,.68-.3.68-.68s-.3-.68-.68-.68-.68.3-.68.68.3.68.68.68Zm17.83,11.74c.29,0,.53-.24.53-.53s-.24-.53-.53-.53-.53.24-.53.53.24.53.53.53Zm0,5.94c.29,0,.53-.24.53-.53s-.24-.53-.53-.53-.53.24-.53.53.24.53.53.53Zm0,5.94c.29,0,.53-.24.53-.53s-.24-.53-.53-.53-.53.24-.53.53.24.53.53.53Zm0-29.72c.29,0,.53-.24.53-.53s-.24-.53-.53-.53-.53.24-.53.53.24.53.53.53Zm0,11.89c.29,0,.53-.24.53-.53s-.24-.53-.53-.53-.53.24-.53.53.24.53.53.53Zm0,29.72c.29,0,.53-.24.53-.53s-.24-.53-.53-.53-.53.24-.53.53.24.53.53.53Zm0-35.67c.29,0,.53-.24.53-.53s-.24-.53-.53-.53-.53.24-.53.53.24.53.53.53Zm-23.78,67.87c-1.62,0-2.93,1.31-2.93,2.93s1.31,2.93,2.93,2.93,2.93-1.31,2.93-2.93-1.31-2.93-2.93-2.93Zm29.72-67.94c.25,0,.46-.21.46-.46s-.21-.46-.46-.46-.46.21-.46.46.21.46.46.46Zm0-11.89c.25,0,.46-.21.46-.46s-.21-.46-.46-.46-.46.21-.46.46.21.46.46.46Zm-5.94,41.68c.29,0,.53-.24.53-.53s-.24-.53-.53-.53-.53.24-.53.53.24.53.53.53Zm5.94-35.73c.25,0,.46-.21.46-.46s-.21-.46-.46-.46-.46.21-.46.46.21.46.46.46Zm-11.89-5.83c.32,0,.58-.26.58-.58s-.26-.58-.58-.58-.58.26-.58.58.26.58.58.58Zm0,11.89c.32,0,.58-.26.58-.58s-.26-.58-.58-.58-.58.26-.58.58.26.58.58.58Zm0,5.94c.32,0,.58-.26.58-.58s-.26-.58-.58-.58-.58.26-.58.58.26.58.58.58Zm0-11.89c.32,0,.58-.26.58-.58s-.26-.58-.58-.58-.58.26-.58.58.26.58.58.58Zm-5.94,41.66c.35,0,.63-.28.63-.63s-.28-.63-.63-.63-.63.28-.63.63.28.63.63.63Zm0-5.94c.35,0,.63-.28.63-.63s-.28-.63-.63-.63-.63.28-.63.63.28.63.63.63Zm5.94-17.88c.32,0,.58-.26.58-.58s-.26-.58-.58-.58-.58.26-.58.58.26.58.58.58Zm0,23.78c.32,0,.58-.26.58-.58s-.26-.58-.58-.58-.58.26-.58.58.26.58.58.58Zm0-5.94c.32,0,.58-.26.58-.58s-.26-.58-.58-.58-.58.26-.58.58.26.58.58.58Zm-29.72,26.31c-1.57,0-2.83,1.27-2.83,2.84s1.27,2.84,2.83,2.84,2.84-1.27,2.84-2.84-1.27-2.84-2.84-2.84Zm35.67-67.97c.29,0,.53-.24.53-.53s-.24-.53-.53-.53-.53.24-.53.53.24.53.53.53Zm-5.94,29.77c.32,0,.58-.26.58-.58s-.26-.58-.58-.58-.58.26-.58.58.26.58.58.58Zm-29.72,58.03c-.46,0-.84.38-.84.84s.38.84.84.84.84-.38.84-.84-.38-.84-.84-.84Zm5.95-69.72c.43,0,.77-.35.77-.77s-.35-.77-.77-.77-.77.35-.77.77.35.77.77.77Zm0-5.94c.43,0,.77-.35.77-.77s-.35-.77-.77-.77-.77.35-.77.77.35.77.77.77Zm0,17.83c.43,0,.77-.35.77-.77s-.35-.77-.77-.77-.77.35-.77.77.35.77.77.77Zm0-29.72c.43,0,.77-.35.77-.77s-.35-.77-.77-.77-.77.35-.77.77.35.77.77.77Zm0,23.78c.43,0,.77-.35.77-.77s-.35-.77-.77-.77-.77.35-.77.77.35.77.77.77Zm0,26.05c-1.6,0-2.9,1.3-2.9,2.9s1.3,2.9,2.9,2.9,2.9-1.3,2.9-2.9-1.3-2.9-2.9-2.9Zm0,17.83c-1.6,0-2.9,1.3-2.9,2.9s1.3,2.9,2.9,2.9,2.9-1.3,2.9-2.9-1.3-2.9-2.9-2.9Zm0-5.94c-1.6,0-2.9,1.3-2.9,2.9s1.3,2.9,2.9,2.9,2.9-1.3,2.9-2.9-1.3-2.9-2.9-2.9Zm0-17.83c-1.6,0-2.9,1.3-2.9,2.9s1.3,2.9,2.9,2.9,2.9-1.3,2.9-2.9-1.3-2.9-2.9-2.9Zm0-8.21c.43,0,.77-.35.77-.77s-.35-.77-.77-.77-.77.35-.77.77.35.77.77.77Zm0-29.72c.43,0,.77-.35.77-.77s-.35-.77-.77-.77-.77.35-.77.77.35.77.77.77Zm0,49.82c-1.6,0-2.9,1.3-2.9,2.9s1.3,2.9,2.9,2.9,2.9-1.3,2.9-2.9-1.3-2.9-2.9-2.9Zm-5.95,37.73c-.46,0-.84.38-.84.84s.38.84.84.84.84-.38.84-.84-.38-.84-.84-.84Zm5.95-51.89c.43,0,.77-.35.77-.77s-.35-.77-.77-.77-.77.35-.77.77.35.77.77.77Zm5.94,31.96c-1.62,0-2.93,1.31-2.93,2.93s1.31,2.93,2.93,2.93,2.93-1.31,2.93-2.93-1.31-2.93-2.93-2.93Zm-11.89,6.04c-1.57,0-2.83,1.27-2.83,2.84s1.27,2.84,2.83,2.84,2.84-1.27,2.84-2.84-1.27-2.84-2.84-2.84Zm0-5.94c-1.57,0-2.83,1.27-2.83,2.84s1.27,2.84,2.83,2.84,2.84-1.27,2.84-2.84-1.27-2.84-2.84-2.84Zm41.61-56.15c.25,0,.46-.21.46-.46s-.21-.46-.46-.46-.46.21-.46.46.21.46.46.46Zm-41.61,111.64c-.46,0-.84.38-.84.84s.38.84.84.84.84-.38.84-.84-.38-.84-.84-.84Zm0-5.94c-.46,0-.84.38-.84.84s.38.84.84.84.84-.38.84-.84-.38-.84-.84-.84Zm0-11.89c-.46,0-.84.38-.84.84s.38.84.84.84.84-.38.84-.84-.38-.84-.84-.84Zm0-5.94c-.46,0-.84.38-.84.84s.38.84.84.84.84-.38.84-.84-.38-.84-.84-.84Zm0,11.89c-.46,0-.84.38-.84.84s.38.84.84.84.84-.38.84-.84-.38-.84-.84-.84Zm0-17.83c-.46,0-.84.38-.84.84s.38.84.84.84.84-.38.84-.84-.38-.84-.84-.84Zm11.89-93.53c.41,0,.74-.33.74-.74s-.33-.74-.74-.74-.74.33-.74.74.33.74.74.74Zm0,5.94c.41,0,.74-.33.74-.74s-.33-.74-.74-.74-.74.33-.74.74.33.74.74.74Zm0-11.89c.41,0,.74-.33.74-.74s-.33-.74-.74-.74-.74.33-.74.74.33.74.74.74Zm-5.94,73.64c-1.6,0-2.9,1.3-2.9,2.9s1.3,2.9,2.9,2.9,2.9-1.3,2.9-2.9-1.3-2.9-2.9-2.9Zm5.94-55.8c.41,0,.74-.33.74-.74s-.33-.74-.74-.74-.74.33-.74.74.33.74.74.74Zm0,31.99c-1.62,0-2.93,1.31-2.93,2.93s1.31,2.93,2.93,2.93,2.93-1.31,2.93-2.93-1.31-2.93-2.93-2.93Zm0,11.89c-1.62,0-2.93,1.31-2.93,2.93s1.31,2.93,2.93,2.93,2.93-1.31,2.93-2.93-1.31-2.93-2.93-2.93Zm0,5.94c-1.62,0-2.93,1.31-2.93,2.93s1.31,2.93,2.93,2.93,2.93-1.31,2.93-2.93-1.31-2.93-2.93-2.93Zm0-11.89c-1.62,0-2.93,1.31-2.93,2.93s1.31,2.93,2.93,2.93,2.93-1.31,2.93-2.93-1.31-2.93-2.93-2.93Zm0-11.89c-1.62,0-2.93,1.31-2.93,2.93s1.31,2.93,2.93,2.93,2.93-1.31,2.93-2.93-1.31-2.93-2.93-2.93Zm0-14.16c.41,0,.74-.33.74-.74s-.33-.74-.74-.74-.74.33-.74.74.33.74.74.74Zm0-5.94c.41,0,.74-.33.74-.74s-.33-.74-.74-.74-.74.33-.74.74.33.74.74.74Zm-5.94,75.76c-.43,0-.77.35-.77.77s.35.77.77.77.77-.35.77-.77-.35-.77-.77-.77Zm0,5.94c-.43,0-.77.35-.77.77s.35.77.77.77.77-.35.77-.77-.35-.77-.77-.77Zm0-11.89c-.43,0-.77.35-.77.77s.35.77.77.77.77-.35.77-.77-.35-.77-.77-.77Zm0-5.94c-.43,0-.77.35-.77.77s.35.77.77.77.77-.35.77-.77-.35-.77-.77-.77Zm0-8.07c-1.6,0-2.9,1.3-2.9,2.9s1.3,2.9,2.9,2.9,2.9-1.3,2.9-2.9-1.3-2.9-2.9-2.9Zm0,31.85c-.43,0-.77.35-.77.77s.35.77.77.77.77-.35.77-.77-.35-.77-.77-.77Zm0,5.94c-.43,0-.77.35-.77.77s.35.77.77.77.77-.35.77-.77-.35-.77-.77-.77Zm5.94-75.76c.41,0,.74-.33.74-.74s-.33-.74-.74-.74-.74.33-.74.74.33.74.74.74Zm-5.94,81.71c-.43,0-.77.35-.77.77s.35.77.77.77.77-.35.77-.77-.35-.77-.77-.77Zm5.94-87.65c.41,0,.74-.33.74-.74s-.33-.74-.74-.74-.74.33-.74.74.33.74.74.74Zm17.83-.16c.32,0,.58-.26.58-.58s-.26-.58-.58-.58-.58.26-.58.58.26.58.58.58Zm47.56,23.35c.08,0,.15-.07.15-.15s-.07-.15-.15-.15-.15.07-.15.15.07.15.15.15Zm0-5.94c.08,0,.15-.07.15-.15s-.07-.15-.15-.15-.15.07-.15.15.07.15.15.15Zm0-5.94c.08,0,.15-.07.15-.15s-.07-.15-.15-.15-.15.07-.15.15.07.15.15.15Zm0-17.83c.08,0,.15-.07.15-.15s-.07-.15-.15-.15-.15.07-.15.15.07.15.15.15Zm0,11.89c.08,0,.15-.07.15-.15s-.07-.15-.15-.15-.15.07-.15.15.07.15.15.15Zm0-5.94c.08,0,.15-.07.15-.15s-.07-.15-.15-.15-.15.07-.15.15.07.15.15.15Zm6.03-35.82s-.04-.08-.08-.08-.08.04-.08.08.04.08.08.08.08-.04.08-.08Zm0,17.83s-.04-.08-.08-.08-.08.04-.08.08.04.08.08.08.08-.04.08-.08Zm0,5.94s-.04-.08-.08-.08-.08.04-.08.08.04.08.08.08.08-.04.08-.08Zm0-11.89s-.04-.08-.08-.08-.08.04-.08.08.04.08.08.08.08-.04.08-.08Zm0-5.94s-.04-.08-.08-.08-.08.04-.08.08.04.08.08.08.08-.04.08-.08Zm-11.97,23.98c.11,0,.2-.09.2-.2s-.09-.2-.2-.2-.2.09-.2.2.09.2.2.2Zm0,11.89c.11,0,.2-.09.2-.2s-.09-.2-.2-.2-.2.09-.2.2.09.2.2.2Zm0-5.94c.11,0,.2-.09.2-.2s-.09-.2-.2-.2-.2.09-.2.2.09.2.2.2Zm11.97-6.14s-.04-.08-.08-.08-.08.04-.08.08.04.08.08.08.08-.04.08-.08Zm-11.97-5.75c.11,0,.2-.09.2-.2s-.09-.2-.2-.2-.2.09-.2.2.09.2.2.2Zm0,29.72c.11,0,.2-.09.2-.2s-.09-.2-.2-.2-.2.09-.2.2.09.2.2.2Zm0-5.94c.11,0,.2-.09.2-.2s-.09-.2-.2-.2-.2.09-.2.2.09.2.2.2Zm5.94-35.72c.08,0,.15-.07.15-.15s-.07-.15-.15-.15-.15.07-.15.15.07.15.15.15Zm0,5.94c.08,0,.15-.07.15-.15s-.07-.15-.15-.15-.15.07-.15.15.07.15.15.15Zm0-17.83c.08,0,.15-.07.15-.15s-.07-.15-.15-.15-.15.07-.15.15.07.15.15.15Zm0,5.94c.08,0,.15-.07.15-.15s-.07-.15-.15-.15-.15.07-.15.15.07.15.15.15Zm0,17.83c.08,0,.15-.07.15-.15s-.07-.15-.15-.15-.15.07-.15.15.07.15.15.15Zm-17.83,59c-.16,0-.3.13-.3.3s.13.3.3.3.3-.13.3-.3-.13-.3-.3-.3Zm5.94.05c-.14,0-.25.11-.25.25s.11.25.25.25.25-.11.25-.25-.11-.25-.25-.25Zm23.75-35.42s.01.03.03.03.03-.01.03-.03-.01-.03-.03-.03-.03.01-.03.03Zm-17.8,29.52c-.11,0-.2.09-.2.2s.09.2.2.2.2-.09.2-.2-.09-.2-.2-.2Zm17.8-35.47s.01.03.03.03.03-.01.03-.03-.01-.03-.03-.03-.03.01-.03.03Zm-23.75,47.31c-.14,0-.25.11-.25.25,0,.11.08.18.18.22.09-.11.18-.21.28-.32-.04-.08-.11-.15-.21-.15Zm0-11.89c-.14,0-.25.11-.25.25s.11.25.25.25.25-.11.25-.25-.11-.25-.25-.25Zm14.82-13.6c-.63-.95-1.71-1.57-2.93-1.57s-2.38.68-3,1.69c-.29-.47-.69-.85-1.16-1.14,1.01-.61,1.7-1.71,1.7-2.97,0-1.92-1.56-3.48-3.48-3.48-1.29,0-2.4.71-3,1.75-.6-1.01-1.69-1.7-2.94-1.7s-2.42.73-3,1.8c-.58-1.04-1.67-1.75-2.94-1.75s-2.45.77-3.01,1.87c-.55-1.07-1.65-1.81-2.93-1.81s-2.47.79-3,1.93c-.52-1.11-1.64-1.88-2.94-1.88s-2.5.82-3,1.98c-.33-.76-.95-1.37-1.73-1.69,1.17-.48,2-1.63,2-2.97,0-1.77-1.44-3.21-3.21-3.21-1.38,0-2.55.88-3.01,2.11-.45-1.19-1.59-2.04-2.94-2.04-1.42,0-2.6.94-3,2.23-.39-1.26-1.56-2.19-2.95-2.19s-2.66,1-3,2.35c-.33-1.32-1.52-2.3-2.95-2.3-1.51,0-2.75,1.09-3,2.53-.25-1.41-1.47-2.48-2.95-2.48-1.66,0-3,1.34-3,3,0,1.56,1.2,2.83,2.72,2.97-1.52.14-2.72,1.41-2.72,2.97s1.2,2.83,2.73,2.97c-1.53.14-2.73,1.41-2.73,2.97s1.2,2.83,2.73,2.97c-1.53.14-2.73,1.41-2.73,2.97s1.2,2.83,2.72,2.97c-1.53.14-2.72,1.41-2.72,2.97s1.2,2.83,2.72,2.97c-1.53.14-2.72,1.41-2.72,2.97,0,1.66,1.34,3,3,3s3-1.34,3-3c0-1.56-1.2-2.83-2.72-2.97,1.35-.13,2.44-1.13,2.67-2.45.25,1.43,1.49,2.53,3,2.53,1.43,0,2.61-.98,2.95-2.3.34,1.35,1.54,2.35,3,2.35s2.55-.92,2.95-2.19c.39,1.29,1.58,2.23,3,2.23s2.49-.85,2.94-2.04c.45,1.23,1.62,2.11,3.01,2.11s2.45-.8,2.94-1.93c.5,1.16,1.65,1.98,3,1.98,1.8,0,3.26-1.46,3.26-3.26,0-1.33-.79-2.46-1.93-2.97.71-.32,1.28-.88,1.61-1.59.53,1.13,1.67,1.93,3,1.93s2.38-.74,2.93-1.81c.56,1.11,1.69,1.87,3.01,1.87s2.37-.71,2.94-1.75c.58,1.07,1.7,1.8,3,1.8s2.35-.69,2.94-1.7c.6,1.04,1.71,1.75,3,1.75s2.33-.66,2.94-1.64c.52.86,1.4,1.47,2.42,1.64,1.21-1.76,2.39-3.54,3.53-5.35-.28-.43-.64-.82-1.07-1.09.42-.26.78-.61,1.05-1.02.22.33.5.61.81.85,1.24-2,2.43-4.04,3.57-6.1-.42-.18-.88-.3-1.37-.3-1.26,0-2.37.65-3.01,1.64Zm-62.11,4.93c1.35-.12,2.44-1.13,2.67-2.45.21,1.22,1.14,2.18,2.33,2.45-1.2.27-2.12,1.23-2.33,2.45-.23-1.32-1.32-2.33-2.67-2.45Zm0-5.94c1.35-.12,2.44-1.13,2.67-2.45.21,1.22,1.14,2.18,2.33,2.45-1.2.27-2.12,1.23-2.33,2.45-.23-1.32-1.32-2.33-2.67-2.45Zm2.67,14.34c-.23-1.32-1.32-2.33-2.67-2.45,1.35-.13,2.44-1.13,2.67-2.45.21,1.22,1.14,2.18,2.33,2.45-1.2.27-2.12,1.23-2.33,2.45Zm0-17.83c-.23-1.32-1.32-2.33-2.67-2.45,1.35-.13,2.44-1.13,2.67-2.45.21,1.22,1.14,2.18,2.33,2.45-1.2.27-2.12,1.23-2.33,2.45Zm5.94,17.61c-.28-1.11-1.16-1.98-2.28-2.23,1.12-.25,2-1.12,2.28-2.23.27,1.08,1.1,1.93,2.17,2.23-1.07.3-1.9,1.15-2.17,2.23Zm0-5.94c-.28-1.11-1.16-1.98-2.28-2.23,1.12-.25,2-1.12,2.28-2.23.27,1.08,1.1,1.93,2.17,2.23-1.07.3-1.9,1.15-2.17,2.23Zm0-5.94c-.28-1.11-1.16-1.98-2.28-2.23,1.12-.25,2-1.12,2.28-2.23.27,1.08,1.1,1.93,2.17,2.23-1.07.3-1.9,1.15-2.17,2.23Zm0-5.94c-.28-1.11-1.16-1.98-2.28-2.23,1.12-.25,2-1.12,2.28-2.23.27,1.08,1.1,1.93,2.17,2.23-1.07.3-1.9,1.15-2.17,2.23Zm5.94,17.67c-.31-1-1.11-1.78-2.12-2.06,1.01-.28,1.81-1.06,2.12-2.06.3.97,1.04,1.74,2,2.06-.96.32-1.71,1.09-2,2.06Zm0-5.94c-.31-1-1.11-1.78-2.12-2.06,1.01-.28,1.81-1.06,2.12-2.06.3.97,1.04,1.74,2,2.06-.96.32-1.71,1.09-2,2.06Zm0-5.94c-.31-1-1.11-1.78-2.12-2.06,1.01-.28,1.81-1.06,2.12-2.06.3.97,1.04,1.74,2,2.06-.96.32-1.71,1.09-2,2.06Zm0-5.94c-.31-1-1.11-1.78-2.12-2.06,1.01-.28,1.81-1.06,2.12-2.06.3.97,1.04,1.74,2,2.06-.96.32-1.71,1.09-2,2.06Zm5.94,17.64c-.33-.88-1.05-1.57-1.94-1.87.9-.3,1.61-.98,1.94-1.87.31.85.96,1.53,1.79,1.87-.83.34-1.48,1.02-1.79,1.87Zm0-5.94c-.33-.88-1.05-1.57-1.94-1.87.9-.3,1.61-.98,1.94-1.87.31.85.96,1.53,1.79,1.87-.83.34-1.48,1.02-1.79,1.87Zm0-5.94c-.33-.88-1.05-1.57-1.94-1.87.9-.3,1.61-.98,1.94-1.87.31.85.96,1.53,1.79,1.87-.83.34-1.48,1.02-1.79,1.87Zm0-5.94c-.33-.88-1.05-1.57-1.94-1.87.9-.3,1.61-.98,1.94-1.87.31.85.96,1.53,1.79,1.87-.83.34-1.48,1.02-1.79,1.87Zm5.95,17.66c-.33-.76-.95-1.37-1.73-1.69.77-.32,1.39-.92,1.73-1.69.32.75.92,1.35,1.67,1.69-.75.34-1.34.94-1.67,1.69Zm0-5.94c-.33-.76-.95-1.37-1.73-1.69.77-.32,1.39-.92,1.73-1.69.32.75.92,1.35,1.67,1.69-.74.34-1.34.94-1.67,1.69Zm0-5.94c-.33-.76-.95-1.37-1.73-1.69.77-.32,1.39-.93,1.73-1.69.32.75.92,1.35,1.67,1.69-.75.34-1.34.94-1.67,1.69Zm5.94,5.84c-.33-.7-.9-1.27-1.61-1.59.71-.32,1.28-.88,1.61-1.59.32.69.87,1.25,1.56,1.59-.69.33-1.24.89-1.56,1.59Zm0-5.94c-.33-.7-.9-1.27-1.61-1.59.71-.32,1.28-.88,1.61-1.59.32.69.88,1.25,1.56,1.59-.69.33-1.24.89-1.56,1.59Zm5.94,5.82c-.33-.64-.85-1.15-1.5-1.47.65-.31,1.17-.83,1.5-1.47.31.63.81,1.14,1.43,1.47-.62.33-1.12.84-1.43,1.47Zm0-5.94c-.33-.64-.85-1.15-1.5-1.47.65-.31,1.17-.83,1.5-1.47.31.63.81,1.14,1.43,1.47-.62.33-1.12.84-1.43,1.47Zm5.95,5.82c-.32-.57-.79-1.04-1.37-1.34.58-.31,1.05-.77,1.37-1.34.31.56.76,1.03,1.32,1.34-.56.32-1.01.78-1.32,1.34Zm0-5.94c-.32-.57-.79-1.04-1.37-1.34.58-.31,1.05-.77,1.37-1.34.31.56.76,1.03,1.32,1.34-.56.32-1.01.78-1.32,1.34Zm5.94,5.84c-.31-.52-.74-.94-1.26-1.24.52-.3.96-.72,1.26-1.24.3.51.71.94,1.22,1.24-.51.3-.92.73-1.22,1.24Zm0-5.94c-.31-.52-.74-.94-1.26-1.24.52-.3.96-.72,1.26-1.24.3.51.71.94,1.22,1.24-.51.3-.92.73-1.22,1.24Zm5.94,5.84c-.29-.47-.69-.85-1.16-1.14.47-.28.87-.67,1.16-1.14.28.46.66.85,1.11,1.14-.45.29-.83.68-1.11,1.14Zm-2.94-51.47c.11,0,.2-.09.2-.2s-.09-.2-.2-.2-.2.09-.2.2.09.2.2.2Zm-11.89,58.95c-.16,0-.3.13-.3.3s.13.3.3.3.3-.13.3-.3-.13-.3-.3-.3Zm0,11.89c-.16,0-.3.13-.3.3s.13.3.3.3.3-.13.3-.3-.13-.3-.3-.3Zm0,5.94c-.16,0-.3.13-.3.3s.13.3.3.3.3-.13.3-.3-.13-.3-.3-.3Zm29.76-94.82s-.01-.03-.03-.03-.03.01-.03.03.01.03.03.03.03-.01.03-.03Zm-5.9,35.67s-.04-.08-.08-.08-.08.04-.08.08.04.08.08.08.08-.04.08-.08Zm0,23.78s-.04-.08-.08-.08-.08.04-.08.08.04.08.08.08.08-.04.08-.08Zm0-5.94s-.04-.08-.08-.08-.08.04-.08.08.04.08.08.08.08-.04.08-.08Zm0-5.94s-.04-.08-.08-.08-.08.04-.08.08.04.08.08.08.08-.04.08-.08Zm0-5.94s-.04-.08-.08-.08-.08.04-.08.08.04.08.08.08.08-.04.08-.08Zm5.83-5.94s.01.03.03.03.03-.01.03-.03-.01-.03-.03-.03-.03.01-.03.03Zm0-29.72s.01.03.03.03.03-.01.03-.03-.01-.03-.03-.03-.03.01-.03.03Zm0,23.78s.01.03.03.03.03-.01.03-.03-.01-.03-.03-.03-.03.01-.03.03Zm0-5.94s.01.03.03.03.03-.01.03-.03-.01-.03-.03-.03-.03.01-.03.03Zm0-11.89s.01.03.03.03.03-.01.03-.03-.01-.03-.03-.03-.03.01-.03.03Zm0,5.94s.01.03.03.03.03-.01.03-.03-.01-.03-.03-.03-.03.01-.03.03Zm-47.52,24.24c.25,0,.46-.21.46-.46s-.21-.46-.46-.46-.46.21-.46.46.21.46.46.46Zm5.94-.05c.23,0,.41-.18.41-.41s-.18-.41-.41-.41-.41.18-.41.41.18.41.41.41Zm5.95-41.66c.2,0,.36-.16.36-.36s-.16-.36-.36-.36-.36.16-.36.36.16.36.36.36Zm0,11.89c.2,0,.36-.16.36-.36s-.16-.36-.36-.36-.36.16-.36.36.16.36.36.36Zm-5.95,35.72c.23,0,.41-.18.41-.41s-.18-.41-.41-.41-.41.18-.41.41.18.41.41.41Zm0,5.94c.23,0,.41-.18.41-.41s-.18-.41-.41-.41-.41.18-.41.41.18.41.41.41Zm5.95-47.61c.2,0,.36-.16.36-.36s-.16-.36-.36-.36-.36.16-.36.36.16.36.36.36Zm0,35.67c.2,0,.36-.16.36-.36s-.16-.36-.36-.36-.36.16-.36.36.16.36.36.36Zm0-5.94c.2,0,.36-.16.36-.36s-.16-.36-.36-.36-.36.16-.36.36.16.36.36.36Zm0-5.94c.2,0,.36-.16.36-.36s-.16-.36-.36-.36-.36.16-.36.36.16.36.36.36Zm0,23.78c.2,0,.36-.16.36-.36s-.16-.36-.36-.36-.36.16-.36.36.16.36.36.36Zm0-29.72c.2,0,.36-.16.36-.36s-.16-.36-.36-.36-.36.16-.36.36.16.36.36.36Zm0-5.94c.2,0,.36-.16.36-.36s-.16-.36-.36-.36-.36.16-.36.36.16.36.36.36Zm-5.95-17.78c.23,0,.41-.18.41-.41s-.18-.41-.41-.41-.41.18-.41.41.18.41.41.41Zm-5.94,23.83c.25,0,.46-.21.46-.46s-.21-.46-.46-.46-.46.21-.46.46.21.46.46.46Zm0,23.78c.25,0,.46-.21.46-.46s-.21-.46-.46-.46-.46.21-.46.46.21.46.46.46Zm0-17.83c.25,0,.46-.21.46-.46s-.21-.46-.46-.46-.46.21-.46.46.21.46.46.46Zm0,5.94c.25,0,.46-.21.46-.46s-.21-.46-.46-.46-.46.21-.46.46.21.46.46.46Zm5.94-11.94c.23,0,.41-.18.41-.41s-.18-.41-.41-.41-.41.18-.41.41.18.41.41.41Zm0-17.83c.23,0,.41-.18.41-.41s-.18-.41-.41-.41-.41.18-.41.41.18.41.41.41Zm0,23.78c.23,0,.41-.18.41-.41s-.18-.41-.41-.41-.41.18-.41.41.18.41.41.41Zm0,5.94c.23,0,.41-.18.41-.41s-.18-.41-.41-.41-.41.18-.41.41.18.41.41.41Zm0-17.83c.23,0,.41-.18.41-.41s-.18-.41-.41-.41-.41.18-.41.41.18.41.41.41Zm0-5.94c.23,0,.41-.18.41-.41s-.18-.41-.41-.41-.41.18-.41.41.18.41.41.41Zm11.89,35.55c.16,0,.3-.13.3-.3s-.13-.3-.3-.3-.3.13-.3.3.13.3.3.3Zm5.94-17.88c.14,0,.25-.11.25-.25s-.11-.25-.25-.25-.25.11-.25.25.11.25.25.25Zm0-5.94c.14,0,.25-.11.25-.25s-.11-.25-.25-.25-.25.11-.25.25.11.25.25.25Zm0,11.89c.14,0,.25-.11.25-.25s-.11-.25-.25-.25-.25.11-.25.25.11.25.25.25Zm0-23.78c.14,0,.25-.11.25-.25s-.11-.25-.25-.25-.25.11-.25.25.11.25.25.25Zm0,5.94c.14,0,.25-.11.25-.25s-.11-.25-.25-.25-.25.11-.25.25.11.25.25.25Zm0,29.72c.14,0,.25-.11.25-.25s-.11-.25-.25-.25-.25.11-.25.25.11.25.25.25Zm5.94-41.66c.11,0,.2-.09.2-.2s-.09-.2-.2-.2-.2.09-.2.2.09.2.2.2Zm-5.94,35.72c.14,0,.25-.11.25-.25s-.11-.25-.25-.25-.25.11-.25.25.11.25.25.25Zm5.94-41.66c.11,0,.2-.09.2-.2s-.09-.2-.2-.2-.2.09-.2.2.09.2.2.2Zm-5.94,53.55c.14,0,.25-.11.25-.25s-.11-.25-.25-.25-.25.11-.25.25.11.25.25.25Zm0-47.56c.14,0,.25-.11.25-.25s-.11-.25-.25-.25-.25.11-.25.25.11.25.25.25Zm-11.89,41.73c.2,0,.36-.16.36-.36s-.16-.36-.36-.36-.36.16-.36.36.16.36.36.36Zm5.94-35.73c.16,0,.3-.13.3-.3s-.13-.3-.3-.3-.3.13-.3.3.13.3.3.3Zm0,5.94c.16,0,.3-.13.3-.3s-.13-.3-.3-.3-.3.13-.3.3.13.3.3.3Zm0-17.83c.16,0,.3-.13.3-.3s-.13-.3-.3-.3-.3.13-.3.3.13.3.3.3Zm0,5.94c.16,0,.3-.13.3-.3s-.13-.3-.3-.3-.3.13-.3.3.13.3.3.3Zm0,17.83c.16,0,.3-.13.3-.3s-.13-.3-.3-.3-.3.13-.3.3.13.3.3.3Zm0,5.94c.16,0,.3-.13.3-.3s-.13-.3-.3-.3-.3.13-.3.3.13.3.3.3Zm11.89-17.93c.11,0,.2-.09.2-.2s-.09-.2-.2-.2-.2.09-.2.2.09.2.2.2Zm-11.89,41.71c.16,0,.3-.13.3-.3s-.13-.3-.3-.3-.3.13-.3.3.13.3.3.3Zm5.94-53.55c.14,0,.25-.11.25-.25s-.11-.25-.25-.25-.25.11-.25.25.11.25.25.25Zm-5.94,35.72c.16,0,.3-.13.3-.3s-.13-.3-.3-.3-.3.13-.3.3.13.3.3.3Zm0,5.94c.16,0,.3-.13.3-.3s-.13-.3-.3-.3-.3.13-.3.3.13.3.3.3Zm-71.33,81.97c-.53,0-.96.43-.96.96s.43.96.96.96.96-.43.96-.96-.43-.96-.96-.96Zm-29.72-66.89c-1.36,0-2.46,1.1-2.46,2.46s1.1,2.46,2.46,2.46,2.46-1.1,2.46-2.46-1.1-2.46-2.46-2.46Zm0,5.94c-1.36,0-2.46,1.1-2.46,2.46s1.1,2.46,2.46,2.46,2.46-1.1,2.46-2.46-1.1-2.46-2.46-2.46Zm0,11.89c-1.36,0-2.46,1.1-2.46,2.46s1.1,2.46,2.46,2.46,2.46-1.1,2.46-2.46-1.1-2.46-2.46-2.46Zm0-5.94c-1.36,0-2.46,1.1-2.46,2.46s1.1,2.46,2.46,2.46,2.46-1.1,2.46-2.46-1.1-2.46-2.46-2.46Zm0-17.83c-1.36,0-2.46,1.1-2.46,2.46s1.1,2.46,2.46,2.46,2.46-1.1,2.46-2.46-1.1-2.46-2.46-2.46Zm0-5.94c-1.36,0-2.46,1.1-2.46,2.46s1.1,2.46,2.46,2.46,2.46-1.1,2.46-2.46-1.1-2.46-2.46-2.46Zm0-5.94c-1.36,0-2.46,1.1-2.46,2.46s1.1,2.46,2.46,2.46,2.46-1.1,2.46-2.46-1.1-2.46-2.46-2.46Zm0,66.64c-.66,0-1.2.54-1.2,1.2s.54,1.2,1.2,1.2,1.2-.54,1.2-1.2-.54-1.2-1.2-1.2Zm0-5.94c-.66,0-1.2.54-1.2,1.2s.54,1.2,1.2,1.2,1.2-.54,1.2-1.2-.54-1.2-1.2-1.2Zm0,17.83c-.66,0-1.2.54-1.2,1.2s.54,1.2,1.2,1.2,1.2-.54,1.2-1.2-.54-1.2-1.2-1.2Zm0-30.98c-1.36,0-2.46,1.1-2.46,2.46s1.1,2.46,2.46,2.46,2.46-1.1,2.46-2.46-1.1-2.46-2.46-2.46Zm0,5.94c-1.36,0-2.46,1.1-2.46,2.46s1.1,2.46,2.46,2.46,2.46-1.1,2.46-2.46-1.1-2.46-2.46-2.46Zm0-11.89c-1.36,0-2.46,1.1-2.46,2.46s1.1,2.46,2.46,2.46,2.46-1.1,2.46-2.46-1.1-2.46-2.46-2.46Zm-5.94-35.62c-1.33,0-2.41,1.08-2.41,2.41s1.08,2.41,2.41,2.41,2.41-1.08,2.41-2.41-1.08-2.41-2.41-2.41Zm0,11.89c-1.33,0-2.41,1.08-2.41,2.41s1.08,2.41,2.41,2.41,2.41-1.08,2.41-2.41-1.08-2.41-2.41-2.41Zm0,17.83c-1.33,0-2.41,1.08-2.41,2.41s1.08,2.41,2.41,2.41,2.41-1.08,2.41-2.41-1.08-2.41-2.41-2.41Zm0-5.94c-1.33,0-2.41,1.08-2.41,2.41s1.08,2.41,2.41,2.41,2.41-1.08,2.41-2.41-1.08-2.41-2.41-2.41Zm0-5.94c-1.33,0-2.41,1.08-2.41,2.41s1.08,2.41,2.41,2.41,2.41-1.08,2.41-2.41-1.08-2.41-2.41-2.41Zm0-11.89c-1.33,0-2.41,1.08-2.41,2.41s1.08,2.41,2.41,2.41,2.41-1.08,2.41-2.41-1.08-2.41-2.41-2.41Zm5.94,60.65c-.66,0-1.2.54-1.2,1.2s.54,1.2,1.2,1.2,1.2-.54,1.2-1.2-.54-1.2-1.2-1.2Zm0-86.76c.66,0,1.2-.54,1.2-1.2s-.54-1.2-1.2-1.2-1.2.54-1.2,1.2.54,1.2,1.2,1.2Zm0-5.94c.66,0,1.2-.54,1.2-1.2s-.54-1.2-1.2-1.2-1.2.54-1.2,1.2.54,1.2,1.2,1.2Zm0-5.94c.66,0,1.2-.54,1.2-1.2s-.54-1.2-1.2-1.2-1.2.54-1.2,1.2.54,1.2,1.2,1.2Zm-5.94,73.67c-1.33,0-2.41,1.08-2.41,2.41s1.08,2.41,2.41,2.41,2.41-1.08,2.41-2.41-1.08-2.41-2.41-2.41Zm5.94-55.83c.66,0,1.2-.54,1.2-1.2s-.54-1.2-1.2-1.2-1.2.54-1.2,1.2.54,1.2,1.2,1.2Zm0,5.94c.66,0,1.2-.54,1.2-1.2s-.54-1.2-1.2-1.2-1.2.54-1.2,1.2.54,1.2,1.2,1.2Zm-5.94,2.33c-1.33,0-2.41,1.08-2.41,2.41s1.08,2.41,2.41,2.41,2.41-1.08,2.41-2.41-1.08-2.41-2.41-2.41Zm0,41.61c-1.33,0-2.41,1.08-2.41,2.41s1.08,2.41,2.41,2.41,2.41-1.08,2.41-2.41-1.08-2.41-2.41-2.41Zm11.89,30.98c-.64,0-1.15.52-1.15,1.15s.52,1.15,1.15,1.15,1.15-.52,1.15-1.15-.52-1.15-1.15-1.15Zm0,11.89c-.64,0-1.15.52-1.15,1.15s.52,1.15,1.15,1.15,1.15-.52,1.15-1.15-.52-1.15-1.15-1.15Zm0-37.04c-1.39,0-2.52,1.13-2.52,2.52s1.13,2.52,2.52,2.52,2.52-1.13,2.52-2.52-1.13-2.52-2.52-2.52Zm0,31.09c-.64,0-1.15.52-1.15,1.15s.52,1.15,1.15,1.15,1.15-.52,1.15-1.15-.52-1.15-1.15-1.15Zm0-23.78c-.64,0-1.15.52-1.15,1.15s.52,1.15,1.15,1.15,1.15-.52,1.15-1.15-.52-1.15-1.15-1.15Zm0,5.94c-.64,0-1.15.52-1.15,1.15s.52,1.15,1.15,1.15,1.15-.52,1.15-1.15-.52-1.15-1.15-1.15Zm0,5.94c-.64,0-1.15.52-1.15,1.15s.52,1.15,1.15,1.15,1.15-.52,1.15-1.15-.52-1.15-1.15-1.15Zm5.94-98.8c.61,0,1.1-.49,1.1-1.1s-.49-1.1-1.1-1.1-1.1.49-1.1,1.1.49,1.1,1.1,1.1Zm0,5.94c.61,0,1.1-.49,1.1-1.1s-.49-1.1-1.1-1.1-1.1.49-1.1,1.1.49,1.1,1.1,1.1Zm0,5.94c.61,0,1.1-.49,1.1-1.1s-.49-1.1-1.1-1.1-1.1.49-1.1,1.1.49,1.1,1.1,1.1Zm0,11.89c.61,0,1.1-.49,1.1-1.1s-.49-1.1-1.1-1.1-1.1.49-1.1,1.1.49,1.1,1.1,1.1Zm0,5.94c.61,0,1.1-.49,1.1-1.1s-.49-1.1-1.1-1.1-1.1.49-1.1,1.1.49,1.1,1.1,1.1Zm0-11.89c.61,0,1.1-.49,1.1-1.1s-.49-1.1-1.1-1.1-1.1.49-1.1,1.1.49,1.1,1.1,1.1Zm-5.94-5.9c.64,0,1.15-.52,1.15-1.15s-.52-1.15-1.15-1.15-1.15.52-1.15,1.15.52,1.15,1.15,1.15Zm0,26.05c-1.39,0-2.52,1.13-2.52,2.52s1.13,2.52,2.52,2.52,2.52-1.13,2.52-2.52-1.13-2.52-2.52-2.52Zm0-8.21c.64,0,1.15-.52,1.15-1.15s-.52-1.15-1.15-1.15-1.15.52-1.15,1.15.52,1.15,1.15,1.15Zm0,2.27c-1.39,0-2.52,1.13-2.52,2.52s1.13,2.52,2.52,2.52,2.52-1.13,2.52-2.52-1.13-2.52-2.52-2.52Zm0-26.05c.64,0,1.15-.52,1.15-1.15s-.52-1.15-1.15-1.15-1.15.52-1.15,1.15.52,1.15,1.15,1.15Zm0,67.66c-1.39,0-2.52,1.13-2.52,2.52s1.13,2.52,2.52,2.52,2.52-1.13,2.52-2.52-1.13-2.52-2.52-2.52Zm5.94-41.64c-1.41,0-2.56,1.14-2.56,2.56s1.14,2.56,2.56,2.56,2.56-1.14,2.56-2.56-1.14-2.56-2.56-2.56Zm-5.94-14.12c.64,0,1.15-.52,1.15-1.15s-.52-1.15-1.15-1.15-1.15.52-1.15,1.15.52,1.15,1.15,1.15Zm0,49.82c-1.39,0-2.52,1.13-2.52,2.52s1.13,2.52,2.52,2.52,2.52-1.13,2.52-2.52-1.13-2.52-2.52-2.52Zm0-5.94c-1.39,0-2.52,1.13-2.52,2.52s1.13,2.52,2.52,2.52,2.52-1.13,2.52-2.52-1.13-2.52-2.52-2.52Zm0-5.94c-1.39,0-2.52,1.13-2.52,2.52s1.13,2.52,2.52,2.52,2.52-1.13,2.52-2.52-1.13-2.52-2.52-2.52Zm0-5.94c-1.39,0-2.52,1.13-2.52,2.52s1.13,2.52,2.52,2.52,2.52-1.13,2.52-2.52-1.13-2.52-2.52-2.52Zm0-5.94c-1.39,0-2.52,1.13-2.52,2.52s1.13,2.52,2.52,2.52,2.52-1.13,2.52-2.52-1.13-2.52-2.52-2.52Zm0-20.1c.64,0,1.15-.52,1.15-1.15s-.52-1.15-1.15-1.15-1.15.52-1.15,1.15.52,1.15,1.15,1.15Zm71.33,75.6c-.29,0-.53.24-.53.53s.24.53.53.53.53-.24.53-.53-.24-.53-.53-.53Zm0-5.94c-.29,0-.53.24-.53.53s.24.53.53.53.53-.24.53-.53-.24-.53-.53-.53Zm0,11.89c-.29,0-.53.24-.53.53s.24.53.53.53.53-.24.53-.53-.24-.53-.53-.53Zm5.94-17.77c-.26,0-.46.21-.46.46s.21.46.46.46.46-.21.46-.46-.21-.46-.46-.46Zm0-11.89c-.26,0-.46.21-.46.46s.21.46.46.46.46-.21.46-.46-.21-.46-.46-.46Zm0,5.94c-.26,0-.46.21-.46.46s.21.46.46.46.46-.21.46-.46-.21-.46-.46-.46Zm-5.94,5.88c-.29,0-.53.24-.53.53s.24.53.53.53.53-.24.53-.53-.24-.53-.53-.53Zm-5.94,5.9c-.32,0-.58.26-.58.58s.26.58.58.58.58-.26.58-.58-.26-.58-.58-.58Zm0,5.94c-.32,0-.58.26-.58.58s.26.58.58.58.58-.26.58-.58-.26-.58-.58-.58Zm0-11.89c-.32,0-.58.26-.58.58s.26.58.58.58.58-.26.58-.58-.26-.58-.58-.58Zm5.94-5.9c-.29,0-.53.24-.53.53s.24.53.53.53.53-.24.53-.53-.24-.53-.53-.53Zm0-5.94c-.29,0-.53.24-.53.53s.24.53.53.53.53-.24.53-.53-.24-.53-.53-.53Zm-5.94,29.67c-.32,0-.58.26-.58.58s.26.58.58.58.58-.26.58-.58-.26-.58-.58-.58Zm17.83-17.67c-.23,0-.41.18-.41.41s.18.41.41.41.41-.18.41-.41-.18-.41-.41-.41Zm5.95-11.84c-.2,0-.36.16-.36.36s.16.36.36.36.36-.16.36-.36-.16-.36-.36-.36Zm0-5.94c-.2,0-.36.16-.36.36s.16.36.36.36.36-.16.36-.36-.16-.36-.36-.36Zm0,23.78c-.2,0-.36.16-.36.36s.16.35.35.36c.12-.11.25-.22.37-.34,0,0,0-.01,0-.02,0-.2-.16-.36-.36-.36Zm-6.33,6.19c.11-.09.22-.19.34-.28-.16.02-.29.13-.34.28Zm6.33-12.13c-.2,0-.36.16-.36.36s.16.36.36.36.36-.16.36-.36-.16-.36-.36-.36Zm0-5.94c-.2,0-.36.16-.36.36s.16.36.36.36.36-.16.36-.36-.16-.36-.36-.36Zm-11.89,17.73c-.26,0-.46.21-.46.46s.21.46.46.46.46-.21.46-.46-.21-.46-.46-.46Zm5.94-5.9c-.23,0-.41.18-.41.41s.18.41.41.41.41-.18.41-.41-.18-.41-.41-.41Zm-5.94-.05c-.26,0-.46.21-.46.46s.21.46.46.46.46-.21.46-.46-.21-.46-.46-.46Zm5.94-11.84c-.23,0-.41.18-.41.41s.18.41.41.41.41-.18.41-.41-.18-.41-.41-.41Zm-17.83-6.11c-.32,0-.58.26-.58.58s.26.58.58.58.58-.26.58-.58-.26-.58-.58-.58Zm17.83.16c-.23,0-.41.18-.41.41s.18.41.41.41.41-.18.41-.41-.18-.41-.41-.41Zm-23.78-.21c-.35,0-.63.28-.63.63s.28.63.63.63.63-.28.63-.63-.28-.63-.63-.63Zm-71.33,17.19c-.7,0-1.27.57-1.27,1.27s.57,1.27,1.27,1.27,1.27-.57,1.27-1.27-.57-1.27-1.27-1.27Zm65.39.59c-.37,0-.68.3-.68.68s.3.68.68.68.68-.3.68-.68-.3-.68-.68-.68Zm-65.39,5.35c-.7,0-1.27.57-1.27,1.27s.57,1.27,1.27,1.27,1.27-.57,1.27-1.27-.57-1.27-1.27-1.27Zm65.39-17.24c-.37,0-.68.3-.68.68s.3.68.68.68.68-.3.68-.68-.3-.68-.68-.68Zm0,5.94c-.37,0-.68.3-.68.68s.3.68.68.68.68-.3.68-.68-.3-.68-.68-.68Zm-65.39,23.18c-.7,0-1.27.57-1.27,1.27s.57,1.27,1.27,1.27,1.27-.57,1.27-1.27-.57-1.27-1.27-1.27Zm53.5,12.38c-.43,0-.77.35-.77.77,0,.2.08.38.21.52.45-.17.9-.34,1.34-.52,0-.43-.35-.77-.77-.77Zm-53.5-116.85c.7,0,1.27-.57,1.27-1.27s-.57-1.27-1.27-1.27-1.27.57-1.27,1.27.57,1.27,1.27,1.27Zm0,11.89c.7,0,1.27-.57,1.27-1.27s-.57-1.27-1.27-1.27-1.27.57-1.27,1.27.57,1.27,1.27,1.27Zm0,86.63c-.7,0-1.27.57-1.27,1.27s.57,1.27,1.27,1.27,1.27-.57,1.27-1.27-.57-1.27-1.27-1.27Zm0-92.57c.7,0,1.27-.57,1.27-1.27s-.57-1.27-1.27-1.27-1.27.57-1.27,1.27.57,1.27,1.27,1.27Zm0,11.89c.7,0,1.27-.57,1.27-1.27s-.57-1.27-1.27-1.27-1.27.57-1.27,1.27.57,1.27,1.27,1.27Zm0,61.71c-1.33,0-2.41,1.08-2.41,2.41s1.08,2.41,2.41,2.41,2.41-1.08,2.41-2.41-1.08-2.41-2.41-2.41Zm65.39,25.51c-.37,0-.68.3-.68.68s.3.68.68.68.68-.3.68-.68-.3-.68-.68-.68Zm0-11.89c-.37,0-.68.3-.68.68s.3.68.68.68.68-.3.68-.68-.3-.68-.68-.68Zm5.94,5.99c-.35,0-.63.28-.63.63s.28.63.63.63.63-.28.63-.63-.28-.63-.63-.63Zm0-11.89c-.35,0-.63.28-.63.63s.28.63.63.63.63-.28.63-.63-.28-.63-.63-.63Zm0-5.94c-.35,0-.63.28-.63.63s.28.63.63.63.63-.28.63-.63-.28-.63-.63-.63Zm5.94,23.83c-.32,0-.58.26-.58.58,0,.23.14.42.33.52.28-.17.55-.34.82-.51,0,0,0,0,0,0,0-.32-.26-.58-.58-.58Zm-5.94-.05c-.35,0-.63.28-.63.63s.28.63.63.63.63-.28.63-.63-.28-.63-.63-.63Zm0-11.89c-.35,0-.63.28-.63.63s.28.63.63.63.63-.28.63-.63-.28-.63-.63-.63Zm5.94-17.78c-.32,0-.58.26-.58.58s.26.58.58.58.58-.26.58-.58-.26-.58-.58-.58Zm-11.89,23.68c-.37,0-.68.3-.68.68s.3.68.68.68.68-.3.68-.68-.3-.68-.68-.68Zm5.94-23.73c-.35,0-.63.28-.63.63s.28.63.63.63.63-.28.63-.63-.28-.63-.63-.63Zm-5.94,35.62c-.37,0-.68.3-.68.68s.3.68.68.68.68-.3.68-.68-.3-.68-.68-.68Zm-65.39-90.9c-1.33,0-2.41,1.08-2.41,2.41s1.08,2.41,2.41,2.41,2.41-1.08,2.41-2.41-1.08-2.41-2.41-2.41Zm23.78,41.4c-1.45,0-2.62,1.17-2.62,2.62s1.17,2.62,2.62,2.62,2.62-1.17,2.62-2.62-1.17-2.62-2.62-2.62Zm11.89-.1c-1.5,0-2.72,1.22-2.72,2.72s1.22,2.72,2.72,2.72,2.72-1.22,2.72-2.72-1.22-2.72-2.72-2.72Zm0,25.54c-.53,0-.96.43-.96.96s.43.96.96.96.96-.43.96-.96-.43-.96-.96-.96Zm0,5.94c-.53,0-.96.43-.96.96s.43.96.96.96.96-.43.96-.96-.43-.96-.96-.96Zm0-11.89c-.53,0-.96.43-.96.96s.43.96.96.96.96-.43.96-.96-.43-.96-.96-.96Zm0-13.65c-1.5,0-2.72,1.22-2.72,2.72s1.22,2.72,2.72,2.72,2.72-1.22,2.72-2.72-1.22-2.72-2.72-2.72Zm5.94-73.67c.49,0,.89-.4.89-.89s-.4-.89-.89-.89-.89.4-.89.89.4.89.89.89Zm-5.94,105.15c-.53,0-.96.43-.96.96s.43.96.96.96.96-.43.96-.96-.43-.96-.96-.96Zm5.94-87.32c.49,0,.89-.4.89-.89s-.4-.89-.89-.89-.89.4-.89.89.4.89.89.89Zm0-5.94c.49,0,.89-.4.89-.89s-.4-.89-.89-.89-.89.4-.89.89.4.89.89.89Zm0,11.89c.49,0,.89-.4.89-.89s-.4-.89-.89-.89-.89.4-.89.89.4.89.89.89Zm0,11.89c.49,0,.89-.4.89-.89s-.4-.89-.89-.89-.89.4-.89.89.4.89.89.89Zm0-5.94c.49,0,.89-.4.89-.89s-.4-.89-.89-.89-.89.4-.89.89.4.89.89.89Zm-5.94,81.38c-.53,0-.96.43-.96.96s.43.96.96.96.96-.43.96-.96-.43-.96-.96-.96Zm0-31.49c-1.5,0-2.72,1.22-2.72,2.72s1.22,2.72,2.72,2.72,2.72-1.22,2.72-2.72-1.22-2.72-2.72-2.72Zm0-49.82c.53,0,.96-.43.96-.96s-.43-.96-.96-.96-.96.43-.96.96.43.96.96.96Zm0-17.83c.53,0,.96-.43.96-.96s-.43-.96-.96-.96-.96.43-.96.96.43.96.96.96Zm0,5.94c.53,0,.96-.43.96-.96s-.43-.96-.96-.96-.96.43-.96.96.43.96.96.96Zm0,5.94c.53,0,.96-.43.96-.96s-.43-.96-.96-.96-.96.43-.96.96.43.96.96.96Zm0,11.89c.53,0,.96-.43.96-.96s-.43-.96-.96-.96-.96.43-.96.96.43.96.96.96Zm0,26.05c-1.5,0-2.72,1.22-2.72,2.72s1.22,2.72,2.72,2.72,2.72-1.22,2.72-2.72-1.22-2.72-2.72-2.72Zm-5.94,49.27c-.56,0-1.01.45-1.01,1.01s.45,1.01,1.01,1.01,1.01-.45,1.01-1.01-.45-1.01-1.01-1.01Zm5.94-61.16c-1.5,0-2.72,1.22-2.72,2.72s1.22,2.72,2.72,2.72,2.72-1.22,2.72-2.72-1.22-2.72-2.72-2.72Zm0,5.94c-1.5,0-2.72,1.22-2.72,2.72s1.22,2.72,2.72,2.72,2.72-1.22,2.72-2.72-1.22-2.72-2.72-2.72Zm0-55.77c.53,0,.96-.43.96-.96s-.43-.96-.96-.96-.96.43-.96.96.43.96.96.96Zm0,43.88c-1.5,0-2.72,1.22-2.72,2.72s1.22,2.72,2.72,2.72,2.72-1.22,2.72-2.72-1.22-2.72-2.72-2.72Zm0-37.94c.53,0,.96-.43.96-.96s-.43-.96-.96-.96-.96.43-.96.96.43.96.96.96Zm0,31.99c-1.5,0-2.72,1.22-2.72,2.72s1.22,2.72,2.72,2.72,2.72-1.22,2.72-2.72-1.22-2.72-2.72-2.72Zm5.94,43.44c-.49,0-.89.4-.89.89s.4.89.89.89.89-.4.89-.89-.4-.89-.89-.89Zm5.94-57.71c.46,0,.84-.38.84-.84s-.38-.84-.84-.84-.84.38-.84.84.38.84.84.84Zm0,5.94c.46,0,.84-.38.84-.84s-.38-.84-.84-.84-.84.38-.84.84.38.84.84.84Zm0-17.83c.46,0,.84-.38.84-.84s-.38-.84-.84-.84-.84.38-.84.84.38.84.84.84Zm0,5.94c.46,0,.84-.38.84-.84s-.38-.84-.84-.84-.84.38-.84.84.38.84.84.84Zm0,17.83c.46,0,.84-.38.84-.84s-.38-.84-.84-.84-.84.38-.84.84.38.84.84.84Zm-5.94,75.55c-.49,0-.89.4-.89.89s.4.89.89.89.89-.4.89-.89-.4-.89-.89-.89Zm5.94-61.39c-1.57,0-2.83,1.27-2.83,2.84s1.27,2.84,2.83,2.84,2.84-1.27,2.84-2.84-1.27-2.84-2.84-2.84Zm0-5.94c-1.57,0-2.83,1.27-2.83,2.84s1.27,2.84,2.83,2.84,2.84-1.27,2.84-2.84-1.27-2.84-2.84-2.84Zm-5.94,73.28c-.49,0-.89.4-.89.89s.4.89.89.89.89-.4.89-.89-.4-.89-.89-.89Zm5.94-79.22c-1.57,0-2.83,1.27-2.83,2.84s1.27,2.84,2.83,2.84,2.84-1.27,2.84-2.84-1.27-2.84-2.84-2.84Zm0-37.94c.46,0,.84-.38.84-.84s-.38-.84-.84-.84-.84.38-.84.84.38.84.84.84Zm0,5.94c.46,0,.84-.38.84-.84s-.38-.84-.84-.84-.84.38-.84.84.38.84.84.84Zm-29.72,32.27c-1.41,0-2.56,1.14-2.56,2.56s1.14,2.56,2.56,2.56,2.56-1.14,2.56-2.56-1.14-2.56-2.56-2.56Zm23.78,61.11c-.49,0-.89.4-.89.89s.4.89.89.89.89-.4.89-.89-.4-.89-.89-.89Zm0,5.94c-.49,0-.89.4-.89.89s.4.89.89.89.89-.4.89-.89-.4-.89-.89-.89Zm0-55.4c-1.54,0-2.79,1.25-2.79,2.79s1.25,2.79,2.79,2.79,2.79-1.25,2.79-2.79-1.25-2.79-2.79-2.79Zm0,17.83c-1.54,0-2.79,1.25-2.79,2.79s1.25,2.79,2.79,2.79,2.79-1.25,2.79-2.79-1.25-2.79-2.79-2.79Zm0-5.94c-1.54,0-2.79,1.25-2.79,2.79s1.25,2.79,2.79,2.79,2.79-1.25,2.79-2.79-1.25-2.79-2.79-2.79Zm0-23.78c-1.54,0-2.79,1.25-2.79,2.79s1.25,2.79,2.79,2.79,2.79-1.25,2.79-2.79-1.25-2.79-2.79-2.79Zm0,5.94c-1.54,0-2.79,1.25-2.79,2.79s1.25,2.79,2.79,2.79,2.79-1.25,2.79-2.79-1.25-2.79-2.79-2.79Zm0,11.89c-1.54,0-2.79,1.25-2.79,2.79s1.25,2.79,2.79,2.79,2.79-1.25,2.79-2.79-1.25-2.79-2.79-2.79Zm0,37.56c-.49,0-.89.4-.89.89s.4.89.89.89.89-.4.89-.89-.4-.89-.89-.89Zm0-19.73c-1.54,0-2.79,1.25-2.79,2.79s1.25,2.79,2.79,2.79,2.79-1.25,2.79-2.79-1.25-2.79-2.79-2.79Zm0-67.66c.49,0,.89-.4.89-.89s-.4-.89-.89-.89-.89.4-.89.89.4.89.89.89Zm-11.89,111.05c-.56,0-1.01.45-1.01,1.01s.45,1.01,1.01,1.01,1.01-.45,1.01-1.01-.45-1.01-1.01-1.01Zm11.89-29.61c-.49,0-.89.4-.89.89s.4.89.89.89.89-.4.89-.89-.4-.89-.89-.89Zm5.94-93.38c.46,0,.84-.38.84-.84s-.38-.84-.84-.84-.84.38-.84.84.38.84.84.84Zm-29.72,116.94c-.61,0-1.1.49-1.1,1.1s.49,1.1,1.1,1.1,1.1-.49,1.1-1.1-.49-1.1-1.1-1.1Zm5.94-98.9c.58,0,1.05-.47,1.05-1.05s-.47-1.05-1.05-1.05-1.06.47-1.06,1.05.47,1.05,1.06,1.05Zm0-11.89c.58,0,1.05-.47,1.05-1.05s-.47-1.05-1.05-1.05-1.06.47-1.06,1.05.47,1.05,1.06,1.05Zm0,29.72c.58,0,1.05-.47,1.05-1.05s-.47-1.06-1.05-1.06-1.06.47-1.06,1.06.47,1.05,1.06,1.05Zm0-5.94c.58,0,1.05-.47,1.05-1.06s-.47-1.05-1.05-1.05-1.06.47-1.06,1.05.47,1.06,1.06,1.06Zm0-17.83c.58,0,1.05-.47,1.05-1.06s-.47-1.05-1.05-1.05-1.06.47-1.06,1.05.47,1.06,1.06,1.06Zm0,11.89c.58,0,1.05-.47,1.05-1.05s-.47-1.05-1.05-1.05-1.06.47-1.06,1.05.47,1.05,1.06,1.05Zm0,37.94c-1.45,0-2.62,1.17-2.62,2.62s1.17,2.62,2.62,2.62,2.62-1.17,2.62-2.62-1.17-2.62-2.62-2.62Zm0,5.94c-1.45,0-2.62,1.17-2.62,2.62s1.17,2.62,2.62,2.62,2.62-1.17,2.62-2.62-1.17-2.62-2.62-2.62Zm0-11.89c-1.45,0-2.62,1.17-2.62,2.62s1.17,2.62,2.62,2.62,2.62-1.17,2.62-2.62-1.17-2.62-2.62-2.62Zm0-17.83c-1.45,0-2.62,1.17-2.62,2.62s1.17,2.62,2.62,2.62,2.62-1.17,2.62-2.62-1.17-2.62-2.62-2.62Zm0,11.89c-1.45,0-2.62,1.17-2.62,2.62s1.17,2.62,2.62,2.62,2.62-1.17,2.62-2.62-1.17-2.62-2.62-2.62Zm0-5.94c-1.45,0-2.62,1.17-2.62,2.62s1.17,2.62,2.62,2.62,2.62-1.17,2.62-2.62-1.17-2.62-2.62-2.62Zm-5.94,29.79c-1.41,0-2.56,1.14-2.56,2.56s1.14,2.55,2.56,2.55,2.56-1.14,2.56-2.55-1.14-2.56-2.56-2.56Zm0-5.94c-1.41,0-2.56,1.14-2.56,2.56s1.14,2.56,2.56,2.56,2.56-1.14,2.56-2.56-1.14-2.56-2.56-2.56Zm0-5.94c-1.41,0-2.56,1.14-2.56,2.56s1.14,2.56,2.56,2.56,2.56-1.14,2.56-2.56-1.14-2.56-2.56-2.56Zm29.72-.28c-1.57,0-2.83,1.27-2.83,2.84s1.27,2.84,2.83,2.84,2.84-1.27,2.84-2.84-1.27-2.84-2.84-2.84Zm-29.72-11.61c-1.41,0-2.56,1.14-2.56,2.56s1.14,2.56,2.56,2.56,2.56-1.14,2.56-2.56-1.14-2.56-2.56-2.56Zm0,5.94c-1.41,0-2.56,1.14-2.56,2.56s1.14,2.56,2.56,2.56,2.56-1.14,2.56-2.56-1.14-2.56-2.56-2.56Zm0,23.78c-1.41,0-2.56,1.14-2.56,2.56s1.14,2.56,2.56,2.56,2.56-1.14,2.56-2.56-1.14-2.56-2.56-2.56Zm0,25.23c-.61,0-1.1.49-1.1,1.1s.49,1.1,1.1,1.1,1.1-.49,1.1-1.1-.49-1.1-1.1-1.1Zm0,17.83c-.61,0-1.1.49-1.1,1.1s.49,1.1,1.1,1.1,1.1-.49,1.1-1.1-.49-1.1-1.1-1.1Zm0-11.89c-.61,0-1.1.49-1.1,1.1s.49,1.1,1.1,1.1,1.1-.49,1.1-1.1-.49-1.1-1.1-1.1Zm0-17.83c-.61,0-1.1.49-1.1,1.1s.49,1.1,1.1,1.1,1.1-.49,1.1-1.1-.49-1.1-1.1-1.1Zm0-7.4c-1.41,0-2.56,1.14-2.56,2.56s1.14,2.56,2.56,2.56,2.56-1.14,2.56-2.56-1.14-2.56-2.56-2.56Zm0,13.34c-.61,0-1.1.49-1.1,1.1s.49,1.1,1.1,1.1,1.1-.49,1.1-1.1-.49-1.1-1.1-1.1Zm11.89-25.34c-1.47,0-2.67,1.2-2.67,2.67s1.2,2.67,2.67,2.67,2.67-1.2,2.67-2.67-1.2-2.67-2.67-2.67Zm0-23.78c-1.47,0-2.67,1.2-2.67,2.67s1.2,2.67,2.67,2.67,2.67-1.2,2.67-2.67-1.2-2.67-2.67-2.67Zm0,5.94c-1.47,0-2.67,1.2-2.67,2.67s1.2,2.67,2.67,2.67,2.67-1.2,2.67-2.67-1.2-2.67-2.67-2.67Zm-5.94,23.83c-1.45,0-2.62,1.17-2.62,2.62s1.17,2.62,2.62,2.62,2.62-1.17,2.62-2.62-1.17-2.62-2.62-2.62Zm5.94-17.88c-1.47,0-2.67,1.2-2.67,2.67s1.2,2.67,2.67,2.67,2.67-1.2,2.67-2.67-1.2-2.67-2.67-2.67Zm0-49.82c.56,0,1.01-.45,1.01-1.01s-.45-1.01-1.01-1.01-1.01.45-1.01,1.01.45,1.01,1.01,1.01Zm0,26.05c-1.47,0-2.67,1.2-2.67,2.67s1.2,2.67,2.67,2.67,2.67-1.2,2.67-2.67-1.2-2.67-2.67-2.67Zm0,5.94c-1.47,0-2.67,1.2-2.67,2.67s1.2,2.67,2.67,2.67,2.67-1.2,2.67-2.67-1.2-2.67-2.67-2.67Zm0,55.17c-.56,0-1.01.45-1.01,1.01s.45,1.01,1.01,1.01,1.01-.45,1.01-1.01-.45-1.01-1.01-1.01Zm0,5.94c-.56,0-1.01.45-1.01,1.01s.45,1.01,1.01,1.01,1.01-.45,1.01-1.01-.45-1.01-1.01-1.01Zm0,5.94c-.56,0-1.01.45-1.01,1.01s.45,1.01,1.01,1.01,1.01-.45,1.01-1.01-.45-1.01-1.01-1.01Zm0-17.83c-.56,0-1.01.45-1.01,1.01s.45,1.01,1.01,1.01,1.01-.45,1.01-1.01-.45-1.01-1.01-1.01Zm0-13.55c-1.47,0-2.67,1.2-2.67,2.67s1.2,2.67,2.67,2.67,2.67-1.2,2.67-2.67-1.2-2.67-2.67-2.67Zm0,5.94c-1.47,0-2.67,1.2-2.67,2.67s1.2,2.67,2.67,2.67,2.67-1.2,2.67-2.67-1.2-2.67-2.67-2.67Zm0-17.83c-1.47,0-2.67,1.2-2.67,2.67s1.2,2.67,2.67,2.67,2.67-1.2,2.67-2.67-1.2-2.67-2.67-2.67Zm-5.94,37.28c-.58,0-1.06.47-1.06,1.05s.47,1.05,1.06,1.05,1.05-.47,1.05-1.05-.47-1.05-1.05-1.05Zm0,5.94c-.58,0-1.06.47-1.06,1.05s.47,1.05,1.06,1.05,1.05-.47,1.05-1.05-.47-1.05-1.05-1.05Zm0,11.89c-.58,0-1.06.47-1.06,1.05s.47,1.05,1.06,1.05,1.05-.47,1.05-1.05-.47-1.05-1.05-1.05Zm0-23.78c-.58,0-1.06.47-1.06,1.06s.47,1.05,1.06,1.05,1.05-.47,1.05-1.05-.47-1.06-1.05-1.06Zm0-13.45c-1.45,0-2.62,1.17-2.62,2.62s1.17,2.62,2.62,2.62,2.62-1.17,2.62-2.62-1.17-2.62-2.62-2.62Zm0,7.51c-.58,0-1.06.47-1.06,1.05s.47,1.06,1.06,1.06,1.05-.47,1.05-1.06-.47-1.05-1.05-1.05Zm0,23.78c-.58,0-1.06.47-1.06,1.05s.47,1.06,1.06,1.06,1.05-.47,1.05-1.06-.47-1.05-1.05-1.05Zm5.94-99c.56,0,1.01-.45,1.01-1.01s-.45-1.01-1.01-1.01-1.01.45-1.01,1.01.45,1.01,1.01,1.01Zm0,5.94c.56,0,1.01-.45,1.01-1.01s-.45-1.01-1.01-1.01-1.01.45-1.01,1.01.45,1.01,1.01,1.01Zm0,5.94c.56,0,1.01-.45,1.01-1.01s-.45-1.01-1.01-1.01-1.01.45-1.01,1.01.45,1.01,1.01,1.01Zm0-23.78c.56,0,1.01-.45,1.01-1.01s-.45-1.01-1.01-1.01-1.01.45-1.01,1.01.45,1.01,1.01,1.01Zm0,29.72c.56,0,1.01-.45,1.01-1.01s-.45-1.01-1.01-1.01-1.01.45-1.01,1.01.45,1.01,1.01,1.01Z"/><path class="cls-1" d="m131.69,176.55c-1.54.09-2.79,1.43-2.79,2.99,0,1.56,1.25,2.72,2.79,2.58,1.54-.14,2.79-1.48,2.79-2.99,0-1.51-1.25-2.67-2.79-2.58Zm0-30.42c-1.54-.14-2.79,1.02-2.79,2.58,0,1.56,1.25,2.9,2.79,2.99,1.54.09,2.79-1.07,2.79-2.58,0-1.51-1.25-2.85-2.79-2.99Zm0,60.85c-1.54.31-2.79,1.84-2.79,3.4,0,1.56,1.25,2.54,2.79,2.17,1.54-.36,2.79-1.88,2.79-3.4,0-1.51-1.25-2.49-2.79-2.17Zm-32.72-128.26c.5.98,1.34,1.76,2.29,2.04,1.54.44,2.79-.59,2.79-2.32,0-.85-.3-1.72-.79-2.44-1.44.9-2.87,1.81-4.29,2.72Zm32.72,36.99c-1.54-.36-2.79.61-2.79,2.17,0,1.56,1.25,3.08,2.79,3.4,1.54.31,2.79-.66,2.79-2.17,0-1.51-1.25-3.04-2.79-3.4Zm-30.42,62.56c-1.54.07-2.79,1.56-2.79,3.33s1.25,3.12,2.79,3.01c1.54-.11,2.79-1.61,2.79-3.34,0-1.73-1.25-3.07-2.79-3Zm30.42-92.99c-1.54-.59-2.79.2-2.79,1.77,0,1.56,1.25,3.27,2.79,3.81,1.54.54,2.79-.25,2.79-1.77s-1.25-3.22-2.79-3.81Zm44.51-28.55c-1.54-.59-2.79.2-2.79,1.77,0,1.56,1.25,3.27,2.79,3.81,1.54.54,2.79-.25,2.79-1.77s-1.25-3.22-2.79-3.81Zm-11.62,171.15c-.46-.63-1.39-.89-2.46-.58-1.54.44-2.79,1.91-2.79,3.26,0,1.35,1.25,2.03,2.79,1.55,1.54-.48,2.79-1.92,2.79-3.22,0-.16-.02-.3-.05-.44-.09-.19-.18-.37-.27-.55Zm-4.77-181.69c.5.92,1.35,1.8,2.31,2.31,1.54.81,2.79.38,2.79-.92,0-.92-.62-2.04-1.53-2.92-1.2.5-2.38,1.02-3.57,1.53Zm-28.8,13.81c.22.17.45.32.68.43,1.54.77,2.79.16,2.79-1.36,0-.27-.05-.54-.12-.83-1.12.58-2.24,1.16-3.35,1.75Zm31.11,193.53c-1.54.63-2.79,2.25-2.79,3.6,0,1.35,1.25,1.87,2.79,1.21,1.54-.67,2.79-2.25,2.79-3.55,0-1.31-1.25-1.88-2.79-1.25Zm0-183.6c-1.54-.67-2.79-.14-2.79,1.21,0,1.35,1.25,2.97,2.79,3.6,1.54.63,2.79.05,2.79-1.25,0-1.31-1.25-2.88-2.79-3.55Zm-30.42,167.48c-1.54.54-2.79,2.24-2.79,3.81,0,1.56,1.25,2.35,2.79,1.77,1.54-.59,2.79-2.29,2.79-3.81,0-1.51-1.25-2.31-2.79-1.77Zm0,30.42c-.24.12-.46.27-.68.43,1.11.59,2.22,1.17,3.35,1.75.07-.28.12-.56.12-.83,0-1.51-1.25-2.12-2.79-1.36Zm-91.27-125.36c-1.54.08-2.79,1.65-2.79,3.49,0,1.84,1.25,3.27,2.79,3.22,1.54-.05,2.79-1.6,2.79-3.47,0-1.87-1.25-3.32-2.79-3.24Zm0,36.61c-1.54-.05-2.79,1.38-2.79,3.22,0,1.83,1.25,3.4,2.79,3.49,1.54.08,2.79-1.37,2.79-3.24,0-1.87-1.25-3.41-2.79-3.47Zm60.85,33.8c-1.54.26-2.79,1.89-2.79,3.66s1.25,2.98,2.79,2.68c1.54-.3,2.79-1.95,2.79-3.68,0-1.73-1.25-2.92-2.79-2.66Zm60.85,66.87c-.96.51-1.81,1.39-2.31,2.31,1.19.51,2.37,1.03,3.57,1.53.9-.88,1.53-2,1.53-2.92,0-1.31-1.25-1.74-2.79-.92Zm30.42-11.44c-1.54.28-2.79,1.54-2.79,2.74,0,1.2,1.25,1.88,2.79,1.58,1.32-.25,2.43-1.13,2.71-2.13-.76-.74-1.52-1.49-2.26-2.24-.15,0-.29.02-.45.04Zm-91.27-20.81c-.95.27-1.79,1.06-2.29,2.04,1.41.91,2.84,1.82,4.29,2.72.49-.72.79-1.59.79-2.44,0-1.73-1.25-2.76-2.79-2.32Zm0-138.48c-1.54-.3-2.79.91-2.79,2.68s1.25,3.41,2.79,3.66c1.54.26,2.79-.93,2.79-2.66,0-1.73-1.25-3.39-2.79-3.68Zm0,34.62c-1.54-.11-2.79,1.24-2.79,3.01s1.25,3.26,2.79,3.33c1.54.07,2.79-1.27,2.79-3,0-1.73-1.25-3.23-2.79-3.34Zm-30.42,35.68c-1.54.03-2.79,1.57-2.79,3.46,0,1.89,1.25,3.4,2.79,3.36,1.54-.04,2.79-1.6,2.79-3.47,0-1.87-1.25-3.37-2.79-3.34Zm0,37.22c-1.54.09-2.79,1.67-2.79,3.56,0,1.89,1.25,3.36,2.79,3.26,1.54-.1,2.79-1.73,2.79-3.6,0-1.87-1.25-3.3-2.79-3.21Zm0-111.65c-1.54-.1-2.79,1.37-2.79,3.26,0,1.89,1.25,3.47,2.79,3.56,1.54.09,2.79-1.34,2.79-3.21,0-1.87-1.25-3.5-2.79-3.6Zm0,37.22c-1.54-.04-2.79,1.47-2.79,3.36,0,1.89,1.25,3.43,2.79,3.46,1.54.02,2.79-1.47,2.79-3.34,0-1.87-1.25-3.43-2.79-3.47Z"/><path class="cls-1" d="m460.9,179.13c0,1.51,1.25,2.85,2.79,2.99,1.54.14,2.79-1.02,2.79-2.58,0-1.56-1.25-2.9-2.79-2.99-1.54-.09-2.79,1.07-2.79,2.58Zm0-30.02c0,1.51,1.25,2.67,2.79,2.58,1.54-.09,2.79-1.43,2.79-2.99,0-1.56-1.25-2.72-2.79-2.58-1.54.14-2.79,1.48-2.79,2.99Zm0,60.03c0,1.51,1.25,3.04,2.79,3.4,1.54.36,2.79-.61,2.79-2.17,0-1.56-1.25-3.09-2.79-3.4-1.54-.31-2.79.66-2.79,2.17Zm31.22-133.16c-.49.72-.79,1.59-.79,2.44,0,1.73,1.25,2.76,2.79,2.32.95-.27,1.79-1.06,2.29-2.04-1.41-.91-2.84-1.82-4.29-2.72Zm-31.22,43.11c0,1.51,1.25,2.49,2.79,2.17,1.54-.31,2.79-1.84,2.79-3.4,0-1.56-1.25-2.54-2.79-2.17-1.54.36-2.79,1.88-2.79,3.4Zm30.42,62.16c0,1.73,1.25,3.23,2.79,3.34,1.54.11,2.79-1.24,2.79-3.01s-1.25-3.26-2.79-3.33c-1.54-.07-2.79,1.27-2.79,3Zm-30.42-92.18c0,1.51,1.25,2.31,2.79,1.77,1.54-.54,2.79-2.24,2.79-3.81,0-1.56-1.25-2.35-2.79-1.77-1.54.59-2.79,2.29-2.79,3.81Zm-44.51-28.55c0,1.51,1.25,2.31,2.79,1.77,1.54-.54,2.79-2.24,2.79-3.81,0-1.56-1.25-2.35-2.79-1.77-1.54.59-2.79,2.29-2.79,3.81Zm14.14,167.9c-.03.14-.05.29-.05.44,0,1.31,1.25,2.74,2.79,3.22,1.54.48,2.79-.2,2.79-1.55,0-1.35-1.25-2.81-2.79-3.26-1.08-.31-2-.04-2.46.58-.09.19-.18.37-.27.55Zm1.47-183.78c-.9.88-1.53,2-1.53,2.92,0,1.31,1.25,1.74,2.79.92.96-.51,1.81-1.39,2.31-2.31-1.19-.51-2.37-1.03-3.57-1.53Zm29.02,13.59c-.07.28-.12.56-.12.83,0,1.51,1.25,2.12,2.79,1.36.24-.12.46-.27.68-.43-1.11-.59-2.22-1.17-3.35-1.75Zm-30.55,196.53c0,1.31,1.25,2.88,2.79,3.55,1.54.67,2.79.14,2.79-1.21,0-1.35-1.25-2.97-2.79-3.6-1.54-.63-2.79-.05-2.79,1.25Zm0-181.3c0,1.31,1.25,1.88,2.79,1.25,1.54-.63,2.79-2.25,2.79-3.6,0-1.35-1.25-1.87-2.79-1.21-1.54.67-2.79,2.24-2.79,3.55Zm30.42,165.69c0,1.51,1.25,3.22,2.79,3.81,1.54.59,2.79-.2,2.79-1.77,0-1.56-1.25-3.27-2.79-3.81-1.54-.54-2.79.25-2.79,1.77Zm0,30.02c0,.27.05.54.12.83,1.12-.58,2.24-1.16,3.35-1.75-.22-.17-.45-.32-.68-.43-1.54-.77-2.79-.16-2.79,1.36Zm91.27-123.48c0,1.87,1.25,3.41,2.79,3.47,1.54.05,2.79-1.38,2.79-3.22,0-1.84-1.25-3.4-2.79-3.49-1.54-.08-2.79,1.37-2.79,3.24Zm0,36.84c0,1.87,1.25,3.32,2.79,3.24,1.54-.08,2.79-1.65,2.79-3.49,0-1.84-1.25-3.27-2.79-3.22-1.54.05-2.79,1.6-2.79,3.47Zm-60.85,32.99c0,1.73,1.25,3.39,2.79,3.68,1.54.3,2.79-.91,2.79-2.68s-1.25-3.41-2.79-3.66c-1.54-.26-2.79.93-2.79,2.66Zm-60.85,65.14c0,.92.62,2.04,1.53,2.92,1.2-.5,2.38-1.02,3.57-1.53-.5-.92-1.35-1.8-2.31-2.31-1.54-.81-2.79-.38-2.79.92Zm-28.09-12.41c-.75.75-1.5,1.5-2.26,2.24.28,1,1.39,1.88,2.71,2.13,1.54.29,2.79-.38,2.79-1.58,0-1.2-1.25-2.46-2.79-2.74-.15-.03-.3-.04-.45-.04Zm88.93-18.45c0,.85.3,1.72.79,2.44,1.44-.9,2.87-1.81,4.29-2.72-.5-.98-1.34-1.76-2.29-2.04-1.54-.44-2.79.59-2.79,2.32Zm0-137.11c0,1.73,1.25,2.91,2.79,2.66,1.54-.26,2.79-1.89,2.79-3.66,0-1.77-1.25-2.98-2.79-2.68-1.54.3-2.79,1.95-2.79,3.68Zm0,34.28c0,1.73,1.25,3.07,2.79,3,1.54-.07,2.79-1.56,2.79-3.33,0-1.77-1.25-3.12-2.79-3.01-1.54.11-2.79,1.61-2.79,3.34Zm30.42,35.68c0,1.87,1.25,3.43,2.79,3.47,1.54.04,2.79-1.47,2.79-3.36,0-1.89-1.25-3.43-2.79-3.46-1.54-.02-2.79,1.47-2.79,3.34Zm0,37.09c0,1.87,1.25,3.5,2.79,3.6,1.54.1,2.79-1.37,2.79-3.26,0-1.89-1.25-3.47-2.79-3.56-1.54-.09-2.79,1.34-2.79,3.21Zm0-111.26c0,1.88,1.25,3.3,2.79,3.21,1.54-.09,2.79-1.67,2.79-3.56,0-1.89-1.25-3.36-2.79-3.26-1.54.1-2.79,1.73-2.79,3.6Zm0,37.09c0,1.87,1.25,3.37,2.79,3.34,1.54-.03,2.79-1.57,2.79-3.46,0-1.89-1.25-3.4-2.79-3.36-1.54.04-2.79,1.6-2.79,3.47Z"/></g></g></svg>