<?xml version="1.0" encoding="UTF-8"?><svg id="eye" xmlns="http://www.w3.org/2000/svg" viewBox="0 0 594.21 336.23"><defs><style>.cls-1{fill:#222;}</style></defs><g id="eye"><g><path class="cls-1" d="m301.37,318.27c-15.14,0-30.35-1.06-45.62-3.18-73.58-10.23-133.09-42.91-170.06-68.52-16.22-11.24-30.38-22.65-42.2-33.41,82.24,88.57,289.69,223.36,501.19,4.94-40.31,35.32-82.47,61.53-125.91,78.18-38.2,14.64-77.53,22-117.41,22Z"/><path class="cls-1" d="m297.88,321.09c-15.14,0-30.35-1.06-45.62-3.18-73.58-10.23-133.09-42.91-170.06-68.52C38.17,218.87,9.33,187.11,1.17,170.51l-1.17-2.4,1.17-2.4c8.16-16.6,37-48.36,81.04-78.87,36.97-25.61,96.48-58.29,170.06-68.52,55.48-7.71,110.33-1.38,163.03,18.81,61.67,23.64,120.79,66.53,175.69,127.48l3.23,3.45-3.24,3.58c-54.89,60.94-114,103.82-175.68,127.46-38.2,14.64-77.53,22-117.41,22ZM10.88,168.12c7.77,13.85,33.42,43.19,76.86,73.29,36.1,25.01,94.18,56.92,165.86,66.89,53.84,7.49,107.07,1.34,158.21-18.26,59.22-22.7,116.14-63.71,169.24-121.92-53.14-58.24-110.04-99.23-169.24-121.92-51.15-19.6-104.38-25.75-158.21-18.26-71.68,9.97-129.76,41.88-165.86,66.89-43.42,30.09-69.07,59.42-76.86,73.29Z"/><path class="cls-1" d="m296.5,321.1c-84.35,0-152.98-68.63-152.98-152.98S212.15,15.13,296.5,15.13s152.98,68.63,152.98,152.98-68.63,152.98-152.98,152.98Zm0-296.25c-79,0-143.27,64.27-143.27,143.27s64.27,143.27,143.27,143.27,143.27-64.27,143.27-143.27S375.51,24.84,296.5,24.84Z"/><polygon class="cls-1" points="291.33 172.97 291.33 19.99 301.04 19.99 301.04 163.26 444.31 163.26 444.31 172.97 291.33 172.97"/><circle class="cls-1" cx="296.51" cy="168.11" r="45.04"/><path class="cls-1" d="m290.82,17.96c15.14,0,30.35,1.06,45.62,3.18,73.58,10.23,133.09,42.91,170.06,68.52,16.22,11.24,30.38,22.65,42.2,33.41-82.24-88.57-289.69-223.36-501.19-4.94,40.31-35.32,82.47-61.53,125.91-78.18,38.2-14.64,77.53-22,117.41-22Z"/><path class="cls-1" d="m234.03,85.17c-5.86-14.94-11.44-26.61-16.92-36.85-4.04,2.59-7.94,5.37-11.69,8.33.9,1.44,1.87,2.98,2.93,4.68,8.64,13.79,19.68,33.01,16.36,48.72-4.05,19.12-27.64,24.65-47.32,26.55-5.38.52-13.92.98-23.22,1.41-.78,3.54-1.42,7.14-1.92,10.77,30.65-1.93,56.84-2.73,73.2-14.37,17.06-12.13,16.13-30.03,8.59-49.24Zm184.09,83.09h-6.02c-.84,30.38,3.79,56,5.43,80.37,1.39-2.01,2.74-4.06,4.03-6.15-.79-12.16-1.97-23.73-2.83-33.2-1.51-16.72-1.08-29.17-.61-41.02Zm-186.05,24.07c27.89-16.42,43.33-23.08,62.08-46.74.97-1.22,1.83-2.46,2.64-3.7v-50.49c-4.75-11.46-11.59-23.72-19.11-36.98-6.55-11.55-11.05-19.7-14.2-25.57-4.13.95-8.18,2.07-12.17,3.35,7.36,12.72,15.93,27.12,19.94,34.53,10.07,18.61,20.41,40.38,11.74,58.9-25.74,54.93-66.65,43.27-117.97,70.98-3.49,1.89-6.84,3.66-10.05,5.34,2.8,11.4,6.99,22.27,12.38,32.42,7.15-2.1,13.48-4.27,17.92-6.35,20.26-9.5,24.51-22.56,46.8-35.68Zm-46.08-117.2c-9.29,10.63-17.01,22.61-22.82,35.61,3.76-.83,7.34-1.88,10.51-3.25,15.82-6.79,17.5-18.6,12.31-32.36Zm209.22,93.13h-6.61c.27,6.17.85,13.37,2.24,22.64,1.32,8.77,2.82,17.52,4.06,26.3,4.41,31.25-.61,34.25-6.33,62.33,4.34-3.45,8.46-7.14,12.37-11.04,3.68-16.86,3.82-28.75-2.02-64.06-2.63-15.92-3.44-27.07-3.71-36.17Zm-68.09,86.29c.3-10.48-.22-18.76,1.21-27.17,2.88-16.86,11.89-19.7,16.66-33.98,2.01-6.02,4.21-11.99,5.29-18.27.4-2.34.72-4.62.99-6.87h-14.33c-.85,2.09-1.84,4.15-2.97,6.17-4.41,7.87-6.4,12.46-12.14,18.66-6.94,7.5-15.83,16.46-17.31,35.51-1.23,15.85,1.06,30.36-13.61,39.54-9.6,6.01-23.71,7.86-36.12,9.31-18.77,2.19-32.21,4.13-44.07,6.42,7.57,5.43,15.68,10.17,24.26,14.11,53.7-13.37,90.96-1.82,92.15-43.43ZM198.91,62.09c-2.35,2.09-4.63,4.26-6.84,6.49,14.18,25.37,14.13,46.8-32.69,51.45-1.17,3.2-2.22,6.45-3.16,9.74,19.07-.94,35.72-3.02,46.64-10.35,19.48-13.08,9.91-35.87-3.96-57.33Zm69.77,52.31c3.71-16.14-1.12-29.45-8.48-44.16-5.68-11.36-12.57-22.79-19.38-34.23-4.34,1.77-8.57,3.74-12.69,5.9.13.22.25.43.37.63,12.36,21.16,19.3,34.64,22.1,55.02.6,4.37,1.11,8.75,1.03,13.17-.71,43.68-52.96,43.82-100.47,48.95-.17,2.84-.27,5.69-.27,8.57s.1,5.82.28,8.7c10.92-3.01,22.85-4.82,42.59-8.37,47.57-8.56,66.65-18.22,74.92-54.19Zm28.1-43.32v-20.99c-4.29-8.47-8.17-16.73-11.01-24.59-4.12.3-8.19.78-12.21,1.41.74,1.63,1.52,3.31,2.34,5,6.73,13.78,14.19,26.8,20.88,39.17Zm137.08,97.19c-1,14.03-1.93,28.62-1.46,45.67.06,2.26.13,4.49.2,6.69,1.91-4.77,3.56-9.67,4.95-14.68.02-1.02.03-2.03.05-3.07.22-11.19,1.15-22.89,2.17-34.6h-5.91Zm-64.01,9.67c-.29-3.6-.51-6.78-.67-9.67h-8.8c.11,21.75-1.69,37.03-9.43,49.8-4.79,7.9-7.08,16.49-7.36,25.63-.91,29.46,1.88,48.76-30.01,54.78-14.75,2.79-30.91,3.48-51.57,8.87,11.14,2.67,22.79,4.1,34.77,4.1,17.78,0,34.82-3.13,50.58-8.84,7.54-6.63,9.88-16.68,10.84-28.79,1.26-16.06-.37-28.13,7.58-44.79,4.56-9.54,6.78-18.16,4.08-51.08Zm53.32-9.67c-.9,16.72-1.9,16.67,1.41,65.1.08,1.16.16,2.35.24,3.55,1.43-2.57,2.78-5.19,4.06-7.85-.45-9.28-.86-18.41-.99-26.85-.18-12.28.46-23.17,1.1-33.95h-5.82ZM296.78,25.09c-.19,0-.37,0-.56,0,.18.68.37,1.37.56,2.06v-2.06Zm-16.73,202.65c5.01-33.27,23.49-36.11,40.02-59.48h-23.29v-1.76c-17.33,16.23-39.86,27.75-51.24,51.28-6.71,13.88-11.18,21.77-27.8,27.73-11.22,4.02-21.76,5.67-38.07,8.12,4.6,6.06,9.68,11.76,15.18,17.03,20.86-3.2,31.51-3.28,53.62-8.06,27.84-6.03,29.11-18.4,31.59-34.87Zm126.87-59.48h-6.32c0,.26,0,.53-.01.79-.42,29.92,9.62,60.47,7.77,91.42,1.89-2.2,3.71-4.44,5.46-6.75-1.19-38.34-7.64-47.49-6.9-85.47Zm-24.02,0h-7.1c1.5,20.93,4.67,35.73,4.29,51.19-.25,10.31-2.39,14.91-5.05,22.28-6.95,19.21-5.09,37.67-8.46,52.28,4.26-2.28,8.39-4.77,12.39-7.45.75-6.3,1.37-12.85,2.77-19.78,1.21-5.97,2.88-11.83,4.79-17.61,7.88-23.82-1.47-47.61-3.64-80.9Z"/><path class="cls-1" d="m355.68,141.05c-1.31,0-2.37,1.06-2.37,2.37s1.06,2.37,2.37,2.37,2.37-1.06,2.37-2.37-1.06-2.37-2.37-2.37Zm0-14.48c-1.31,0-2.37,1.06-2.37,2.37s1.06,2.37,2.37,2.37,2.37-1.06,2.37-2.37-1.06-2.37-2.37-2.37Zm0,4.83c-1.31,0-2.37,1.06-2.37,2.37s1.06,2.37,2.37,2.37,2.37-1.06,2.37-2.37-1.06-2.37-2.37-2.37Zm0,4.83c-1.31,0-2.37,1.06-2.37,2.37s1.06,2.37,2.37,2.37,2.37-1.06,2.37-2.37-1.06-2.37-2.37-2.37Zm.5-97.21c.33,0,.6-.27.6-.6s-.27-.6-.6-.6-.6.27-.6.6.27.6.6.6Zm-.5,82.73c-1.31,0-2.37,1.06-2.37,2.37s1.06,2.37,2.37,2.37,2.37-1.06,2.37-2.37-1.06-2.37-2.37-2.37Zm2.37-11.72c0-1.31-1.06-2.37-2.37-2.37s-2.37,1.06-2.37,2.37c0,1.02.65,1.88,1.55,2.22-.91.33-1.55,1.2-1.55,2.22,0,1.31,1.06,2.37,2.37,2.37s2.37-1.06,2.37-2.37c0-1.02-.65-1.88-1.55-2.22.9-.33,1.55-1.2,1.55-2.22Zm12.61-8.41c.26,0,.47-.21.47-.47s-.21-.47-.47-.47-.47.21-.47.47.21.47.47.47Zm14.48-14.61c.19,0,.33-.15.33-.33s-.15-.33-.33-.33-.33.15-.33.33.15.33.33.33Zm-24.13-52.87c.3,0,.55-.25.55-.55,0-.03-.01-.05-.02-.08-.23-.15-.47-.29-.7-.43-.22.07-.38.27-.38.52,0,.3.25.55.55.55Zm24.13,62.53c.19,0,.33-.15.33-.33s-.15-.33-.33-.33-.33.15-.33.33.15.33.33.33Zm0-14.48c.19,0,.33-.15.33-.33s-.15-.33-.33-.33-.33.15-.33.33.15.33.33.33Zm0,9.65c.19,0,.33-.15.33-.33s-.15-.33-.33-.33-.33.15-.33.33.15.33.33.33Zm-9.65-48.17c.1,0,.18-.04.25-.09-.21-.17-.43-.34-.64-.51-.02.05-.04.11-.04.18,0,.24.19.43.43.43Zm9.65,62.65c.19,0,.33-.15.33-.33s-.15-.33-.33-.33-.33.15-.33.33.15.33.33.33Zm0-4.83c.19,0,.33-.15.33-.33s-.15-.33-.33-.33-.33.15-.33.33.15.33.33.33Zm-28.96-67.3c.33,0,.6-.27.6-.6s-.27-.6-.6-.6-.6.27-.6.6.27.6.6.6Zm0,48.26c.33,0,.6-.27.6-.6s-.27-.6-.6-.6-.6.27-.6.6.27.6.6.6Zm0,19.3c.33,0,.6-.27.6-.6s-.27-.6-.6-.6-.6.27-.6.6.27.6.6.6Zm0-4.83c.33,0,.6-.27.6-.6s-.27-.6-.6-.6-.6.27-.6.6.27.6.6.6Zm0-9.65c.33,0,.6-.27.6-.6s-.27-.6-.6-.6-.6.27-.6.6.27.6.6.6Zm0,4.83c.33,0,.6-.27.6-.6s-.27-.6-.6-.6-.6.27-.6.6.27.6.6.6Zm0,14.48c.33,0,.6-.27.6-.6s-.27-.6-.6-.6-.6.27-.6.6.27.6.6.6Zm-5.32,29.67c-1.29,0-2.34,1.05-2.34,2.34s1.05,2.34,2.34,2.34,2.34-1.05,2.34-2.34-1.05-2.34-2.34-2.34Zm2.34-26.22c0-1.29-1.05-2.34-2.34-2.34s-2.34,1.05-2.34,2.34c0,1.04.68,1.91,1.62,2.22-.94.31-1.62,1.18-1.62,2.22,0,1.29,1.05,2.34,2.34,2.34s2.34-1.05,2.34-2.34c0-1.04-.68-1.91-1.62-2.22.94-.31,1.62-1.18,1.62-2.22Zm2.98-42.06c.33,0,.6-.27.6-.6s-.27-.6-.6-.6-.6.27-.6.6.27.6.6.6Zm0-9.65c.33,0,.6-.27.6-.6s-.27-.6-.6-.6-.6.27-.6.6.27.6.6.6Zm0-4.83c.33,0,.6-.27.6-.6s-.27-.6-.6-.6-.6.27-.6.6.27.6.6.6Zm0-4.83c.33,0,.6-.27.6-.6s-.27-.6-.6-.6-.6.27-.6.6.27.6.6.6Zm0-4.83c.33,0,.6-.27.6-.6s-.27-.6-.6-.6-.6.27-.6.6.27.6.6.6Zm0,19.3c.33,0,.6-.27.6-.6s-.27-.6-.6-.6-.6.27-.6.6.27.6.6.6Zm0,9.65c.33,0,.6-.27.6-.6s-.27-.6-.6-.6-.6.27-.6.6.27.6.6.6Zm0,4.83c.33,0,.6-.27.6-.6s-.27-.6-.6-.6-.6.27-.6.6.27.6.6.6Zm28.96-.27c.19,0,.33-.15.33-.33s-.15-.33-.33-.33-.33.15-.33.33.15.33.33.33Zm-9.65,14.57c.24,0,.43-.19.43-.43s-.19-.43-.43-.43-.43.19-.43.43.19.43.43.43Zm0,4.83c.24,0,.43-.19.43-.43s-.19-.43-.43-.43-.43.19-.43.43.19.43.43.43Zm0-9.65c.24,0,.43-.19.43-.43s-.19-.43-.43-.43-.43.19-.43.43.19.43.43.43Zm0-4.83c.24,0,.43-.19.43-.43s-.19-.43-.43-.43-.43.19-.43.43.19.43.43.43Zm-24.63,58.8c-1.29,0-2.34,1.05-2.34,2.34s1.05,2.34,2.34,2.34,2.34-1.05,2.34-2.34-1.05-2.34-2.34-2.34Zm24.63-63.63c.24,0,.43-.19.43-.43s-.19-.43-.43-.43-.43.19-.43.43.19.43.43.43Zm0,24.13c.24,0,.43-.19.43-.43s-.19-.43-.43-.43-.43.19-.43.43.19.43.43.43Zm0,4.83c.24,0,.43-.19.43-.43s-.19-.43-.43-.43-.43.19-.43.43.19.43.43.43Zm4.83-57.97c.21,0,.38-.17.38-.37s-.17-.37-.38-.37-.37.17-.37.37.17.37.37.37Zm-4.83,4.88c.24,0,.43-.19.43-.43s-.19-.43-.43-.43-.43.19-.43.43.19.43.43.43Zm-4.83,53.13c.26,0,.47-.21.47-.47s-.21-.47-.47-.47-.47.21-.47.47.21.47.47.47Zm4.83-57.95c.24,0,.43-.19.43-.43s-.19-.43-.43-.43-.43.19-.43.43.19.43.43.43Zm0,19.3c.24,0,.43-.19.43-.43s-.19-.43-.43-.43-.43.19-.43.43.19.43.43.43Zm0,4.83c.24,0,.43-.19.43-.43s-.19-.43-.43-.43-.43.19-.43.43.19.43.43.43Zm0-14.48c.24,0,.43-.19.43-.43s-.19-.43-.43-.43-.43.19-.43.43.19.43.43.43Zm0,4.83c.24,0,.43-.19.43-.43s-.19-.43-.43-.43-.43.19-.43.43.19.43.43.43Zm-33.78,14.77c.4,0,.72-.32.72-.72s-.32-.72-.72-.72-.72.32-.72.72.32.72.72.72Zm38.61,28.61c.21,0,.38-.17.38-.37s-.17-.37-.38-.37-.37.17-.37.37.17.37.37.37Zm4.83-48.3c.19,0,.33-.15.33-.33s-.15-.33-.33-.33-.33.15-.33.33.15.33.33.33Zm-4.83,43.48c.21,0,.38-.17.38-.37s-.17-.37-.38-.37-.37.17-.37.37.17.37.37.37Zm4.83-48.3c.19,0,.33-.15.33-.33s-.15-.33-.33-.33-.33.15-.33.33.15.33.33.33Zm0,14.48c.19,0,.33-.15.33-.33s-.15-.33-.33-.33-.33.15-.33.33.15.33.33.33Zm0,4.83c.19,0,.33-.15.33-.33s-.15-.33-.33-.33-.33.15-.33.33.15.33.33.33Zm-4.83-14.44c.21,0,.38-.17.38-.37s-.17-.37-.38-.37-.37.17-.37.37.17.37.37.37Zm4.83,4.79c.19,0,.33-.15.33-.33s-.15-.33-.33-.33-.33.15-.33.33.15.33.33.33Zm-4.83,33.82c.21,0,.38-.17.38-.37s-.17-.37-.38-.37-.37.17-.37.37.17.37.37.37Zm0-24.13c.21,0,.38-.17.38-.37s-.17-.37-.38-.37-.37.17-.37.37.17.37.37.37Zm0-4.83c.21,0,.38-.17.38-.37s-.17-.37-.38-.37-.37.17-.37.37.17.37.37.37Zm0-4.83c.21,0,.38-.17.38-.37s-.17-.37-.38-.37-.37.17-.37.37.17.37.37.37Zm0,24.13c.21,0,.38-.17.38-.37s-.17-.37-.38-.37-.37.17-.37.37.17.37.37.37Zm0,4.83c.21,0,.38-.17.38-.37s-.17-.37-.38-.37-.37.17-.37.37.17.37.37.37Zm0-9.65c.21,0,.38-.17.38-.37s-.17-.37-.38-.37-.37.17-.37.37.17.37.37.37Zm0-4.83c.21,0,.38-.17.38-.37s-.17-.37-.38-.37-.37.17-.37.37.17.37.37.37Zm-24.63,39.52c-1.31,0-2.37,1.06-2.37,2.37s1.06,2.37,2.37,2.37,2.37-1.06,2.37-2.37-1.06-2.37-2.37-2.37Zm-14.48,19.43c-1.24,0-2.25,1.01-2.25,2.25s1.01,2.25,2.25,2.25,2.25-1.01,2.25-2.25-1.01-2.25-2.25-2.25Zm5.32-34.51c.38,0,.68-.31.68-.68s-.31-.68-.68-.68-.68.31-.68.68.31.68.68.68Zm0-14.48c.38,0,.68-.31.68-.68s-.31-.68-.68-.68-.68.31-.68.68.31.68.68.68Zm0,19.31c.38,0,.68-.31.68-.68s-.31-.68-.68-.68-.68.31-.68.68.31.68.68.68Zm0-14.48c.38,0,.68-.31.68-.68s-.31-.68-.68-.68-.68.31-.68.68.31.68.68.68Zm0,19.3c.38,0,.68-.31.68-.68s-.31-.68-.68-.68-.68.31-.68.68.31.68.68.68Zm-5.32,34.51c-1.24,0-2.25,1.01-2.25,2.25s1.01,2.25,2.25,2.25,2.25-1.01,2.25-2.25-1.01-2.25-2.25-2.25Zm0-4.83c-1.24,0-2.25,1.01-2.25,2.25s1.01,2.25,2.25,2.25,2.25-1.01,2.25-2.25-1.01-2.25-2.25-2.25Zm5.32-44.16c.38,0,.68-.31.68-.68s-.31-.68-.68-.68-.68.31-.68.68.31.68.68.68Zm0-38.61c.38,0,.68-.31.68-.68s-.31-.68-.68-.68-.68.31-.68.68.31.68.68.68Zm0,4.83c.38,0,.68-.31.68-.68s-.31-.68-.68-.68-.68.31-.68.68.31.68.68.68Zm0,19.3c.38,0,.68-.31.68-.68s-.31-.68-.68-.68-.68.31-.68.68.31.68.68.68Zm0-28.96c.38,0,.68-.31.68-.68s-.31-.68-.68-.68-.68.31-.68.68.31.68.68.68Zm0-4.83c.38,0,.68-.31.68-.68s-.31-.68-.68-.68-.68.31-.68.68.31.68.68.68Zm0,19.3c.38,0,.68-.31.68-.68s-.31-.68-.68-.68-.68.31-.68.68.31.68.68.68Zm0,4.83c.38,0,.68-.31.68-.68s-.31-.68-.68-.68-.68.31-.68.68.31.68.68.68Zm0,4.83c.38,0,.68-.31.68-.68s-.31-.68-.68-.68-.68.31-.68.68.31.68.68.68Zm-4.83-24.09c.4,0,.72-.32.72-.72s-.32-.72-.72-.72-.72.32-.72.72.32.72.72.72Zm0-4.83c.4,0,.72-.32.72-.72s-.32-.72-.72-.72-.72.32-.72.72.32.72.72.72Zm0-4.83c.4,0,.72-.32.72-.72s-.32-.72-.72-.72-.72.32-.72.72.32.72.72.72Zm0,14.48c.4,0,.72-.32.72-.72s-.32-.72-.72-.72-.72.32-.72.72.32.72.72.72Zm0,9.65c.4,0,.72-.32.72-.72s-.32-.72-.72-.72-.72.32-.72.72.32.72.72.72Zm0,4.83c.4,0,.72-.32.72-.72s-.32-.72-.72-.72-.72.32-.72.72.32.72.72.72Zm0-9.65c.4,0,.72-.32.72-.72s-.32-.72-.72-.72-.72.32-.72.72.32.72.72.72Zm0-24.13c.4,0,.72-.32.72-.72s-.32-.72-.72-.72-.72.32-.72.72.32.72.72.72Zm0-4.83c.4,0,.72-.32.72-.72s-.32-.72-.72-.72-.72.32-.72.72.32.72.72.72Zm-.5,82.73c-1.24,0-2.25,1.01-2.25,2.25s1.01,2.25,2.25,2.25,2.25-1.01,2.25-2.25-1.01-2.25-2.25-2.25Zm0,4.83c-1.24,0-2.25,1.01-2.25,2.25s1.01,2.25,2.25,2.25,2.25-1.01,2.25-2.25-1.01-2.25-2.25-2.25Zm0,4.83c-1.24,0-2.25,1.01-2.25,2.25s1.01,2.25,2.25,2.25,2.25-1.01,2.25-2.25-1.01-2.25-2.25-2.25Zm0-14.48c-1.24,0-2.25,1.01-2.25,2.25s1.01,2.25,2.25,2.25,2.25-1.01,2.25-2.25-1.01-2.25-2.25-2.25Zm.5-87.56c.4,0,.72-.32.72-.72s-.32-.72-.72-.72-.72.32-.72.72.32.72.72.72Zm0,4.83c.4,0,.72-.32.72-.72s-.32-.72-.72-.72-.72.32-.72.72.32.72.72.72Zm-.5,102.04c-1.24,0-2.25,1.01-2.25,2.25s1.01,2.25,2.25,2.25,2.25-1.01,2.25-2.25-1.01-2.25-2.25-2.25Zm4.83-9.69c-1.26,0-2.29,1.02-2.29,2.29s1.02,2.29,2.29,2.29,2.29-1.02,2.29-2.29-1.02-2.29-2.29-2.29Zm5.32-63.47c.35,0,.64-.29.64-.64s-.29-.64-.64-.64-.64.29-.64.64.29.64.64.64Zm0,4.83c.35,0,.64-.29.64-.64s-.29-.64-.64-.64-.64.29-.64.64.29.64.64.64Zm0,4.83c.35,0,.64-.29.64-.64s-.29-.64-.64-.64-.64.29-.64.64.29.64.64.64Zm0-14.48c.35,0,.64-.29.64-.64s-.29-.64-.64-.64-.64.29-.64.64.29.64.64.64Zm0,24.13c.35,0,.64-.29.64-.64s-.29-.64-.64-.64-.64.29-.64.64.29.64.64.64Zm0-4.83c.35,0,.64-.29.64-.64s-.29-.64-.64-.64-.64.29-.64.64.29.64.64.64Zm0,9.65c.35,0,.64-.29.64-.64s-.29-.64-.64-.64-.64.29-.64.64.29.64.64.64Zm0-33.78c.35,0,.64-.29.64-.64s-.29-.64-.64-.64-.64.29-.64.64.29.64.64.64Zm-.5,68.24c-1.29,0-2.34,1.05-2.34,2.34s1.05,2.34,2.34,2.34,2.34-1.05,2.34-2.34-1.05-2.34-2.34-2.34Zm.5-29.63c.35,0,.64-.29.64-.64s-.29-.64-.64-.64-.64.29-.64.64.29.64.64.64Zm-.5,34.45c-1.29,0-2.34,1.05-2.34,2.34s1.05,2.34,2.34,2.34,2.34-1.05,2.34-2.34-1.05-2.34-2.34-2.34Zm0,4.83c-1.29,0-2.34,1.05-2.34,2.34s1.05,2.34,2.34,2.34,2.34-1.05,2.34-2.34-1.05-2.34-2.34-2.34Zm-4.33-82.68c.38,0,.68-.31.68-.68s-.31-.68-.68-.68-.68.31-.68.68.31.68.68.68Zm4.83-4.87c.35,0,.64-.29.64-.64s-.29-.64-.64-.64-.64.29-.64.64.29.64.64.64Zm0-9.65c.35,0,.64-.29.64-.64s-.29-.64-.64-.64-.64.29-.64.64.29.64.64.64Zm0,14.48c.35,0,.64-.29.64-.64s-.29-.64-.64-.64-.64.29-.64.64.29.64.64.64Zm0-9.65c.35,0,.64-.29.64-.64s-.29-.64-.64-.64-.64.29-.64.64.29.64.64.64Zm-5.32,82.77c-1.26,0-2.29,1.02-2.29,2.29s1.02,2.29,2.29,2.29,2.29-1.02,2.29-2.29-1.02-2.29-2.29-2.29Zm0-4.83c-1.26,0-2.29,1.02-2.29,2.29s1.02,2.29,2.29,2.29,2.29-1.02,2.29-2.29-1.02-2.29-2.29-2.29Zm4.83,19.25c-1.29,0-2.34,1.05-2.34,2.34s1.05,2.34,2.34,2.34,2.34-1.05,2.34-2.34-1.05-2.34-2.34-2.34Zm-4.33-97.15c.38,0,.68-.31.68-.68s-.31-.68-.68-.68-.68.31-.68.68.31.68.68.68Zm-.5,92.38c-1.26,0-2.29,1.02-2.29,2.29s1.02,2.29,2.29,2.29,2.29-1.02,2.29-2.29-1.02-2.29-2.29-2.29Zm.5-87.56c.38,0,.68-.31.68-.68s-.31-.68-.68-.68-.68.31-.68.68.31.68.68.68Zm0-9.65c.38,0,.68-.31.68-.68s-.31-.68-.68-.68-.68.31-.68.68.31.68.68.68Zm4.83,67.53c.35,0,.64-.29.64-.64s-.29-.64-.64-.64-.64.29-.64.64.29.64.64.64Zm-5.32,34.51c-1.26,0-2.29,1.02-2.29,2.29s1.02,2.29,2.29,2.29,2.29-1.02,2.29-2.29-1.02-2.29-2.29-2.29Zm5.32-39.33c.35,0,.64-.29.64-.64s-.29-.64-.64-.64-.64.29-.64.64.29.64.64.64Zm0,14.48c.35,0,.64-.29.64-.64s-.29-.64-.64-.64-.64.29-.64.64.29.64.64.64Zm0-4.83c.35,0,.64-.29.64-.64s-.29-.64-.64-.64-.64.29-.64.64.29.64.64.64Zm-5.32,39.33c-1.26,0-2.29,1.02-2.29,2.29s1.02,2.29,2.29,2.29,2.29-1.02,2.29-2.29-1.02-2.29-2.29-2.29Zm0-4.83c-1.26,0-2.29,1.02-2.29,2.29s1.02,2.29,2.29,2.29,2.29-1.02,2.29-2.29-1.02-2.29-2.29-2.29Zm0,9.65c-1.26,0-2.29,1.02-2.29,2.29s1.02,2.29,2.29,2.29,2.29-1.02,2.29-2.29-1.02-2.29-2.29-2.29Zm34.28-92.69c.21,0,.38-.17.38-.37s-.17-.37-.38-.37-.37.17-.37.37.17.37.37.37Zm14.48,14.34c.13,0,.24-.11.24-.24s-.11-.24-.24-.24-.24.11-.24.24.11.24.24.24Zm-4.83,33.84c.16,0,.29-.13.29-.29s-.13-.29-.29-.29-.29.13-.29.29.13.29.29.29Zm4.83-38.66c.13,0,.24-.11.24-.24s-.11-.24-.24-.24-.24.11-.24.24.11.24.24.24Zm-4.83,24.18c.16,0,.29-.13.29-.29s-.13-.29-.29-.29-.29.13-.29.29.13.29.29.29Zm0,9.65c.16,0,.29-.13.29-.29s-.13-.29-.29-.29-.29.13-.29.29.13.29.29.29Zm0-4.83c.16,0,.29-.13.29-.29s-.13-.29-.29-.29-.29.13-.29.29.13.29.29.29Zm9.65-24.21s.03-.02.05-.02c-.08-.1-.15-.19-.23-.29-.02.03-.04.06-.04.09,0,.12.1.21.21.21Zm-9.65,38.69c.16,0,.29-.13.29-.29s-.13-.29-.29-.29-.29.13-.29.29.13.29.29.29Zm4.83-33.84c.13,0,.24-.11.24-.24s-.11-.24-.24-.24-.24.11-.24.24.11.24.24.24Zm0,28.96c.13,0,.24-.11.24-.24s-.11-.24-.24-.24-.24.11-.24.24.11.24.24.24Zm0,9.65c.13,0,.24-.11.24-.24s-.11-.24-.24-.24-.24.11-.24.24.11.24.24.24Zm0-4.83c.13,0,.24-.11.24-.24s-.11-.24-.24-.24-.24.11-.24.24.11.24.24.24Zm0-19.3c.13,0,.24-.11.24-.24s-.11-.24-.24-.24-.24.11-.24.24.11.24.24.24Zm0-4.83c.13,0,.24-.11.24-.24s-.11-.24-.24-.24-.24.11-.24.24.11.24.24.24Zm-24.13,14.71c.26,0,.47-.21.47-.47s-.21-.47-.47-.47-.47.21-.47.47.21.47.47.47Zm24.13-.23c.13,0,.24-.11.24-.24s-.11-.24-.24-.24-.24.11-.24.24.11.24.24.24Zm0-19.3c.13,0,.24-.11.24-.24s-.11-.24-.24-.24-.24.11-.24.24.11.24.24.24Zm-101.85,40.22s-.06,0-.08,0v3.6s.05,0,.08,0c1,0,1.81-.81,1.81-1.81s-.81-1.81-1.81-1.81Zm0,4.83s-.06,0-.08,0v3.6s.05,0,.08,0c1,0,1.81-.81,1.81-1.81s-.81-1.81-1.81-1.81Zm8.59,38.85h2.12c-.3-.2-.67-.32-1.06-.32s-.76.12-1.06.32Zm-4.77,0h2.01c-.29-.19-.63-.3-1-.3s-.71.11-1,.3Zm-3.91-.24v.24h.98c-.26-.15-.57-.24-.89-.24-.03,0-.06,0-.08,0Zm.08-24.14s-.06,0-.08,0v3.6s.05,0,.08,0c1,0,1.81-.81,1.81-1.81s-.81-1.81-1.81-1.81Zm0-4.83s-.06,0-.08,0v3.6s.05,0,.08,0c1,0,1.81-.81,1.81-1.81s-.81-1.81-1.81-1.81Zm0-4.83s-.06,0-.08,0v3.6s.05,0,.08,0c1,0,1.81-.81,1.81-1.81s-.81-1.81-1.81-1.81Zm18.1,34.03h2.41c-.33-.26-.75-.42-1.2-.42s-.87.16-1.2.42Zm-4.76,0h2.28c-.32-.23-.71-.38-1.14-.38s-.82.14-1.14.38Zm83.69-88.67c.16,0,.29-.13.29-.29s-.13-.29-.29-.29-.29.13-.29.29.13.29.29.29Zm0,4.83c.16,0,.29-.13.29-.29s-.13-.29-.29-.29-.29.13-.29.29.13.29.29.29Zm0-9.65c.16,0,.29-.13.29-.29s-.13-.29-.29-.29-.29.13-.29.29.13.29.29.29Zm0-4.83c.16,0,.29-.13.29-.29s-.13-.29-.29-.29-.29.13-.29.29.13.29.29.29Zm0,19.3c.16,0,.29-.13.29-.29s-.13-.29-.29-.29-.29.13-.29.29.13.29.29.29Zm0-24.13c.16,0,.29-.13.29-.29s-.13-.29-.29-.29-.29.13-.29.29.13.29.29.29Zm24.2,47.97s-.03-.07-.07-.07-.07.03-.07.07.03.07.07.07.07-.03.07-.07Zm-115.9-3.7c.62,0,1.12-.5,1.12-1.12s-.5-1.12-1.12-1.12-1.12.5-1.12,1.12.5,1.12,1.12,1.12Zm111-5.83c.07,0,.12-.05.12-.12s-.05-.12-.12-.12-.12.05-.12.12.05.12.12.12Zm-4.83,9.69c.09,0,.16-.07.16-.16s-.07-.16-.16-.16-.16.07-.16.16.07.16.16.16Zm4.83-.04c.07,0,.12-.05.12-.12s-.05-.12-.12-.12-.12.05-.12.12.05.12.12.12Zm0-19.3c.07,0,.12-.05.12-.12s-.05-.12-.12-.12-.12.05-.12.12.05.12.12.12Zm0,4.83c.07,0,.12-.05.12-.12s-.05-.12-.12-.12-.12.05-.12.12.05.12.12.12Zm0-9.65c.07,0,.12-.05.12-.12s-.05-.12-.12-.12-.12.05-.12.12.05.12.12.12Zm4.89,9.53s-.03-.07-.07-.07-.07.03-.07.07.03.07.07.07.07-.03.07-.07Zm-4.89,19.43c.07,0,.12-.05.12-.12s-.05-.12-.12-.12-.12.05-.12.12.05.12.12.12Zm9.69-.12s-.02-.04-.04-.04-.04.02-.04.04.02.04.04.04.04-.02.04-.04Zm-19.34-38.4c.12,0,.21-.1.21-.21s-.1-.21-.21-.21-.21.1-.21.21.1.21.21.21Zm14.55,23.92s-.03-.07-.07-.07-.07.03-.07.07.03.07.07.07.07-.03.07-.07Zm4.8,9.65s-.02-.04-.04-.04-.04.02-.04.04.02.04.04.04.04-.02.04-.04Zm-126.02,35.63s-.06,0-.08,0v3.6s.05,0,.08,0c1,0,1.81-.81,1.81-1.81s-.81-1.81-1.81-1.81Zm121.22-40.46s-.03-.07-.07-.07-.07.03-.07.07.03.07.07.07.07-.03.07-.07Zm0,9.65s-.03-.07-.07-.07-.07.03-.07.07.03.07.07.07.07-.03.07-.07Zm4.8-9.65s-.02-.04-.04-.04-.04.02-.04.04.02.04.04.04.04-.02.04-.04Zm-19.34-4.61c.12,0,.21-.1.21-.21s-.1-.21-.21-.21-.21.1-.21.21.1.21.21.21Zm0-4.83c.12,0,.21-.1.21-.21s-.1-.21-.21-.21-.21.1-.21.21.1.21.21.21Zm0,9.65c.12,0,.21-.1.21-.21s-.1-.21-.21-.21-.21.1-.21.21.1.21.21.21Zm0-14.48c.12,0,.21-.1.21-.21s-.1-.21-.21-.21-.21.1-.21.21.1.21.21.21Zm0-9.65c.12,0,.21-.1.21-.21s-.1-.21-.21-.21-.21.1-.21.21.1.21.21.21Zm0,33.78c.12,0,.21-.1.21-.21s-.1-.21-.21-.21-.21.1-.21.21.1.21.21.21Zm4.83-.05c.09,0,.16-.07.16-.16s-.07-.16-.16-.16-.16.07-.16.16.07.16.16.16Zm-4.83-28.9c.12,0,.21-.1.21-.21s-.1-.21-.21-.21-.21.1-.21.21.1.21.21.21Zm4.83,14.43c.09,0,.16-.07.16-.16s-.07-.16-.16-.16-.16.07-.16.16.07.16.16.16Zm-4.83,9.71c.12,0,.21-.1.21-.21s-.1-.21-.21-.21-.21.1-.21.21.1.21.21.21Zm4.83-4.88c.09,0,.16-.07.16-.16s-.07-.16-.16-.16-.16.07-.16.16.07.16.16.16Zm0-9.65c.09,0,.16-.07.16-.16s-.07-.16-.16-.16-.16.07-.16.16.07.16.16.16Zm0-4.83c.09,0,.16-.07.16-.16s-.07-.16-.16-.16-.16.07-.16.16.07.16.16.16Zm0-9.65c.09,0,.16-.07.16-.16s-.07-.16-.16-.16-.16.07-.16.16.07.16.16.16Zm0,4.83c.09,0,.16-.07.16-.16s-.07-.16-.16-.16-.16.07-.16.16.07.16.16.16Zm-9.65,9.73c.13,0,.24-.11.24-.24s-.11-.24-.24-.24-.24.11-.24.24.11.24.24.24Zm-28.96-9.37c.29,0,.52-.23.52-.52s-.23-.52-.52-.52-.52.23-.52.52.23.52.52.52Zm0-19.3c.29,0,.52-.23.52-.52s-.23-.52-.52-.52-.52.23-.52.52.23.52.52.52Zm0-9.65c.29,0,.52-.23.52-.52s-.23-.52-.52-.52-.52.23-.52.52.23.52.52.52Zm0-4.83c.29,0,.52-.23.52-.52s-.23-.52-.52-.52-.52.23-.52.52.23.52.52.52Zm0,9.65c.29,0,.52-.23.52-.52s-.23-.52-.52-.52-.52.23-.52.52.23.52.52.52Zm0,19.3c.29,0,.52-.23.52-.52s-.23-.52-.52-.52-.52.23-.52.52.23.52.52.52Zm0-9.65c.29,0,.52-.23.52-.52s-.23-.52-.52-.52-.52.23-.52.52.23.52.52.52Zm0,4.83c.29,0,.52-.23.52-.52s-.23-.52-.52-.52-.52.23-.52.52.23.52.52.52Zm-4.83,4.85c.3,0,.55-.25.55-.55s-.25-.55-.55-.55-.55.25-.55.55.25.55.55.55Zm0,14.48c.3,0,.55-.25.55-.55s-.25-.55-.55-.55-.55.25-.55.55.25.55.55.55Zm4.83-48.29c.29,0,.52-.23.52-.52s-.23-.52-.52-.52-.52.23-.52.52.23.52.52.52Zm-4.83,38.64c.3,0,.55-.25.55-.55s-.25-.55-.55-.55-.55.25-.55.55.25.55.55.55Zm0,4.83c.3,0,.55-.25.55-.55s-.25-.55-.55-.55-.55.25-.55.55.25.55.55.55Zm0,9.65c.3,0,.55-.25.55-.55s-.25-.55-.55-.55-.55.25-.55.55.25.55.55.55Zm0,9.65c.3,0,.55-.25.55-.55s-.25-.55-.55-.55-.55.25-.55.55.25.55.55.55Zm0-4.83c.3,0,.55-.25.55-.55s-.25-.55-.55-.55-.55.25-.55.55.25.55.55.55Zm4.83-62.77c.29,0,.52-.23.52-.52s-.23-.52-.52-.52-.52.23-.52.52.23.52.52.52Zm4.83,19.25c.26,0,.47-.21.47-.47s-.21-.47-.47-.47-.47.21-.47.47.21.47.47.47Zm0,9.65c.26,0,.47-.21.47-.47s-.21-.47-.47-.47-.47.21-.47.47.21.47.47.47Zm0-4.83c.26,0,.47-.21.47-.47s-.21-.47-.47-.47-.47.21-.47.47.21.47.47.47Zm-4.83,24.18c.29,0,.52-.23.52-.52s-.23-.52-.52-.52-.52.23-.52.52.23.52.52.52Zm4.83-14.53c.26,0,.47-.21.47-.47s-.21-.47-.47-.47-.47.21-.47.47.21.47.47.47Zm0,19.3c.26,0,.47-.21.47-.47s-.21-.47-.47-.47-.47.21-.47.47.21.47.47.47Zm0-4.83c.26,0,.47-.21.47-.47s-.21-.47-.47-.47-.47.21-.47.47.21.47.47.47Zm0-4.83c.26,0,.47-.21.47-.47s-.21-.47-.47-.47-.47.21-.47.47.21.47.47.47Zm0-4.83c.26,0,.47-.21.47-.47s-.21-.47-.47-.47-.47.21-.47.47.21.47.47.47Zm-4.83,19.36c.29,0,.52-.23.52-.52s-.23-.52-.52-.52-.52.23-.52.52.23.52.52.52Zm0,4.83c.29,0,.52-.23.52-.52s-.23-.52-.52-.52-.52.23-.52.52.23.52.52.52Zm0-9.65c.29,0,.52-.23.52-.52s-.23-.52-.52-.52-.52.23-.52.52.23.52.52.52Zm-72.89,54.42s-.06,0-.08,0v3.6s.05,0,.08,0c1,0,1.81-.81,1.81-1.81s-.81-1.81-1.81-1.81Zm77.72-102.73c.26,0,.47-.21.47-.47s-.21-.47-.47-.47-.47.21-.47.47.21.47.47.47Zm-4.83,62.79c.29,0,.52-.23.52-.52s-.23-.52-.52-.52-.52.23-.52.52.23.52.52.52Zm4.83-53.14c.26,0,.47-.21.47-.47s-.21-.47-.47-.47-.47.21-.47.47.21.47.47.47Zm0-4.83c.26,0,.47-.21.47-.47s-.21-.47-.47-.47-.47.21-.47.47.21.47.47.47Zm-76.07,4.36c0-.64-.52-1.15-1.15-1.15-.22,0-.41.08-.58.18v1.94c.17.1.36.18.58.18.64,0,1.15-.52,1.15-1.15Zm0,14.48c0-.64-.52-1.15-1.15-1.15-.22,0-.41.08-.58.18v1.94c.17.1.36.18.58.18.64,0,1.15-.52,1.15-1.15Zm0,4.83c0-.64-.52-1.15-1.15-1.15-.22,0-.41.08-.58.18v1.94c.17.1.36.18.58.18.64,0,1.15-.52,1.15-1.15Zm0-14.48c0-.64-.52-1.15-1.15-1.15-.22,0-.41.08-.58.18v1.94c.17.1.36.18.58.18.64,0,1.15-.52,1.15-1.15Zm0,4.83c0-.64-.52-1.15-1.15-1.15-.22,0-.41.08-.58.18v1.94c.17.1.36.18.58.18.64,0,1.15-.52,1.15-1.15Zm0,24.13c0-.64-.52-1.15-1.15-1.15-.22,0-.41.08-.58.18v1.94c.17.1.36.18.58.18.64,0,1.15-.52,1.15-1.15Zm0-9.65c0-.64-.52-1.15-1.15-1.15-.22,0-.41.08-.58.18v1.94c.17.1.36.18.58.18.64,0,1.15-.52,1.15-1.15Zm0,4.83c0-.64-.52-1.15-1.15-1.15-.22,0-.41.08-.58.18v1.94c.17.1.36.18.58.18.64,0,1.15-.52,1.15-1.15Zm-1.65,30.81s-.06,0-.08,0v3.6s.05,0,.08,0c1,0,1.81-.81,1.81-1.81s-.81-1.81-1.81-1.81Zm1.65-21.15c0-.64-.52-1.15-1.15-1.15-.22,0-.41.08-.58.18v1.94c.17.1.36.18.58.18.64,0,1.15-.52,1.15-1.15Zm-1.65,59.76s-.06,0-.08,0v3.6s.05,0,.08,0c1,0,1.81-.81,1.81-1.81s-.81-1.81-1.81-1.81Zm1.65-103.2c0-.64-.52-1.15-1.15-1.15-.22,0-.41.08-.58.18v1.94c.17.1.36.18.58.18.64,0,1.15-.52,1.15-1.15Zm-1.65,108.03s-.06,0-.08,0v3.6s.05,0,.08,0c1,0,1.81-.81,1.81-1.81s-.81-1.81-1.81-1.81Zm1.65-112.85c0-.64-.52-1.15-1.15-1.15-.22,0-.41.08-.58.18v1.94c.17.1.36.18.58.18.64,0,1.15-.52,1.15-1.15Zm0-4.83c0-.64-.52-1.15-1.15-1.15-.22,0-.41.08-.58.18v1.94c.17.1.36.18.58.18.64,0,1.15-.52,1.15-1.15Zm0-4.83c0-.64-.52-1.15-1.15-1.15-.22,0-.41.08-.58.18v1.94c.17.1.36.18.58.18.64,0,1.15-.52,1.15-1.15Zm66.42,10.2c.3,0,.55-.25.55-.55s-.25-.55-.55-.55-.55.25-.55.55.25.55.55.55Zm0,4.83c.3,0,.55-.25.55-.55s-.25-.55-.55-.55-.55.25-.55.55.25.55.55.55Zm-66.42,47.71c0-.64-.52-1.15-1.15-1.15-.22,0-.41.08-.58.18v1.94c.17.1.36.18.58.18.64,0,1.15-.52,1.15-1.15Zm66.42-42.89c.3,0,.55-.25.55-.55s-.25-.55-.55-.55-.55.25-.55.55.25.55.55.55Zm0,19.3c.3,0,.55-.25.55-.55s-.25-.55-.55-.55-.55.25-.55.55.25.55.55.55Zm0-4.83c.3,0,.55-.25.55-.55s-.25-.55-.55-.55-.55.25-.55.55.25.55.55.55Zm0-9.65c.3,0,.55-.25.55-.55s-.25-.55-.55-.55-.55.25-.55.55.25.55.55.55Zm0,4.83c.3,0,.55-.25.55-.55s-.25-.55-.55-.55-.55.25-.55.55.25.55.55.55Zm0-24.13c.3,0,.55-.25.55-.55s-.25-.55-.55-.55-.55.25-.55.55.25.55.55.55Zm57.42,77.38c-1.02,0-1.91.51-2.44,1.3-.52-.76-1.4-1.26-2.39-1.26s-1.93.54-2.44,1.35c-.51-.78-1.38-1.29-2.38-1.29s-1.94.56-2.44,1.39c-.24-.39-.57-.72-.97-.95.83-.49,1.39-1.38,1.39-2.41,0-1.55-1.26-2.81-2.81-2.81-1.05,0-1.95.58-2.44,1.43-.48-.83-1.36-1.39-2.39-1.39s-1.97.6-2.44,1.48c-.46-.85-1.35-1.44-2.39-1.44s-2,.63-2.44,1.53c-.21-.41-.5-.76-.88-1.02.71-.48,1.18-1.29,1.18-2.22,0-1.48-1.2-2.68-2.68-2.68-1.08,0-2.01.64-2.43,1.56-.42-.91-1.33-1.54-2.4-1.54s-2.04.67-2.44,1.62c-.4-.92-1.31-1.57-2.38-1.57-1.13,0-2.09.73-2.44,1.74-.35-.98-1.28-1.69-2.39-1.69-1.16,0-2.13.78-2.43,1.85-.3-1.04-1.25-1.81-2.39-1.81s-2.18.83-2.43,1.94c-.25-1.09-1.23-1.9-2.39-1.9-1.26,0-2.29.95-2.43,2.17-.15-1.2-1.16-2.13-2.39-2.13-1.34,0-2.42,1.08-2.42,2.42,0,.99.6,1.84,1.45,2.22-.85.38-1.45,1.22-1.45,2.22,0,1.31,1.04,2.36,2.33,2.41-1.29.05-2.33,1.11-2.33,2.41s1.04,2.36,2.33,2.41c-1.29.05-2.33,1.11-2.33,2.41s1.04,2.36,2.33,2.41c-1.29.05-2.33,1.11-2.33,2.41s1.04,2.36,2.33,2.41c-1.29.05-2.33,1.11-2.33,2.41s1.04,2.36,2.33,2.41c-1.29.05-2.33,1.11-2.33,2.41s1.08,2.42,2.42,2.42c1.24,0,2.25-.93,2.39-2.13.15,1.22,1.17,2.17,2.43,2.17,1.36,0,2.46-1.1,2.46-2.46,0-1.19-.85-2.19-1.97-2.41.94-.19,1.68-.92,1.9-1.85.26,1.11,1.25,1.94,2.43,1.94s2.09-.77,2.39-1.81c.3,1.06,1.27,1.85,2.43,1.85,1.4,0,2.54-1.14,2.54-2.54,0-1.14-.75-2.09-1.78-2.41.76-.24,1.35-.82,1.62-1.56.35,1.01,1.31,1.74,2.44,1.74,1.07,0,1.98-.65,2.38-1.57.4.95,1.34,1.62,2.44,1.62s1.98-.63,2.4-1.54c.42.92,1.35,1.57,2.43,1.57,1.48,0,2.68-1.2,2.68-2.68,0-1.07-.63-1.98-1.54-2.41.54-.26.98-.68,1.24-1.22.44.91,1.37,1.53,2.44,1.53s1.93-.59,2.39-1.44c.47.87,1.38,1.48,2.44,1.48s1.91-.56,2.39-1.39c.48.85,1.39,1.43,2.44,1.43s1.9-.54,2.39-1.35c.5.83,1.4,1.39,2.44,1.39,1.57,0,2.85-1.28,2.85-2.85,0-1.02-.54-1.91-1.35-2.41.35-.22.65-.51.88-.85.52.81,1.41,1.35,2.44,1.35s1.86-.5,2.39-1.26c.53.78,1.42,1.3,2.44,1.3,1.63,0,2.94-1.32,2.94-2.94s-1.32-2.94-2.94-2.94Zm-55.52-6.02c.1.85.63,1.57,1.38,1.92-.74.36-1.27,1.07-1.38,1.92-.1-.86-.65-1.59-1.42-1.92.77-.34,1.32-1.06,1.42-1.92Zm0,27.98c-.14-1.17-1.11-2.08-2.3-2.12,1.2-.05,2.16-.95,2.3-2.12.13,1.06.91,1.91,1.94,2.12-1.03.21-1.82,1.06-1.94,2.12Zm-2.3-6.95c1.19-.05,2.16-.95,2.3-2.12.13,1.06.91,1.91,1.94,2.12-1.03.21-1.82,1.06-1.94,2.12-.14-1.17-1.11-2.08-2.3-2.12Zm2.3-2.71c-.14-1.17-1.11-2.08-2.3-2.12,1.2-.05,2.16-.95,2.3-2.12.13,1.06.91,1.91,1.94,2.12-1.03.21-1.82,1.06-1.94,2.12Zm0-4.83c-.14-1.17-1.11-2.08-2.3-2.12,1.19-.05,2.16-.95,2.3-2.12.13,1.06.91,1.91,1.94,2.12-1.03.21-1.82,1.06-1.94,2.12Zm0-4.83c-.14-1.17-1.11-2.08-2.3-2.12,1.2-.05,2.16-.95,2.3-2.12.13,1.06.91,1.91,1.94,2.12-1.03.21-1.82,1.06-1.94,2.12Zm4.83-8.4c.17.72.65,1.32,1.29,1.65-.64.33-1.13.93-1.29,1.65-.17-.73-.67-1.34-1.34-1.65.66-.32,1.16-.92,1.34-1.65Zm0,22.61c-.22-.93-.96-1.66-1.9-1.85.94-.19,1.68-.92,1.9-1.85.21.91.91,1.62,1.81,1.85-.9.23-1.6.95-1.81,1.85Zm0-4.83c-.22-.93-.96-1.66-1.9-1.85.94-.19,1.68-.92,1.9-1.85.21.91.91,1.62,1.81,1.85-.9.23-1.6.95-1.81,1.85Zm0-4.83c-.22-.93-.96-1.66-1.9-1.85.94-.19,1.68-.92,1.9-1.85.21.91.91,1.62,1.81,1.85-.9.23-1.6.95-1.81,1.85Zm0-4.83c-.22-.93-.96-1.66-1.9-1.85.94-.19,1.69-.92,1.9-1.85.21.91.91,1.62,1.81,1.85-.9.23-1.6.95-1.81,1.85Zm4.83-8c.19.65.63,1.2,1.21,1.52-.58.32-1.02.86-1.21,1.52-.19-.66-.65-1.21-1.25-1.52.6-.31,1.06-.86,1.25-1.52Zm0,22.34c-.25-.84-.91-1.49-1.76-1.72.85-.22,1.52-.88,1.76-1.72.23.82.86,1.46,1.67,1.72-.81.26-1.44.9-1.67,1.72Zm0-4.83c-.25-.84-.91-1.49-1.76-1.72.85-.22,1.52-.88,1.76-1.72.23.82.86,1.46,1.67,1.72-.81.26-1.44.9-1.67,1.72Zm0-4.83c-.25-.84-.91-1.49-1.76-1.72.85-.22,1.52-.88,1.76-1.72.23.82.86,1.46,1.67,1.72-.81.26-1.44.9-1.67,1.72Zm0-4.83c-.25-.84-.91-1.49-1.76-1.72.85-.22,1.52-.88,1.76-1.72.23.82.86,1.46,1.67,1.72-.81.26-1.44.9-1.67,1.72Zm4.82-7.71c.2.57.59,1.05,1.1,1.36-.51.31-.9.79-1.1,1.36-.21-.58-.62-1.06-1.16-1.36.54-.3.95-.78,1.16-1.36Zm0,17.2c-.27-.74-.87-1.32-1.62-1.56.76-.24,1.35-.82,1.62-1.56.25.71.8,1.28,1.5,1.56-.7.27-1.25.85-1.5,1.56Zm-1.62-6.39c.76-.24,1.35-.82,1.62-1.56.25.71.8,1.28,1.5,1.56-.7.27-1.25.85-1.5,1.56-.27-.74-.87-1.32-1.62-1.56Zm1.62-3.27c-.27-.74-.87-1.32-1.62-1.56.76-.24,1.35-.82,1.62-1.56.25.71.8,1.28,1.5,1.56-.7.27-1.25.85-1.5,1.56Zm4.82-7.38c.21.49.56.9,1,1.19-.44.29-.79.7-1,1.19-.22-.5-.59-.91-1.05-1.19.46-.28.83-.69,1.05-1.19Zm0,4.43c.26.62.75,1.11,1.36,1.39-.61.27-1.1.77-1.36,1.39-.27-.63-.79-1.13-1.44-1.39.65-.25,1.17-.75,1.44-1.39Zm1.36,6.21c-.61.27-1.1.77-1.36,1.39-.27-.63-.79-1.13-1.44-1.39.65-.25,1.17-.75,1.44-1.39.26.62.75,1.11,1.36,1.39Zm-1.36,6.21c-.27-.63-.79-1.13-1.44-1.39.65-.25,1.17-.75,1.44-1.39.26.62.75,1.11,1.36,1.39-.61.27-1.1.77-1.36,1.39Zm4.84-16.77c.21.45.52.83.93,1.1-.4.27-.72.66-.93,1.1-.21-.45-.54-.83-.95-1.1.41-.27.74-.65.95-1.1Zm0,16.69c-.27-.58-.73-1.04-1.31-1.3.58-.26,1.05-.72,1.31-1.3.26.57.72,1.03,1.29,1.3-.57.27-1.03.73-1.29,1.3Zm0-4.83c-.27-.58-.73-1.04-1.31-1.3.58-.26,1.05-.72,1.31-1.3.26.57.72,1.03,1.29,1.3-.57.27-1.03.73-1.29,1.3Zm0-4.83c-.27-.58-.73-1.04-1.31-1.3.58-.26,1.05-.72,1.31-1.3.26.57.72,1.03,1.29,1.3-.57.27-1.03.73-1.29,1.3Zm4.81,4.74c-.27-.53-.7-.96-1.24-1.22.54-.26.98-.68,1.24-1.22.26.52.67.95,1.19,1.22-.52.27-.93.69-1.19,1.22Zm0-4.83c-.27-.53-.7-.96-1.24-1.22.54-.26.98-.68,1.24-1.22.26.52.68.95,1.19,1.22-.52.27-.94.69-1.19,1.22Zm4.83,4.73c-.26-.48-.65-.87-1.14-1.12.48-.25.88-.64,1.14-1.12.25.47.63.86,1.1,1.12-.47.26-.85.65-1.1,1.12Zm0-4.83c-.26-.48-.65-.87-1.14-1.12.48-.25.88-.64,1.14-1.12.25.47.63.86,1.1,1.12-.47.26-.85.65-1.1,1.12Zm4.83,4.74c-.25-.44-.61-.79-1.06-1.04.44-.24.8-.6,1.06-1.04.24.43.59.79,1.02,1.04-.42.25-.77.61-1.02,1.04Zm0-4.83c-.25-.44-.61-.79-1.06-1.04.44-.24.8-.6,1.06-1.04.24.43.59.79,1.02,1.04-.42.25-.77.61-1.02,1.04Zm4.83,4.74c-.24-.39-.57-.72-.97-.95.4-.23.73-.56.97-.95.23.39.55.71.93.95-.38.24-.7.57-.93.95Zm-111.74-11.85c0-.64-.52-1.15-1.15-1.15-.22,0-.41.08-.58.18v1.94c.17.1.36.18.58.18.64,0,1.15-.52,1.15-1.15Zm0-9.65c0-.64-.52-1.15-1.15-1.15-.22,0-.41.08-.58.18v1.94c.17.1.36.18.58.18.64,0,1.15-.52,1.15-1.15Zm0,4.83c0-.64-.52-1.15-1.15-1.15-.22,0-.41.08-.58.18v1.94c.17.1.36.18.58.18.64,0,1.15-.52,1.15-1.15Zm3.67,1.12c.62,0,1.12-.5,1.12-1.12s-.5-1.12-1.12-1.12-1.12.5-1.12,1.12.5,1.12,1.12,1.12Zm-3.67-78.34c0-.64-.52-1.15-1.15-1.15-.22,0-.41.08-.58.18v1.94c.17.1.36.18.58.18.64,0,1.15-.52,1.15-1.15Zm3.67,83.17c.62,0,1.12-.5,1.12-1.12s-.5-1.12-1.12-1.12-1.12.5-1.12,1.12.5,1.12,1.12,1.12Zm111-10.66c.07,0,.12-.05.12-.12s-.05-.12-.12-.12-.12.05-.12.12.05.12.12.12Zm-96.52-18.45c.54,0,.98-.44.98-.98s-.44-.98-.98-.98-.98.44-.98.98.44.98.98.98Zm0,4.83c.54,0,.98-.44.98-.98s-.44-.98-.98-.98-.98.44-.98.98.44.98.98.98Zm0-9.65c.54,0,.98-.44.98-.98s-.44-.98-.98-.98-.98.44-.98.98.44.98.98.98Zm0,14.48c.54,0,.98-.44.98-.98s-.44-.98-.98-.98-.98.44-.98.98.44.98.98.98Zm0-19.3c.54,0,.98-.44.98-.98s-.44-.98-.98-.98-.98.44-.98.98.44.98.98.98Zm0,24.13c.54,0,.98-.44.98-.98s-.44-.98-.98-.98-.98.44-.98.98.44.98.98.98Zm0,9.65c.54,0,.98-.44.98-.98s-.44-.98-.98-.98-.98.44-.98.98.44.98.98.98Zm0,4.83c.54,0,.98-.44.98-.98s-.44-.98-.98-.98-.98.44-.98.98.44.98.98.98Zm0-9.65c.54,0,.98-.44.98-.98s-.44-.98-.98-.98-.98.44-.98.98.44.98.98.98Zm0-53.09c.54,0,.98-.44.98-.98s-.44-.98-.98-.98-.98.44-.98.98.44.98.98.98Zm0-4.83c.54,0,.98-.44.98-.98s-.44-.98-.98-.98-.98.44-.98.98.44.98.98.98Zm0,24.13c.54,0,.98-.44.98-.98s-.44-.98-.98-.98-.98.44-.98.98.44.98.98.98Zm0-28.96c.54,0,.98-.44.98-.98s-.44-.98-.98-.98-.98.44-.98.98.44.98.98.98Zm0,24.13c.54,0,.98-.44.98-.98s-.44-.98-.98-.98-.98.44-.98.98.44.98.98.98Zm0-9.65c.54,0,.98-.44.98-.98s-.44-.98-.98-.98-.98.44-.98.98.44.98.98.98Zm0,4.83c.54,0,.98-.44.98-.98s-.44-.98-.98-.98-.98.44-.98.98.44.98.98.98Zm-4.83-9.6c.57,0,1.03-.46,1.03-1.03s-.46-1.03-1.03-1.03-1.03.46-1.03,1.03.46,1.03,1.03,1.03Zm-.5,68.25c-1.07,0-1.94.87-1.94,1.94s.87,1.94,1.94,1.94,1.94-.87,1.94-1.94-.87-1.94-1.94-1.94Zm.5-63.43c.57,0,1.03-.46,1.03-1.03s-.46-1.03-1.03-1.03-1.03.46-1.03,1.03.46,1.03,1.03,1.03Zm0-28.96c.57,0,1.03-.46,1.03-1.03s-.46-1.03-1.03-1.03-1.03.46-1.03,1.03.46,1.03,1.03,1.03Zm-.5,126.17c-1.07,0-1.94.87-1.94,1.94s.87,1.94,1.94,1.94,1.94-.87,1.94-1.94-.87-1.94-1.94-1.94Zm.5-121.34c.57,0,1.03-.46,1.03-1.03s-.46-1.03-1.03-1.03-1.03.46-1.03,1.03.46,1.03,1.03,1.03Zm4.83,4.77c.54,0,.98-.44.98-.98s-.44-.98-.98-.98-.98.44-.98.98.44.98.98.98Zm-4.83,4.88c.57,0,1.03-.46,1.03-1.03s-.46-1.03-1.03-1.03-1.03.46-1.03,1.03.46,1.03,1.03,1.03Zm0,4.83c.57,0,1.03-.46,1.03-1.03s-.46-1.03-1.03-1.03-1.03.46-1.03,1.03.46,1.03,1.03,1.03Zm-.5,68.25c-1.07,0-1.94.87-1.94,1.94s.87,1.94,1.94,1.94,1.94-.87,1.94-1.94-.87-1.94-1.94-1.94Zm0,33.78c-1.07,0-1.94.87-1.94,1.94s.87,1.94,1.94,1.94,1.94-.87,1.94-1.94-.87-1.94-1.94-1.94Zm0-4.83c-1.07,0-1.94.87-1.94,1.94s.87,1.94,1.94,1.94,1.94-.87,1.94-1.94-.87-1.94-1.94-1.94Zm0-19.3c-1.07,0-1.94.87-1.94,1.94s.87,1.94,1.94,1.94,1.94-.87,1.94-1.94-.87-1.94-1.94-1.94Zm0,33.78c-1.07,0-1.94.87-1.94,1.94s.87,1.94,1.94,1.94,1.94-.87,1.94-1.94-.87-1.94-1.94-1.94Zm0-28.96c-1.07,0-1.94.87-1.94,1.94s.87,1.94,1.94,1.94,1.94-.87,1.94-1.94-.87-1.94-1.94-1.94Zm0,9.65c-1.07,0-1.94.87-1.94,1.94s.87,1.94,1.94,1.94,1.94-.87,1.94-1.94-.87-1.94-1.94-1.94Zm0-4.83c-1.07,0-1.94.87-1.94,1.94s.87,1.94,1.94,1.94,1.94-.87,1.94-1.94-.87-1.94-1.94-1.94Zm.5-97.21c.57,0,1.03-.46,1.03-1.03s-.46-1.03-1.03-1.03-1.03.46-1.03,1.03.46,1.03,1.03,1.03Zm9.65,33.7c.52,0,.95-.43.95-.95s-.43-.95-.95-.95-.95.43-.95.95.43.95.95.95Zm0,4.83c.52,0,.95-.43.95-.95s-.43-.95-.95-.95-.95.43-.95.95.43.95.95.95Zm0-9.65c.52,0,.95-.43.95-.95s-.43-.95-.95-.95-.95.43-.95.95.43.95.95.95Zm0-4.83c.52,0,.95-.43.95-.95s-.43-.95-.95-.95-.95.43-.95.95.43.95.95.95Zm0,38.61c.52,0,.95-.43.95-.95s-.43-.95-.95-.95-.95.43-.95.95.43.95.95.95Zm0-14.48c.52,0,.95-.43.95-.95s-.43-.95-.95-.95-.95.43-.95.95.43.95.95.95Zm0,9.65c.52,0,.95-.43.95-.95s-.43-.95-.95-.95-.95.43-.95.95.43.95.95.95Zm0-4.83c.52,0,.95-.43.95-.95s-.43-.95-.95-.95-.95.43-.95.95.43.95.95.95Zm0-9.65c.52,0,.95-.43.95-.95s-.43-.95-.95-.95-.95.43-.95.95.43.95.95.95Zm0-48.26c.52,0,.95-.43.95-.95s-.43-.95-.95-.95-.95.43-.95.95.43.95.95.95Zm0,4.83c.52,0,.95-.43.95-.95s-.43-.95-.95-.95-.95.43-.95.95.43.95.95.95Zm0-14.48c.52,0,.95-.43.95-.95s-.43-.95-.95-.95-.95.43-.95.95.43.95.95.95Zm0,4.83c.52,0,.95-.43.95-.95s-.43-.95-.95-.95-.95.43-.95.95.43.95.95.95Zm0,24.13c.52,0,.95-.43.95-.95s-.43-.95-.95-.95-.95.43-.95.95.43.95.95.95Zm0-4.83c.52,0,.95-.43.95-.95s-.43-.95-.95-.95-.95.43-.95.95.43.95.95.95Zm0-4.83c.52,0,.95-.43.95-.95s-.43-.95-.95-.95-.95.43-.95.95.43.95.95.95Zm0,62.74c.52,0,.95-.43.95-.95s-.43-.95-.95-.95-.95.43-.95.95.43.95.95.95Zm-5.32,15.2c-1.09,0-1.98.89-1.98,1.98s.89,1.98,1.98,1.98,1.98-.89,1.98-1.98-.89-1.98-1.98-1.98Zm0,4.83c-1.09,0-1.98.89-1.98,1.98s.89,1.98,1.98,1.98,1.98-.89,1.98-1.98-.89-1.98-1.98-1.98Zm0,4.83c-1.09,0-1.98.89-1.98,1.98s.89,1.98,1.98,1.98,1.98-.89,1.98-1.98-.89-1.98-1.98-1.98Zm0,4.83c-1.09,0-1.98.89-1.98,1.98s.89,1.98,1.98,1.98,1.98-.89,1.98-1.98-.89-1.98-1.98-1.98Zm0-19.3c-1.09,0-1.98.89-1.98,1.98s.89,1.98,1.98,1.98,1.98-.89,1.98-1.98-.89-1.98-1.98-1.98Zm.5-92.4c.54,0,.98-.44.98-.98s-.44-.98-.98-.98-.98.44-.98.98.44.98.98.98Zm0,4.83c.54,0,.98-.44.98-.98s-.44-.98-.98-.98-.98.44-.98.98.44.98.98.98Zm4.83,82.02c.52,0,.95-.43.95-.95s-.43-.95-.95-.95-.95.43-.95.95.43.95.95.95Zm0,4.83c.52,0,.95-.43.95-.95s-.43-.95-.95-.95-.95.43-.95.95.43.95.95.95Zm-5.32,39.33c-1.09,0-1.98.89-1.98,1.98s.89,1.98,1.98,1.98,1.98-.89,1.98-1.98-.89-1.98-1.98-1.98Zm.5-121.35c.54,0,.98-.44.98-.98s-.44-.98-.98-.98-.98.44-.98.98.44.98.98.98Zm-.5,116.53c-1.09,0-1.98.89-1.98,1.98s.89,1.98,1.98,1.98,1.98-.89,1.98-1.98-.89-1.98-1.98-1.98Zm0,9.65c-1.09,0-1.98.89-1.98,1.98s.89,1.98,1.98,1.98,1.98-.89,1.98-1.98-.89-1.98-1.98-1.98Zm0-14.48c-1.09,0-1.98.89-1.98,1.98s.89,1.98,1.98,1.98,1.98-.89,1.98-1.98-.89-1.98-1.98-1.98Zm0-4.83c-1.09,0-1.98.89-1.98,1.98s.89,1.98,1.98,1.98,1.98-.89,1.98-1.98-.89-1.98-1.98-1.98Zm5.32-82.77c.52,0,.95-.43.95-.95s-.43-.95-.95-.95-.95.43-.95.95.43.95.95.95Zm-19.8,87.72c-1.03,0-1.86.83-1.86,1.86s.83,1.86,1.86,1.86,1.86-.83,1.86-1.86-.83-1.86-1.86-1.86Zm0,4.83c-1.03,0-1.86.83-1.86,1.86s.83,1.86,1.86,1.86,1.86-.83,1.86-1.86-.83-1.86-1.86-1.86Zm0-9.65c-1.03,0-1.86.83-1.86,1.86s.83,1.86,1.86,1.86,1.86-.83,1.86-1.86-.83-1.86-1.86-1.86Zm0,14.48c-1.03,0-1.86.83-1.86,1.86s.83,1.86,1.86,1.86,1.86-.83,1.86-1.86-.83-1.86-1.86-1.86Zm0,4.83c-1.03,0-1.86.83-1.86,1.86s.83,1.86,1.86,1.86,1.86-.83,1.86-1.86-.83-1.86-1.86-1.86Zm0-24.13c-1.03,0-1.86.83-1.86,1.86s.83,1.86,1.86,1.86,1.86-.83,1.86-1.86-.83-1.86-1.86-1.86Zm0-9.65c-1.03,0-1.86.83-1.86,1.86s.83,1.86,1.86,1.86,1.86-.83,1.86-1.86-.83-1.86-1.86-1.86Zm0,4.83c-1.03,0-1.86.83-1.86,1.86s.83,1.86,1.86,1.86,1.86-.83,1.86-1.86-.83-1.86-1.86-1.86Zm5.32-29.68c.59,0,1.07-.48,1.07-1.07s-.48-1.07-1.07-1.07-1.07.48-1.07,1.07.48,1.07,1.07,1.07Zm0-4.83c.59,0,1.07-.48,1.07-1.07s-.48-1.07-1.07-1.07-1.07.48-1.07,1.07.48,1.07,1.07,1.07Zm0-4.83c.59,0,1.07-.48,1.07-1.07s-.48-1.07-1.07-1.07-1.07.48-1.07,1.07.48,1.07,1.07,1.07Zm0,24.13c.59,0,1.07-.48,1.07-1.07s-.48-1.07-1.07-1.07-1.07.48-1.07,1.07.48,1.07,1.07,1.07Zm0-28.96c.59,0,1.07-.48,1.07-1.07s-.48-1.07-1.07-1.07-1.07.48-1.07,1.07.48,1.07,1.07,1.07Zm0,24.13c.59,0,1.07-.48,1.07-1.07s-.48-1.07-1.07-1.07-1.07.48-1.07,1.07.48,1.07,1.07,1.07Zm-5.32,10.38c-1.03,0-1.86.83-1.86,1.86s.83,1.86,1.86,1.86,1.86-.83,1.86-1.86-.83-1.86-1.86-1.86Zm5.32-15.2c.59,0,1.07-.48,1.07-1.07s-.48-1.07-1.07-1.07-1.07.48-1.07,1.07.48,1.07,1.07,1.07Zm-4.83-48.21c.62,0,1.12-.5,1.12-1.12s-.5-1.12-1.12-1.12-1.12.5-1.12,1.12.5,1.12,1.12,1.12Zm0,19.3c.62,0,1.12-.5,1.12-1.12s-.5-1.12-1.12-1.12-1.12.5-1.12,1.12.5,1.12,1.12,1.12Zm0,4.83c.62,0,1.12-.5,1.12-1.12s-.5-1.12-1.12-1.12-1.12.5-1.12,1.12.5,1.12,1.12,1.12Zm0-14.48c.62,0,1.12-.5,1.12-1.12s-.5-1.12-1.12-1.12-1.12.5-1.12,1.12.5,1.12,1.12,1.12Zm-.5,48.93c-1.03,0-1.86.83-1.86,1.86s.83,1.86,1.86,1.86,1.86-.83,1.86-1.86-.83-1.86-1.86-1.86Zm.5-44.11c.62,0,1.12-.5,1.12-1.12s-.5-1.12-1.12-1.12-1.12.5-1.12,1.12.5,1.12,1.12,1.12Zm0,19.3c.62,0,1.12-.5,1.12-1.12s-.5-1.12-1.12-1.12-1.12.5-1.12,1.12.5,1.12,1.12,1.12Zm0,9.65c.62,0,1.12-.5,1.12-1.12s-.5-1.12-1.12-1.12-1.12.5-1.12,1.12.5,1.12,1.12,1.12Zm0-4.83c.62,0,1.12-.5,1.12-1.12s-.5-1.12-1.12-1.12-1.12.5-1.12,1.12.5,1.12,1.12,1.12Zm9.65-33.88c.57,0,1.03-.46,1.03-1.03s-.46-1.03-1.03-1.03-1.03.46-1.03,1.03.46,1.03,1.03,1.03Zm-9.65.09c.62,0,1.12-.5,1.12-1.12s-.5-1.12-1.12-1.12-1.12.5-1.12,1.12.5,1.12,1.12,1.12Zm0-24.13c.62,0,1.12-.5,1.12-1.12s-.5-1.12-1.12-1.12-1.12.5-1.12,1.12.5,1.12,1.12,1.12Zm0,4.83c.62,0,1.12-.5,1.12-1.12s-.5-1.12-1.12-1.12-1.12.5-1.12,1.12.5,1.12,1.12,1.12Zm0-9.65c.62,0,1.12-.5,1.12-1.12s-.5-1.12-1.12-1.12-1.12.5-1.12,1.12.5,1.12,1.12,1.12Zm4.83,48.21c.59,0,1.07-.48,1.07-1.07s-.48-1.07-1.07-1.07-1.07.48-1.07,1.07.48,1.07,1.07,1.07Zm-4.83-28.9c.62,0,1.12-.5,1.12-1.12s-.5-1.12-1.12-1.12-1.12.5-1.12,1.12.5,1.12,1.12,1.12Zm0-4.83c.62,0,1.12-.5,1.12-1.12s-.5-1.12-1.12-1.12-1.12.5-1.12,1.12.5,1.12,1.12,1.12Zm0,38.61c.62,0,1.12-.5,1.12-1.12s-.5-1.12-1.12-1.12-1.12.5-1.12,1.12.5,1.12,1.12,1.12Zm4.83-9.71c.59,0,1.07-.48,1.07-1.07s-.48-1.07-1.07-1.07-1.07.48-1.07,1.07.48,1.07,1.07,1.07Zm-.5,77.92c-1.04,0-1.89.85-1.89,1.89s.84,1.89,1.89,1.89,1.89-.85,1.89-1.89-.84-1.89-1.89-1.89Zm5.32-44.17c.57,0,1.03-.46,1.03-1.03s-.46-1.03-1.03-1.03-1.03.46-1.03,1.03.46,1.03,1.03,1.03Zm0-4.83c.57,0,1.03-.46,1.03-1.03s-.46-1.03-1.03-1.03-1.03.46-1.03,1.03.46,1.03,1.03,1.03Zm0-4.83c.57,0,1.03-.46,1.03-1.03s-.46-1.03-1.03-1.03-1.03.46-1.03,1.03.46,1.03,1.03,1.03Zm-5.32,44.17c-1.04,0-1.89.85-1.89,1.89s.84,1.89,1.89,1.89,1.89-.85,1.89-1.89-.84-1.89-1.89-1.89Zm0,14.48c-1.04,0-1.89.84-1.89,1.89s.84,1.89,1.89,1.89,1.89-.84,1.89-1.89-.84-1.89-1.89-1.89Zm0-9.65c-1.04,0-1.89.84-1.89,1.89s.84,1.89,1.89,1.89,1.89-.84,1.89-1.89-.84-1.89-1.89-1.89Zm0-9.65c-1.04,0-1.89.84-1.89,1.89s.84,1.89,1.89,1.89,1.89-.84,1.89-1.89-.84-1.89-1.89-1.89Zm5.32-44.17c.57,0,1.03-.46,1.03-1.03s-.46-1.03-1.03-1.03-1.03.46-1.03,1.03.46,1.03,1.03,1.03Zm0-19.3c.57,0,1.03-.46,1.03-1.03s-.46-1.03-1.03-1.03-1.03.46-1.03,1.03.46,1.03,1.03,1.03Zm0-9.65c.57,0,1.03-.46,1.03-1.03s-.46-1.03-1.03-1.03-1.03.46-1.03,1.03.46,1.03,1.03,1.03Zm0,4.83c.57,0,1.03-.46,1.03-1.03s-.46-1.03-1.03-1.03-1.03.46-1.03,1.03.46,1.03,1.03,1.03Zm0,19.3c.57,0,1.03-.46,1.03-1.03s-.46-1.03-1.03-1.03-1.03.46-1.03,1.03.46,1.03,1.03,1.03Zm0-9.65c.57,0,1.03-.46,1.03-1.03s-.46-1.03-1.03-1.03-1.03.46-1.03,1.03.46,1.03,1.03,1.03Zm0,4.83c.57,0,1.03-.46,1.03-1.03s-.46-1.03-1.03-1.03-1.03.46-1.03,1.03.46,1.03,1.03,1.03Zm0,28.96c.57,0,1.03-.46,1.03-1.03s-.46-1.03-1.03-1.03-1.03.46-1.03,1.03.46,1.03,1.03,1.03Zm-4.83-62.7c.59,0,1.07-.48,1.07-1.07s-.48-1.07-1.07-1.07-1.07.48-1.07,1.07.48,1.07,1.07,1.07Zm0-9.65c.59,0,1.07-.48,1.07-1.07s-.48-1.07-1.07-1.07-1.07.48-1.07,1.07.48,1.07,1.07,1.07Zm0,4.83c.59,0,1.07-.48,1.07-1.07s-.48-1.07-1.07-1.07-1.07.48-1.07,1.07.48,1.07,1.07,1.07Zm0,9.65c.59,0,1.07-.48,1.07-1.07s-.48-1.07-1.07-1.07-1.07.48-1.07,1.07.48,1.07,1.07,1.07Zm0,14.48c.59,0,1.07-.48,1.07-1.07s-.48-1.07-1.07-1.07-1.07.48-1.07,1.07.48,1.07,1.07,1.07Zm0-4.83c.59,0,1.07-.48,1.07-1.07s-.48-1.07-1.07-1.07-1.07.48-1.07,1.07.48,1.07,1.07,1.07Zm0-4.83c.59,0,1.07-.48,1.07-1.07s-.48-1.07-1.07-1.07-1.07.48-1.07,1.07.48,1.07,1.07,1.07Zm-.5,73.09c-1.04,0-1.89.85-1.89,1.89s.84,1.89,1.89,1.89,1.89-.85,1.89-1.89-.84-1.89-1.89-1.89Zm0-9.65c-1.04,0-1.89.84-1.89,1.89s.84,1.89,1.89,1.89,1.89-.84,1.89-1.89-.84-1.89-1.89-1.89Zm0,4.83c-1.04,0-1.89.84-1.89,1.89s.84,1.89,1.89,1.89,1.89-.84,1.89-1.89-.84-1.89-1.89-1.89Zm0-9.65c-1.04,0-1.89.84-1.89,1.89s.84,1.89,1.89,1.89,1.89-.84,1.89-1.89-.84-1.89-1.89-1.89Zm.5-87.57c.59,0,1.07-.48,1.07-1.07s-.48-1.07-1.07-1.07-1.07.48-1.07,1.07.48,1.07,1.07,1.07Zm0-4.83c.59,0,1.07-.48,1.07-1.07s-.48-1.07-1.07-1.07-1.07.48-1.07,1.07.48,1.07,1.07,1.07Zm-.5,87.57c-1.04,0-1.89.85-1.89,1.89s.84,1.89,1.89,1.89,1.89-.85,1.89-1.89-.84-1.89-1.89-1.89Zm.5-77.92c.59,0,1.07-.48,1.07-1.07s-.48-1.07-1.07-1.07-1.07.48-1.07,1.07.48,1.07,1.07,1.07Zm19.3,33.61c.5,0,.9-.4.9-.9s-.4-.9-.9-.9-.9.4-.9.9.4.9.9.9Zm9.65-43.52c.45,0,.82-.37.82-.82s-.37-.82-.82-.82-.82.37-.82.82.37.82.82.82Zm-.5,97.2c-1.2,0-2.17.97-2.17,2.17s.97,2.17,2.17,2.17,2.17-.97,2.17-2.17-.97-2.17-2.17-2.17Zm.5-92.37c.45,0,.82-.37.82-.82s-.37-.82-.82-.82-.82.37-.82.82.37.82.82.82Zm4.83,77.18c.43,0,.78-.35.78-.78s-.35-.78-.78-.78-.78.35-.78.78.35.78.78.78Zm-5.32,5.54c-1.2,0-2.17.97-2.17,2.17s.97,2.17,2.17,2.17,2.17-.97,2.17-2.17-.97-2.17-2.17-2.17Zm.5-68.24c.45,0,.82-.37.82-.82s-.37-.82-.82-.82-.82.37-.82.82.37.82.82.82Zm0-9.65c.45,0,.82-.37.82-.82s-.37-.82-.82-.82-.82.37-.82.82.37.82.82.82Zm0,4.83c.45,0,.82-.37.82-.82s-.37-.82-.82-.82-.82.37-.82.82.37.82.82.82Zm4.83,72.35c.43,0,.78-.35.78-.78s-.35-.78-.78-.78-.78.35-.78.78.35.78.78.78Zm-5.32,34.49c-1.2,0-2.17.97-2.17,2.17s.97,2.17,2.17,2.17,2.17-.97,2.17-2.17-.97-2.17-2.17-2.17Zm.5-97.2c.45,0,.82-.37.82-.82s-.37-.82-.82-.82-.82.37-.82.82.37.82.82.82Zm-.5,102.02c-1.2,0-2.17.97-2.17,2.17s.97,2.17,2.17,2.17,2.17-.97,2.17-2.17-.97-2.17-2.17-2.17Zm0-9.65c-1.2,0-2.17.97-2.17,2.17s.97,2.17,2.17,2.17,2.17-.97,2.17-2.17-.97-2.17-2.17-2.17Zm0-9.65c-1.2,0-2.17.97-2.17,2.17s.97,2.17,2.17,2.17,2.17-.97,2.17-2.17-.97-2.17-2.17-2.17Zm0-4.83c-1.2,0-2.17.97-2.17,2.17s.97,2.17,2.17,2.17,2.17-.97,2.17-2.17-.97-2.17-2.17-2.17Zm0,9.65c-1.2,0-2.17.97-2.17,2.17s.97,2.17,2.17,2.17,2.17-.97,2.17-2.17-.97-2.17-2.17-2.17Zm0-19.3c-1.2,0-2.17.97-2.17,2.17s.97,2.17,2.17,2.17,2.17-.97,2.17-2.17-.97-2.17-2.17-2.17Zm.5-10.32c.45,0,.82-.37.82-.82s-.37-.82-.82-.82-.82.37-.82.82.37.82.82.82Zm0,4.83c.45,0,.82-.37.82-.82s-.37-.82-.82-.82-.82.37-.82.82.37.82.82.82Zm0-9.65c.45,0,.82-.37.82-.82s-.37-.82-.82-.82-.82.37-.82.82.37.82.82.82Zm0-4.83c.45,0,.82-.37.82-.82s-.37-.82-.82-.82-.82.37-.82.82.37.82.82.82Zm-5.32,53.81c-1.17,0-2.11.95-2.11,2.11s.95,2.11,2.11,2.11,2.11-.95,2.11-2.11-.95-2.11-2.11-2.11Zm0,4.83c-1.17,0-2.11.95-2.11,2.11s.95,2.11,2.11,2.11,2.11-.95,2.11-2.11-.95-2.11-2.11-2.11Zm5.32-63.47c.45,0,.82-.37.82-.82s-.37-.82-.82-.82-.82.37-.82.82.37.82.82.82Zm0-72.39c.3,0,.55-.17.69-.41-.49-.18-.99-.36-1.48-.53,0,.04-.02.08-.02.12,0,.45.37.82.82.82Zm0,43.44c.45,0,.82-.37.82-.82s-.37-.82-.82-.82-.82.37-.82.82.37.82.82.82Zm0-9.65c.45,0,.82-.37.82-.82s-.37-.82-.82-.82-.82.37-.82.82.37.82.82.82Zm0,4.83c.45,0,.82-.37.82-.82s-.37-.82-.82-.82-.82.37-.82.82.37.82.82.82Zm0,9.65c.45,0,.82-.37.82-.82s-.37-.82-.82-.82-.82.37-.82.82.37.82.82.82Zm0,4.83c.45,0,.82-.37.82-.82s-.37-.82-.82-.82-.82.37-.82.82.37.82.82.82Zm0,14.48c.45,0,.82-.37.82-.82s-.37-.82-.82-.82-.82.37-.82.82.37.82.82.82Zm0-4.83c.45,0,.82-.37.82-.82s-.37-.82-.82-.82-.82.37-.82.82.37.82.82.82Zm0-4.83c.45,0,.82-.37.82-.82s-.37-.82-.82-.82-.82.37-.82.82.37.82.82.82Zm4.33,53.73c-1.21,0-2.19.98-2.19,2.19s.98,2.19,2.19,2.19,2.19-.98,2.19-2.19-.98-2.19-2.19-2.19Zm0,4.83c-1.21,0-2.19.98-2.19,2.19s.98,2.19,2.19,2.19,2.19-.98,2.19-2.19-.98-2.19-2.19-2.19Zm0,14.48c-1.21,0-2.19.98-2.19,2.19s.98,2.19,2.19,2.19,2.19-.98,2.19-2.19-.98-2.19-2.19-2.19Zm-9.65-4.75c-1.17,0-2.11.95-2.11,2.11s.95,2.11,2.11,2.11,2.11-.95,2.11-2.11-.95-2.11-2.11-2.11Zm9.65-4.91c-1.21,0-2.19.98-2.19,2.19s.98,2.19,2.19,2.19,2.19-.98,2.19-2.19-.98-2.19-2.19-2.19Zm0-14.48c-1.21,0-2.19.98-2.19,2.19s.98,2.19,2.19,2.19,2.19-.98,2.19-2.19-.98-2.19-2.19-2.19Zm0-14.48c-1.21,0-2.19.98-2.19,2.19s.98,2.19,2.19,2.19,2.19-.98,2.19-2.19-.98-2.19-2.19-2.19Zm0,9.65c-1.21,0-2.19.98-2.19,2.19s.98,2.19,2.19,2.19,2.19-.98,2.19-2.19-.98-2.19-2.19-2.19Zm0-4.83c-1.21,0-2.19.98-2.19,2.19s.98,2.19,2.19,2.19,2.19-.98,2.19-2.19-.98-2.19-2.19-2.19Zm0,28.96c-1.21,0-2.19.98-2.19,2.19s.98,2.19,2.19,2.19,2.19-.98,2.19-2.19-.98-2.19-2.19-2.19Zm5.32-53.83c.4,0,.72-.32.72-.72s-.32-.72-.72-.72-.72.32-.72.72.32.72.72.72Zm0-4.83c.4,0,.72-.32.72-.72s-.32-.72-.72-.72-.72.32-.72.72.32.72.72.72Zm-4.83,14.53c.43,0,.78-.35.78-.78s-.35-.78-.78-.78-.78.35-.78.78.35.78.78.78Zm0-72.39c.43,0,.78-.35.78-.78s-.35-.78-.78-.78-.78.35-.78.78.35.78.78.78Zm4.83,72.34c.4,0,.72-.32.72-.72s-.32-.72-.72-.72-.72.32-.72.72.32.72.72.72Zm0,9.65c.4,0,.72-.32.72-.72s-.32-.72-.72-.72-.72.32-.72.72.32.72.72.72Zm0-4.83c.4,0,.72-.32.72-.72s-.32-.72-.72-.72-.72.32-.72.72.32.72.72.72Zm0-9.65c.4,0,.72-.32.72-.72s-.32-.72-.72-.72-.72.32-.72.72.32.72.72.72Zm-4.83-19.25c.43,0,.78-.35.78-.78s-.35-.78-.78-.78-.78.35-.78.78.35.78.78.78Zm0-9.65c.43,0,.78-.35.78-.78s-.35-.78-.78-.78-.78.35-.78.78.35.78.78.78Zm0,4.83c.43,0,.78-.35.78-.78s-.35-.78-.78-.78-.78.35-.78.78.35.78.78.78Zm0,9.65c.43,0,.78-.35.78-.78s-.35-.78-.78-.78-.78.35-.78.78.35.78.78.78Zm0-57.91c.43,0,.78-.35.78-.78s-.35-.78-.78-.78-.78.35-.78.78.35.78.78.78Zm0,72.39c.43,0,.78-.35.78-.78s-.35-.78-.78-.78-.78.35-.78.78.35.78.78.78Zm0-4.83c.43,0,.78-.35.78-.78s-.35-.78-.78-.78-.78.35-.78.78.35.78.78.78Zm0-4.83c.43,0,.78-.35.78-.78s-.35-.78-.78-.78-.78.35-.78.78.35.78.78.78Zm0-43.44c.43,0,.78-.35.78-.78s-.35-.78-.78-.78-.78.35-.78.78.35.78.78.78Zm0,19.3c.43,0,.78-.35.78-.78s-.35-.78-.78-.78-.78.35-.78.78.35.78.78.78Zm0-28.96c.43,0,.78-.35.78-.78s-.35-.78-.78-.78-.78.35-.78.78.35.78.78.78Zm0,4.83c.43,0,.78-.35.78-.78s-.35-.78-.78-.78-.78.35-.78.78.35.78.78.78Zm0,9.65c.43,0,.78-.35.78-.78s-.35-.78-.78-.78-.78.35-.78.78.35.78.78.78Zm0,9.65c.43,0,.78-.35.78-.78s-.35-.78-.78-.78-.78.35-.78.78.35.78.78.78Zm0-4.83c.43,0,.78-.35.78-.78s-.35-.78-.78-.78-.78.35-.78.78.35.78.78.78Zm-9.65-9.57c.47,0,.86-.38.86-.86s-.38-.86-.86-.86-.86.38-.86.86.38.86.86.86Zm-4.83-4.79c.5,0,.9-.4.9-.9s-.4-.9-.9-.9-.9.4-.9.9.4.9.9.9Zm0,38.61c.5,0,.9-.4.9-.9s-.4-.9-.9-.9-.9.4-.9.9.4.9.9.9Zm0-24.13c.5,0,.9-.4.9-.9s-.4-.9-.9-.9-.9.4-.9.9.4.9.9.9Zm0-9.65c.5,0,.9-.4.9-.9s-.4-.9-.9-.9-.9.4-.9.9.4.9.9.9Zm0,14.48c.5,0,.9-.4.9-.9s-.4-.9-.9-.9-.9.4-.9.9.4.9.9.9Zm0,4.83c.5,0,.9-.4.9-.9s-.4-.9-.9-.9-.9.4-.9.9.4.9.9.9Zm0,9.65c.5,0,.9-.4.9-.9s-.4-.9-.9-.9-.9.4-.9.9.4.9.9.9Zm19.31,9.48c.4,0,.72-.32.72-.72s-.32-.72-.72-.72-.72.32-.72.72.32.72.72.72Zm-19.31-33.61c.5,0,.9-.4.9-.9s-.4-.9-.9-.9-.9.4-.9.9.4.9.9.9Zm-.5,63.44c-1.14,0-2.06.92-2.06,2.06s.92,2.06,2.06,2.06,2.06-.92,2.06-2.06-.92-2.06-2.06-2.06Zm.5-77.92c.5,0,.9-.4.9-.9s-.4-.9-.9-.9-.9.4-.9.9.4.9.9.9Zm-.5,87.57c-1.14,0-2.06.92-2.06,2.06s.92,2.06,2.06,2.06,2.06-.92,2.06-2.06-.92-2.06-2.06-2.06Zm0-4.83c-1.14,0-2.06.92-2.06,2.06s.92,2.06,2.06,2.06,2.06-.92,2.06-2.06-.92-2.06-2.06-2.06Zm.5-87.57c.5,0,.9-.4.9-.9s-.4-.9-.9-.9-.9.4-.9.9.4.9.9.9Zm-.5,97.22c-1.14,0-2.06.92-2.06,2.06s.92,2.06,2.06,2.06,2.06-.92,2.06-2.06-.92-2.06-2.06-2.06Zm.5-102.05c.5,0,.9-.4.9-.9s-.4-.9-.9-.9-.9.4-.9.9.4.9.9.9Zm0-4.83c.5,0,.9-.4.9-.9s-.4-.9-.9-.9-.9.4-.9.9.4.9.9.9Zm-5.32,116.55c-1.12,0-2.03.91-2.03,2.03s.91,2.03,2.03,2.03,2.03-.91,2.03-2.03-.91-2.03-2.03-2.03Zm0-4.83c-1.12,0-2.03.91-2.03,2.03s.91,2.03,2.03,2.03,2.03-.91,2.03-2.03-.91-2.03-2.03-2.03Zm0,9.65c-1.12,0-2.03.91-2.03,2.03s.91,2.03,2.03,2.03,2.03-.91,2.03-2.03-.91-2.03-2.03-2.03Zm0,4.83c-1.12,0-2.03.91-2.03,2.03s.91,2.03,2.03,2.03,2.03-.91,2.03-2.03-.91-2.03-2.03-2.03Zm0-28.96c-1.12,0-2.03.91-2.03,2.03s.91,2.03,2.03,2.03,2.03-.91,2.03-2.03-.91-2.03-2.03-2.03Zm0,38.61c-1.12,0-2.03.91-2.03,2.03s.91,2.03,2.03,2.03,2.03-.91,2.03-2.03-.91-2.03-2.03-2.03Zm0-33.78c-1.12,0-2.03.91-2.03,2.03s.91,2.03,2.03,2.03,2.03-.91,2.03-2.03-.91-2.03-2.03-2.03Zm0,4.83c-1.12,0-2.03.91-2.03,2.03s.91,2.03,2.03,2.03,2.03-.91,2.03-2.03-.91-2.03-2.03-2.03Zm9.65,14.4c-1.17,0-2.11.95-2.11,2.11s.95,2.11,2.11,2.11,2.11-.95,2.11-2.11-.95-2.11-2.11-2.11Zm-4.33-48.91c.5,0,.9-.4.9-.9s-.4-.9-.9-.9-.9.4-.9.9.4.9.9.9Zm0,4.83c.5,0,.9-.4.9-.9s-.4-.9-.9-.9-.9.4-.9.9.4.9.9.9Zm0-9.65c.5,0,.9-.4.9-.9s-.4-.9-.9-.9-.9.4-.9.9.4.9.9.9Zm-5.32,63.47c-1.12,0-2.03.91-2.03,2.03s.91,2.03,2.03,2.03,2.03-.91,2.03-2.03-.91-2.03-2.03-2.03Zm5.32-39.33c.5,0,.9-.4.9-.9s-.4-.9-.9-.9-.9.4-.9.9.4.9.9.9Zm0-4.83c.5,0,.9-.4.9-.9s-.4-.9-.9-.9-.9.4-.9.9.4.9.9.9Zm0-4.83c.5,0,.9-.4.9-.9s-.4-.9-.9-.9-.9.4-.9.9.4.9.9.9Zm0-19.3c.5,0,.9-.4.9-.9s-.4-.9-.9-.9-.9.4-.9.9.4.9.9.9Zm4.83-48.3c.47,0,.86-.38.86-.86s-.38-.86-.86-.86-.86.38-.86.86.38.86.86.86Zm0,4.83c.47,0,.86-.38.86-.86s-.38-.86-.86-.86-.86.38-.86.86.38.86.86.86Zm-5.32,92.44c-1.14,0-2.06.92-2.06,2.06s.92,2.06,2.06,2.06,2.06-.92,2.06-2.06-.92-2.06-2.06-2.06Zm-4.83-19.28c-1.12,0-2.03.91-2.03,2.03s.91,2.03,2.03,2.03,2.03-.91,2.03-2.03-.91-2.03-2.03-2.03Zm10.15-82.81c.47,0,.86-.38.86-.86s-.38-.86-.86-.86-.86.38-.86.86.38.86.86.86Zm0,19.3c.47,0,.86-.38.86-.86s-.38-.86-.86-.86-.86.38-.86.86.38.86.86.86Zm0,9.65c.47,0,.86-.38.86-.86s-.38-.86-.86-.86-.86.38-.86.86.38.86.86.86Zm0-4.83c.47,0,.86-.38.86-.86s-.38-.86-.86-.86-.86.38-.86.86.38.86.86.86Zm-.5,68.25c-1.17,0-2.11.95-2.11,2.11s.95,2.11,2.11,2.11,2.11-.95,2.11-2.11-.95-2.11-2.11-2.11Zm0,9.65c-1.17,0-2.11.95-2.11,2.11s.95,2.11,2.11,2.11,2.11-.95,2.11-2.11-.95-2.11-2.11-2.11Zm0-4.83c-1.17,0-2.11.95-2.11,2.11s.95,2.11,2.11,2.11,2.11-.95,2.11-2.11-.95-2.11-2.11-2.11Zm0,9.65c-1.17,0-2.11.95-2.11,2.11s.95,2.11,2.11,2.11,2.11-.95,2.11-2.11-.95-2.11-2.11-2.11Zm0-19.3c-1.17,0-2.11.95-2.11,2.11s.95,2.11,2.11,2.11,2.11-.95,2.11-2.11-.95-2.11-2.11-2.11Zm0-4.83c-1.17,0-2.11.95-2.11,2.11s.95,2.11,2.11,2.11,2.11-.95,2.11-2.11-.95-2.11-2.11-2.11Zm.5-48.95c.47,0,.86-.38.86-.86s-.38-.86-.86-.86-.86.38-.86.86.38.86.86.86Zm0-38.61c.47,0,.86-.38.86-.86s-.38-.86-.86-.86-.86.38-.86.86.38.86.86.86Zm0-4.83c.47,0,.86-.38.86-.86s-.38-.86-.86-.86-.86.38-.86.86.38.86.86.86Zm-5.32,131.05c-1.14,0-2.06.92-2.06,2.06s.92,2.06,2.06,2.06,2.06-.92,2.06-2.06-.92-2.06-2.06-2.06Zm0,4.83c-1.14,0-2.06.92-2.06,2.06s.92,2.06,2.06,2.06,2.06-.92,2.06-2.06-.92-2.06-2.06-2.06Zm5.32-44.17c.47,0,.86-.38.86-.86s-.38-.86-.86-.86-.86.38-.86.86.38.86.86.86Zm0-4.83c.47,0,.86-.38.86-.86s-.38-.86-.86-.86-.86.38-.86.86.38.86.86.86Zm-5.32,29.7c-1.14,0-2.06.92-2.06,2.06s.92,2.06,2.06,2.06,2.06-.92,2.06-2.06-.92-2.06-2.06-2.06Zm0,4.83c-1.14,0-2.06.92-2.06,2.06s.92,2.06,2.06,2.06,2.06-.92,2.06-2.06-.92-2.06-2.06-2.06Zm0,4.83c-1.14,0-2.06.92-2.06,2.06s.92,2.06,2.06,2.06,2.06-.92,2.06-2.06-.92-2.06-2.06-2.06Zm5.32-63.48c.47,0,.86-.38.86-.86s-.38-.86-.86-.86-.86.38-.86.86.38.86.86.86Zm0-4.83c.47,0,.86-.38.86-.86s-.38-.86-.86-.86-.86.38-.86.86.38.86.86.86Zm0-9.65c.47,0,.86-.38.86-.86s-.38-.86-.86-.86-.86.38-.86.86.38.86.86.86Zm0,4.83c.47,0,.86-.38.86-.86s-.38-.86-.86-.86-.86.38-.86.86.38.86.86.86Zm0,28.96c.47,0,.86-.38.86-.86s-.38-.86-.86-.86-.86.38-.86.86.38.86.86.86Zm0-4.83c.47,0,.86-.38.86-.86s-.38-.86-.86-.86-.86.38-.86.86.38.86.86.86Zm0-4.83c.47,0,.86-.38.86-.86s-.38-.86-.86-.86-.86.38-.86.86.38.86.86.86Zm0-4.83c.47,0,.86-.38.86-.86s-.38-.86-.86-.86-.86.38-.86.86.38.86.86.86Z"/><path class="cls-1" d="m131.69,176.55c-1.54.09-2.79,1.43-2.79,2.99,0,1.56,1.25,2.72,2.79,2.58,1.54-.14,2.79-1.48,2.79-2.99,0-1.51-1.25-2.67-2.79-2.58Zm0-30.42c-1.54-.14-2.79,1.02-2.79,2.58,0,1.56,1.25,2.9,2.79,2.99,1.54.09,2.79-1.07,2.79-2.58,0-1.51-1.25-2.85-2.79-2.99Zm0,60.85c-1.54.31-2.79,1.84-2.79,3.4,0,1.56,1.25,2.54,2.79,2.17,1.54-.36,2.79-1.88,2.79-3.4,0-1.51-1.25-2.49-2.79-2.17Zm-32.72-128.26c.5.98,1.34,1.76,2.29,2.04,1.54.44,2.79-.59,2.79-2.32,0-.85-.3-1.72-.79-2.44-1.44.9-2.87,1.81-4.29,2.72Zm32.72,36.99c-1.54-.36-2.79.61-2.79,2.17,0,1.56,1.25,3.08,2.79,3.4,1.54.31,2.79-.66,2.79-2.17,0-1.51-1.25-3.04-2.79-3.4Zm-30.42,62.56c-1.54.07-2.79,1.56-2.79,3.33s1.25,3.12,2.79,3.01c1.54-.11,2.79-1.61,2.79-3.34,0-1.73-1.25-3.07-2.79-3Zm30.42-92.99c-1.54-.59-2.79.2-2.79,1.77,0,1.56,1.25,3.27,2.79,3.81,1.54.54,2.79-.25,2.79-1.77,0-1.51-1.25-3.22-2.79-3.81Zm44.51-28.55c-1.54-.59-2.79.2-2.79,1.77,0,1.56,1.25,3.27,2.79,3.81,1.54.54,2.79-.25,2.79-1.77,0-1.51-1.25-3.22-2.79-3.81Zm-11.62,171.15c-.46-.63-1.39-.89-2.46-.58-1.54.44-2.79,1.91-2.79,3.26,0,1.35,1.25,2.03,2.79,1.55,1.54-.48,2.79-1.92,2.79-3.22,0-.16-.02-.3-.05-.44-.09-.19-.18-.37-.27-.55Zm-4.77-181.69c.5.92,1.35,1.8,2.31,2.31,1.54.81,2.79.38,2.79-.92,0-.92-.62-2.04-1.53-2.92-1.2.5-2.38,1.02-3.57,1.53Zm-28.8,13.81c.22.17.45.32.68.43,1.54.77,2.79.16,2.79-1.36,0-.27-.05-.54-.12-.83-1.12.58-2.24,1.16-3.35,1.75Zm31.11,193.53c-1.54.63-2.79,2.25-2.79,3.6,0,1.35,1.25,1.87,2.79,1.21,1.54-.67,2.79-2.25,2.79-3.55,0-1.31-1.25-1.88-2.79-1.25Zm0-183.6c-1.54-.67-2.79-.14-2.79,1.21,0,1.35,1.25,2.97,2.79,3.6,1.54.63,2.79.05,2.79-1.25,0-1.31-1.25-2.88-2.79-3.55Zm-30.42,167.48c-1.54.54-2.79,2.24-2.79,3.81,0,1.56,1.25,2.35,2.79,1.77,1.54-.59,2.79-2.29,2.79-3.81,0-1.51-1.25-2.31-2.79-1.77Zm0,30.42c-.24.12-.46.27-.68.43,1.11.59,2.22,1.17,3.35,1.75.07-.28.12-.56.12-.83,0-1.51-1.25-2.12-2.79-1.36Zm-91.27-125.36c-1.54.08-2.79,1.65-2.79,3.49,0,1.84,1.25,3.27,2.79,3.22,1.54-.05,2.79-1.6,2.79-3.47,0-1.87-1.25-3.32-2.79-3.24Zm0,36.61c-1.54-.05-2.79,1.38-2.79,3.22,0,1.83,1.25,3.4,2.79,3.49,1.54.08,2.79-1.37,2.79-3.24,0-1.87-1.25-3.41-2.79-3.47Zm60.85,33.8c-1.54.26-2.79,1.89-2.79,3.66s1.25,2.98,2.79,2.68c1.54-.3,2.79-1.95,2.79-3.68,0-1.73-1.25-2.92-2.79-2.66Zm60.85,66.87c-.96.51-1.81,1.39-2.31,2.31,1.19.51,2.37,1.03,3.57,1.53.9-.88,1.53-2,1.53-2.92,0-1.31-1.25-1.74-2.79-.92Zm30.42-11.44c-1.54.28-2.79,1.54-2.79,2.74,0,1.2,1.25,1.88,2.79,1.58,1.32-.25,2.43-1.13,2.71-2.13-.76-.74-1.52-1.49-2.26-2.24-.15,0-.29.02-.45.04Zm-91.27-20.81c-.95.27-1.79,1.06-2.29,2.04,1.41.91,2.84,1.82,4.29,2.72.49-.72.79-1.59.79-2.44,0-1.73-1.25-2.76-2.79-2.32Zm0-138.48c-1.54-.3-2.79.91-2.79,2.68s1.25,3.41,2.79,3.66c1.54.26,2.79-.93,2.79-2.66,0-1.73-1.25-3.39-2.79-3.68Zm0,34.62c-1.54-.11-2.79,1.24-2.79,3.01s1.25,3.26,2.79,3.33c1.54.07,2.79-1.27,2.79-3,0-1.73-1.25-3.23-2.79-3.34Zm-30.42,35.68c-1.54.03-2.79,1.57-2.79,3.46,0,1.89,1.25,3.4,2.79,3.36,1.54-.04,2.79-1.6,2.79-3.47,0-1.87-1.25-3.37-2.79-3.34Zm0,37.22c-1.54.09-2.79,1.67-2.79,3.56,0,1.89,1.25,3.36,2.79,3.26,1.54-.1,2.79-1.73,2.79-3.6,0-1.87-1.25-3.3-2.79-3.21Zm0-111.65c-1.54-.1-2.79,1.37-2.79,3.26,0,1.89,1.25,3.47,2.79,3.56,1.54.09,2.79-1.34,2.79-3.21,0-1.87-1.25-3.5-2.79-3.6Zm0,37.22c-1.54-.04-2.79,1.47-2.79,3.36,0,1.89,1.25,3.43,2.79,3.46,1.54.02,2.79-1.47,2.79-3.34,0-1.87-1.25-3.43-2.79-3.47Z"/><path class="cls-1" d="m460.9,179.13c0,1.51,1.25,2.85,2.79,2.99,1.54.14,2.79-1.02,2.79-2.58,0-1.56-1.25-2.9-2.79-2.99-1.54-.09-2.79,1.07-2.79,2.58Zm0-30.02c0,1.51,1.25,2.67,2.79,2.58,1.54-.09,2.79-1.43,2.79-2.99,0-1.56-1.25-2.72-2.79-2.58-1.54.14-2.79,1.48-2.79,2.99Zm0,60.03c0,1.51,1.25,3.04,2.79,3.4,1.54.36,2.79-.61,2.79-2.17,0-1.56-1.25-3.09-2.79-3.4-1.54-.31-2.79.66-2.79,2.17Zm31.22-133.16c-.49.72-.79,1.59-.79,2.44,0,1.73,1.25,2.76,2.79,2.32.95-.27,1.79-1.06,2.29-2.04-1.41-.91-2.84-1.82-4.29-2.72Zm-31.22,43.11c0,1.51,1.25,2.49,2.79,2.17,1.54-.31,2.79-1.84,2.79-3.4,0-1.56-1.25-2.54-2.79-2.17-1.54.36-2.79,1.88-2.79,3.4Zm30.42,62.16c0,1.73,1.25,3.23,2.79,3.34,1.54.11,2.79-1.24,2.79-3.01s-1.25-3.26-2.79-3.33c-1.54-.07-2.79,1.27-2.79,3Zm-30.42-92.18c0,1.51,1.25,2.31,2.79,1.77,1.54-.54,2.79-2.24,2.79-3.81,0-1.56-1.25-2.35-2.79-1.77-1.54.59-2.79,2.29-2.79,3.81Zm-44.51-28.55c0,1.51,1.25,2.31,2.79,1.77,1.54-.54,2.79-2.24,2.79-3.81,0-1.56-1.25-2.35-2.79-1.77-1.54.59-2.79,2.29-2.79,3.81Zm14.14,167.9c-.03.14-.05.29-.05.44,0,1.31,1.25,2.74,2.79,3.22,1.54.48,2.79-.2,2.79-1.55,0-1.35-1.25-2.81-2.79-3.26-1.08-.31-2-.04-2.46.58-.09.19-.18.37-.27.55Zm1.47-183.78c-.9.88-1.53,2-1.53,2.92,0,1.31,1.25,1.74,2.79.92.96-.51,1.81-1.39,2.31-2.31-1.19-.51-2.37-1.03-3.57-1.53Zm29.02,13.59c-.07.28-.12.56-.12.83,0,1.51,1.25,2.12,2.79,1.36.24-.12.46-.27.68-.43-1.11-.59-2.22-1.17-3.35-1.75Zm-30.55,196.53c0,1.31,1.25,2.88,2.79,3.55,1.54.67,2.79.14,2.79-1.21,0-1.35-1.25-2.97-2.79-3.6-1.54-.63-2.79-.05-2.79,1.25Zm0-181.3c0,1.31,1.25,1.88,2.79,1.25,1.54-.63,2.79-2.25,2.79-3.6,0-1.35-1.25-1.87-2.79-1.21-1.54.67-2.79,2.24-2.79,3.55Zm30.42,165.69c0,1.51,1.25,3.22,2.79,3.81,1.54.59,2.79-.2,2.79-1.77,0-1.56-1.25-3.27-2.79-3.81-1.54-.54-2.79.25-2.79,1.77Zm0,30.02c0,.27.05.54.12.83,1.12-.58,2.24-1.16,3.35-1.75-.22-.17-.45-.32-.68-.43-1.54-.77-2.79-.16-2.79,1.36Zm91.27-123.48c0,1.87,1.25,3.41,2.79,3.47,1.54.05,2.79-1.38,2.79-3.22,0-1.84-1.25-3.4-2.79-3.49-1.54-.08-2.79,1.37-2.79,3.24Zm0,36.84c0,1.87,1.25,3.32,2.79,3.24,1.54-.08,2.79-1.65,2.79-3.49,0-1.84-1.25-3.27-2.79-3.22-1.54.05-2.79,1.6-2.79,3.47Zm-60.85,32.99c0,1.73,1.25,3.39,2.79,3.68,1.54.3,2.79-.91,2.79-2.68,0-1.77-1.25-3.41-2.79-3.66-1.54-.26-2.79.93-2.79,2.66Zm-60.85,65.14c0,.92.62,2.04,1.53,2.92,1.2-.5,2.38-1.02,3.57-1.53-.5-.92-1.35-1.8-2.31-2.31-1.54-.81-2.79-.38-2.79.92Zm-28.09-12.41c-.75.75-1.5,1.5-2.26,2.24.28,1,1.39,1.88,2.71,2.13,1.54.29,2.79-.38,2.79-1.58,0-1.2-1.25-2.46-2.79-2.74-.15-.03-.3-.04-.45-.04Zm88.93-18.45c0,.85.3,1.72.79,2.44,1.44-.9,2.87-1.81,4.29-2.72-.5-.98-1.34-1.76-2.29-2.04-1.54-.44-2.79.59-2.79,2.32Zm0-137.11c0,1.73,1.25,2.91,2.79,2.66,1.54-.26,2.79-1.89,2.79-3.66,0-1.77-1.25-2.98-2.79-2.68-1.54.3-2.79,1.95-2.79,3.68Zm0,34.28c0,1.73,1.25,3.07,2.79,3,1.54-.07,2.79-1.56,2.79-3.33,0-1.77-1.25-3.12-2.79-3.01-1.54.11-2.79,1.61-2.79,3.34Zm30.42,35.68c0,1.87,1.25,3.43,2.79,3.47,1.54.04,2.79-1.47,2.79-3.36,0-1.89-1.25-3.43-2.79-3.46-1.54-.02-2.79,1.47-2.79,3.34Zm0,37.09c0,1.87,1.25,3.5,2.79,3.6,1.54.1,2.79-1.37,2.79-3.26,0-1.89-1.25-3.47-2.79-3.56-1.54-.09-2.79,1.34-2.79,3.21Zm0-111.26c0,1.88,1.25,3.3,2.79,3.21,1.54-.09,2.79-1.67,2.79-3.56,0-1.89-1.25-3.36-2.79-3.26-1.54.1-2.79,1.73-2.79,3.6Zm0,37.09c0,1.87,1.25,3.37,2.79,3.34,1.54-.03,2.79-1.57,2.79-3.46,0-1.89-1.25-3.4-2.79-3.36-1.54.04-2.79,1.6-2.79,3.47Z"/></g></g></svg>