<?xml version="1.0" encoding="UTF-8"?><svg id="eye" xmlns="http://www.w3.org/2000/svg" viewBox="0 0 594.21 336.23"><defs><style>.cls-1{fill:#222;}</style></defs><g id="eye"><g><path class="cls-1" d="m295.84,318.27c-15.14,0-30.35-1.06-45.62-3.18-73.58-10.23-133.09-42.91-170.06-68.52-16.22-11.24-30.38-22.65-42.2-33.41,82.24,88.57,289.69,223.36,501.19,4.94-40.31,35.32-82.47,61.53-125.91,78.18-38.2,14.64-77.53,22-117.41,22Z"/><path class="cls-1" d="m297.88,321.09c-15.14,0-30.35-1.06-45.62-3.18-73.58-10.23-133.09-42.91-170.06-68.52C38.17,218.87,9.33,187.11,1.17,170.51l-1.17-2.4,1.17-2.4c8.16-16.6,37-48.36,81.04-78.87,36.97-25.61,96.48-58.29,170.06-68.52,55.48-7.71,110.33-1.38,163.03,18.81,61.67,23.64,120.79,66.53,175.69,127.48l3.23,3.45-3.24,3.58c-54.89,60.94-114,103.82-175.68,127.46-38.2,14.64-77.53,22-117.41,22ZM10.88,168.12c7.77,13.85,33.42,43.19,76.86,73.29,36.1,25.01,94.18,56.92,165.86,66.89,53.84,7.49,107.07,1.34,158.21-18.26,59.22-22.7,116.14-63.71,169.24-121.92-53.14-58.24-110.04-99.23-169.24-121.92-51.15-19.6-104.38-25.75-158.21-18.26-71.68,9.97-129.76,41.88-165.86,66.89-43.42,30.09-69.07,59.42-76.86,73.29Z"/><path class="cls-1" d="m296.5,321.1c-84.35,0-152.98-68.63-152.98-152.98S212.15,15.13,296.5,15.13s152.98,68.63,152.98,152.98-68.63,152.98-152.98,152.98Zm0-296.25c-79,0-143.27,64.27-143.27,143.27s64.27,143.27,143.27,143.27,143.27-64.27,143.27-143.27S375.51,24.84,296.5,24.84Z"/><polygon class="cls-1" points="301.36 163.12 301.36 316.11 291.65 316.11 291.65 172.83 148.38 172.83 148.38 163.12 301.36 163.12"/><circle class="cls-1" cx="296.51" cy="168.11" r="45.04"/><path class="cls-1" d="m290.09,17.96c15.14,0,30.35,1.06,45.62,3.18,73.58,10.23,133.09,42.91,170.06,68.52,16.22,11.24,30.38,22.65,42.2,33.41-82.24-88.57-289.69-223.36-501.19-4.94,40.31-35.32,82.47-61.53,125.91-78.18,38.2-14.64,77.53-22,117.41-22Z"/><path class="cls-1" d="m147.32,162.36c-.08,2.03-.13,4.07-.13,6.12,0,.41.01.82.02,1.23l9.86-.12c-3.67-2.38-6.91-4.76-9.74-7.22Zm8.22-2.75c4.18,3.56,8.8,6.8,13.63,9.82l10.02-.12c-16.86-10.42-24.81-18.69-29.16-29.93-.8,4.04-1.43,8.13-1.89,12.28,1.99,2.74,4.42,5.4,7.41,7.95Zm281.73-41.12c-1.08-3.04-2.25-6.03-3.52-8.97-6.99-3.52-14.32-7.63-22.07-12.45-15.46-9.62-30.25-20.22-44.81-31.13-10.92-8.18-42.77-32.55-60.73-46.48-2.69-.17-5.39-.27-8.12-.3,23.46,18.59,75.19,58.8,100.45,76.03,13.39,9.13,26.05,16.97,38.8,23.3Zm5.46,19.48c-.63-3.03-1.35-6.02-2.16-8.97-23.15-11.78-45.98-27.79-66.53-43.41-14.15-10.76-62.63-48.15-85.25-66.24-2.28.12-4.55.29-6.81.51,28.18,22.79,96.28,76.24,120.65,93.35,15.24,10.7,28.38,18.74,40.1,24.76Zm-14.01-38.99c-1.62-3.07-3.33-6.07-5.15-9-17.94-9.82-35.34-22.01-53.33-35.16-4.54-3.32-27.39-20.38-43.55-32.62-3.23-.66-6.49-1.21-9.79-1.66,15.82,12.09,40.43,30.82,51.97,39.34,21.51,15.88,40.66,29.07,59.85,39.1Zm16.74,58.59c-.22-3.05-.53-6.07-.93-9.06-17.68-9.91-34.42-21.25-50.63-33.41-6.6-4.96-87.39-67.9-119.77-94.28-1.96.29-3.9.63-5.83,1,32.49,26.49,108.37,86.38,113.9,90.82,19.67,15.79,42.12,32.31,63.26,44.93Zm-29.62-78.9c-2.93-3.88-6.04-7.62-9.33-11.19-17.12-10.91-37.28-25.37-53.19-37.14-4.4-1.81-8.9-3.42-13.5-4.81,20.63,15.46,51.62,38.09,69.89,49.43,2.08,1.29,4.12,2.52,6.13,3.71Zm-195.31,34.78c25.34,27.59,44.42,43.25,61.88,54.59l11.59-.14c-15.55-9.89-32.89-23.07-55.02-44.82-7.93-7.79-15.81-15.62-23.77-23.39-10.89-10.62-21.53-19.67-31.92-28.56-.95,1.1-1.87,2.22-2.79,3.34,12.14,10.88,25.45,23.11,40.02,38.98Zm-23.18,44.33c4.7,3.63,10.12,7.36,16,11.12l10.06-.12c-4.83-3.1-9.57-6.36-14.16-9.83-28.34-21.38-28.11-40.39-43.28-62.98-1.03,1.84-2.02,3.71-2.96,5.6,2.69,5.44,5.29,12.2,9.48,23,5.18,13.4,13.5,24.43,24.87,33.21Zm-20.74,1.32c4.15,3.17,9.18,6.57,14.82,10.07l9.79-.12c-29.99-18.77-34.5-30.08-40.91-53.39-.48-1.74-.98-3.4-1.5-5-1.6,3.81-3.04,7.7-4.33,11.66,2.64,12.15,6.96,25.17,22.13,36.77Zm23.79-48.01c15.69,20.81,29.17,38.05,58.15,57.25l11.02-.14c-45.1-29.38-53.7-54.1-92.2-89.72-.88,1.16-1.75,2.33-2.59,3.52,8.21,8.12,16.7,17.25,25.62,29.08Zm96.12,202.24c5.22,1.21,10.22,2.45,14.96,3.75,3.18-.32,6.33-.74,9.45-1.25-5.7-1.69-13.75-3.85-24.41-6.33v3.82Zm-60.88-144.71l10.48-.13c-.72-.47-1.44-.93-2.16-1.4-42.56-28.04-43.68-49.49-72.21-80.64-.88,1.33-1.73,2.67-2.57,4.03,4.82,5.8,9.48,12.27,14.02,20.22,13.21,23.13,21.13,37.68,52.44,57.93Zm24.21-46.16c-37.96-33.11-56.62-48.01-69.83-58.63-1.08,1.1-2.14,2.21-3.18,3.34,10.57,8.8,21.73,17.9,33.12,28.04,31.25,27.83,58.6,57.06,105.86,83.34,30.74,17.1,47.38,32.51,66.54,46.24,9.49,6.8,20.03,14,31.01,22.53.5-.8.99-1.61,1.48-2.43-13.02-10.04-29.32-21.46-57.82-44.61-36.72-29.83-52.45-30.07-107.19-77.83Zm36.67,47.02v7.08c21.58,12.17,42.57,20.69,72.58,41.37,17.25,11.89,34.26,22.04,50.98,34.47.5-.74.99-1.48,1.48-2.23-16.55-12.55-35.13-24.48-58.62-41.3-24.88-17.81-43.89-25.38-66.42-39.39Zm39.51-6.68c-14.24-10.31-28.28-20.88-42.11-31.72-56.32-44.17-81.75-63.59-96.09-74.63-1.27,1.12-2.53,2.27-3.77,3.43,10.15,8.05,21.36,16.67,33.69,26.43,31.78,25.14,63.43,53.59,102.44,79.67,33.17,22.18,48.87,38.72,68.07,53.84,8.86,6.97,18.38,14.02,28.35,22.09.5-.88.99-1.76,1.47-2.65-7.38-6.07-14.81-11.88-22.61-18.1-18.14-14.46-40.63-37.49-69.43-58.35Zm-113.88-103.07c-4.99-3.63-9.98-7.26-14.95-10.92-1.51,1.13-2.99,2.29-4.45,3.47,25.93,19.63,66.37,49.3,136.42,104.33,32.78,25.75,49.61,46.01,85.71,75.11,1.72,1.38,3.38,2.74,5,4.08.51-1.01,1.01-2.02,1.5-3.04-1.81-1.54-3.68-3.12-5.62-4.73-50.13-41.63-52.63-58.7-203.59-168.3Zm74.36,124.35v5.93c6.92,3.49,14.43,7.08,22.59,10.8,14.22,6.48,28.09,13.6,41.5,21.62,20.02,11.97,38.65,22.46,56.02,34.83.54-.73,1.08-1.46,1.6-2.2-16.25-11.77-33.16-21.43-51.75-33.4-31.6-20.36-45.07-24.16-69.96-37.58Zm0,12.28v5.17c20.74,9.52,37.99,16.18,53.88,24.68,20.79,11.12,42.22,21.72,62.65,35.68.54-.67,1.08-1.35,1.61-2.03-19.63-13.67-39.88-24.25-58.04-34.51-18.91-10.69-38.58-18.73-60.09-28.99ZM239.04,30.61c-1.56.65-3.1,1.33-4.63,2.03,34.69,26.53,10.68,8.19,89.67,70.87,14.79,11.74,37.19,28.32,97.57,88.74,5.05,5.06,11.43,11.24,18.45,17.44.56-1.96,1.08-3.93,1.56-5.92-11.51-9.98-23.75-22.98-55.07-52.1-23.67-22-32.09-30.88-147.54-121.06Zm206.82,137.81c-2.04-1.34-4.08-2.73-6.15-4.19-33.27-23.47-137.09-107.59-177.94-141.01-1.82.43-3.62.9-5.41,1.4,39.13,31.69,45.36,37.11,63.86,51.57,57.1,44.65,67.94,57,118.75,96.33,2.25,1.74,4.46,3.38,6.62,4.9.17-2.96.27-5.94.27-8.94,0-.02,0-.04,0-.06Zm-149.35,132.91v3.53c13.08,3.04,23.35,5.91,33.2,9.25,2.06-.47,4.1-.98,6.12-1.53-6.6-2.36-14.23-4.88-21.42-6.87-4.32-1.19-10.51-2.69-17.9-4.37Zm83.8-141.84c-14.61-14.06-29.42-27.89-45.27-40.56-33.63-26.91-71.39-57.45-106.1-83.64-1.6.81-3.18,1.66-4.75,2.53,33.03,24.56,65.38,49.99,97.36,75.89,64.23,52.02,73.12,69.02,115.05,106.65.53-1.44,1.05-2.9,1.54-4.36-15.34-13.71-26.21-26.08-57.83-56.51Zm-83.8,47.8v4.57c2.1.91,4.14,1.79,6.12,2.62,12.43,5.24,34.07,12.54,83.76,38.48,8.34,4.36,15.95,8.9,22.86,13.48.59-.68,1.17-1.36,1.74-2.05-20.01-13.33-40.95-23.26-61.67-33.77-17.9-9.08-33.53-14.87-52.81-23.32Zm-34.59-133.47c-14.37-10.91-29.93-22.32-43.75-32.47-1.73,1.07-3.44,2.17-5.13,3.3,25.25,18.43,58.6,42.02,101.15,76.43,66.79,54.02,80.14,74.77,116,105.17,1.02.86,2,1.7,2.98,2.54.52-1.19,1.03-2.38,1.53-3.58-1.32-1.16-2.66-2.35-4.05-3.57-45.77-40.35-51.01-58.44-168.73-147.82Zm49.06,1.72c-20.34-16.24-40.44-32.8-60.77-49.06-1.77.58-3.53,1.18-5.27,1.82,33.69,26.76,92.32,73.36,102.1,81.43,36.34,29.99,75.82,68.33,96.4,85.68.47-2.59.88-5.21,1.22-7.84-12.62-9.7-27.8-23.44-50.54-43.22-50.22-43.69-43.84-37.44-83.14-68.82Zm-14.46,207.06c19.56,4.75,30.65,7.49,52.33,15.65,4.33,1.63,8.42,3.29,12.25,4.93,1.21-.58,2.4-1.17,3.59-1.78-23.14-10.16-46.88-16.65-68.16-21.97v3.18Zm0-13.79c24.25,6.6,39.19,9.94,66.46,21.06,4.33,1.77,8.46,3.61,12.36,5.47.95-.59,1.89-1.19,2.82-1.8-25.58-12.37-53.03-20.02-81.64-28.12v3.39Zm0,3.75v3.11c18.76,4.69,36.87,9.38,60.98,18.88,3.92,1.54,7.64,3.13,11.16,4.72,1.04-.57,2.07-1.16,3.09-1.76-4.68-2.17-9.69-4.32-15.01-6.39-23.57-9.15-41.3-13.71-60.22-18.57Zm0,24.54c21.28,5.11,34.22,8.99,46.01,13.49,1.6-.52,3.19-1.06,4.76-1.62-16.73-6.62-32.18-10.93-50.77-15.33v3.46Zm0-10.7v3.25c17.68,4.16,26.63,6.53,41.06,11.71,5.45,1.96,10.4,3.86,14.83,5.65,1.39-.56,2.77-1.14,4.14-1.75-.15-.06-.31-.13-.46-.19-23.66-9.64-41.21-14.36-59.56-18.67Zm0-43.25v3.7c22.38,7.48,38.28,11.36,67.9,23.49,9.47,3.88,18.66,8.19,27.52,13.03.72-.6,1.44-1.2,2.15-1.82-25.58-14.08-54.23-24.03-81.23-32.89-5.83-1.91-11.22-3.73-16.34-5.52Zm0-4.83c35.81,13.11,70.69,24.51,100.23,40.88.65-.59,1.29-1.19,1.93-1.79-31.1-18.17-65.94-29.14-102.16-42.66v3.57Zm0-8.65c42.1,16.82,76.3,28.84,104.68,45.33.6-.59,1.2-1.19,1.79-1.79-34.23-20.72-74-34.39-106.47-47.05v3.52Zm0,32.09c8.49,2.35,16.69,4.5,28.94,8.27,15.67,4.81,31.15,10.13,46.15,16.75,3.4,1.5,6.65,3.05,9.77,4.61.86-.59,1.71-1.19,2.55-1.8-27.75-14.1-57.55-22.33-87.42-31.21v3.39Zm0-7.27c.58.17,1.16.35,1.75.52,32.63,9.59,62.11,18.55,88.62,32.39.79-.6,1.58-1.21,2.36-1.83-29.37-15.53-61.9-24.9-92.73-34.51v3.43Zm0-37.38v4.23c17.9,7.22,24.08,8.17,73.19,30.56,12.51,5.7,24.39,11.91,35.57,18.92.62-.66,1.25-1.33,1.86-2-8.81-5.65-18.06-10.8-27.73-15.5-45.61-22.16-63.35-28.35-82.9-36.22Z"/><path class="cls-1" d="m217.05,170.22c.22,0,.39-.18.39-.39s-.18-.39-.39-.39-.39.17-.39.39.17.39.39.39Zm0,10.03c.57,0,1.04-.47,1.04-1.04s-.47-1.04-1.04-1.04-1.04.47-1.04,1.04.47,1.04,1.04,1.04Zm0,29.94c1.57,0,2.84-1.27,2.84-2.83s-1.27-2.84-2.84-2.84-2.84,1.27-2.84,2.84,1.27,2.83,2.84,2.83Zm0,19.88c2.18,0,3.95-1.77,3.95-3.95s-1.77-3.96-3.95-3.96-3.95,1.77-3.95,3.96,1.77,3.95,3.95,3.95Zm0,9.93c2.49,0,4.5-2.01,4.5-4.5s-2.02-4.5-4.5-4.5-4.5,2.02-4.5,4.5,2.02,4.5,4.5,4.5Zm-28.15,17.01c-2.26,0-4.26,1.14-5.46,2.87l7.48,10.08c2.67-.86,4.61-3.36,4.61-6.32,0-3.66-2.97-6.63-6.63-6.63Zm18.76-26.6c2.37,0,4.29-1.92,4.29-4.29s-1.92-4.29-4.29-4.29-4.29,1.92-4.29,4.29,1.92,4.29,4.29,4.29Zm0-60.04c.3,0,.55-.24.55-.55s-.24-.55-.55-.55-.55.25-.55.55.24.55.55.55Zm0,10.01c.65,0,1.17-.52,1.17-1.17s-.52-1.17-1.17-1.17-1.17.52-1.17,1.17.52,1.17,1.17,1.17Zm-9.38,30.15c1.75,0,3.17-1.42,3.17-3.17s-1.42-3.17-3.17-3.17-3.17,1.42-3.17,3.17,1.42,3.17,3.17,3.17Zm9.38-20.12c1.01,0,1.82-.81,1.82-1.82s-.81-1.82-1.82-1.82-1.82.82-1.82,1.82.81,1.82,1.82,1.82Zm0,29.99c2.03,0,3.67-1.64,3.67-3.67s-1.64-3.67-3.67-3.67-3.67,1.64-3.67,3.67,1.64,3.67,3.67,3.67Zm0-19.99c1.35,0,2.45-1.09,2.45-2.45s-1.1-2.44-2.45-2.44-2.45,1.09-2.45,2.44,1.09,2.45,2.45,2.45Zm18.76,29.24c1.95,0,3.54-1.58,3.54-3.54s-1.58-3.54-3.54-3.54-3.54,1.58-3.54,3.54,1.58,3.54,3.54,3.54Zm-28.15-59.21c.35,0,.62-.28.62-.62s-.28-.63-.62-.63-.62.28-.62.63.28.62.62.62Zm6.3,83.82c0-3.48-2.82-6.3-6.3-6.3s-6.3,2.82-6.3,6.3,2.82,6.3,6.3,6.3,6.3-2.82,6.3-6.3Zm21.85-14.76c2.21,0,4.01-1.79,4.01-4.01s-1.79-4.01-4.01-4.01-4.01,1.79-4.01,4.01,1.79,4.01,4.01,4.01Zm0,9.69c2.39,0,4.32-1.93,4.32-4.32s-1.93-4.32-4.32-4.32-4.32,1.93-4.32,4.32,1.93,4.32,4.32,4.32Zm9.38-69.47c.29,0,.52-.23.52-.52s-.23-.52-.52-.52-.52.23-.52.52.23.52.52.52Zm0,19.86c.89,0,1.61-.72,1.61-1.61s-.72-1.61-1.61-1.61-1.61.72-1.61,1.61.72,1.61,1.61,1.61Zm0-9.93c.59,0,1.07-.48,1.07-1.07s-.48-1.07-1.07-1.07-1.07.48-1.07,1.07.48,1.07,1.07,1.07Zm-9.38,20.25c1.41,0,2.55-1.14,2.55-2.55s-1.14-2.55-2.55-2.55-2.55,1.14-2.55,2.55,1.14,2.55,2.55,2.55Zm9.38-.42c1.18,0,2.13-.96,2.13-2.13s-.96-2.13-2.13-2.13-2.13.96-2.13,2.13.96,2.13,2.13,2.13Zm-75.06,12.75c-.33,0-.65.05-.96.13l2.98,7.04c1.11-.68,1.86-1.9,1.86-3.29,0-2.14-1.73-3.88-3.88-3.88Zm65.68-32.25c.78,0,1.4-.63,1.4-1.4s-.63-1.41-1.4-1.41-1.4.63-1.4,1.41.63,1.4,1.4,1.4Zm0-9.98c.45,0,.81-.36.81-.81s-.36-.81-.81-.81-.81.36-.81.81.36.81.81.81Zm0,19.94c1.09,0,1.98-.88,1.98-1.98s-.88-1.98-1.98-1.98-1.98.89-1.98,1.98.89,1.98,1.98,1.98Zm-73.89,5.27l1.18,2.79c.06-.21.1-.43.1-.65,0-.93-.52-1.72-1.28-2.14Zm8.22-5.06c1.21,0,2.19-.98,2.19-2.19s-.98-2.18-2.19-2.18-2.19.98-2.19,2.18.98,2.19,2.19,2.19Zm3.36,16.58c0-1.85-1.5-3.36-3.36-3.36s-3.34,1.49-3.35,3.33l1.03,2.44c.6.58,1.42.94,2.32.94,1.85,0,3.36-1.5,3.36-3.36Zm-3.36-36.57c.53,0,.96-.43.96-.96s-.43-.96-.96-.96-.96.43-.96.96.43.96.96.96Zm9.38,40.18c2,0,3.62-1.62,3.62-3.62s-1.62-3.62-3.62-3.62-3.62,1.62-3.62,3.62,1.62,3.62,3.62,3.62Zm1.79,19.58c1.75-.71,3-2.42,3-4.43,0-2.64-2.14-4.79-4.79-4.79s-4.79,2.14-4.79,4.79h0s9.16,12.34,9.16,12.34c.57-.84.91-1.86.91-2.96,0-2.28-1.46-4.21-3.49-4.95Zm-11.17-49.76c.88,0,1.59-.71,1.59-1.59s-.71-1.59-1.59-1.59-1.59.71-1.59,1.59.71,1.59,1.59,1.59Zm-9.38-10.21c.42,0,.75-.34.75-.75s-.34-.75-.75-.75-.76.34-.76.75.34.75.76.75Zm1.9,18.01c0-1.05-.85-1.9-1.9-1.9s-1.9.85-1.9,1.9h0s.57,1.36.57,1.36c.34.33.81.54,1.32.54,1.05,0,1.9-.85,1.9-1.9Zm82.54,100.03c-1.35,0-2.5.85-2.96,2.04l5.13,3.44c.61-.58,1-1.39,1-2.3,0-1.75-1.42-3.17-3.17-3.17Zm-13.73-42.38c.58,1.86,2.3,3.23,4.35,3.23,2.53,0,4.58-2.05,4.58-4.58s-2.05-4.58-4.58-4.58c-2.05,0-3.77,1.36-4.35,3.22-.6-2.23-2.61-3.88-5.03-3.88-2.89,0-5.23,2.34-5.23,5.23,0,2.02,1.15,3.74,2.82,4.62-.75.38-1.39.92-1.89,1.58-1.06-1.7-2.94-2.83-5.09-2.83-3.32,0-6.01,2.69-6.01,6.01,0,1.95.93,3.67,2.37,4.77-1.36,1.08-2.24,2.74-2.24,4.61,0,2.07,1.07,3.88,2.68,4.93-.69.5-1.26,1.15-1.66,1.91l9.05,6.08c.3-.36.57-.76.77-1.19.7,1.33,1.96,2.3,3.49,2.59-.49.1-.95.29-1.37.54l6.8,4.56c.03-.21.06-.42.06-.65,0-2.19-1.55-4.02-3.62-4.46,2.23-.42,3.91-2.31,4.06-4.62.16,2.3,2.05,4.12,4.39,4.12s4.42-1.98,4.42-4.42-1.98-4.42-4.42-4.42-4.23,1.82-4.39,4.12c-.16-2.63-2.32-4.71-4.99-4.71-1.92,0-3.58,1.1-4.42,2.69-.4-.85-1.01-1.58-1.76-2.12,1.61-1.05,2.68-2.86,2.68-4.93,0-1.87-.88-3.53-2.24-4.61.57-.44,1.06-.98,1.45-1.59.98,1.31,2.53,2.18,4.29,2.18,2.96,0,5.36-2.4,5.36-5.36,0-2.09-1.21-3.88-2.95-4.76,1.28-.67,2.24-1.84,2.62-3.26Zm4.35,32.12c-2.24,0-4.06,1.82-4.06,4.06,0,.49.1.95.26,1.38l3.97,2.66c2.16-.09,3.9-1.86,3.9-4.04s-1.82-4.06-4.06-4.06Zm-56.29-117.39c.29,0,.52-.23.52-.52s-.23-.52-.52-.52-.52.23-.52.52.23.52.52.52Zm-18.76,19.54c.72,0,1.3-.58,1.3-1.3s-.58-1.3-1.3-1.3-1.3.58-1.3,1.3.58,1.3,1.3,1.3Zm18.76,40.47c2.34,0,4.24-1.9,4.24-4.24s-1.9-4.24-4.24-4.24-4.24,1.9-4.24,4.24,1.9,4.24,4.24,4.24Zm18.76-29.79c1.44,0,2.6-1.16,2.6-2.6s-1.16-2.6-2.6-2.6-2.6,1.16-2.6,2.6,1.17,2.6,2.6,2.6Zm-5.85,44.31c0,3.23,2.62,5.85,5.85,5.85s5.85-2.62,5.85-5.85c0-2.16-1.17-4.04-2.92-5.06.78-.53,1.4-1.27,1.8-2.14.82,1.75,2.59,2.96,4.65,2.96,2.26,0,4.16-1.47,4.85-3.49.44,1.2,1.34,2.18,2.49,2.71-1.98.81-3.37,2.74-3.37,5.01,0,2.99,2.42,5.41,5.41,5.41s5.41-2.42,5.41-5.41c0-2.27-1.39-4.2-3.37-5.01,1.65-.77,2.8-2.43,2.8-4.37,0-2.67-2.17-4.84-4.84-4.84-2.09,0-3.85,1.33-4.53,3.18-.58-1.69-1.99-2.99-3.76-3.37,1.96-.49,3.41-2.24,3.41-4.35,0-2.48-2.02-4.5-4.5-4.5s-4.5,2.02-4.5,4.5c0,2.11,1.45,3.86,3.41,4.35-1.58.34-2.88,1.41-3.55,2.84-.65-1.4-1.9-2.46-3.43-2.86,1.87-.57,3.24-2.28,3.24-4.34,0-2.52-2.04-4.55-4.55-4.55s-4.55,2.04-4.55,4.55c0,2.06,1.37,3.77,3.24,4.34-2.25.58-3.92,2.61-3.92,5.04,0,1.8.91,3.38,2.29,4.32-1.74,1.01-2.92,2.9-2.92,5.06Zm15.24-54.34c1.08,0,1.95-.87,1.95-1.95s-.87-1.95-1.95-1.95-1.95.87-1.95,1.95.87,1.95,1.95,1.95Zm-18.76,30.05c2.13,0,3.85-1.72,3.85-3.85s-1.72-3.85-3.85-3.85-3.85,1.72-3.85,3.85,1.72,3.85,3.85,3.85Zm9.38-30.02c1.09,0,1.98-.88,1.98-1.98s-.88-1.98-1.98-1.98-1.98.89-1.98,1.98.89,1.98,1.98,1.98Zm0,30.07c2.16,0,3.9-1.75,3.9-3.9s-1.75-3.9-3.9-3.9-3.9,1.75-3.9,3.9,1.75,3.9,3.9,3.9Zm-9.38,1.03c-2.46,0-4.45,1.99-4.45,4.45s1.99,4.45,4.45,4.45,4.45-1.99,4.45-4.45-1.99-4.45-4.45-4.45Zm0-11.14c1.75,0,3.17-1.42,3.17-3.17s-1.42-3.17-3.17-3.17-3.17,1.42-3.17,3.17,1.42,3.17,3.17,3.17Zm0-40.08c.34,0,.62-.28.62-.62s-.28-.63-.62-.63-.62.28-.62.63.28.62.62.62Zm0,10.03c.7,0,1.27-.57,1.27-1.27s-.57-1.27-1.27-1.27-1.27.57-1.27,1.27.57,1.27,1.27,1.27Zm0,10.03c1.06,0,1.92-.86,1.92-1.92s-.86-1.93-1.92-1.93-1.93.86-1.93,1.93.86,1.92,1.93,1.92Zm0,10.03c1.42,0,2.58-1.15,2.58-2.57s-1.15-2.58-2.58-2.58-2.58,1.15-2.58,2.58,1.15,2.57,2.58,2.57Zm9.38,10.06c1.8,0,3.25-1.46,3.25-3.25s-1.46-3.25-3.25-3.25-3.25,1.46-3.25,3.25,1.46,3.25,3.25,3.25Zm84.44,16.35c.46,0,.83-.37.83-.83s-.37-.83-.83-.83-.83.37-.83.83.37.83.83.83Zm-9.38,72.69c-.85,0-1.54.69-1.54,1.54s.69,1.53,1.54,1.53,1.54-.69,1.54-1.53-.69-1.54-1.54-1.54Zm9.38-82.33c.32,0,.57-.26.57-.57s-.26-.57-.57-.57-.57.26-.57.57.26.57.57.57Zm-9.38,72.72c-.98,0-1.77.79-1.77,1.77s.79,1.77,1.77,1.77,1.77-.79,1.77-1.77-.79-1.77-1.77-1.77Zm9.38-27.83c-.81,0-1.46.65-1.46,1.46s.65,1.46,1.46,1.46,1.46-.65,1.46-1.46-.65-1.46-1.46-1.46Zm0,47.74c-.35,0-.62.28-.62.63s.28.62.62.62.62-.28.62-.62-.28-.63-.62-.63Zm0-9.67c-.5,0-.91.41-.91.91s.41.91.91.91.91-.41.91-.91-.41-.91-.91-.91Zm-18.76-20.46c-1.44,0-2.6,1.17-2.6,2.6s1.16,2.6,2.6,2.6,2.6-1.16,2.6-2.6-1.16-2.6-2.6-2.6Zm9.38-71.7c.42,0,.75-.34.75-.75s-.34-.75-.75-.75-.75.34-.75.75.34.75.75.75Zm0,62.84c-1.15,0-2.08.93-2.08,2.08s.93,2.08,2.08,2.08,2.08-.93,2.08-2.08-.93-2.08-2.08-2.08Zm0-53.12c.6,0,1.09-.49,1.09-1.09s-.49-1.09-1.09-1.09-1.09.49-1.09,1.09.49,1.09,1.09,1.09Zm0,43.71c-1.16,0-2.11.94-2.11,2.11s.94,2.11,2.11,2.11,2.11-.94,2.11-2.11-.94-2.11-2.11-2.11Zm0-5.22c1.14,0,2.06-.92,2.06-2.06s-.92-2.06-2.06-2.06-2.06.92-2.06,2.06.92,2.06,2.06,2.06Zm0-58.04c.17,0,.31-.14.31-.31s-.14-.31-.31-.31-.31.14-.31.31.14.31.31.31Zm-28.15,21.08c1.45,0,2.63-1.18,2.63-2.63s-1.18-2.63-2.63-2.63-2.63,1.18-2.63,2.63,1.18,2.63,2.63,2.63Zm46.86,91.19s.02.05.05.05c.03,0,.05-.02.05-.05s-.02-.05-.05-.05-.05.02-.05.05Zm.05-19.31c-.3,0-.55.25-.55.55s.24.55.55.55.55-.24.55-.55-.24-.55-.55-.55Zm9.38-27.73c-.07,0-.13.06-.13.13s.06.13.13.13.13-.06.13-.13-.06-.13-.13-.13Zm0-9.12c.07,0,.13-.06.13-.13s-.06-.13-.13-.13-.13.06-.13.13.06.13.13.13Zm-.02,28.02s.01.03.02.03c.02,0,.03-.01.03-.03s-.01-.03-.03-.03c-.01,0-.02.01-.02.03Zm-9.36-56.03c.14,0,.26-.12.26-.26s-.12-.26-.26-.26-.26.12-.26.26.12.26.26.26Zm0,9.62c.27,0,.49-.22.49-.49s-.22-.49-.49-.49-.49.22-.49.49.22.49.49.49Zm0,64.87c-.17,0-.31.14-.31.31s.14.31.31.31.31-.14.31-.31-.14-.31-.31-.31Zm-9.38-19.75c-.72,0-1.3.58-1.3,1.3s.58,1.3,1.3,1.3,1.3-.58,1.3-1.3-.58-1.3-1.3-1.3Zm0-9.51c-.79,0-1.43.64-1.43,1.43s.64,1.43,1.43,1.43,1.43-.64,1.43-1.43-.64-1.43-1.43-1.43Zm9.38-8.76c-.44,0-.81.36-.81.81s.36.81.81.81.81-.36.81-.81-.36-.81-.81-.81Zm0-7.8c.43,0,.78-.35.78-.78s-.35-.78-.78-.78-.78.35-.78.78.35.78.78.78Zm0,17.2c-.43,0-.78.35-.78.78s.35.78.78.78.78-.35.78-.78-.35-.78-.78-.78Zm-37.53-82.93c.4,0,.73-.33.73-.73s-.33-.73-.73-.73-.73.33-.73.73.33.73.73.73Zm-9.38,79.7c-2.21,0-4.01,1.79-4.01,4.01s1.79,4.01,4.01,4.01,4.01-1.79,4.01-4.01-1.79-4.01-4.01-4.01Zm9.38-40.33c1.42,0,2.58-1.15,2.58-2.58s-1.15-2.58-2.58-2.58-2.58,1.15-2.58,2.58,1.15,2.58,2.58,2.58Zm0-9.77c1.21,0,2.19-.98,2.19-2.19s-.98-2.18-2.19-2.18-2.19.98-2.19,2.18.98,2.19,2.19,2.19Zm0,29.11c1.74,0,3.15-1.41,3.15-3.15s-1.41-3.15-3.15-3.15-3.15,1.41-3.15,3.15,1.41,3.15,3.15,3.15Zm0,9.56c1.84,0,3.33-1.49,3.33-3.33s-1.49-3.33-3.33-3.33-3.33,1.49-3.33,3.33,1.49,3.33,3.33,3.33Zm-9.38-18.66c1.9,0,3.43-1.54,3.43-3.43s-1.54-3.44-3.43-3.44-3.43,1.54-3.43,3.44,1.54,3.43,3.43,3.43Zm0,19.29c2.18,0,3.95-1.77,3.95-3.95s-1.77-3.96-3.95-3.96-3.95,1.77-3.95,3.96,1.77,3.95,3.95,3.95Zm0-9.56c2.08,0,3.77-1.69,3.77-3.77s-1.69-3.77-3.77-3.77-3.77,1.69-3.77,3.77,1.69,3.77,3.77,3.77Zm9.38,11.58c-1.88,0-3.41,1.53-3.41,3.41s1.53,3.41,3.41,3.41,3.41-1.53,3.41-3.41-1.53-3.41-3.41-3.41Zm-9.38,28.02c-1.95,0-3.54,1.58-3.54,3.54s1.58,3.54,3.54,3.54,3.54-1.58,3.54-3.54-1.58-3.54-3.54-3.54Zm0-9.69c-2.13,0-3.85,1.72-3.85,3.85s1.72,3.85,3.85,3.85,3.85-1.72,3.85-3.85-1.72-3.85-3.85-3.85Zm0-18.97c-2.24,0-4.06,1.82-4.06,4.06s1.82,4.06,4.06,4.06,4.06-1.82,4.06-4.06-1.82-4.06-4.06-4.06Zm18.76-21.75c1.29,0,2.34-1.05,2.34-2.34s-1.05-2.34-2.34-2.34-2.34,1.05-2.34,2.34,1.05,2.34,2.34,2.34Zm0,9.62c1.42,0,2.58-1.15,2.58-2.58s-1.15-2.58-2.58-2.58-2.58,1.15-2.58,2.58,1.15,2.58,2.58,2.58Zm0,9.51c1.49,0,2.71-1.21,2.71-2.71s-1.21-2.7-2.71-2.7-2.71,1.21-2.71,2.7,1.21,2.71,2.71,2.71Zm0,42.12c-1.15,0-2.08.93-2.08,2.08s.93,2.08,2.08,2.08,2.08-.93,2.08-2.08-.93-2.08-2.08-2.08Zm0-100.32c.45,0,.81-.36.81-.81s-.36-.81-.81-.81-.81.36-.81.81.36.81.81.81Zm0,90.65c-1.31,0-2.37,1.06-2.37,2.37s1.06,2.37,2.37,2.37,2.37-1.06,2.37-2.37-1.06-2.37-2.37-2.37Zm0-28.54c-1.52,0-2.76,1.24-2.76,2.76s1.23,2.76,2.76,2.76,2.76-1.23,2.76-2.76-1.23-2.76-2.76-2.76Zm-9.38,27.94c-1.64,0-2.97,1.33-2.97,2.97s1.33,2.97,2.97,2.97,2.97-1.33,2.97-2.97-1.33-2.97-2.97-2.97Zm0-9.59c-1.75,0-3.17,1.42-3.17,3.17s1.42,3.17,3.17,3.17,3.17-1.42,3.17-3.17-1.42-3.17-3.17-3.17Zm0,19.31c-1.45,0-2.63,1.18-2.63,2.63s1.18,2.63,2.63,2.63,2.63-1.18,2.63-2.63-1.18-2.63-2.63-2.63Zm0-28.88c-1.85,0-3.36,1.5-3.36,3.36s1.5,3.36,3.36,3.36,3.36-1.5,3.36-3.36-1.5-3.36-3.36-3.36Zm9.38-51.27c.92,0,1.67-.75,1.67-1.67s-.75-1.66-1.67-1.66-1.67.75-1.67,1.66.75,1.67,1.67,1.67Zm-8.63,90.06c-.23-.08-.48-.14-.75-.14l.75.14Z"/><path class="cls-1" d="m131.69,176.55c-1.54.09-2.79,1.43-2.79,2.99,0,1.56,1.25,2.72,2.79,2.58,1.54-.14,2.79-1.48,2.79-2.99,0-1.51-1.25-2.67-2.79-2.58Zm0-30.42c-1.54-.14-2.79,1.02-2.79,2.58,0,1.56,1.25,2.9,2.79,2.99,1.54.09,2.79-1.07,2.79-2.58,0-1.51-1.25-2.85-2.79-2.99Zm0,60.85c-1.54.31-2.79,1.84-2.79,3.4,0,1.56,1.25,2.54,2.79,2.17,1.54-.36,2.79-1.88,2.79-3.4,0-1.51-1.25-2.49-2.79-2.17Zm-32.72-128.26c.5.98,1.34,1.76,2.29,2.04,1.54.44,2.79-.59,2.79-2.32,0-.85-.3-1.72-.79-2.44-1.44.9-2.87,1.81-4.29,2.72Zm32.72,36.99c-1.54-.36-2.79.61-2.79,2.17,0,1.56,1.25,3.08,2.79,3.4,1.54.31,2.79-.66,2.79-2.17,0-1.51-1.25-3.04-2.79-3.4Zm-30.42,62.56c-1.54.07-2.79,1.56-2.79,3.33s1.25,3.12,2.79,3.01c1.54-.11,2.79-1.61,2.79-3.34,0-1.73-1.25-3.07-2.79-3Zm30.42-92.99c-1.54-.59-2.79.2-2.79,1.77,0,1.56,1.25,3.27,2.79,3.81,1.54.54,2.79-.25,2.79-1.77s-1.25-3.22-2.79-3.81Zm44.51-28.55c-1.54-.59-2.79.2-2.79,1.77,0,1.56,1.25,3.27,2.79,3.81,1.54.54,2.79-.25,2.79-1.77,0-1.51-1.25-3.22-2.79-3.81Zm-11.62,171.15c-.46-.63-1.39-.89-2.46-.58-1.54.44-2.79,1.91-2.79,3.26,0,1.35,1.25,2.03,2.79,1.55,1.54-.48,2.79-1.92,2.79-3.22,0-.16-.02-.3-.05-.44-.09-.19-.18-.37-.27-.55Zm-4.77-181.69c.5.92,1.35,1.8,2.31,2.31,1.54.81,2.79.38,2.79-.92,0-.92-.62-2.04-1.53-2.92-1.2.5-2.38,1.02-3.57,1.53Zm-28.8,13.81c.22.17.45.32.68.43,1.54.77,2.79.16,2.79-1.36,0-.27-.05-.54-.12-.83-1.12.58-2.24,1.16-3.35,1.75Zm31.11,193.53c-1.54.63-2.79,2.25-2.79,3.6,0,1.35,1.25,1.87,2.79,1.21,1.54-.67,2.79-2.25,2.79-3.55,0-1.31-1.25-1.88-2.79-1.25Zm0-183.6c-1.54-.67-2.79-.14-2.79,1.21,0,1.35,1.25,2.97,2.79,3.6,1.54.63,2.79.05,2.79-1.25,0-1.31-1.25-2.88-2.79-3.55Zm-30.42,167.48c-1.54.54-2.79,2.24-2.79,3.81,0,1.56,1.25,2.35,2.79,1.77,1.54-.59,2.79-2.29,2.79-3.81,0-1.51-1.25-2.31-2.79-1.77Zm0,30.42c-.24.12-.46.27-.68.43,1.11.59,2.22,1.17,3.35,1.75.07-.28.12-.56.12-.83,0-1.51-1.25-2.12-2.79-1.36Zm-91.27-125.36c-1.54.08-2.79,1.65-2.79,3.49,0,1.84,1.25,3.27,2.79,3.22,1.54-.05,2.79-1.6,2.79-3.47,0-1.87-1.25-3.32-2.79-3.24Zm0,36.61c-1.54-.05-2.79,1.38-2.79,3.22,0,1.83,1.25,3.4,2.79,3.49,1.54.08,2.79-1.37,2.79-3.24,0-1.87-1.25-3.41-2.79-3.47Zm60.85,33.8c-1.54.26-2.79,1.89-2.79,3.66s1.25,2.98,2.79,2.68c1.54-.3,2.79-1.95,2.79-3.68,0-1.73-1.25-2.92-2.79-2.66Zm60.85,66.87c-.96.51-1.81,1.39-2.31,2.31,1.19.51,2.37,1.03,3.57,1.53.9-.88,1.53-2,1.53-2.92,0-1.31-1.25-1.74-2.79-.92Zm30.42-11.44c-1.54.28-2.79,1.54-2.79,2.74,0,1.2,1.25,1.88,2.79,1.58,1.32-.25,2.43-1.13,2.71-2.13-.76-.74-1.52-1.49-2.26-2.24-.15,0-.29.02-.45.04Zm-91.27-20.81c-.95.27-1.79,1.06-2.29,2.04,1.41.91,2.84,1.82,4.29,2.72.49-.72.79-1.59.79-2.44,0-1.73-1.25-2.76-2.79-2.32Zm0-138.48c-1.54-.3-2.79.91-2.79,2.68s1.25,3.41,2.79,3.66c1.54.26,2.79-.93,2.79-2.66,0-1.73-1.25-3.39-2.79-3.68Zm0,34.62c-1.54-.11-2.79,1.24-2.79,3.01s1.25,3.26,2.79,3.33c1.54.07,2.79-1.27,2.79-3,0-1.73-1.25-3.23-2.79-3.34Zm-30.42,35.68c-1.54.03-2.79,1.57-2.79,3.46,0,1.89,1.25,3.4,2.79,3.36,1.54-.04,2.79-1.6,2.79-3.47,0-1.87-1.25-3.37-2.79-3.34Zm0,37.22c-1.54.09-2.79,1.67-2.79,3.56,0,1.89,1.25,3.36,2.79,3.26,1.54-.1,2.79-1.73,2.79-3.6,0-1.87-1.25-3.3-2.79-3.21Zm0-111.65c-1.54-.1-2.79,1.37-2.79,3.26,0,1.89,1.25,3.47,2.79,3.56,1.54.09,2.79-1.34,2.79-3.21,0-1.87-1.25-3.5-2.79-3.6Zm0,37.22c-1.54-.04-2.79,1.47-2.79,3.36,0,1.89,1.25,3.43,2.79,3.46,1.54.02,2.79-1.47,2.79-3.34,0-1.87-1.25-3.43-2.79-3.47Z"/><path class="cls-1" d="m460.9,179.13c0,1.51,1.25,2.85,2.79,2.99,1.54.14,2.79-1.02,2.79-2.58,0-1.56-1.25-2.9-2.79-2.99-1.54-.09-2.79,1.07-2.79,2.58Zm0-30.02c0,1.51,1.25,2.67,2.79,2.58,1.54-.09,2.79-1.43,2.79-2.99,0-1.56-1.25-2.72-2.79-2.58-1.54.14-2.79,1.48-2.79,2.99Zm0,60.03c0,1.51,1.25,3.04,2.79,3.4,1.54.36,2.79-.61,2.79-2.17,0-1.56-1.25-3.09-2.79-3.4-1.54-.31-2.79.66-2.79,2.17Zm31.22-133.16c-.49.72-.79,1.59-.79,2.44,0,1.73,1.25,2.76,2.79,2.32.95-.27,1.79-1.06,2.29-2.04-1.41-.91-2.84-1.82-4.29-2.72Zm-31.22,43.11c0,1.51,1.25,2.49,2.79,2.17,1.54-.31,2.79-1.84,2.79-3.4,0-1.56-1.25-2.54-2.79-2.17-1.54.36-2.79,1.88-2.79,3.4Zm30.42,62.16c0,1.73,1.25,3.23,2.79,3.34,1.54.11,2.79-1.24,2.79-3.01s-1.25-3.26-2.79-3.33c-1.54-.07-2.79,1.27-2.79,3Zm-30.42-92.18c0,1.51,1.25,2.31,2.79,1.77,1.54-.54,2.79-2.24,2.79-3.81,0-1.56-1.25-2.35-2.79-1.77-1.54.59-2.79,2.29-2.79,3.81Zm-44.51-28.55c0,1.51,1.25,2.31,2.79,1.77,1.54-.54,2.79-2.24,2.79-3.81,0-1.56-1.25-2.35-2.79-1.77-1.54.59-2.79,2.29-2.79,3.81Zm14.14,167.9c-.03.14-.05.29-.05.44,0,1.31,1.25,2.74,2.79,3.22,1.54.48,2.79-.2,2.79-1.55,0-1.35-1.25-2.81-2.79-3.26-1.08-.31-2-.04-2.46.58-.09.19-.18.37-.27.55Zm1.47-183.78c-.9.88-1.53,2-1.53,2.92,0,1.31,1.25,1.74,2.79.92.96-.51,1.81-1.39,2.31-2.31-1.19-.51-2.37-1.03-3.57-1.53Zm29.02,13.59c-.07.28-.12.56-.12.83,0,1.51,1.25,2.12,2.79,1.36.24-.12.46-.27.68-.43-1.11-.59-2.22-1.17-3.35-1.75Zm-30.55,196.53c0,1.31,1.25,2.88,2.79,3.55,1.54.67,2.79.14,2.79-1.21,0-1.35-1.25-2.97-2.79-3.6-1.54-.63-2.79-.05-2.79,1.25Zm0-181.3c0,1.31,1.25,1.88,2.79,1.25,1.54-.63,2.79-2.25,2.79-3.6,0-1.35-1.25-1.87-2.79-1.21-1.54.67-2.79,2.24-2.79,3.55Zm30.42,165.69c0,1.51,1.25,3.22,2.79,3.81,1.54.59,2.79-.2,2.79-1.77,0-1.56-1.25-3.27-2.79-3.81-1.54-.54-2.79.25-2.79,1.77Zm0,30.02c0,.27.05.54.12.83,1.12-.58,2.24-1.16,3.35-1.75-.22-.17-.45-.32-.68-.43-1.54-.77-2.79-.16-2.79,1.36Zm91.27-123.48c0,1.87,1.25,3.41,2.79,3.47,1.54.05,2.79-1.38,2.79-3.22,0-1.84-1.25-3.4-2.79-3.49-1.54-.08-2.79,1.37-2.79,3.24Zm0,36.84c0,1.87,1.25,3.32,2.79,3.24,1.54-.08,2.79-1.65,2.79-3.49,0-1.84-1.25-3.27-2.79-3.22-1.54.05-2.79,1.6-2.79,3.47Zm-60.85,32.99c0,1.73,1.25,3.39,2.79,3.68,1.54.3,2.79-.91,2.79-2.68,0-1.77-1.25-3.41-2.79-3.66-1.54-.26-2.79.93-2.79,2.66Zm-60.85,65.14c0,.92.62,2.04,1.53,2.92,1.2-.5,2.38-1.02,3.57-1.53-.5-.92-1.35-1.8-2.31-2.31-1.54-.81-2.79-.38-2.79.92Zm-28.09-12.41c-.75.75-1.5,1.5-2.26,2.24.28,1,1.39,1.88,2.71,2.13,1.54.29,2.79-.38,2.79-1.58,0-1.2-1.25-2.46-2.79-2.74-.15-.03-.3-.04-.45-.04Zm88.93-18.45c0,.85.3,1.72.79,2.44,1.44-.9,2.87-1.81,4.29-2.72-.5-.98-1.34-1.76-2.29-2.04-1.54-.44-2.79.59-2.79,2.32Zm0-137.11c0,1.73,1.25,2.91,2.79,2.66,1.54-.26,2.79-1.89,2.79-3.66,0-1.77-1.25-2.98-2.79-2.68-1.54.3-2.79,1.95-2.79,3.68Zm0,34.28c0,1.73,1.25,3.07,2.79,3,1.54-.07,2.79-1.56,2.79-3.33,0-1.77-1.25-3.12-2.79-3.01-1.54.11-2.79,1.61-2.79,3.34Zm30.42,35.68c0,1.87,1.25,3.43,2.79,3.47,1.54.04,2.79-1.47,2.79-3.36,0-1.89-1.25-3.43-2.79-3.46-1.54-.02-2.79,1.47-2.79,3.34Zm0,37.09c0,1.87,1.25,3.5,2.79,3.6,1.54.1,2.79-1.37,2.79-3.26,0-1.89-1.25-3.47-2.79-3.56-1.54-.09-2.79,1.34-2.79,3.21Zm0-111.26c0,1.88,1.25,3.3,2.79,3.21,1.54-.09,2.79-1.67,2.79-3.56,0-1.89-1.25-3.36-2.79-3.26-1.54.1-2.79,1.73-2.79,3.6Zm0,37.09c0,1.87,1.25,3.37,2.79,3.34,1.54-.03,2.79-1.57,2.79-3.46,0-1.89-1.25-3.4-2.79-3.36-1.54.04-2.79,1.6-2.79,3.47Z"/></g></g></svg>